%TF.GenerationSoftware,Altium Limited,Altium Designer,25.2.1 (25)*%
G04 Layer_Physical_Order=1*
G04 Layer_Color=255*
%FSLAX45Y45*%
%MOMM*%
%TF.SameCoordinates,146DD4CA-7140-4A88-8DEA-86B231E22E38*%
%TF.FilePolarity,Positive*%
%TF.FileFunction,Copper,L1,Top,Signal*%
%TF.Part,Single*%
G01*
G75*
%TA.AperFunction,Conductor*%
%ADD10C,1.00000*%
%TA.AperFunction,ComponentPad*%
%ADD11C,1.20000*%
%ADD12R,1.50000X1.50000*%
%ADD13C,1.50000*%
%ADD14R,1.55000X1.55000*%
%ADD15C,1.55000*%
%ADD16C,1.95000*%
G04:AMPARAMS|DCode=17|XSize=1.95mm|YSize=1.95mm|CornerRadius=0.4875mm|HoleSize=0mm|Usage=FLASHONLY|Rotation=90.000|XOffset=0mm|YOffset=0mm|HoleType=Round|Shape=RoundedRectangle|*
%AMROUNDEDRECTD17*
21,1,1.95000,0.97500,0,0,90.0*
21,1,0.97500,1.95000,0,0,90.0*
1,1,0.97500,0.48750,0.48750*
1,1,0.97500,0.48750,-0.48750*
1,1,0.97500,-0.48750,-0.48750*
1,1,0.97500,-0.48750,0.48750*
%
%ADD17ROUNDEDRECTD17*%
%TA.AperFunction,ViaPad*%
%ADD18C,1.27000*%
D10*
X492006Y878234D02*
X502900Y889128D01*
X492006Y643800D02*
Y878234D01*
X502900Y889128D02*
Y1128728D01*
X860935Y3310450D02*
Y3814219D01*
X1600324Y252980D02*
Y756749D01*
X2157661Y754042D02*
Y1257811D01*
X505688Y1131516D02*
Y1616212D01*
X508475Y1619000D01*
X502900Y1128728D02*
X505688Y1131516D01*
X2041299Y2705041D02*
Y2712845D01*
X1537530Y2705041D02*
X2041299D01*
X656197Y1853137D02*
X656428Y1852906D01*
X656197Y1853137D02*
Y3075709D01*
X655967Y3075940D02*
X656197Y3075709D01*
D11*
X2007948Y3250000D02*
D03*
X1207949D02*
D03*
X789940Y558800D02*
D03*
Y1358800D02*
D03*
X1965000Y1006090D02*
D03*
X1165000D02*
D03*
X3733501Y1821404D02*
D03*
X2933501D02*
D03*
X2807948Y3012366D02*
D03*
X2007948D02*
D03*
X3065169Y2194493D02*
D03*
Y2994493D02*
D03*
X2435000Y1297991D02*
D03*
Y497991D02*
D03*
X2796540Y495300D02*
D03*
Y1295300D02*
D03*
D12*
X1038000Y1619000D02*
D03*
D13*
X1292000D02*
D03*
X1546000D02*
D03*
X1800000D02*
D03*
X2054000D02*
D03*
X2308000D02*
D03*
X2562000D02*
D03*
X1038000Y2381000D02*
D03*
X1292000D02*
D03*
X1546000D02*
D03*
X1800000D02*
D03*
X2054000D02*
D03*
X2308000D02*
D03*
X2562000D02*
D03*
D14*
X300000Y3143000D02*
D03*
D15*
Y2889000D02*
D03*
Y2635000D02*
D03*
Y2381000D02*
D03*
Y2127000D02*
D03*
Y1873000D02*
D03*
Y1619000D02*
D03*
Y1365000D02*
D03*
Y1111000D02*
D03*
Y857000D02*
D03*
D16*
X3645001Y1250000D02*
D03*
Y3250000D02*
D03*
D17*
Y750001D02*
D03*
Y2750001D02*
D03*
D18*
X492006Y643800D02*
D03*
X860935Y3814219D02*
D03*
Y3310450D02*
D03*
X1600324Y756749D02*
D03*
Y252980D02*
D03*
X2157661Y1257811D02*
D03*
Y754042D02*
D03*
X502900Y1128728D02*
D03*
X508475Y1619000D02*
D03*
X1537530Y2705041D02*
D03*
X2041299Y2712845D02*
D03*
X655967Y3075940D02*
D03*
X656428Y1852906D02*
D03*
%TF.MD5,a0b5653006a76357ee8b2887cb052539*%
M02*
