%TF.GenerationSoftware,Altium Limited,Altium Designer,25.2.1 (25)*%
G04 Layer_Color=255*
%FSLAX45Y45*%
%MOMM*%
%TF.SameCoordinates,146DD4CA-7140-4A88-8DEA-86B231E22E38*%
%TF.FilePolarity,Positive*%
%TF.FileFunction,Pads,Top*%
%TF.Part,Single*%
G01*
G75*
%TA.AperFunction,ComponentPad*%
%ADD11C,1.20000*%
%ADD12R,1.50000X1.50000*%
%ADD13C,1.50000*%
%ADD14R,1.55000X1.55000*%
%ADD15C,1.55000*%
%ADD16C,1.95000*%
G04:AMPARAMS|DCode=17|XSize=1.95mm|YSize=1.95mm|CornerRadius=0.4875mm|HoleSize=0mm|Usage=FLASHONLY|Rotation=90.000|XOffset=0mm|YOffset=0mm|HoleType=Round|Shape=RoundedRectangle|*
%AMROUNDEDRECTD17*
21,1,1.95000,0.97500,0,0,90.0*
21,1,0.97500,1.95000,0,0,90.0*
1,1,0.97500,0.48750,0.48750*
1,1,0.97500,0.48750,-0.48750*
1,1,0.97500,-0.48750,-0.48750*
1,1,0.97500,-0.48750,0.48750*
%
%ADD17ROUNDEDRECTD17*%
D11*
X2007948Y3250000D02*
D03*
X1207949D02*
D03*
X789940Y558800D02*
D03*
Y1358800D02*
D03*
X1965000Y1006090D02*
D03*
X1165000D02*
D03*
X3733501Y1821404D02*
D03*
X2933501D02*
D03*
X2807948Y3012366D02*
D03*
X2007948D02*
D03*
X3065169Y2194493D02*
D03*
Y2994493D02*
D03*
X2435000Y1297991D02*
D03*
Y497991D02*
D03*
X2796540Y495300D02*
D03*
Y1295300D02*
D03*
D12*
X1038000Y1619000D02*
D03*
D13*
X1292000D02*
D03*
X1546000D02*
D03*
X1800000D02*
D03*
X2054000D02*
D03*
X2308000D02*
D03*
X2562000D02*
D03*
X1038000Y2381000D02*
D03*
X1292000D02*
D03*
X1546000D02*
D03*
X1800000D02*
D03*
X2054000D02*
D03*
X2308000D02*
D03*
X2562000D02*
D03*
D14*
X300000Y3143000D02*
D03*
D15*
Y2889000D02*
D03*
Y2635000D02*
D03*
Y2381000D02*
D03*
Y2127000D02*
D03*
Y1873000D02*
D03*
Y1619000D02*
D03*
Y1365000D02*
D03*
Y1111000D02*
D03*
Y857000D02*
D03*
D16*
X3645001Y1250000D02*
D03*
Y3250000D02*
D03*
D17*
Y750001D02*
D03*
Y2750001D02*
D03*
%TF.MD5,6c401fc104bd87db7857d8e85cbc51cb*%
M02*
