%TF.GenerationSoftware,Altium Limited,Altium Designer,25.2.1 (25)*%
G04 Layer_Color=2752767*
%FSLAX45Y45*%
%MOMM*%
%TF.SameCoordinates,146DD4CA-7140-4A88-8DEA-86B231E22E38*%
%TF.FilePolarity,Positive*%
%TF.FileFunction,Drawing*%
%TF.Part,Single*%
G01*
G75*
%TA.AperFunction,NonConductor*%
%ADD40C,0.16933*%
%ADD42C,0.12700*%
D40*
X2058748Y3250000D02*
G03*
X2058748Y3250000I-50800J0D01*
G01*
X1258749D02*
G03*
X1258749Y3250000I-50800J0D01*
G01*
X840740Y558800D02*
G03*
X840740Y558800I-50800J0D01*
G01*
Y1358800D02*
G03*
X840740Y1358800I-50800J0D01*
G01*
X2015800Y1006090D02*
G03*
X2015800Y1006090I-50800J0D01*
G01*
X1215800D02*
G03*
X1215800Y1006090I-50800J0D01*
G01*
X3784301Y1821404D02*
G03*
X3784301Y1821404I-50800J0D01*
G01*
X2984301D02*
G03*
X2984301Y1821404I-50800J0D01*
G01*
X2858748Y3012366D02*
G03*
X2858748Y3012366I-50800J0D01*
G01*
X2058748D02*
G03*
X2058748Y3012366I-50800J0D01*
G01*
X3115969Y2194493D02*
G03*
X3115969Y2194493I-50800J0D01*
G01*
Y2994493D02*
G03*
X3115969Y2994493I-50800J0D01*
G01*
X2485800Y1297991D02*
G03*
X2485800Y1297991I-50800J0D01*
G01*
Y497991D02*
G03*
X2485800Y497991I-50800J0D01*
G01*
X2847340Y495300D02*
G03*
X2847340Y495300I-50800J0D01*
G01*
Y1295300D02*
G03*
X2847340Y1295300I-50800J0D01*
G01*
D42*
X1038000Y1568200D02*
X1063400Y1593600D01*
X1088800D01*
X1063400Y1619000D01*
X1088800Y1644400D01*
X1063400D01*
X1038000Y1669800D01*
X1012600Y1644400D01*
X987200D01*
X1012600Y1619000D01*
X987200Y1593600D01*
X1012600D01*
X1038000Y1568200D01*
X1292000D02*
X1317400Y1593600D01*
X1342800D01*
X1317400Y1619000D01*
X1342800Y1644400D01*
X1317400D01*
X1292000Y1669800D01*
X1266600Y1644400D01*
X1241200D01*
X1266600Y1619000D01*
X1241200Y1593600D01*
X1266600D01*
X1292000Y1568200D01*
X1546000D02*
X1571400Y1593600D01*
X1596800D01*
X1571400Y1619000D01*
X1596800Y1644400D01*
X1571400D01*
X1546000Y1669800D01*
X1520600Y1644400D01*
X1495200D01*
X1520600Y1619000D01*
X1495200Y1593600D01*
X1520600D01*
X1546000Y1568200D01*
X1800000D02*
X1825400Y1593600D01*
X1850800D01*
X1825400Y1619000D01*
X1850800Y1644400D01*
X1825400D01*
X1800000Y1669800D01*
X1774600Y1644400D01*
X1749200D01*
X1774600Y1619000D01*
X1749200Y1593600D01*
X1774600D01*
X1800000Y1568200D01*
X2054000D02*
X2079400Y1593600D01*
X2104800D01*
X2079400Y1619000D01*
X2104800Y1644400D01*
X2079400D01*
X2054000Y1669800D01*
X2028600Y1644400D01*
X2003200D01*
X2028600Y1619000D01*
X2003200Y1593600D01*
X2028600D01*
X2054000Y1568200D01*
X2308000D02*
X2333400Y1593600D01*
X2358800D01*
X2333400Y1619000D01*
X2358800Y1644400D01*
X2333400D01*
X2308000Y1669800D01*
X2282600Y1644400D01*
X2257200D01*
X2282600Y1619000D01*
X2257200Y1593600D01*
X2282600D01*
X2308000Y1568200D01*
X2562000D02*
X2587400Y1593600D01*
X2612800D01*
X2587400Y1619000D01*
X2612800Y1644400D01*
X2587400D01*
X2562000Y1669800D01*
X2536600Y1644400D01*
X2511200D01*
X2536600Y1619000D01*
X2511200Y1593600D01*
X2536600D01*
X2562000Y1568200D01*
X1038000Y2330200D02*
X1063400Y2355600D01*
X1088800D01*
X1063400Y2381000D01*
X1088800Y2406400D01*
X1063400D01*
X1038000Y2431800D01*
X1012600Y2406400D01*
X987200D01*
X1012600Y2381000D01*
X987200Y2355600D01*
X1012600D01*
X1038000Y2330200D01*
X1292000D02*
X1317400Y2355600D01*
X1342800D01*
X1317400Y2381000D01*
X1342800Y2406400D01*
X1317400D01*
X1292000Y2431800D01*
X1266600Y2406400D01*
X1241200D01*
X1266600Y2381000D01*
X1241200Y2355600D01*
X1266600D01*
X1292000Y2330200D01*
X1546000D02*
X1571400Y2355600D01*
X1596800D01*
X1571400Y2381000D01*
X1596800Y2406400D01*
X1571400D01*
X1546000Y2431800D01*
X1520600Y2406400D01*
X1495200D01*
X1520600Y2381000D01*
X1495200Y2355600D01*
X1520600D01*
X1546000Y2330200D01*
X1800000D02*
X1825400Y2355600D01*
X1850800D01*
X1825400Y2381000D01*
X1850800Y2406400D01*
X1825400D01*
X1800000Y2431800D01*
X1774600Y2406400D01*
X1749200D01*
X1774600Y2381000D01*
X1749200Y2355600D01*
X1774600D01*
X1800000Y2330200D01*
X2054000D02*
X2079400Y2355600D01*
X2104800D01*
X2079400Y2381000D01*
X2104800Y2406400D01*
X2079400D01*
X2054000Y2431800D01*
X2028600Y2406400D01*
X2003200D01*
X2028600Y2381000D01*
X2003200Y2355600D01*
X2028600D01*
X2054000Y2330200D01*
X2308000D02*
X2333400Y2355600D01*
X2358800D01*
X2333400Y2381000D01*
X2358800Y2406400D01*
X2333400D01*
X2308000Y2431800D01*
X2282600Y2406400D01*
X2257200D01*
X2282600Y2381000D01*
X2257200Y2355600D01*
X2282600D01*
X2308000Y2330200D01*
X2562000D02*
X2587400Y2355600D01*
X2612800D01*
X2587400Y2381000D01*
X2612800Y2406400D01*
X2587400D01*
X2562000Y2431800D01*
X2536600Y2406400D01*
X2511200D01*
X2536600Y2381000D01*
X2511200Y2355600D01*
X2536600D01*
X2562000Y2330200D01*
X300000Y3092200D02*
X249200Y3193800D01*
X350800D01*
X300000Y3092200D01*
Y2838200D02*
X249200Y2939800D01*
X350800D01*
X300000Y2838200D01*
Y2584200D02*
X249200Y2685800D01*
X350800D01*
X300000Y2584200D01*
Y2330200D02*
X249200Y2431800D01*
X350800D01*
X300000Y2330200D01*
Y2076200D02*
X249200Y2177800D01*
X350800D01*
X300000Y2076200D01*
Y1822200D02*
X249200Y1923800D01*
X350800D01*
X300000Y1822200D01*
Y1568200D02*
X249200Y1669800D01*
X350800D01*
X300000Y1568200D01*
Y1314200D02*
X249200Y1415800D01*
X350800D01*
X300000Y1314200D01*
Y1060200D02*
X249200Y1161800D01*
X350800D01*
X300000Y1060200D01*
Y806200D02*
X249200Y907800D01*
X350800D01*
X300000Y806200D01*
X3594201Y1199200D02*
Y1300800D01*
X3695801D01*
Y1199200D01*
X3594201D01*
Y699201D02*
Y800801D01*
X3695801D01*
Y699201D01*
X3594201D01*
Y3199200D02*
Y3300800D01*
X3695801D01*
Y3199200D01*
X3594201D01*
Y2699201D02*
Y2800801D01*
X3695801D01*
Y2699201D01*
X3594201D01*
X441206Y593000D02*
X466606Y643800D01*
X441206Y694600D01*
X492006Y669200D01*
X542806Y694600D01*
X517406Y643800D01*
X542806Y593000D01*
X492006Y618400D01*
X441206Y593000D01*
X810135Y3763419D02*
X835535Y3814219D01*
X810135Y3865019D01*
X860935Y3839619D01*
X911735Y3865019D01*
X886335Y3814219D01*
X911735Y3763419D01*
X860935Y3788819D01*
X810135Y3763419D01*
Y3259650D02*
X835535Y3310450D01*
X810135Y3361250D01*
X860935Y3335850D01*
X911735Y3361250D01*
X886335Y3310450D01*
X911735Y3259650D01*
X860935Y3285050D01*
X810135Y3259650D01*
X1549524Y705949D02*
X1574924Y756749D01*
X1549524Y807549D01*
X1600324Y782149D01*
X1651124Y807549D01*
X1625724Y756749D01*
X1651124Y705949D01*
X1600324Y731349D01*
X1549524Y705949D01*
Y202180D02*
X1574924Y252980D01*
X1549524Y303780D01*
X1600324Y278380D01*
X1651124Y303780D01*
X1625724Y252980D01*
X1651124Y202180D01*
X1600324Y227580D01*
X1549524Y202180D01*
X2106861Y1207011D02*
X2132261Y1257811D01*
X2106861Y1308611D01*
X2157661Y1283211D01*
X2208461Y1308611D01*
X2183061Y1257811D01*
X2208461Y1207011D01*
X2157661Y1232411D01*
X2106861Y1207011D01*
Y703242D02*
X2132261Y754042D01*
X2106861Y804842D01*
X2157661Y779442D01*
X2208461Y804842D01*
X2183061Y754042D01*
X2208461Y703242D01*
X2157661Y728642D01*
X2106861Y703242D01*
X452100Y1077928D02*
X477500Y1128728D01*
X452100Y1179528D01*
X502900Y1154128D01*
X553700Y1179528D01*
X528300Y1128728D01*
X553700Y1077928D01*
X502900Y1103328D01*
X452100Y1077928D01*
X457675Y1568200D02*
X483075Y1619000D01*
X457675Y1669800D01*
X508475Y1644400D01*
X559275Y1669800D01*
X533875Y1619000D01*
X559275Y1568200D01*
X508475Y1593600D01*
X457675Y1568200D01*
X1486730Y2654241D02*
X1512130Y2705041D01*
X1486730Y2755841D01*
X1537530Y2730441D01*
X1588330Y2755841D01*
X1562930Y2705041D01*
X1588330Y2654241D01*
X1537530Y2679641D01*
X1486730Y2654241D01*
X1990499Y2662045D02*
X2015899Y2712845D01*
X1990499Y2763645D01*
X2041299Y2738245D01*
X2092099Y2763645D01*
X2066699Y2712845D01*
X2092099Y2662045D01*
X2041299Y2687445D01*
X1990499Y2662045D01*
X605167Y3025140D02*
X630567Y3075940D01*
X605167Y3126740D01*
X655967Y3101340D01*
X706767Y3126740D01*
X681367Y3075940D01*
X706767Y3025140D01*
X655967Y3050540D01*
X605167Y3025140D01*
X605628Y1802106D02*
X631028Y1852906D01*
X605628Y1903706D01*
X656428Y1878306D01*
X707228Y1903706D01*
X681828Y1852906D01*
X707228Y1802106D01*
X656428Y1827506D01*
X605628Y1802106D01*
%TF.MD5,48e49890d1fbe6b23b5bbfcbe0c54fc9*%
M02*
