%TF.GenerationSoftware,Altium Limited,Altium Designer,25.2.1 (25)*%
G04 Layer_Color=16711935*
%FSLAX45Y45*%
%MOMM*%
%TF.SameCoordinates,146DD4CA-7140-4A88-8DEA-86B231E22E38*%
%TF.FilePolarity,Positive*%
%TF.FileFunction,Other,Top_Assembly*%
%TF.Part,Single*%
G01*
G75*
%TA.AperFunction,NonConductor*%
%ADD21C,0.20000*%
%ADD31C,0.10000*%
G36*
X-206003Y1992327D02*
X-206096D01*
X-206281D01*
X-206651D01*
X-207205Y1992235D01*
X-207760Y1992143D01*
X-208407D01*
X-209979Y1991865D01*
X-211643Y1991588D01*
X-213307Y1991033D01*
X-214787Y1990478D01*
X-215434Y1990109D01*
X-215989Y1989646D01*
X-216081Y1989554D01*
X-216358Y1989184D01*
X-216821Y1988629D01*
X-217283Y1987890D01*
X-217838Y1986873D01*
X-218208Y1985763D01*
X-218577Y1984376D01*
X-218670Y1982897D01*
Y1982342D01*
X-218577Y1981788D01*
X-218485Y1980955D01*
X-218300Y1980123D01*
X-218115Y1979199D01*
X-217745Y1978274D01*
X-217283Y1977350D01*
X-217191Y1977257D01*
X-217006Y1976980D01*
X-216636Y1976610D01*
X-216266Y1976055D01*
X-215619Y1975593D01*
X-214972Y1975038D01*
X-214232Y1974576D01*
X-213307Y1974206D01*
X-213215D01*
X-212845Y1974021D01*
X-212198Y1973929D01*
X-211366Y1973744D01*
X-210256Y1973559D01*
X-208870Y1973466D01*
X-207205Y1973282D01*
X-205264D01*
X-161162D01*
Y1964776D01*
X-204801D01*
X-204894D01*
X-205171D01*
X-205541D01*
X-206096D01*
X-206836Y1964868D01*
X-207575D01*
X-209332Y1965053D01*
X-211366Y1965238D01*
X-213492Y1965608D01*
X-215434Y1966162D01*
X-217283Y1966810D01*
X-217375D01*
X-217468Y1966902D01*
X-218023Y1967179D01*
X-218762Y1967642D01*
X-219779Y1968289D01*
X-220796Y1969213D01*
X-221906Y1970231D01*
X-223015Y1971525D01*
X-223940Y1973004D01*
X-224032Y1973189D01*
X-224310Y1973744D01*
X-224680Y1974576D01*
X-225049Y1975778D01*
X-225512Y1977257D01*
X-225881Y1978921D01*
X-226159Y1980770D01*
X-226251Y1982805D01*
Y1983637D01*
X-226159Y1984191D01*
X-226066Y1984931D01*
X-225974Y1985671D01*
X-225604Y1987612D01*
X-225049Y1989646D01*
X-224217Y1991773D01*
X-223662Y1992882D01*
X-223015Y1993899D01*
X-222276Y1994824D01*
X-221444Y1995748D01*
X-221351Y1995841D01*
X-221259Y1995933D01*
X-220889Y1996118D01*
X-220519Y1996396D01*
X-220057Y1996765D01*
X-219410Y1997135D01*
X-218670Y1997505D01*
X-217838Y1997967D01*
X-216913Y1998337D01*
X-215804Y1998707D01*
X-214694Y1999077D01*
X-213400Y1999447D01*
X-212013Y1999632D01*
X-210441Y1999909D01*
X-208870Y2000001D01*
X-207113D01*
X-206003Y1992327D01*
D02*
G37*
G36*
X-176972Y1948041D02*
X-176787Y1947856D01*
X-176695Y1947486D01*
X-176417Y1947024D01*
X-176140Y1946469D01*
X-175770Y1945822D01*
X-174846Y1944250D01*
X-173829Y1942401D01*
X-172534Y1940552D01*
X-171055Y1938611D01*
X-169483Y1936669D01*
X-169391Y1936577D01*
X-169298Y1936484D01*
X-169021Y1936207D01*
X-168744Y1935837D01*
X-167819Y1935005D01*
X-166710Y1933895D01*
X-165415Y1932786D01*
X-163936Y1931584D01*
X-162457Y1930567D01*
X-160885Y1929642D01*
Y1924557D01*
X-225142D01*
Y1932416D01*
X-175123D01*
X-175216Y1932508D01*
X-175585Y1932971D01*
X-176140Y1933525D01*
X-176787Y1934450D01*
X-177619Y1935467D01*
X-178544Y1936761D01*
X-179561Y1938241D01*
X-180578Y1939905D01*
Y1939997D01*
X-180670Y1940090D01*
X-181040Y1940645D01*
X-181503Y1941569D01*
X-182057Y1942679D01*
X-182704Y1943973D01*
X-183352Y1945360D01*
X-183999Y1946747D01*
X-184554Y1948134D01*
X-176972D01*
Y1948041D01*
D02*
G37*
D21*
X387500Y710000D02*
Y3290000D01*
X-840000Y710000D02*
X387500D01*
X-840000D02*
Y3290000D01*
X387500D01*
D31*
X955000Y1760000D02*
G03*
X955000Y1760000I-50000J0D01*
G01*
X815000Y1670000D02*
X2785000D01*
X815000Y2330000D02*
X2785000D01*
X815000Y1670000D02*
Y2330000D01*
X2785000Y1670000D02*
Y2330000D01*
%TF.MD5,5f85c950541a7f63fdc9ba7b08dd634b*%
M02*
