%TF.GenerationSoftware,Altium Limited,Altium Designer,25.2.1 (25)*%
G04 Layer_Physical_Order=2*
G04 Layer_Color=16711680*
%FSLAX45Y45*%
%MOMM*%
%TF.SameCoordinates,146DD4CA-7140-4A88-8DEA-86B231E22E38*%
%TF.FilePolarity,Positive*%
%TF.FileFunction,Copper,L2,Bot,Signal*%
%TF.Part,Single*%
G01*
G75*
%TA.AperFunction,Conductor*%
%ADD10C,1.00000*%
%TA.AperFunction,ComponentPad*%
%ADD11C,1.20000*%
%ADD12R,1.50000X1.50000*%
%ADD13C,1.50000*%
%ADD14R,1.55000X1.55000*%
%ADD15C,1.55000*%
%ADD16C,1.95000*%
G04:AMPARAMS|DCode=17|XSize=1.95mm|YSize=1.95mm|CornerRadius=0.4875mm|HoleSize=0mm|Usage=FLASHONLY|Rotation=90.000|XOffset=0mm|YOffset=0mm|HoleType=Round|Shape=RoundedRectangle|*
%AMROUNDEDRECTD17*
21,1,1.95000,0.97500,0,0,90.0*
21,1,0.97500,1.95000,0,0,90.0*
1,1,0.97500,0.48750,0.48750*
1,1,0.97500,0.48750,-0.48750*
1,1,0.97500,-0.48750,-0.48750*
1,1,0.97500,-0.48750,0.48750*
%
%ADD17ROUNDEDRECTD17*%
%TA.AperFunction,ViaPad*%
%ADD18C,1.27000*%
%TA.AperFunction,NonConductor*%
%ADD19C,0.25400*%
%ADD20C,0.80000*%
G36*
X3999999Y-1D02*
X-1D01*
Y3999999D01*
X3999999D01*
Y-1D01*
D02*
G37*
%LPC*%
G36*
X276843Y3860751D02*
X124460D01*
Y3606800D01*
X276843D01*
Y3860751D01*
D02*
G37*
G36*
X2835400Y3858202D02*
X2174746D01*
Y3347500D01*
X2835400D01*
Y3858202D01*
D02*
G37*
G36*
X2019192Y3335399D02*
X1996705D01*
X1974985Y3329580D01*
X1955512Y3318337D01*
X1939612Y3302436D01*
X1928369Y3282963D01*
X1922549Y3261243D01*
Y3238757D01*
X1928369Y3217036D01*
X1931898Y3210923D01*
Y3051442D01*
X1928369Y3045329D01*
X1922549Y3023609D01*
Y3001123D01*
X1928369Y2979403D01*
X1939612Y2959929D01*
X1955512Y2944029D01*
X1974985Y2932786D01*
X1996705Y2926966D01*
X2019192D01*
X2040912Y2932786D01*
X2060385Y2944029D01*
X2076285Y2959929D01*
X2087528Y2979403D01*
X2093348Y3001123D01*
Y3023609D01*
X2087528Y3045329D01*
X2083999Y3051442D01*
Y3210923D01*
X2087528Y3217036D01*
X2093348Y3238757D01*
Y3261243D01*
X2087528Y3282963D01*
X2076285Y3302436D01*
X2060385Y3318337D01*
X2040912Y3329580D01*
X2019192Y3335399D01*
D02*
G37*
G36*
X1301541Y3636070D02*
X617019D01*
X597336Y3633479D01*
X586591Y3629028D01*
X578994Y3625881D01*
X563243Y3613795D01*
X273724Y3324276D01*
X261638Y3308525D01*
X254040Y3290183D01*
X251449Y3270500D01*
Y3245900D01*
X197100D01*
Y3063880D01*
X197100Y3040100D01*
X210684Y2940100D01*
X204112Y2928718D01*
X197100Y2902547D01*
Y2875453D01*
X204112Y2849282D01*
X217659Y2825818D01*
X223987Y2819490D01*
X224205Y2818960D01*
X231275Y2762000D01*
X224205Y2705041D01*
X223987Y2704510D01*
X217659Y2698182D01*
X204112Y2674718D01*
X197100Y2648547D01*
Y2647699D01*
X299999D01*
X402900D01*
Y2648547D01*
X395887Y2674718D01*
X382340Y2698182D01*
X376013Y2704510D01*
X375795Y2705041D01*
X373579Y2722892D01*
X436396Y2812949D01*
X453981D01*
X473665Y2815541D01*
X492006Y2823138D01*
X507757Y2835224D01*
X659573Y2987040D01*
X667670D01*
X690281Y2993098D01*
X710553Y3004802D01*
X727104Y3021354D01*
X738808Y3041626D01*
X744867Y3064236D01*
Y3087644D01*
X738808Y3110254D01*
X727104Y3130526D01*
X710553Y3147078D01*
X690281Y3158782D01*
X667670Y3164840D01*
X644263D01*
X621653Y3158782D01*
X601381Y3147078D01*
X584829Y3130526D01*
X578891Y3120242D01*
X573645Y3116216D01*
X502900Y3045471D01*
X402900Y3086892D01*
Y3165559D01*
X403550Y3170500D01*
Y3238999D01*
X648520Y3483969D01*
X1270040D01*
X1540757Y3213252D01*
Y3004857D01*
X1543348Y2985174D01*
X1550945Y2966832D01*
X1563031Y2951081D01*
X1723949Y2790163D01*
Y2510401D01*
X1633662Y2450133D01*
X1621305Y2451208D01*
X1615712Y2453275D01*
X1607647Y2461340D01*
X1584753Y2474558D01*
X1559218Y2481400D01*
X1558699D01*
Y2381001D01*
X1533299D01*
Y2481400D01*
X1532782D01*
X1507247Y2474558D01*
X1484353Y2461340D01*
X1476288Y2453275D01*
X1470695Y2451208D01*
X1419000Y2446709D01*
X1367305Y2451208D01*
X1361712Y2453275D01*
X1353647Y2461340D01*
X1330753Y2474558D01*
X1305218Y2481400D01*
X1278782D01*
X1253247Y2474558D01*
X1230353Y2461340D01*
X1222288Y2453275D01*
X1216695Y2451208D01*
X1165000Y2446709D01*
X1113305Y2451208D01*
X1107712Y2453275D01*
X1099647Y2461340D01*
X1076753Y2474558D01*
X1051218Y2481400D01*
X1024782D01*
X999247Y2474558D01*
X976353Y2461340D01*
X972064Y2457051D01*
X894243D01*
X874560Y2454459D01*
X856218Y2446862D01*
X840467Y2434776D01*
X498768Y2093076D01*
X468262Y2099560D01*
X415362Y2131181D01*
X387486Y2234280D01*
X441616Y2312745D01*
X509792D01*
X529475Y2315336D01*
X547817Y2322934D01*
X563568Y2335020D01*
X1261724Y3033177D01*
X1273811Y3048927D01*
X1281408Y3067269D01*
X1283999Y3086952D01*
Y3210923D01*
X1287529Y3217036D01*
X1293348Y3238757D01*
Y3261243D01*
X1287529Y3282963D01*
X1276285Y3302436D01*
X1260385Y3318337D01*
X1240912Y3329580D01*
X1219192Y3335399D01*
X1196706D01*
X1174985Y3329580D01*
X1155512Y3318337D01*
X1139612Y3302436D01*
X1128369Y3282963D01*
X1122549Y3261243D01*
Y3238757D01*
X1128369Y3217036D01*
X1131898Y3210923D01*
Y3118454D01*
X501514Y2488070D01*
X444371Y2493805D01*
X425028Y2518132D01*
X395887Y2595282D01*
X402900Y2621453D01*
Y2622299D01*
X299999D01*
X197100D01*
Y2621453D01*
X204112Y2595282D01*
X217659Y2571818D01*
X223987Y2565490D01*
X224205Y2564960D01*
X231275Y2508000D01*
X224205Y2451041D01*
X223987Y2450510D01*
X217659Y2444182D01*
X204112Y2420718D01*
X197100Y2394547D01*
Y2367453D01*
X204112Y2341282D01*
X217659Y2317818D01*
X223987Y2311490D01*
X224205Y2310960D01*
X231275Y2254000D01*
X224205Y2197041D01*
X223987Y2196510D01*
X217659Y2190182D01*
X204112Y2166718D01*
X197100Y2140547D01*
Y2139699D01*
X299999D01*
Y2114299D01*
X197100D01*
Y2113453D01*
X204112Y2087282D01*
X217659Y2063818D01*
X223987Y2057490D01*
X224205Y2056960D01*
X231275Y2000000D01*
X224205Y1943041D01*
X223987Y1942510D01*
X217659Y1936182D01*
X204112Y1912718D01*
X197100Y1886547D01*
Y1859453D01*
X204112Y1833282D01*
X217659Y1809818D01*
X223987Y1803490D01*
X224205Y1802960D01*
X231275Y1746000D01*
X224205Y1689041D01*
X223987Y1688510D01*
X217659Y1682182D01*
X204112Y1658718D01*
X197100Y1632547D01*
Y1631699D01*
X299999D01*
X402900D01*
Y1632547D01*
X395887Y1658718D01*
X382340Y1682182D01*
X376013Y1688510D01*
X375795Y1689041D01*
X373156Y1710306D01*
X396767Y1807473D01*
X416450Y1810064D01*
X434792Y1817662D01*
X450543Y1829748D01*
X467528Y1846733D01*
X504603Y1844682D01*
X572489Y1819007D01*
X576230Y1814013D01*
X585290Y1798320D01*
X601842Y1781768D01*
X622114Y1770064D01*
X644724Y1764006D01*
X668132D01*
X690742Y1770064D01*
X702504Y1776855D01*
X861399D01*
X937600Y1719400D01*
X937600Y1676855D01*
Y1518600D01*
X937600D01*
X909128Y1440654D01*
X858277Y1411237D01*
X842377Y1427137D01*
X822903Y1438380D01*
X801183Y1444200D01*
X778697D01*
X766944Y1441051D01*
X436396D01*
X373579Y1531108D01*
X375795Y1548960D01*
X376013Y1549490D01*
X382340Y1555818D01*
X395887Y1579282D01*
X402900Y1605453D01*
Y1606299D01*
X299999D01*
X197100D01*
Y1605453D01*
X204112Y1579282D01*
X217659Y1555818D01*
X223987Y1549490D01*
X224205Y1548960D01*
X231275Y1492000D01*
X224205Y1435041D01*
X223987Y1434510D01*
X217659Y1428182D01*
X204112Y1404718D01*
X197100Y1378547D01*
Y1351453D01*
X204112Y1325282D01*
X217659Y1301818D01*
X223987Y1295490D01*
X224205Y1294960D01*
X231275Y1238000D01*
X224205Y1181041D01*
X223987Y1180510D01*
X217659Y1174182D01*
X204112Y1150718D01*
X197100Y1124547D01*
Y1123699D01*
X299999D01*
X402900D01*
Y1124547D01*
X395887Y1150718D01*
X382340Y1174182D01*
X376013Y1180510D01*
X375795Y1181041D01*
X373579Y1198892D01*
X436396Y1288949D01*
X740125D01*
X756977Y1279220D01*
X778697Y1273400D01*
X801183D01*
X822903Y1279220D01*
X842377Y1290463D01*
X858277Y1306363D01*
X945669Y1257730D01*
X961949Y1245818D01*
X964541Y1226135D01*
X972138Y1207793D01*
X984224Y1192043D01*
X1084289Y1091978D01*
X1076535Y992460D01*
X1000273Y933051D01*
X436396D01*
X373579Y1023108D01*
X375795Y1040960D01*
X376013Y1041490D01*
X382340Y1047818D01*
X395887Y1071282D01*
X402900Y1097453D01*
Y1098299D01*
X299999D01*
X197100D01*
Y1097453D01*
X204112Y1071282D01*
X217659Y1047818D01*
X223987Y1041490D01*
X224205Y1040960D01*
X231275Y984000D01*
X224205Y927041D01*
X223987Y926510D01*
X217659Y920182D01*
X204112Y896718D01*
X197100Y870547D01*
Y843453D01*
X204112Y817282D01*
X217659Y793818D01*
X236818Y774660D01*
X260282Y761113D01*
X286453Y754100D01*
X313547D01*
X339718Y761113D01*
X363182Y774660D01*
X369472Y780949D01*
X1094041D01*
X1113724Y783541D01*
X1132066Y791138D01*
X1147817Y803224D01*
X1214949Y870356D01*
X1227035Y886107D01*
X1234633Y904449D01*
X1237224Y924132D01*
Y960386D01*
X1244580Y973127D01*
X1250400Y994847D01*
Y1017333D01*
X1244580Y1039053D01*
X1241051Y1045166D01*
Y1118819D01*
X1238459Y1138502D01*
X1230862Y1156844D01*
X1218776Y1172595D01*
X1114051Y1277320D01*
Y1413614D01*
X1115949Y1414604D01*
X1213804Y1363051D01*
X1216931Y1354464D01*
X1218541Y1342237D01*
X1226138Y1323895D01*
X1238224Y1308145D01*
X1590228Y956141D01*
X1605979Y944055D01*
X1624321Y936457D01*
X1644004Y933866D01*
X1919296D01*
X1932037Y926510D01*
X1953757Y920690D01*
X1976243D01*
X1997963Y926510D01*
X2004076Y930039D01*
X2254249D01*
X2523053Y661235D01*
X2517275Y652461D01*
X2517275Y652461D01*
X2467963Y577572D01*
X2446245Y583391D01*
X2446243Y583392D01*
X2438512Y583391D01*
X2423757D01*
X2402037Y577571D01*
X2399426Y576064D01*
X2332067D01*
X2295555Y612576D01*
X2279805Y624662D01*
X2261463Y632259D01*
X2241779Y634851D01*
X829016D01*
X822903Y638380D01*
X801183Y644200D01*
X778697D01*
X756977Y638380D01*
X737503Y627137D01*
X721603Y611237D01*
X710360Y591763D01*
X704540Y570043D01*
Y547557D01*
X710360Y525837D01*
X721603Y506363D01*
X737503Y490463D01*
X756977Y479220D01*
X778697Y473400D01*
X801183D01*
X822903Y479220D01*
X829016Y482749D01*
X2210278D01*
X2246790Y446237D01*
X2262541Y434151D01*
X2270138Y431004D01*
X2280883Y426554D01*
X2300566Y423963D01*
X2392422D01*
X2402037Y418411D01*
X2423757Y412592D01*
X2446243D01*
X2467963Y418411D01*
X2487437Y429654D01*
X2503337Y445555D01*
X2514580Y465028D01*
X2520400Y486748D01*
X2520400Y509234D01*
X2520399Y509237D01*
X2514580Y530954D01*
X2598244Y586044D01*
X2715133Y469155D01*
X2716960Y462337D01*
X2728203Y442863D01*
X2744103Y426963D01*
X2763577Y415720D01*
X2785297Y409900D01*
X2807783D01*
X2829503Y415720D01*
X2848977Y426963D01*
X2864877Y442863D01*
X2876120Y462337D01*
X2881940Y484057D01*
Y506543D01*
X2876120Y528263D01*
X2864877Y547737D01*
X2848977Y563637D01*
X2829503Y574880D01*
X2822685Y576707D01*
X2339526Y1059866D01*
X2323775Y1071952D01*
X2305434Y1079549D01*
X2285750Y1082141D01*
X2004076D01*
X1997963Y1085670D01*
X1976243Y1091490D01*
X1953757D01*
X1933147Y1085967D01*
X1675505D01*
X1368051Y1393422D01*
Y1489599D01*
X1458337Y1549867D01*
X1470695Y1548792D01*
X1476288Y1546725D01*
X1484353Y1538660D01*
X1507247Y1525442D01*
X1532782Y1518600D01*
X1533299D01*
Y1619001D01*
X1558699D01*
Y1518600D01*
X1559218D01*
X1584753Y1525442D01*
X1607647Y1538660D01*
X1615712Y1546725D01*
X1621305Y1548792D01*
X1673000Y1553291D01*
X1724695Y1548792D01*
X1730288Y1546725D01*
X1738353Y1538660D01*
X1761247Y1525442D01*
X1786782Y1518600D01*
X1813218D01*
X1838753Y1525442D01*
X1861647Y1538660D01*
X1869712Y1546725D01*
X1875305Y1548792D01*
X1927000Y1553291D01*
X1978695Y1548792D01*
X1984288Y1546725D01*
X1992353Y1538660D01*
X2015247Y1525442D01*
X2040782Y1518600D01*
X2041299D01*
Y1619001D01*
X2066699D01*
Y1518600D01*
X2067218D01*
X2092753Y1525442D01*
X2115647Y1538660D01*
X2123712Y1546725D01*
X2129305Y1548792D01*
X2141662Y1549867D01*
X2231949Y1489599D01*
Y1446492D01*
X2234541Y1426809D01*
X2242138Y1408467D01*
X2254224Y1392717D01*
X2349600Y1297341D01*
Y1286748D01*
X2355420Y1265028D01*
X2366663Y1245555D01*
X2382563Y1229654D01*
X2402037Y1218411D01*
X2408855Y1216584D01*
X2929215Y696225D01*
X2944965Y684139D01*
X2952563Y680992D01*
X2963307Y676541D01*
X2982991Y673950D01*
X3527300D01*
X3531481Y663856D01*
X3543367Y648366D01*
X3558856Y636481D01*
X3576894Y629009D01*
X3596251Y626461D01*
X3693751D01*
X3713108Y629009D01*
X3731146Y636481D01*
X3746635Y648366D01*
X3758521Y663856D01*
X3765992Y681893D01*
X3768541Y701251D01*
Y798750D01*
X3765992Y818108D01*
X3758521Y836145D01*
X3746635Y851635D01*
X3731146Y863520D01*
X3713108Y870992D01*
X3693751Y873540D01*
X3596251D01*
X3576894Y870992D01*
X3558856Y863520D01*
X3543367Y851635D01*
X3531481Y836145D01*
X3527300Y826051D01*
X3014492D01*
X2778671Y1061872D01*
X2778435Y1062303D01*
X2801246Y1180718D01*
X2809227Y1184138D01*
X2816824Y1180991D01*
X2827569Y1176540D01*
X2847252Y1173949D01*
X3547245D01*
X3569539Y1151655D01*
X3597564Y1135475D01*
X3628821Y1127100D01*
X3661181D01*
X3692439Y1135475D01*
X3720463Y1151655D01*
X3743346Y1174537D01*
X3759526Y1202562D01*
X3767901Y1233819D01*
Y1266180D01*
X3759526Y1297437D01*
X3743346Y1325462D01*
X3720463Y1348344D01*
X3692439Y1364524D01*
X3661181Y1372899D01*
X3628821D01*
X3597564Y1364524D01*
X3569539Y1348344D01*
X3547245Y1326050D01*
X2878753D01*
X2875545Y1329258D01*
X2868764Y1341004D01*
Y1388287D01*
X2866173Y1407970D01*
X2858575Y1426312D01*
X2846489Y1442063D01*
X2662400Y1626152D01*
Y1632218D01*
X2658880Y1645353D01*
X2677748Y1693603D01*
X2702818Y1734109D01*
X2715538Y1745353D01*
X2894425D01*
X2900538Y1741824D01*
X2922258Y1736004D01*
X2944744D01*
X2966464Y1741824D01*
X2985938Y1753067D01*
X3001838Y1768967D01*
X3013081Y1788440D01*
X3018901Y1810160D01*
Y1832647D01*
X3013081Y1854367D01*
X3001838Y1873840D01*
X2997664Y1878015D01*
X2982777Y1912778D01*
X2975127Y1968539D01*
X2979300Y2001072D01*
X3091314Y2113086D01*
X3098132Y2114913D01*
X3104245Y2118442D01*
X3328910D01*
X3652094Y1795259D01*
X3653921Y1788440D01*
X3665164Y1768967D01*
X3681064Y1753067D01*
X3700538Y1741824D01*
X3722258Y1736004D01*
X3744744D01*
X3766464Y1741824D01*
X3785938Y1753067D01*
X3801838Y1768967D01*
X3813081Y1788440D01*
X3818901Y1810160D01*
Y1832647D01*
X3813081Y1854367D01*
X3801838Y1873840D01*
X3785938Y1889740D01*
X3766464Y1900983D01*
X3759646Y1902811D01*
X3414187Y2248269D01*
X3398437Y2260355D01*
X3380095Y2267952D01*
X3360411Y2270544D01*
X3104245D01*
X3098132Y2274073D01*
X3076412Y2279893D01*
X3073281D01*
X3041487Y2326949D01*
X3028405Y2376438D01*
X3325917Y2673950D01*
X3527300D01*
X3531481Y2663856D01*
X3543367Y2648366D01*
X3558856Y2636481D01*
X3576894Y2629009D01*
X3596251Y2626461D01*
X3597418D01*
X3597501Y2626450D01*
X3597584Y2626461D01*
X3693751D01*
X3713108Y2629009D01*
X3731146Y2636481D01*
X3746635Y2648366D01*
X3758521Y2663856D01*
X3765992Y2681894D01*
X3768541Y2701251D01*
Y2798751D01*
X3765992Y2818108D01*
X3758521Y2836145D01*
X3746635Y2851635D01*
X3731146Y2863520D01*
X3713108Y2870992D01*
X3693751Y2873540D01*
X3596251D01*
X3576894Y2870992D01*
X3558856Y2863520D01*
X3543367Y2851635D01*
X3531481Y2836145D01*
X3527300Y2826051D01*
X3294416D01*
X3274732Y2823460D01*
X3263988Y2819009D01*
X3256390Y2815863D01*
X3240640Y2803776D01*
X3211366Y2774502D01*
X3131031Y2831647D01*
X3134178Y2839244D01*
X3138628Y2849988D01*
X3141220Y2869672D01*
Y2955417D01*
X3144749Y2961530D01*
X3146576Y2968348D01*
X3333999Y3155772D01*
X3565422D01*
X3569539Y3151655D01*
X3597564Y3135475D01*
X3628821Y3127100D01*
X3661181D01*
X3692439Y3135475D01*
X3720463Y3151655D01*
X3743346Y3174537D01*
X3759526Y3202562D01*
X3767901Y3233820D01*
Y3266180D01*
X3759526Y3297437D01*
X3743346Y3325462D01*
X3720463Y3348344D01*
X3692439Y3364524D01*
X3661181Y3372900D01*
X3628821D01*
X3597564Y3364524D01*
X3569539Y3348344D01*
X3546657Y3325462D01*
X3536502Y3307873D01*
X3302498D01*
X3282815Y3305282D01*
X3264473Y3297684D01*
X3248722Y3285598D01*
X3039024Y3075900D01*
X3032206Y3074073D01*
X3012732Y3062830D01*
X2996832Y3046930D01*
X2987462Y3033494D01*
X2965257Y3031162D01*
X2896537Y3043688D01*
X2887066Y3046132D01*
X2876286Y3064801D01*
X2876286Y3064803D01*
X2860385Y3080703D01*
X2840912Y3091946D01*
X2819191Y3097766D01*
X2796705D01*
X2774985Y3091946D01*
X2755512Y3080703D01*
X2739611Y3064803D01*
X2728368Y3045329D01*
X2726542Y3038511D01*
X2263791Y2575760D01*
X2251705Y2560010D01*
X2244108Y2541668D01*
X2241516Y2521984D01*
Y2519373D01*
X2144248Y2449908D01*
X2129305Y2451208D01*
X2123712Y2453275D01*
X2115647Y2461340D01*
X2092753Y2474558D01*
X2067218Y2481400D01*
X2066699D01*
Y2381001D01*
Y2280600D01*
X2067218D01*
X2092753Y2287442D01*
X2115647Y2300660D01*
X2123712Y2308725D01*
X2129305Y2310792D01*
X2135823Y2311359D01*
X2235773Y2266626D01*
X2238365Y2246943D01*
X2245962Y2228601D01*
X2258048Y2212851D01*
X2294849Y2176049D01*
X2253428Y2076049D01*
X2048026D01*
X1959555Y2164521D01*
X1956186Y2275243D01*
X1992353Y2300660D01*
X2015247Y2287442D01*
X2040782Y2280600D01*
X2041299D01*
Y2381001D01*
Y2481400D01*
X2040782D01*
X2015247Y2474558D01*
X1992353Y2461340D01*
X1984288Y2453275D01*
X1978695Y2451208D01*
X1966337Y2450133D01*
X1876051Y2510401D01*
Y2821664D01*
X1873459Y2841348D01*
X1865862Y2859690D01*
X1853776Y2875440D01*
X1692858Y3036358D01*
Y3244753D01*
X1690267Y3264436D01*
X1682669Y3282778D01*
X1670583Y3298529D01*
X1355317Y3613795D01*
X1339566Y3625881D01*
X1321224Y3633479D01*
X1301541Y3636070D01*
D02*
G37*
%LPD*%
G36*
X2914582Y2909444D02*
X2946717Y2888938D01*
X2953649Y2865703D01*
X2598072Y2510126D01*
X2554870Y2510314D01*
X2513629Y2610494D01*
X2834093Y2930959D01*
X2840911Y2932786D01*
X2914582Y2909444D01*
D02*
G37*
G36*
X1247791Y2260608D02*
X1301758Y2206640D01*
X1263185Y2104699D01*
X1198538Y2096541D01*
X1133759Y2161320D01*
X1141039Y2266611D01*
X1235705Y2276358D01*
X1247791Y2260608D01*
D02*
G37*
G36*
X961949Y2199733D02*
Y2149528D01*
X964541Y2129844D01*
X972138Y2111502D01*
X984224Y2095752D01*
X1051019Y2028957D01*
X1009598Y1928957D01*
X702504D01*
X695321Y1933104D01*
X690327Y1936845D01*
X664652Y2004731D01*
X662601Y2041806D01*
X861949Y2241154D01*
X961949Y2199733D01*
D02*
G37*
G36*
X2548782Y1518600D02*
X2554848D01*
X2716663Y1356785D01*
Y1327153D01*
X2711140Y1306543D01*
X2711140Y1284057D01*
X2711140Y1284056D01*
X2716960Y1262337D01*
X2633296Y1207247D01*
X2516407Y1324136D01*
X2514580Y1330954D01*
X2503337Y1350428D01*
X2500298Y1353467D01*
X2497035Y1361344D01*
X2484949Y1377095D01*
X2426937Y1435107D01*
X2434444Y1465960D01*
X2443564Y1476020D01*
X2452790Y1481742D01*
X2546945Y1519092D01*
X2548782Y1518600D01*
D02*
G37*
D10*
X1207949Y3086952D02*
Y3250000D01*
X509792Y2388796D02*
X1207949Y3086952D01*
X325406Y2388796D02*
X509792D01*
X396767Y1883524D02*
X894243Y2381000D01*
X310523Y1883524D02*
X396767D01*
X894243Y2381000D02*
X1038000D01*
Y2149528D02*
X1187527Y2000000D01*
X1038000Y2149528D02*
Y2381000D01*
X1165000Y1006090D02*
Y1118819D01*
X1038000Y1245819D02*
X1165000Y1118819D01*
X1038000Y1245819D02*
Y1619000D01*
X1094041Y857000D02*
X1161173Y924132D01*
X300000Y857000D02*
X1094041D01*
X1161173Y924132D02*
Y1002263D01*
X1165000Y1006090D01*
X2007948Y3012366D02*
Y3250000D01*
X2308000Y2381000D02*
X2317567Y2390567D01*
Y2521984D01*
X2807948Y3012366D01*
X2562000Y2381000D02*
X2575530D01*
X2600530Y2406000D01*
X2601497D01*
X3065169Y2869672D01*
Y2994493D01*
X3302498Y3231822D01*
X1301541Y3560019D02*
X1616807Y3244753D01*
X1800000Y2381000D02*
Y2821664D01*
X1616807Y3004857D02*
Y3244753D01*
Y3004857D02*
X1800000Y2821664D01*
X617019Y3560019D02*
X1301541D01*
X327500Y3270500D02*
X617019Y3560019D01*
X2792713Y1299127D02*
X2796540Y1295300D01*
X2792713Y1299127D02*
Y1388287D01*
X2562000Y1619000D02*
X2792713Y1388287D01*
X2801952Y1295300D02*
X2847252Y1250000D01*
X3645001D01*
X2796540Y1295300D02*
X2801952D01*
X2300566Y500013D02*
X2436789D01*
X2241779Y558800D02*
X2300566Y500013D01*
X789940Y558800D02*
X2241779D01*
X2285750Y1006090D02*
X2796540Y495300D01*
X1965000Y1006090D02*
X2285750D01*
X2982991Y750001D02*
X3645001D01*
X2431173Y1301818D02*
X2982991Y750001D01*
X2431173Y1301818D02*
Y1323319D01*
X2308000Y1446492D02*
Y1619000D01*
Y1446492D02*
X2431173Y1323319D01*
X1961173Y1009917D02*
X1966636Y1004453D01*
X1644004Y1009917D02*
X1961173D01*
X778328Y1365000D02*
X780701Y1362627D01*
X781366D01*
X300000Y1365000D02*
X778328D01*
X781366Y1362627D02*
X783740Y1365000D01*
X1292000Y1361921D02*
X1644004Y1009917D01*
X1292000Y1361921D02*
Y1619000D01*
X2562000D02*
X2564405Y1616595D01*
X327500Y3170500D02*
Y3270500D01*
X300000Y3143000D02*
X327500Y3170500D01*
X300000Y2889000D02*
X453981D01*
X635161Y3062440D02*
X648661Y3075940D01*
X655967D01*
X627421Y3062440D02*
X635161D01*
X453981Y2889000D02*
X627421Y3062440D01*
X300000Y1873000D02*
X310523Y1883524D01*
X1187527Y2000000D02*
X1770803D01*
X3302498Y3231822D02*
X3626824D01*
X3360411Y2194493D02*
X3733501Y1821404D01*
X3065169Y2194493D02*
X3360411D01*
X2016525Y1999999D02*
X2870674D01*
X3061342Y2190666D01*
X1866996Y2149528D02*
X2016525Y1999999D01*
X3294416Y2750001D02*
X3597501D01*
X2730841Y2186426D02*
X3294416Y2750001D01*
X2311824Y2266626D02*
X2392024Y2186426D01*
X3597501Y2702501D02*
X3645001Y2750001D01*
X2392024Y2186426D02*
X2730841D01*
X2311824Y2266626D02*
Y2381000D01*
X656428Y1852906D02*
X1683767D01*
X1799737Y1619263D02*
Y1736935D01*
X1683767Y1852906D02*
X1799737Y1736935D01*
Y1619263D02*
X1800000Y1619000D01*
X3626824Y3231822D02*
X3645001Y3250000D01*
X1301567Y2314384D02*
X1466423Y2149528D01*
X1866996D01*
X1301567Y2314384D02*
Y2371433D01*
X1292000Y2381000D02*
X1301567Y2371433D01*
X1770803Y2000000D02*
X1949399Y1821404D01*
X2933501D01*
D11*
X2007948Y3250000D02*
D03*
X1207949D02*
D03*
X789940Y558800D02*
D03*
Y1358800D02*
D03*
X1965000Y1006090D02*
D03*
X1165000D02*
D03*
X3733501Y1821404D02*
D03*
X2933501D02*
D03*
X2807948Y3012366D02*
D03*
X2007948D02*
D03*
X3065169Y2194493D02*
D03*
Y2994493D02*
D03*
X2435000Y1297991D02*
D03*
Y497991D02*
D03*
X2796540Y495300D02*
D03*
Y1295300D02*
D03*
D12*
X1038000Y1619000D02*
D03*
D13*
X1292000D02*
D03*
X1546000D02*
D03*
X1800000D02*
D03*
X2054000D02*
D03*
X2308000D02*
D03*
X2562000D02*
D03*
X1038000Y2381000D02*
D03*
X1292000D02*
D03*
X1546000D02*
D03*
X1800000D02*
D03*
X2054000D02*
D03*
X2308000D02*
D03*
X2562000D02*
D03*
D14*
X300000Y3143000D02*
D03*
D15*
Y2889000D02*
D03*
Y2635000D02*
D03*
Y2381000D02*
D03*
Y2127000D02*
D03*
Y1873000D02*
D03*
Y1619000D02*
D03*
Y1365000D02*
D03*
Y1111000D02*
D03*
Y857000D02*
D03*
D16*
X3645001Y1250000D02*
D03*
Y3250000D02*
D03*
D17*
Y750001D02*
D03*
Y2750001D02*
D03*
D18*
X492006Y643800D02*
D03*
X860935Y3814219D02*
D03*
Y3310450D02*
D03*
X1600324Y756749D02*
D03*
Y252980D02*
D03*
X2157661Y1257811D02*
D03*
Y754042D02*
D03*
X502900Y1128728D02*
D03*
X508475Y1619000D02*
D03*
X1537530Y2705041D02*
D03*
X2041299Y2712845D02*
D03*
X655967Y3075940D02*
D03*
X656428Y1852906D02*
D03*
D19*
X175260Y3657600D02*
X226043D01*
X200652D01*
Y3809951D01*
X175260Y3784559D01*
D20*
X2730000Y3452899D02*
Y3502883D01*
X2680016D01*
Y3452899D01*
X2730000D01*
X2280146D02*
X2480081D01*
X2280146Y3652835D01*
Y3702819D01*
X2330129Y3752802D01*
X2430097D01*
X2480081Y3702819D01*
%TF.MD5,94e65b2925c8590b5fb10ffd0ed76045*%
M02*
