%TF.GenerationSoftware,Altium Limited,Altium Designer,25.2.1 (25)*%
G04 Layer_Color=32768*
%FSLAX45Y45*%
%MOMM*%
%TF.SameCoordinates,146DD4CA-7140-4A88-8DEA-86B231E22E38*%
%TF.FilePolarity,Positive*%
%TF.FileFunction,Other,Top_Component_Outline*%
%TF.Part,Single*%
G01*
G75*
%TA.AperFunction,NonConductor*%
%ADD31C,0.10000*%
D31*
X3975006Y500013D02*
X3975008Y1500019D01*
X3727506Y440013D02*
X3812506D01*
X3727506D02*
X3735006Y500013D01*
X3805006D02*
X3812506Y440013D01*
X3805006Y500013D02*
X3975006D01*
X3225008D02*
Y1500019D01*
Y500013D02*
X3735006D01*
X3315008Y1560019D02*
X3410008D01*
X3315008D02*
X3320008Y1500019D01*
X3405008D02*
X3410008Y1560019D01*
X3225008Y1500019D02*
X3320008D01*
X3405008D02*
X3975008D01*
X3975006Y2500013D02*
X3975008Y3500019D01*
X3727506Y2440013D02*
X3812506D01*
X3727506D02*
X3735006Y2500013D01*
X3805006D02*
X3812506Y2440013D01*
X3805006Y2500013D02*
X3975006D01*
X3225008D02*
Y3500019D01*
Y2500013D02*
X3735006D01*
X3315008Y3560019D02*
X3410008D01*
X3315008D02*
X3320008Y3500019D01*
X3405008D02*
X3410008Y3560019D01*
X3225008Y3500019D02*
X3320008D01*
X3405008D02*
X3975008D01*
%TF.MD5,6b325736578a2f8b492da4f65186010a*%
M02*
