%TF.GenerationSoftware,Altium Limited,Altium Designer,25.2.1 (25)*%
G04 Layer_Color=16711935*
%FSLAX45Y45*%
%MOMM*%
%TF.SameCoordinates,146DD4CA-7140-4A88-8DEA-86B231E22E38*%
%TF.FilePolarity,Positive*%
%TF.FileFunction,Other,Top_Designator*%
%TF.Part,Single*%
G01*
G75*
%TA.AperFunction,NonConductor*%
%ADD30C,0.15000*%
D30*
X3512527Y712593D02*
Y662609D01*
Y687601D01*
X3637487D01*
X3662479Y662609D01*
Y637617D01*
X3637487Y612625D01*
X3687470Y762577D02*
Y862544D01*
X3662479Y912528D02*
X3512527D01*
Y987504D01*
X3537519Y1012496D01*
X3587503D01*
X3612495Y987504D01*
Y912528D01*
X3662479Y1087472D02*
Y1137455D01*
X3637487Y1162447D01*
X3587503D01*
X3562511Y1137455D01*
Y1087472D01*
X3587503Y1062480D01*
X3637487D01*
X3662479Y1087472D01*
X3537519Y1237423D02*
X3562511D01*
Y1212431D01*
Y1262415D01*
Y1237423D01*
X3637487D01*
X3662479Y1262415D01*
Y1337391D02*
Y1387375D01*
Y1362383D01*
X3512527D01*
X3537519Y1337391D01*
X3512527Y2687601D02*
Y2637618D01*
Y2662609D01*
X3637487D01*
X3662479Y2637618D01*
Y2612625D01*
X3637487Y2587634D01*
X3687470Y2737585D02*
Y2837553D01*
X3662479Y2887537D02*
X3512527D01*
Y2962512D01*
X3537519Y2987504D01*
X3587503D01*
X3612495Y2962512D01*
Y2887537D01*
X3662479Y3062480D02*
Y3112464D01*
X3637487Y3137455D01*
X3587503D01*
X3562511Y3112464D01*
Y3062480D01*
X3587503Y3037488D01*
X3637487D01*
X3662479Y3062480D01*
X3537519Y3212431D02*
X3562511D01*
Y3187439D01*
Y3237423D01*
Y3212431D01*
X3637487D01*
X3662479Y3237423D01*
Y3412367D02*
Y3312399D01*
X3562511Y3412367D01*
X3537519D01*
X3512527Y3387375D01*
Y3337391D01*
X3537519Y3312399D01*
%TF.MD5,677f96edbe60fa4e8e07bda3578afe46*%
M02*
