%TF.GenerationSoftware,Altium Limited,Altium Designer,25.2.1 (25)*%
G04 Layer_Color=16711935*
%FSLAX45Y45*%
%MOMM*%
%TF.SameCoordinates,2B528216-A015-4FBA-BB4B-E0E15DD4AA10*%
%TF.FilePolarity,Positive*%
%TF.FileFunction,Other,Top_Designator*%
%TF.Part,Single*%
G01*
G75*
%TA.AperFunction,NonConductor*%
%ADD47C,0.15000*%
D47*
X450896Y1912212D02*
Y1962195D01*
Y1937203D01*
X325936D01*
X300945Y1962195D01*
Y1987187D01*
X325936Y2012179D01*
X425904Y1862228D02*
X450896Y1837236D01*
Y1787252D01*
X425904Y1762260D01*
X400912D01*
X375920Y1787252D01*
Y1812244D01*
Y1787252D01*
X350928Y1762260D01*
X325936D01*
X300945Y1787252D01*
Y1837236D01*
X325936Y1862228D01*
X450896Y3540352D02*
Y3590335D01*
Y3565343D01*
X325936D01*
X300945Y3590335D01*
Y3615327D01*
X325936Y3640319D01*
X300945Y3415392D02*
X450896D01*
X375920Y3490368D01*
Y3390400D01*
X9432123Y7196253D02*
Y7146269D01*
Y7171261D01*
X9557082D01*
X9582074Y7146269D01*
Y7121277D01*
X9557082Y7096285D01*
X9432123Y7346204D02*
Y7246237D01*
X9507099D01*
X9482107Y7296221D01*
Y7321212D01*
X9507099Y7346204D01*
X9557082D01*
X9582074Y7321212D01*
Y7271229D01*
X9557082Y7246237D01*
X9432123Y5097723D02*
Y5047739D01*
Y5072731D01*
X9557083D01*
X9582075Y5047739D01*
Y5022747D01*
X9557083Y4997756D01*
X9432123Y5247675D02*
X9457115Y5197691D01*
X9507099Y5147707D01*
X9557083D01*
X9582075Y5172699D01*
Y5222683D01*
X9557083Y5247675D01*
X9532091D01*
X9507099Y5222683D01*
Y5147707D01*
%TF.MD5,5d893b95837363f127ab83d45bc822cd*%
M02*
