%TF.GenerationSoftware,Altium Limited,Altium Designer,25.2.1 (25)*%
G04 Layer_Color=16711935*
%FSLAX45Y45*%
%MOMM*%
%TF.SameCoordinates,2B528216-A015-4FBA-BB4B-E0E15DD4AA10*%
%TF.FilePolarity,Positive*%
%TF.FileFunction,Other,Top_Assembly*%
%TF.Part,Single*%
G01*
G75*
%TA.AperFunction,NonConductor*%
%ADD33C,0.10000*%
%ADD34C,0.20000*%
G36*
X7371643Y3073347D02*
X7371550D01*
X7371365D01*
X7370995D01*
X7370441Y3073255D01*
X7369886Y3073163D01*
X7369239D01*
X7367667Y3072885D01*
X7366003Y3072608D01*
X7364339Y3072053D01*
X7362859Y3071498D01*
X7362212Y3071128D01*
X7361657Y3070666D01*
X7361565Y3070574D01*
X7361288Y3070204D01*
X7360825Y3069649D01*
X7360363Y3068910D01*
X7359808Y3067893D01*
X7359438Y3066783D01*
X7359069Y3065396D01*
X7358976Y3063917D01*
Y3063362D01*
X7359069Y3062807D01*
X7359161Y3061975D01*
X7359346Y3061143D01*
X7359531Y3060219D01*
X7359901Y3059294D01*
X7360363Y3058370D01*
X7360455Y3058277D01*
X7360640Y3058000D01*
X7361010Y3057630D01*
X7361380Y3057075D01*
X7362027Y3056613D01*
X7362674Y3056058D01*
X7363414Y3055596D01*
X7364339Y3055226D01*
X7364431D01*
X7364801Y3055041D01*
X7365448Y3054949D01*
X7366280Y3054764D01*
X7367390Y3054579D01*
X7368776Y3054486D01*
X7370441Y3054301D01*
X7372382D01*
X7416484D01*
Y3045796D01*
X7372845D01*
X7372752D01*
X7372475D01*
X7372105D01*
X7371550D01*
X7370811Y3045888D01*
X7370071D01*
X7368314Y3046073D01*
X7366280Y3046258D01*
X7364154Y3046628D01*
X7362212Y3047182D01*
X7360363Y3047830D01*
X7360271D01*
X7360178Y3047922D01*
X7359623Y3048199D01*
X7358884Y3048662D01*
X7357867Y3049309D01*
X7356850Y3050233D01*
X7355740Y3051250D01*
X7354631Y3052545D01*
X7353706Y3054024D01*
X7353614Y3054209D01*
X7353336Y3054764D01*
X7352966Y3055596D01*
X7352597Y3056798D01*
X7352134Y3058277D01*
X7351765Y3059941D01*
X7351487Y3061790D01*
X7351395Y3063824D01*
Y3064657D01*
X7351487Y3065211D01*
X7351580Y3065951D01*
X7351672Y3066691D01*
X7352042Y3068632D01*
X7352597Y3070666D01*
X7353429Y3072793D01*
X7353984Y3073902D01*
X7354631Y3074919D01*
X7355370Y3075844D01*
X7356202Y3076768D01*
X7356295Y3076861D01*
X7356387Y3076953D01*
X7356757Y3077138D01*
X7357127Y3077415D01*
X7357589Y3077785D01*
X7358236Y3078155D01*
X7358976Y3078525D01*
X7359808Y3078987D01*
X7360733Y3079357D01*
X7361842Y3079727D01*
X7362952Y3080097D01*
X7364246Y3080467D01*
X7365633Y3080651D01*
X7367205Y3080929D01*
X7368776Y3081021D01*
X7370533D01*
X7371643Y3073347D01*
D02*
G37*
G36*
X7340392Y2988195D02*
X7334753D01*
Y3040248D01*
X7340392D01*
Y2988195D01*
D02*
G37*
G36*
X7416484Y2964804D02*
Y2955558D01*
X7352504Y2929393D01*
Y2939009D01*
X7371920Y2946498D01*
Y2973310D01*
X7352504Y2980244D01*
Y2989212D01*
X7416484Y2964804D01*
D02*
G37*
G36*
Y2897958D02*
X7416391Y2896294D01*
X7416299Y2894445D01*
X7416114Y2892596D01*
X7415837Y2890747D01*
X7415559Y2889175D01*
Y2889083D01*
X7415467Y2888898D01*
Y2888620D01*
X7415282Y2888251D01*
X7415004Y2887233D01*
X7414542Y2885939D01*
X7413895Y2884460D01*
X7413063Y2882888D01*
X7412138Y2881316D01*
X7410936Y2879837D01*
X7410844Y2879745D01*
X7410751Y2879652D01*
X7410474Y2879375D01*
X7410197Y2879005D01*
X7409272Y2878080D01*
X7407978Y2876971D01*
X7406406Y2875769D01*
X7404557Y2874475D01*
X7402430Y2873273D01*
X7400027Y2872256D01*
X7399934D01*
X7399749Y2872163D01*
X7399379Y2871978D01*
X7398825Y2871886D01*
X7398177Y2871608D01*
X7397438Y2871424D01*
X7396606Y2871239D01*
X7395589Y2870961D01*
X7394572Y2870684D01*
X7393370Y2870499D01*
X7390781Y2870037D01*
X7387915Y2869759D01*
X7384771Y2869667D01*
X7384679D01*
X7384494D01*
X7384032D01*
X7383569D01*
X7382922Y2869759D01*
X7382183D01*
X7380426Y2869852D01*
X7378392Y2870129D01*
X7376265Y2870407D01*
X7374046Y2870869D01*
X7371828Y2871424D01*
X7371735D01*
X7371550Y2871516D01*
X7371273Y2871608D01*
X7370903Y2871701D01*
X7369886Y2872071D01*
X7368592Y2872625D01*
X7367112Y2873180D01*
X7365633Y2873920D01*
X7364061Y2874844D01*
X7362582Y2875769D01*
X7362397Y2875861D01*
X7361935Y2876231D01*
X7361288Y2876786D01*
X7360455Y2877526D01*
X7359531Y2878358D01*
X7358606Y2879375D01*
X7357589Y2880392D01*
X7356757Y2881594D01*
X7356665Y2881779D01*
X7356387Y2882148D01*
X7356018Y2882796D01*
X7355555Y2883720D01*
X7355001Y2884830D01*
X7354538Y2886124D01*
X7353984Y2887603D01*
X7353521Y2889268D01*
Y2889452D01*
X7353429Y2889730D01*
X7353336Y2890007D01*
X7353244Y2890932D01*
X7353059Y2892226D01*
X7352874Y2893705D01*
X7352689Y2895462D01*
X7352597Y2897404D01*
X7352504Y2899530D01*
Y2922552D01*
X7416484D01*
Y2897958D01*
D02*
G37*
G36*
X7386620Y2860421D02*
X7387545D01*
X7388470Y2860329D01*
X7389672Y2860236D01*
X7390873Y2860051D01*
X7393555Y2859589D01*
X7396513Y2858942D01*
X7399472Y2858017D01*
X7402338Y2856723D01*
X7402430Y2856631D01*
X7402708Y2856538D01*
X7403078Y2856353D01*
X7403540Y2855983D01*
X7404187Y2855614D01*
X7404927Y2855151D01*
X7406591Y2853949D01*
X7408440Y2852378D01*
X7410289Y2850528D01*
X7412138Y2848402D01*
X7413710Y2845906D01*
X7413803Y2845813D01*
X7413895Y2845536D01*
X7414080Y2845166D01*
X7414357Y2844704D01*
X7414635Y2843964D01*
X7414912Y2843224D01*
X7415282Y2842300D01*
X7415652Y2841283D01*
X7416021Y2840173D01*
X7416391Y2838971D01*
X7416946Y2836383D01*
X7417408Y2833424D01*
X7417593Y2830373D01*
Y2829448D01*
X7417501Y2828801D01*
X7417408Y2827969D01*
X7417316Y2826952D01*
X7417223Y2825935D01*
X7416946Y2824733D01*
X7416391Y2822237D01*
X7415559Y2819463D01*
X7415004Y2818076D01*
X7414357Y2816782D01*
X7413525Y2815488D01*
X7412693Y2814193D01*
X7412601Y2814101D01*
X7412508Y2813916D01*
X7412231Y2813546D01*
X7411769Y2813084D01*
X7411306Y2812622D01*
X7410659Y2811974D01*
X7409919Y2811327D01*
X7409180Y2810587D01*
X7408255Y2809848D01*
X7407146Y2809108D01*
X7406036Y2808276D01*
X7404834Y2807536D01*
X7403447Y2806889D01*
X7402061Y2806150D01*
X7400581Y2805595D01*
X7398917Y2805040D01*
X7396976Y2813361D01*
X7397068D01*
X7397253Y2813454D01*
X7397623Y2813639D01*
X7398085Y2813823D01*
X7398640Y2814008D01*
X7399379Y2814286D01*
X7400859Y2815025D01*
X7402523Y2815950D01*
X7404187Y2817059D01*
X7405759Y2818446D01*
X7407146Y2819926D01*
X7407331Y2820110D01*
X7407700Y2820665D01*
X7408163Y2821590D01*
X7408810Y2822792D01*
X7409365Y2824363D01*
X7409919Y2826120D01*
X7410289Y2828247D01*
X7410382Y2830558D01*
Y2831298D01*
X7410289Y2831760D01*
Y2832407D01*
X7410197Y2833147D01*
X7409919Y2834903D01*
X7409550Y2836845D01*
X7408902Y2838879D01*
X7407978Y2841005D01*
X7406776Y2842947D01*
Y2843040D01*
X7406591Y2843132D01*
X7406129Y2843779D01*
X7405389Y2844611D01*
X7404280Y2845628D01*
X7402893Y2846830D01*
X7401321Y2847940D01*
X7399379Y2848957D01*
X7397253Y2849881D01*
X7397160D01*
X7396976Y2849974D01*
X7396698Y2850066D01*
X7396236Y2850159D01*
X7395681Y2850344D01*
X7395034Y2850528D01*
X7393462Y2850806D01*
X7391613Y2851176D01*
X7389579Y2851545D01*
X7387360Y2851730D01*
X7384956Y2851823D01*
X7384864D01*
X7384586D01*
X7384124D01*
X7383569D01*
X7382922Y2851730D01*
X7382090D01*
X7381166Y2851638D01*
X7380149Y2851545D01*
X7377930Y2851268D01*
X7375526Y2850806D01*
X7373122Y2850251D01*
X7370718Y2849511D01*
X7370626D01*
X7370441Y2849419D01*
X7370163Y2849234D01*
X7369701Y2849049D01*
X7368592Y2848494D01*
X7367297Y2847662D01*
X7365818Y2846645D01*
X7364246Y2845351D01*
X7362859Y2843872D01*
X7361565Y2842115D01*
Y2842023D01*
X7361472Y2841838D01*
X7361288Y2841560D01*
X7361103Y2841190D01*
X7360918Y2840728D01*
X7360640Y2840173D01*
X7360086Y2838879D01*
X7359531Y2837215D01*
X7359069Y2835366D01*
X7358699Y2833332D01*
X7358606Y2831205D01*
Y2830558D01*
X7358699Y2830003D01*
Y2829356D01*
X7358791Y2828709D01*
X7359161Y2827045D01*
X7359623Y2825103D01*
X7360363Y2823161D01*
X7361380Y2821127D01*
X7361935Y2820110D01*
X7362674Y2819186D01*
X7362767Y2819093D01*
X7362859Y2819001D01*
X7363137Y2818724D01*
X7363414Y2818354D01*
X7363876Y2817984D01*
X7364431Y2817522D01*
X7364986Y2816967D01*
X7365725Y2816505D01*
X7366558Y2815950D01*
X7367482Y2815303D01*
X7368407Y2814748D01*
X7369516Y2814193D01*
X7370718Y2813731D01*
X7372012Y2813269D01*
X7373399Y2812806D01*
X7374879Y2812437D01*
X7372752Y2803931D01*
X7372660D01*
X7372290Y2804023D01*
X7371735Y2804208D01*
X7370995Y2804485D01*
X7370163Y2804763D01*
X7369146Y2805133D01*
X7368037Y2805595D01*
X7366835Y2806150D01*
X7364246Y2807444D01*
X7361657Y2809108D01*
X7360363Y2810125D01*
X7359069Y2811142D01*
X7357959Y2812252D01*
X7356850Y2813546D01*
X7356757Y2813639D01*
X7356572Y2813823D01*
X7356387Y2814286D01*
X7356018Y2814748D01*
X7355555Y2815488D01*
X7355093Y2816227D01*
X7354631Y2817244D01*
X7354168Y2818261D01*
X7353614Y2819463D01*
X7353151Y2820758D01*
X7352689Y2822144D01*
X7352227Y2823624D01*
X7351857Y2825196D01*
X7351672Y2826860D01*
X7351487Y2828616D01*
X7351395Y2830466D01*
Y2831483D01*
X7351487Y2832222D01*
Y2833054D01*
X7351580Y2834071D01*
X7351765Y2835181D01*
X7351949Y2836475D01*
X7352412Y2839156D01*
X7353151Y2841930D01*
X7354168Y2844704D01*
X7354816Y2845998D01*
X7355555Y2847293D01*
X7355648Y2847385D01*
X7355740Y2847570D01*
X7356018Y2847940D01*
X7356387Y2848310D01*
X7356757Y2848864D01*
X7357312Y2849511D01*
X7357959Y2850251D01*
X7358699Y2850991D01*
X7359531Y2851730D01*
X7360363Y2852562D01*
X7362489Y2854227D01*
X7364986Y2855798D01*
X7367759Y2857185D01*
X7367852D01*
X7368129Y2857370D01*
X7368592Y2857463D01*
X7369146Y2857740D01*
X7369886Y2857925D01*
X7370811Y2858202D01*
X7371828Y2858572D01*
X7372937Y2858850D01*
X7374139Y2859127D01*
X7375526Y2859497D01*
X7378392Y2859959D01*
X7381628Y2860329D01*
X7384956Y2860514D01*
X7385049D01*
X7385419D01*
X7385973D01*
X7386620Y2860421D01*
D02*
G37*
G36*
X3369369Y2517087D02*
X3369276D01*
X3369091D01*
X3368721D01*
X3368167Y2516995D01*
X3367612Y2516903D01*
X3366965D01*
X3365393Y2516625D01*
X3363729Y2516348D01*
X3362065Y2515793D01*
X3360585Y2515238D01*
X3359938Y2514868D01*
X3359383Y2514406D01*
X3359291Y2514314D01*
X3359014Y2513944D01*
X3358551Y2513389D01*
X3358089Y2512650D01*
X3357534Y2511633D01*
X3357164Y2510523D01*
X3356795Y2509136D01*
X3356702Y2507657D01*
Y2507102D01*
X3356795Y2506547D01*
X3356887Y2505715D01*
X3357072Y2504883D01*
X3357257Y2503959D01*
X3357627Y2503034D01*
X3358089Y2502110D01*
X3358181Y2502017D01*
X3358366Y2501740D01*
X3358736Y2501370D01*
X3359106Y2500815D01*
X3359753Y2500353D01*
X3360400Y2499798D01*
X3361140Y2499336D01*
X3362065Y2498966D01*
X3362157D01*
X3362527Y2498781D01*
X3363174Y2498689D01*
X3364006Y2498504D01*
X3365116Y2498319D01*
X3366503Y2498226D01*
X3368167Y2498041D01*
X3370108D01*
X3414210D01*
Y2489536D01*
X3370571D01*
X3370478D01*
X3370201D01*
X3369831D01*
X3369276D01*
X3368537Y2489628D01*
X3367797D01*
X3366040Y2489813D01*
X3364006Y2489998D01*
X3361880Y2490368D01*
X3359938Y2490922D01*
X3358089Y2491570D01*
X3357997D01*
X3357904Y2491662D01*
X3357349Y2491939D01*
X3356610Y2492402D01*
X3355593Y2493049D01*
X3354576Y2493973D01*
X3353466Y2494990D01*
X3352357Y2496285D01*
X3351432Y2497764D01*
X3351340Y2497949D01*
X3351062Y2498504D01*
X3350693Y2499336D01*
X3350323Y2500538D01*
X3349860Y2502017D01*
X3349491Y2503681D01*
X3349213Y2505530D01*
X3349121Y2507564D01*
Y2508397D01*
X3349213Y2508951D01*
X3349306Y2509691D01*
X3349398Y2510431D01*
X3349768Y2512372D01*
X3350323Y2514406D01*
X3351155Y2516533D01*
X3351710Y2517642D01*
X3352357Y2518659D01*
X3353096Y2519584D01*
X3353929Y2520508D01*
X3354021Y2520601D01*
X3354113Y2520693D01*
X3354483Y2520878D01*
X3354853Y2521155D01*
X3355315Y2521525D01*
X3355963Y2521895D01*
X3356702Y2522265D01*
X3357534Y2522727D01*
X3358459Y2523097D01*
X3359568Y2523467D01*
X3360678Y2523837D01*
X3361972Y2524207D01*
X3363359Y2524391D01*
X3364931Y2524669D01*
X3366503Y2524761D01*
X3368259D01*
X3369369Y2517087D01*
D02*
G37*
G36*
X3338119Y2431935D02*
X3332479D01*
Y2483988D01*
X3338119D01*
Y2431935D01*
D02*
G37*
G36*
X3414210Y2408544D02*
Y2399298D01*
X3350230Y2373133D01*
Y2382749D01*
X3369646Y2390238D01*
Y2417050D01*
X3350230Y2423984D01*
Y2432952D01*
X3414210Y2408544D01*
D02*
G37*
G36*
X3396643Y2360375D02*
X3389986D01*
X3390171Y2360282D01*
X3390541Y2360005D01*
X3391188Y2359450D01*
X3391928Y2358803D01*
X3392852Y2357971D01*
X3393777Y2356954D01*
X3394702Y2355844D01*
X3395534Y2354550D01*
X3395626Y2354365D01*
X3395904Y2353903D01*
X3396181Y2353163D01*
X3396643Y2352146D01*
X3397013Y2350944D01*
X3397290Y2349557D01*
X3397568Y2347985D01*
X3397660Y2346321D01*
Y2345489D01*
X3397568Y2344472D01*
X3397383Y2343363D01*
X3397105Y2341976D01*
X3396736Y2340589D01*
X3396181Y2339202D01*
X3395441Y2337908D01*
X3395349Y2337723D01*
X3395071Y2337353D01*
X3394609Y2336798D01*
X3393870Y2336059D01*
X3393037Y2335319D01*
X3392020Y2334487D01*
X3390818Y2333747D01*
X3389432Y2333192D01*
X3389524Y2333100D01*
X3389801Y2332915D01*
X3390171Y2332638D01*
X3390726Y2332175D01*
X3391373Y2331621D01*
X3392020Y2330973D01*
X3392760Y2330234D01*
X3393592Y2329309D01*
X3394332Y2328292D01*
X3395071Y2327275D01*
X3395719Y2326073D01*
X3396366Y2324779D01*
X3396921Y2323392D01*
X3397290Y2321913D01*
X3397568Y2320434D01*
X3397660Y2318769D01*
Y2318122D01*
X3397568Y2317660D01*
Y2317013D01*
X3397475Y2316365D01*
X3397198Y2314794D01*
X3396736Y2313129D01*
X3395996Y2311373D01*
X3395071Y2309616D01*
X3393777Y2308137D01*
X3393592Y2307952D01*
X3393037Y2307582D01*
X3392205Y2306935D01*
X3391558Y2306658D01*
X3390911Y2306288D01*
X3390079Y2305918D01*
X3389247Y2305641D01*
X3388322Y2305271D01*
X3387213Y2304993D01*
X3386103Y2304808D01*
X3384809Y2304624D01*
X3383514Y2304439D01*
X3382035D01*
X3350230D01*
Y2312297D01*
X3379354D01*
X3379446D01*
X3379539D01*
X3380094D01*
X3380926D01*
X3381943Y2312390D01*
X3383052Y2312482D01*
X3384162Y2312575D01*
X3385271Y2312760D01*
X3386103Y2313037D01*
X3386196D01*
X3386473Y2313222D01*
X3386843Y2313407D01*
X3387305Y2313684D01*
X3387860Y2314054D01*
X3388415Y2314516D01*
X3388969Y2315071D01*
X3389524Y2315811D01*
X3389617Y2315903D01*
X3389709Y2316181D01*
X3389894Y2316550D01*
X3390171Y2317198D01*
X3390449Y2317845D01*
X3390634Y2318677D01*
X3390726Y2319509D01*
X3390818Y2320526D01*
Y2320988D01*
X3390726Y2321358D01*
X3390634Y2322283D01*
X3390449Y2323392D01*
X3389986Y2324686D01*
X3389432Y2326073D01*
X3388600Y2327460D01*
X3387490Y2328755D01*
X3387305Y2328847D01*
X3386843Y2329217D01*
X3386103Y2329772D01*
X3384994Y2330326D01*
X3383514Y2330973D01*
X3381758Y2331436D01*
X3379631Y2331806D01*
X3377135Y2331991D01*
X3350230D01*
Y2339849D01*
X3380278D01*
X3380371D01*
X3380556D01*
X3380741D01*
X3381111D01*
X3382128Y2339942D01*
X3383237Y2340127D01*
X3384531Y2340312D01*
X3385826Y2340681D01*
X3387028Y2341144D01*
X3388137Y2341791D01*
X3388230Y2341883D01*
X3388600Y2342161D01*
X3388969Y2342623D01*
X3389524Y2343270D01*
X3389986Y2344102D01*
X3390449Y2345212D01*
X3390726Y2346506D01*
X3390818Y2348078D01*
Y2348633D01*
X3390726Y2349280D01*
X3390634Y2350019D01*
X3390356Y2350944D01*
X3390079Y2352053D01*
X3389617Y2353070D01*
X3389062Y2354180D01*
X3388969Y2354272D01*
X3388692Y2354642D01*
X3388322Y2355105D01*
X3387767Y2355752D01*
X3387028Y2356399D01*
X3386103Y2357046D01*
X3385086Y2357693D01*
X3383884Y2358248D01*
X3383699Y2358340D01*
X3383237Y2358433D01*
X3382497Y2358618D01*
X3381480Y2358895D01*
X3380094Y2359173D01*
X3378429Y2359357D01*
X3376488Y2359450D01*
X3374269Y2359542D01*
X3350230D01*
Y2367401D01*
X3396643D01*
Y2360375D01*
D02*
G37*
G36*
Y2285670D02*
X3390541D01*
X3390726Y2285578D01*
X3391096Y2285208D01*
X3391743Y2284745D01*
X3392483Y2284006D01*
X3393407Y2283174D01*
X3394239Y2282249D01*
X3395071Y2281140D01*
X3395811Y2280030D01*
X3395904Y2279845D01*
X3396088Y2279476D01*
X3396366Y2278736D01*
X3396736Y2277811D01*
X3397105Y2276702D01*
X3397383Y2275407D01*
X3397568Y2273928D01*
X3397660Y2272264D01*
Y2271247D01*
X3397568Y2270785D01*
X3397475Y2270137D01*
X3397290Y2268751D01*
X3396921Y2267086D01*
X3396366Y2265330D01*
X3395534Y2263573D01*
X3394517Y2261816D01*
Y2261724D01*
X3394332Y2261631D01*
X3393962Y2261077D01*
X3393222Y2260245D01*
X3392298Y2259228D01*
X3391096Y2258118D01*
X3389617Y2257009D01*
X3387860Y2255899D01*
X3385918Y2254975D01*
X3385826D01*
X3385641Y2254882D01*
X3385364Y2254790D01*
X3384994Y2254605D01*
X3384439Y2254420D01*
X3383792Y2254235D01*
X3382313Y2253773D01*
X3380463Y2253310D01*
X3378429Y2252941D01*
X3376118Y2252663D01*
X3373714Y2252571D01*
X3373622D01*
X3373437D01*
X3373067D01*
X3372512D01*
X3371865Y2252663D01*
X3371125D01*
X3369461Y2252848D01*
X3367427Y2253218D01*
X3365301Y2253680D01*
X3363082Y2254327D01*
X3360863Y2255160D01*
X3360770D01*
X3360585Y2255252D01*
X3360308Y2255437D01*
X3359938Y2255622D01*
X3358921Y2256269D01*
X3357627Y2257101D01*
X3356240Y2258118D01*
X3354853Y2259413D01*
X3353466Y2260892D01*
X3352172Y2262649D01*
Y2262741D01*
X3352079Y2262833D01*
X3351894Y2263111D01*
X3351710Y2263481D01*
X3351247Y2264405D01*
X3350693Y2265700D01*
X3350138Y2267271D01*
X3349676Y2268936D01*
X3349306Y2270877D01*
X3349213Y2272819D01*
Y2273466D01*
X3349306Y2274206D01*
X3349398Y2275130D01*
X3349583Y2276240D01*
X3349860Y2277441D01*
X3350230Y2278643D01*
X3350785Y2279845D01*
X3350877Y2279938D01*
X3351062Y2280400D01*
X3351432Y2280955D01*
X3351987Y2281694D01*
X3352542Y2282434D01*
X3353281Y2283359D01*
X3354113Y2284191D01*
X3355038Y2284930D01*
X3332479D01*
Y2292789D01*
X3396643D01*
Y2285670D01*
D02*
G37*
G36*
X3414210Y2235374D02*
X3350230D01*
Y2243233D01*
X3414210D01*
Y2235374D01*
D02*
G37*
G36*
Y2215311D02*
X3405242D01*
Y2223170D01*
X3414210D01*
Y2215311D01*
D02*
G37*
G36*
X3396643D02*
X3350230D01*
Y2223170D01*
X3396643D01*
Y2215311D01*
D02*
G37*
G36*
Y2201443D02*
X3401543D01*
X3401636D01*
X3401728D01*
X3402283D01*
X3403115Y2201350D01*
X3404132D01*
X3405242Y2201258D01*
X3406444Y2201073D01*
X3407553Y2200888D01*
X3408478Y2200611D01*
X3408570Y2200518D01*
X3409032Y2200426D01*
X3409587Y2200148D01*
X3410234Y2199686D01*
X3410974Y2199131D01*
X3411806Y2198484D01*
X3412638Y2197652D01*
X3413378Y2196635D01*
X3413470Y2196542D01*
X3413655Y2196080D01*
X3414025Y2195433D01*
X3414395Y2194508D01*
X3414672Y2193399D01*
X3415042Y2192012D01*
X3415227Y2190440D01*
X3415319Y2188591D01*
Y2187297D01*
X3415227Y2186465D01*
X3415134Y2185355D01*
X3414949Y2184061D01*
X3414765Y2182767D01*
X3414487Y2181287D01*
X3407645Y2182489D01*
Y2182582D01*
X3407738Y2182859D01*
X3407830Y2183321D01*
X3407923Y2183968D01*
Y2184708D01*
X3408015Y2185448D01*
X3408108Y2187112D01*
Y2187667D01*
X3408015Y2188314D01*
X3407923Y2189054D01*
X3407738Y2189886D01*
X3407461Y2190718D01*
X3407091Y2191457D01*
X3406536Y2192105D01*
X3406444Y2192197D01*
X3406259Y2192289D01*
X3405889Y2192567D01*
X3405242Y2192844D01*
X3404502Y2193122D01*
X3403577Y2193307D01*
X3402375Y2193491D01*
X3400896Y2193584D01*
X3396643D01*
Y2184616D01*
X3390541D01*
Y2193584D01*
X3350230D01*
Y2201443D01*
X3390541D01*
Y2208377D01*
X3396643D01*
Y2201443D01*
D02*
G37*
G36*
X3414210Y2170562D02*
X3405242D01*
Y2178421D01*
X3414210D01*
Y2170562D01*
D02*
G37*
G36*
X3396643D02*
X3350230D01*
Y2178421D01*
X3396643D01*
Y2170562D01*
D02*
G37*
G36*
X3375193Y2160762D02*
X3375933D01*
X3376765Y2160670D01*
X3377690Y2160577D01*
X3379724Y2160300D01*
X3381943Y2159837D01*
X3384162Y2159283D01*
X3386381Y2158451D01*
X3386473D01*
X3386658Y2158358D01*
X3386935Y2158173D01*
X3387305Y2157988D01*
X3388322Y2157434D01*
X3389524Y2156601D01*
X3390911Y2155492D01*
X3392298Y2154198D01*
X3393685Y2152626D01*
X3394794Y2150869D01*
Y2150777D01*
X3394887Y2150592D01*
X3395071Y2150314D01*
X3395256Y2149945D01*
X3395441Y2149482D01*
X3395719Y2148928D01*
X3396273Y2147541D01*
X3396736Y2145969D01*
X3397198Y2144027D01*
X3397568Y2141993D01*
X3397660Y2139774D01*
Y2139035D01*
X3397568Y2138480D01*
Y2137925D01*
X3397475Y2137186D01*
X3397198Y2135429D01*
X3396736Y2133487D01*
X3395996Y2131453D01*
X3395071Y2129419D01*
X3393777Y2127478D01*
Y2127385D01*
X3393592Y2127293D01*
X3393037Y2126738D01*
X3392205Y2125906D01*
X3391003Y2124889D01*
X3389524Y2123872D01*
X3387675Y2122855D01*
X3385548Y2121930D01*
X3383052Y2121283D01*
X3381850Y2128957D01*
X3381943D01*
X3382035Y2129050D01*
X3382590Y2129142D01*
X3383422Y2129419D01*
X3384439Y2129882D01*
X3385548Y2130344D01*
X3386750Y2131084D01*
X3387860Y2131916D01*
X3388784Y2132840D01*
X3388877Y2132933D01*
X3389154Y2133303D01*
X3389524Y2133950D01*
X3389986Y2134689D01*
X3390449Y2135706D01*
X3390818Y2136816D01*
X3391096Y2138110D01*
X3391188Y2139497D01*
Y2140052D01*
X3391096Y2140514D01*
X3391003Y2141531D01*
X3390634Y2142918D01*
X3390171Y2144397D01*
X3389432Y2146061D01*
X3388322Y2147633D01*
X3387675Y2148373D01*
X3386935Y2149113D01*
X3386843D01*
X3386750Y2149297D01*
X3386473Y2149482D01*
X3386103Y2149667D01*
X3385641Y2149945D01*
X3385086Y2150314D01*
X3384439Y2150592D01*
X3383699Y2150962D01*
X3382775Y2151331D01*
X3381758Y2151609D01*
X3380648Y2151979D01*
X3379446Y2152256D01*
X3378152Y2152441D01*
X3376673Y2152626D01*
X3375101Y2152811D01*
X3373437D01*
X3373344D01*
X3373067D01*
X3372512D01*
X3371957Y2152718D01*
X3371125D01*
X3370293Y2152626D01*
X3368259Y2152349D01*
X3366040Y2151979D01*
X3363729Y2151331D01*
X3361695Y2150499D01*
X3360678Y2149945D01*
X3359846Y2149297D01*
X3359661Y2149113D01*
X3359199Y2148650D01*
X3358551Y2147818D01*
X3357812Y2146801D01*
X3356980Y2145414D01*
X3356332Y2143843D01*
X3355870Y2141993D01*
X3355778Y2140976D01*
X3355685Y2139959D01*
Y2139774D01*
X3355778Y2139220D01*
X3355870Y2138295D01*
X3356055Y2137278D01*
X3356332Y2136076D01*
X3356887Y2134782D01*
X3357534Y2133487D01*
X3358459Y2132286D01*
X3358551Y2132101D01*
X3359014Y2131823D01*
X3359661Y2131269D01*
X3360678Y2130621D01*
X3361880Y2129974D01*
X3363359Y2129235D01*
X3365208Y2128680D01*
X3367242Y2128310D01*
X3366225Y2120544D01*
X3366133D01*
X3365855Y2120636D01*
X3365486Y2120729D01*
X3364931Y2120821D01*
X3364191Y2121006D01*
X3363451Y2121191D01*
X3361602Y2121838D01*
X3359661Y2122670D01*
X3357534Y2123872D01*
X3355500Y2125351D01*
X3354576Y2126183D01*
X3353651Y2127108D01*
X3353559Y2127200D01*
X3353466Y2127385D01*
X3353281Y2127663D01*
X3353004Y2128033D01*
X3352634Y2128495D01*
X3352264Y2129142D01*
X3351894Y2129882D01*
X3351432Y2130621D01*
X3350600Y2132470D01*
X3349953Y2134689D01*
X3349398Y2137093D01*
X3349306Y2138480D01*
X3349213Y2139867D01*
Y2140792D01*
X3349306Y2141439D01*
X3349398Y2142271D01*
X3349583Y2143195D01*
X3349768Y2144212D01*
X3349953Y2145322D01*
X3350693Y2147818D01*
X3351247Y2149020D01*
X3351802Y2150314D01*
X3352542Y2151609D01*
X3353374Y2152811D01*
X3354298Y2154013D01*
X3355408Y2155122D01*
X3355500Y2155215D01*
X3355685Y2155400D01*
X3356055Y2155677D01*
X3356517Y2156047D01*
X3357164Y2156417D01*
X3357997Y2156971D01*
X3358921Y2157434D01*
X3359938Y2157988D01*
X3361140Y2158543D01*
X3362527Y2159005D01*
X3363914Y2159560D01*
X3365578Y2159930D01*
X3367242Y2160300D01*
X3369184Y2160577D01*
X3371125Y2160762D01*
X3373252Y2160854D01*
X3373344D01*
X3373622D01*
X3373991D01*
X3374546D01*
X3375193Y2160762D01*
D02*
G37*
G36*
X3363636Y2116383D02*
X3364469Y2116291D01*
X3365486Y2116106D01*
X3366503Y2115828D01*
X3367612Y2115459D01*
X3368629Y2114996D01*
X3368721Y2114904D01*
X3369091Y2114719D01*
X3369646Y2114349D01*
X3370293Y2113887D01*
X3371033Y2113332D01*
X3371773Y2112592D01*
X3372512Y2111853D01*
X3373159Y2110928D01*
X3373252Y2110836D01*
X3373437Y2110466D01*
X3373807Y2110004D01*
X3374176Y2109264D01*
X3374546Y2108432D01*
X3375008Y2107415D01*
X3375378Y2106398D01*
X3375748Y2105196D01*
Y2105103D01*
X3375841Y2104734D01*
X3376026Y2104179D01*
X3376118Y2103439D01*
X3376303Y2102515D01*
X3376488Y2101313D01*
X3376765Y2099926D01*
X3376950Y2098262D01*
Y2098169D01*
X3377043Y2097799D01*
Y2097337D01*
X3377135Y2096690D01*
X3377227Y2095950D01*
X3377412Y2095026D01*
X3377505Y2094009D01*
X3377690Y2092899D01*
X3378152Y2090680D01*
X3378614Y2088276D01*
X3379169Y2086150D01*
X3379446Y2085133D01*
X3379724Y2084208D01*
X3379816D01*
X3380001D01*
X3380556Y2084116D01*
X3381203D01*
X3381573D01*
X3381758D01*
X3381850D01*
X3381943D01*
X3382497D01*
X3383422Y2084208D01*
X3384439Y2084393D01*
X3385548Y2084671D01*
X3386658Y2085133D01*
X3387675Y2085688D01*
X3388507Y2086427D01*
X3388600Y2086520D01*
X3388969Y2086982D01*
X3389339Y2087722D01*
X3389894Y2088646D01*
X3390356Y2089941D01*
X3390818Y2091420D01*
X3391096Y2093269D01*
X3391188Y2095396D01*
Y2096320D01*
X3391096Y2097245D01*
X3390911Y2098539D01*
X3390726Y2099833D01*
X3390356Y2101220D01*
X3389894Y2102515D01*
X3389247Y2103624D01*
X3389154Y2103717D01*
X3388877Y2104086D01*
X3388415Y2104549D01*
X3387675Y2105103D01*
X3386750Y2105658D01*
X3385548Y2106305D01*
X3384069Y2106860D01*
X3382405Y2107415D01*
X3383422Y2115089D01*
X3383514D01*
X3383607Y2114996D01*
X3383884D01*
X3384254Y2114904D01*
X3385086Y2114626D01*
X3386288Y2114257D01*
X3387490Y2113794D01*
X3388784Y2113240D01*
X3390079Y2112500D01*
X3391281Y2111668D01*
X3391373Y2111575D01*
X3391743Y2111206D01*
X3392298Y2110651D01*
X3393037Y2109911D01*
X3393777Y2108894D01*
X3394517Y2107692D01*
X3395349Y2106305D01*
X3395996Y2104734D01*
Y2104641D01*
X3396088Y2104549D01*
X3396181Y2104271D01*
X3396273Y2103902D01*
X3396551Y2102977D01*
X3396828Y2101683D01*
X3397105Y2100203D01*
X3397383Y2098354D01*
X3397568Y2096413D01*
X3397660Y2094194D01*
Y2093177D01*
X3397568Y2092160D01*
X3397475Y2090773D01*
X3397290Y2089201D01*
X3397013Y2087629D01*
X3396643Y2086058D01*
X3396181Y2084578D01*
X3396088Y2084393D01*
X3395904Y2083931D01*
X3395626Y2083284D01*
X3395256Y2082452D01*
X3394702Y2081527D01*
X3394147Y2080603D01*
X3393407Y2079771D01*
X3392668Y2079031D01*
X3392575Y2078938D01*
X3392298Y2078754D01*
X3391835Y2078476D01*
X3391281Y2078106D01*
X3390449Y2077644D01*
X3389617Y2077274D01*
X3388600Y2076904D01*
X3387398Y2076627D01*
X3387305D01*
X3387028Y2076535D01*
X3386473Y2076442D01*
X3385733Y2076350D01*
X3384716D01*
X3383514Y2076257D01*
X3381943Y2076165D01*
X3380186D01*
X3369646D01*
X3369554D01*
X3369184D01*
X3368629D01*
X3367889D01*
X3367057D01*
X3366040D01*
X3363821Y2076072D01*
X3361510D01*
X3359199Y2075980D01*
X3358181Y2075887D01*
X3357257D01*
X3356425Y2075795D01*
X3355778Y2075702D01*
X3355685D01*
X3355315Y2075610D01*
X3354761Y2075518D01*
X3354021Y2075240D01*
X3353189Y2075055D01*
X3352264Y2074685D01*
X3351247Y2074223D01*
X3350230Y2073761D01*
Y2081989D01*
X3350323Y2082082D01*
X3350693Y2082174D01*
X3351155Y2082359D01*
X3351894Y2082637D01*
X3352727Y2082914D01*
X3353744Y2083099D01*
X3354853Y2083284D01*
X3356055Y2083469D01*
Y2083561D01*
X3355870Y2083654D01*
X3355408Y2084208D01*
X3354761Y2085041D01*
X3353929Y2086150D01*
X3353096Y2087537D01*
X3352172Y2088924D01*
X3351340Y2090403D01*
X3350693Y2091975D01*
X3350600Y2092160D01*
X3350508Y2092714D01*
X3350230Y2093546D01*
X3349953Y2094564D01*
X3349676Y2095858D01*
X3349491Y2097337D01*
X3349306Y2099001D01*
X3349213Y2100666D01*
Y2101405D01*
X3349306Y2101960D01*
Y2102607D01*
X3349398Y2103347D01*
X3349676Y2105011D01*
X3350138Y2106860D01*
X3350785Y2108894D01*
X3351710Y2110743D01*
X3352912Y2112408D01*
X3353096Y2112592D01*
X3353559Y2113055D01*
X3354391Y2113702D01*
X3355500Y2114442D01*
X3356887Y2115181D01*
X3358459Y2115828D01*
X3360400Y2116291D01*
X3361325Y2116383D01*
X3362434Y2116476D01*
X3362619D01*
X3362989D01*
X3363636Y2116383D01*
D02*
G37*
G36*
X3396643Y2062759D02*
X3408108D01*
X3412823Y2054900D01*
X3396643D01*
Y2046949D01*
X3390541D01*
Y2054900D01*
X3363267D01*
X3363082D01*
X3362712D01*
X3362157D01*
X3361510Y2054807D01*
X3360031Y2054715D01*
X3359383Y2054623D01*
X3358921Y2054530D01*
X3358736Y2054438D01*
X3358366Y2054160D01*
X3357904Y2053790D01*
X3357442Y2053143D01*
X3357349Y2052958D01*
X3357164Y2052496D01*
X3356980Y2051664D01*
X3356887Y2050462D01*
Y2049537D01*
X3356980Y2049075D01*
Y2048428D01*
X3357072Y2047688D01*
X3357164Y2046949D01*
X3350230Y2045932D01*
Y2046117D01*
X3350138Y2046486D01*
X3350045Y2047134D01*
X3349953Y2047966D01*
X3349768Y2048890D01*
X3349676Y2049907D01*
X3349583Y2051941D01*
Y2052681D01*
X3349676Y2053421D01*
X3349768Y2054345D01*
X3349860Y2055455D01*
X3350138Y2056564D01*
X3350415Y2057581D01*
X3350877Y2058598D01*
X3350970Y2058691D01*
X3351155Y2058968D01*
X3351432Y2059338D01*
X3351894Y2059893D01*
X3352357Y2060355D01*
X3353004Y2060910D01*
X3353651Y2061464D01*
X3354483Y2061834D01*
X3354576D01*
X3354946Y2062019D01*
X3355593Y2062111D01*
X3356517Y2062296D01*
X3357719Y2062481D01*
X3358459Y2062574D01*
X3359291D01*
X3360308Y2062666D01*
X3361325Y2062759D01*
X3362434D01*
X3363729D01*
X3390541D01*
Y2068583D01*
X3396643D01*
Y2062759D01*
D02*
G37*
G36*
X3414210Y2031324D02*
X3405242D01*
Y2039182D01*
X3414210D01*
Y2031324D01*
D02*
G37*
G36*
X3396643D02*
X3350230D01*
Y2039182D01*
X3396643D01*
Y2031324D01*
D02*
G37*
G36*
X3374639Y2022170D02*
X3375563D01*
X3376580Y2022078D01*
X3377875Y2021893D01*
X3379169Y2021708D01*
X3380648Y2021338D01*
X3382128Y2020969D01*
X3383699Y2020506D01*
X3385364Y2019952D01*
X3386935Y2019212D01*
X3388415Y2018472D01*
X3389894Y2017455D01*
X3391281Y2016438D01*
X3392483Y2015144D01*
X3392575Y2015051D01*
X3392668Y2014866D01*
X3392945Y2014497D01*
X3393315Y2014034D01*
X3393685Y2013480D01*
X3394147Y2012740D01*
X3394609Y2012000D01*
X3395071Y2011076D01*
X3395534Y2010059D01*
X3395996Y2008949D01*
X3396828Y2006453D01*
X3397475Y2003587D01*
X3397568Y2002108D01*
X3397660Y2000536D01*
Y1999611D01*
X3397568Y1998964D01*
X3397475Y1998132D01*
X3397290Y1997207D01*
X3397105Y1996190D01*
X3396921Y1994988D01*
X3396088Y1992492D01*
X3395626Y1991198D01*
X3394979Y1989903D01*
X3394332Y1988609D01*
X3393407Y1987315D01*
X3392483Y1986113D01*
X3391373Y1984911D01*
X3391281Y1984818D01*
X3391096Y1984633D01*
X3390726Y1984356D01*
X3390264Y1983986D01*
X3389617Y1983524D01*
X3388784Y1982969D01*
X3387860Y1982414D01*
X3386843Y1981860D01*
X3385733Y1981305D01*
X3384347Y1980750D01*
X3382960Y1980195D01*
X3381388Y1979733D01*
X3379724Y1979363D01*
X3377967Y1979086D01*
X3376118Y1978901D01*
X3374084Y1978809D01*
X3373991D01*
X3373714D01*
X3373252D01*
X3372605D01*
X3371865Y1978901D01*
X3370940Y1978994D01*
X3370016D01*
X3368999Y1979178D01*
X3366687Y1979456D01*
X3364376Y1980011D01*
X3362065Y1980658D01*
X3359938Y1981582D01*
X3359846D01*
X3359753Y1981675D01*
X3359476Y1981860D01*
X3359106Y1982045D01*
X3358181Y1982692D01*
X3357072Y1983524D01*
X3355778Y1984633D01*
X3354483Y1986020D01*
X3353189Y1987592D01*
X3351987Y1989441D01*
Y1989533D01*
X3351894Y1989626D01*
X3351710Y1989903D01*
X3351525Y1990366D01*
X3351340Y1990828D01*
X3351155Y1991383D01*
X3350600Y1992769D01*
X3350138Y1994341D01*
X3349676Y1996283D01*
X3349306Y1998317D01*
X3349213Y2000536D01*
Y2001460D01*
X3349306Y2002200D01*
X3349398Y2003032D01*
X3349583Y2003957D01*
X3349768Y2005066D01*
X3349953Y2006176D01*
X3350693Y2008672D01*
X3351247Y2010059D01*
X3351802Y2011353D01*
X3352542Y2012647D01*
X3353374Y2013942D01*
X3354298Y2015144D01*
X3355408Y2016346D01*
X3355500Y2016438D01*
X3355685Y2016623D01*
X3356055Y2016900D01*
X3356610Y2017270D01*
X3357257Y2017733D01*
X3357997Y2018195D01*
X3358921Y2018750D01*
X3360031Y2019304D01*
X3361233Y2019859D01*
X3362619Y2020414D01*
X3364099Y2020876D01*
X3365670Y2021338D01*
X3367427Y2021708D01*
X3369276Y2021986D01*
X3371310Y2022170D01*
X3373437Y2022263D01*
X3373622D01*
X3373991D01*
X3374639Y2022170D01*
D02*
G37*
G36*
X3396643Y1962536D02*
X3389986D01*
X3390079Y1962444D01*
X3390356Y1962259D01*
X3390726Y1961982D01*
X3391188Y1961612D01*
X3391743Y1961057D01*
X3392390Y1960410D01*
X3393130Y1959670D01*
X3393870Y1958746D01*
X3394517Y1957821D01*
X3395256Y1956712D01*
X3395904Y1955510D01*
X3396458Y1954215D01*
X3396921Y1952736D01*
X3397290Y1951257D01*
X3397568Y1949592D01*
X3397660Y1947836D01*
Y1947096D01*
X3397568Y1946357D01*
X3397475Y1945340D01*
X3397290Y1944138D01*
X3397013Y1942843D01*
X3396643Y1941456D01*
X3396088Y1940162D01*
X3395996Y1939977D01*
X3395811Y1939607D01*
X3395534Y1938960D01*
X3395071Y1938220D01*
X3394517Y1937296D01*
X3393777Y1936464D01*
X3393037Y1935632D01*
X3392113Y1934892D01*
X3392020Y1934800D01*
X3391651Y1934615D01*
X3391188Y1934337D01*
X3390541Y1933875D01*
X3389617Y1933505D01*
X3388692Y1933135D01*
X3387583Y1932673D01*
X3386381Y1932396D01*
X3386288D01*
X3385918Y1932303D01*
X3385364Y1932211D01*
X3384624Y1932118D01*
X3383514D01*
X3382220Y1932026D01*
X3380648Y1931933D01*
X3378707D01*
X3350230D01*
Y1939792D01*
X3378337D01*
X3378429D01*
X3378522D01*
X3379169D01*
X3380001D01*
X3381018Y1939885D01*
X3382220Y1939977D01*
X3383422Y1940162D01*
X3384531Y1940439D01*
X3385548Y1940717D01*
X3385641D01*
X3385918Y1940902D01*
X3386381Y1941179D01*
X3386935Y1941456D01*
X3387490Y1941919D01*
X3388137Y1942473D01*
X3388784Y1943213D01*
X3389339Y1944045D01*
X3389432Y1944138D01*
X3389617Y1944415D01*
X3389801Y1944970D01*
X3390079Y1945617D01*
X3390356Y1946357D01*
X3390634Y1947281D01*
X3390726Y1948391D01*
X3390818Y1949500D01*
Y1949962D01*
X3390726Y1950332D01*
X3390634Y1951257D01*
X3390449Y1952459D01*
X3389986Y1953753D01*
X3389432Y1955232D01*
X3388692Y1956712D01*
X3387583Y1958098D01*
X3387398Y1958283D01*
X3386935Y1958653D01*
X3386565Y1958931D01*
X3386103Y1959208D01*
X3385548Y1959578D01*
X3384901Y1959855D01*
X3384162Y1960225D01*
X3383237Y1960595D01*
X3382220Y1960872D01*
X3381111Y1961149D01*
X3379909Y1961334D01*
X3378614Y1961519D01*
X3377043Y1961704D01*
X3375471D01*
X3350230D01*
Y1969563D01*
X3396643D01*
Y1962536D01*
D02*
G37*
G36*
X1936809Y2523441D02*
X1936716D01*
X1936532D01*
X1936162D01*
X1935607Y2523348D01*
X1935052Y2523256D01*
X1934405D01*
X1932833Y2522978D01*
X1931169Y2522701D01*
X1929505Y2522146D01*
X1928026Y2521592D01*
X1927378Y2521222D01*
X1926824Y2520759D01*
X1926731Y2520667D01*
X1926454Y2520297D01*
X1925992Y2519742D01*
X1925529Y2519003D01*
X1924975Y2517986D01*
X1924605Y2516876D01*
X1924235Y2515490D01*
X1924142Y2514010D01*
Y2513455D01*
X1924235Y2512901D01*
X1924327Y2512069D01*
X1924512Y2511237D01*
X1924697Y2510312D01*
X1925067Y2509387D01*
X1925529Y2508463D01*
X1925622Y2508370D01*
X1925807Y2508093D01*
X1926176Y2507723D01*
X1926546Y2507168D01*
X1927194Y2506706D01*
X1927841Y2506151D01*
X1928580Y2505689D01*
X1929505Y2505319D01*
X1929597D01*
X1929967Y2505134D01*
X1930614Y2505042D01*
X1931446Y2504857D01*
X1932556Y2504672D01*
X1933943Y2504580D01*
X1935607Y2504395D01*
X1937549D01*
X1981650D01*
Y2495889D01*
X1938011D01*
X1937918D01*
X1937641D01*
X1937271D01*
X1936716D01*
X1935977Y2495981D01*
X1935237D01*
X1933481Y2496166D01*
X1931446Y2496351D01*
X1929320Y2496721D01*
X1927378Y2497276D01*
X1925529Y2497923D01*
X1925437D01*
X1925344Y2498015D01*
X1924790Y2498293D01*
X1924050Y2498755D01*
X1923033Y2499402D01*
X1922016Y2500327D01*
X1920906Y2501344D01*
X1919797Y2502638D01*
X1918872Y2504117D01*
X1918780Y2504302D01*
X1918503Y2504857D01*
X1918133Y2505689D01*
X1917763Y2506891D01*
X1917301Y2508370D01*
X1916931Y2510035D01*
X1916654Y2511884D01*
X1916561Y2513918D01*
Y2514750D01*
X1916654Y2515305D01*
X1916746Y2516044D01*
X1916838Y2516784D01*
X1917208Y2518725D01*
X1917763Y2520759D01*
X1918595Y2522886D01*
X1919150Y2523995D01*
X1919797Y2525012D01*
X1920537Y2525937D01*
X1921369Y2526862D01*
X1921461Y2526954D01*
X1921554Y2527047D01*
X1921924Y2527231D01*
X1922293Y2527509D01*
X1922756Y2527879D01*
X1923403Y2528248D01*
X1924142Y2528618D01*
X1924975Y2529081D01*
X1925899Y2529450D01*
X1927009Y2529820D01*
X1928118Y2530190D01*
X1929412Y2530560D01*
X1930799Y2530745D01*
X1932371Y2531022D01*
X1933943Y2531115D01*
X1935699D01*
X1936809Y2523441D01*
D02*
G37*
G36*
X1905559Y2438289D02*
X1899919D01*
Y2490341D01*
X1905559D01*
Y2438289D01*
D02*
G37*
G36*
X1938935Y2427194D02*
X1938843D01*
X1938751D01*
X1938473Y2427102D01*
X1938103D01*
X1937271Y2426917D01*
X1936069Y2426639D01*
X1934867Y2426269D01*
X1933481Y2425900D01*
X1932186Y2425252D01*
X1930984Y2424605D01*
X1930892Y2424513D01*
X1930522Y2424235D01*
X1929875Y2423773D01*
X1929228Y2423034D01*
X1928395Y2422109D01*
X1927563Y2421092D01*
X1926731Y2419705D01*
X1925992Y2418226D01*
Y2418133D01*
X1925899Y2418041D01*
X1925807Y2417764D01*
X1925714Y2417486D01*
X1925437Y2416562D01*
X1925067Y2415360D01*
X1924697Y2413880D01*
X1924420Y2412216D01*
X1924235Y2410367D01*
X1924142Y2408333D01*
Y2407501D01*
X1924235Y2406576D01*
X1924327Y2405467D01*
X1924512Y2404172D01*
X1924697Y2402693D01*
X1925067Y2401214D01*
X1925529Y2399827D01*
X1925622Y2399642D01*
X1925807Y2399180D01*
X1926176Y2398533D01*
X1926546Y2397701D01*
X1927194Y2396868D01*
X1927841Y2395944D01*
X1928580Y2395019D01*
X1929505Y2394280D01*
X1929597Y2394187D01*
X1929967Y2394002D01*
X1930429Y2393725D01*
X1931169Y2393355D01*
X1931909Y2392985D01*
X1932833Y2392708D01*
X1933850Y2392523D01*
X1934960Y2392431D01*
X1935052D01*
X1935515D01*
X1936069Y2392523D01*
X1936809Y2392615D01*
X1937549Y2392893D01*
X1938473Y2393170D01*
X1939398Y2393633D01*
X1940230Y2394280D01*
X1940322Y2394372D01*
X1940600Y2394650D01*
X1940969Y2395019D01*
X1941524Y2395667D01*
X1942079Y2396406D01*
X1942726Y2397423D01*
X1943373Y2398625D01*
X1943928Y2400012D01*
X1944020Y2400104D01*
X1944113Y2400567D01*
X1944390Y2401306D01*
X1944483Y2401769D01*
X1944668Y2402416D01*
X1944945Y2403063D01*
X1945130Y2403895D01*
X1945407Y2404820D01*
X1945685Y2405929D01*
X1945962Y2407039D01*
X1946332Y2408333D01*
X1946702Y2409812D01*
X1947072Y2411384D01*
Y2411477D01*
X1947164Y2411754D01*
X1947256Y2412216D01*
X1947441Y2412771D01*
X1947626Y2413511D01*
X1947811Y2414343D01*
X1948366Y2416192D01*
X1949013Y2418226D01*
X1949660Y2420352D01*
X1950308Y2422201D01*
X1950677Y2423034D01*
X1951047Y2423773D01*
Y2423866D01*
X1951140Y2423958D01*
X1951509Y2424513D01*
X1951972Y2425345D01*
X1952711Y2426269D01*
X1953543Y2427379D01*
X1954560Y2428488D01*
X1955762Y2429598D01*
X1957057Y2430522D01*
X1957242Y2430615D01*
X1957704Y2430892D01*
X1958444Y2431262D01*
X1959368Y2431632D01*
X1960570Y2432002D01*
X1961957Y2432372D01*
X1963436Y2432649D01*
X1965008Y2432741D01*
X1965100D01*
X1965193D01*
X1965470D01*
X1965840D01*
X1966765Y2432556D01*
X1967967Y2432372D01*
X1969353Y2432094D01*
X1970925Y2431632D01*
X1972497Y2430985D01*
X1974069Y2430060D01*
X1974161D01*
X1974254Y2429968D01*
X1974808Y2429505D01*
X1975548Y2428858D01*
X1976473Y2428026D01*
X1977490Y2426917D01*
X1978599Y2425530D01*
X1979616Y2423866D01*
X1980541Y2422016D01*
Y2421924D01*
X1980633Y2421739D01*
X1980726Y2421462D01*
X1980910Y2421092D01*
X1981095Y2420630D01*
X1981280Y2419982D01*
X1981650Y2418596D01*
X1982020Y2416839D01*
X1982390Y2414805D01*
X1982667Y2412678D01*
X1982760Y2410275D01*
Y2409073D01*
X1982667Y2408425D01*
Y2407778D01*
X1982482Y2406022D01*
X1982205Y2404080D01*
X1981743Y2402046D01*
X1981188Y2399827D01*
X1980448Y2397793D01*
Y2397701D01*
X1980356Y2397516D01*
X1980171Y2397238D01*
X1979986Y2396868D01*
X1979524Y2395944D01*
X1978691Y2394742D01*
X1977767Y2393355D01*
X1976565Y2391968D01*
X1975178Y2390674D01*
X1973606Y2389472D01*
X1973514D01*
X1973422Y2389380D01*
X1973144Y2389195D01*
X1972867Y2389010D01*
X1971942Y2388547D01*
X1970740Y2387993D01*
X1969261Y2387345D01*
X1967504Y2386883D01*
X1965655Y2386421D01*
X1963621Y2386236D01*
X1962974Y2394372D01*
X1963066D01*
X1963251D01*
X1963529Y2394465D01*
X1963991Y2394557D01*
X1965008Y2394834D01*
X1966395Y2395204D01*
X1967874Y2395759D01*
X1969353Y2396591D01*
X1970740Y2397608D01*
X1972035Y2398902D01*
X1972127Y2399087D01*
X1972497Y2399550D01*
X1973052Y2400474D01*
X1973606Y2401676D01*
X1974161Y2403248D01*
X1974716Y2405097D01*
X1975086Y2407408D01*
X1975178Y2409997D01*
Y2411292D01*
X1975086Y2411846D01*
X1974993Y2412586D01*
X1974808Y2414250D01*
X1974439Y2416099D01*
X1973976Y2417948D01*
X1973237Y2419705D01*
X1972774Y2420445D01*
X1972312Y2421184D01*
X1972220Y2421369D01*
X1971850Y2421739D01*
X1971203Y2422294D01*
X1970463Y2422849D01*
X1969446Y2423496D01*
X1968336Y2424051D01*
X1967042Y2424420D01*
X1965563Y2424605D01*
X1965378D01*
X1965008D01*
X1964361Y2424513D01*
X1963621Y2424328D01*
X1962697Y2424051D01*
X1961772Y2423588D01*
X1960847Y2423034D01*
X1959923Y2422201D01*
X1959830Y2422109D01*
X1959553Y2421647D01*
X1959276Y2421277D01*
X1959091Y2420907D01*
X1958813Y2420352D01*
X1958444Y2419705D01*
X1958166Y2418873D01*
X1957796Y2417948D01*
X1957427Y2416931D01*
X1956964Y2415729D01*
X1956595Y2414435D01*
X1956132Y2412956D01*
X1955762Y2411292D01*
X1955300Y2409442D01*
Y2409350D01*
X1955208Y2408980D01*
X1955115Y2408425D01*
X1954930Y2407778D01*
X1954745Y2406946D01*
X1954468Y2405929D01*
X1954191Y2404912D01*
X1953913Y2403803D01*
X1953266Y2401399D01*
X1952619Y2399087D01*
X1952249Y2397978D01*
X1951879Y2396961D01*
X1951602Y2396036D01*
X1951232Y2395297D01*
Y2395204D01*
X1951140Y2395019D01*
X1950955Y2394742D01*
X1950770Y2394372D01*
X1950215Y2393355D01*
X1949475Y2392153D01*
X1948458Y2390766D01*
X1947349Y2389380D01*
X1946055Y2388085D01*
X1944668Y2386976D01*
X1944483Y2386883D01*
X1944020Y2386513D01*
X1943188Y2386144D01*
X1942079Y2385589D01*
X1940785Y2385127D01*
X1939213Y2384664D01*
X1937456Y2384387D01*
X1935607Y2384294D01*
X1935515D01*
X1935422D01*
X1935145D01*
X1934775D01*
X1933758Y2384479D01*
X1932463Y2384664D01*
X1930984Y2385034D01*
X1929412Y2385496D01*
X1927748Y2386236D01*
X1925992Y2387253D01*
X1925899D01*
X1925807Y2387345D01*
X1925252Y2387808D01*
X1924420Y2388455D01*
X1923495Y2389380D01*
X1922386Y2390581D01*
X1921184Y2392061D01*
X1920074Y2393725D01*
X1919057Y2395667D01*
Y2395759D01*
X1918965Y2395944D01*
X1918872Y2396221D01*
X1918688Y2396591D01*
X1918503Y2397146D01*
X1918225Y2397793D01*
X1917855Y2399272D01*
X1917393Y2401029D01*
X1916931Y2403155D01*
X1916654Y2405467D01*
X1916561Y2407963D01*
Y2409442D01*
X1916654Y2410182D01*
Y2411014D01*
X1916746Y2411939D01*
X1916838Y2413048D01*
X1917208Y2415360D01*
X1917578Y2417764D01*
X1918225Y2420167D01*
X1919057Y2422479D01*
Y2422571D01*
X1919150Y2422756D01*
X1919335Y2423034D01*
X1919520Y2423403D01*
X1920074Y2424513D01*
X1920906Y2425807D01*
X1922016Y2427286D01*
X1923310Y2428858D01*
X1924882Y2430338D01*
X1926639Y2431724D01*
X1926731D01*
X1926916Y2431909D01*
X1927194Y2432002D01*
X1927563Y2432279D01*
X1928026Y2432464D01*
X1928580Y2432741D01*
X1929967Y2433389D01*
X1931724Y2434036D01*
X1933665Y2434591D01*
X1935884Y2434960D01*
X1938196Y2435145D01*
X1938935Y2427194D01*
D02*
G37*
G36*
X1964083Y2365988D02*
X1938288D01*
X1938196D01*
X1938011D01*
X1937733D01*
X1937271D01*
X1936254D01*
X1934960Y2365896D01*
X1933573D01*
X1932186Y2365803D01*
X1930984Y2365711D01*
X1929967Y2365526D01*
X1929875D01*
X1929505Y2365341D01*
X1928950Y2365156D01*
X1928211Y2364879D01*
X1927471Y2364416D01*
X1926639Y2363862D01*
X1925899Y2363214D01*
X1925159Y2362382D01*
X1925067Y2362290D01*
X1924882Y2361920D01*
X1924605Y2361458D01*
X1924327Y2360718D01*
X1923958Y2359886D01*
X1923680Y2358869D01*
X1923495Y2357760D01*
X1923403Y2356465D01*
Y2355818D01*
X1923495Y2355171D01*
X1923588Y2354339D01*
X1923865Y2353322D01*
X1924142Y2352212D01*
X1924605Y2351010D01*
X1925159Y2349808D01*
X1925252Y2349623D01*
X1925529Y2349254D01*
X1925899Y2348699D01*
X1926454Y2348052D01*
X1927194Y2347312D01*
X1928026Y2346572D01*
X1928950Y2345925D01*
X1930060Y2345370D01*
X1930245Y2345278D01*
X1930614Y2345186D01*
X1931354Y2345001D01*
X1932371Y2344723D01*
X1933665Y2344446D01*
X1935237Y2344261D01*
X1937086Y2344169D01*
X1939213Y2344076D01*
X1964083D01*
Y2336217D01*
X1917671D01*
Y2343244D01*
X1924420D01*
X1924327Y2343336D01*
X1924050Y2343521D01*
X1923680Y2343799D01*
X1923218Y2344261D01*
X1922663Y2344816D01*
X1921924Y2345463D01*
X1921276Y2346203D01*
X1920537Y2347127D01*
X1919797Y2348144D01*
X1919150Y2349254D01*
X1918503Y2350456D01*
X1917855Y2351750D01*
X1917393Y2353229D01*
X1917023Y2354709D01*
X1916746Y2356373D01*
X1916654Y2358037D01*
Y2358684D01*
X1916746Y2359516D01*
X1916838Y2360533D01*
X1917023Y2361735D01*
X1917301Y2363030D01*
X1917671Y2364324D01*
X1918225Y2365711D01*
X1918318Y2365896D01*
X1918503Y2366266D01*
X1918872Y2366913D01*
X1919335Y2367652D01*
X1919889Y2368577D01*
X1920537Y2369409D01*
X1921276Y2370241D01*
X1922108Y2370981D01*
X1922201Y2371073D01*
X1922571Y2371258D01*
X1923033Y2371536D01*
X1923773Y2371905D01*
X1924605Y2372368D01*
X1925622Y2372737D01*
X1926731Y2373107D01*
X1927933Y2373385D01*
X1928026D01*
X1928395Y2373477D01*
X1928950Y2373570D01*
X1929690D01*
X1930799Y2373662D01*
X1932001Y2373754D01*
X1933573Y2373847D01*
X1935330D01*
X1964083D01*
Y2365988D01*
D02*
G37*
G36*
X1981650Y2316062D02*
X1972682D01*
Y2323921D01*
X1981650D01*
Y2316062D01*
D02*
G37*
G36*
X1964083D02*
X1917671D01*
Y2323921D01*
X1964083D01*
Y2316062D01*
D02*
G37*
G36*
Y2300622D02*
X1936254Y2290637D01*
X1936162D01*
X1936069Y2290544D01*
X1935792Y2290452D01*
X1935515Y2290359D01*
X1934590Y2290082D01*
X1933388Y2289712D01*
X1932001Y2289250D01*
X1930429Y2288695D01*
X1928673Y2288233D01*
X1926916Y2287678D01*
X1927101Y2287585D01*
X1927563Y2287493D01*
X1928303Y2287216D01*
X1929412Y2286938D01*
X1930614Y2286476D01*
X1932186Y2286014D01*
X1933850Y2285367D01*
X1935699Y2284719D01*
X1964083Y2274457D01*
Y2266321D01*
X1917671Y2283980D01*
Y2291469D01*
X1964083Y2308943D01*
Y2300622D01*
D02*
G37*
G36*
X1942356Y2261883D02*
X1943373Y2261790D01*
X1944483Y2261698D01*
X1945777Y2261513D01*
X1947072Y2261236D01*
X1950030Y2260496D01*
X1951509Y2260034D01*
X1953081Y2259479D01*
X1954560Y2258739D01*
X1955947Y2257907D01*
X1957334Y2256983D01*
X1958629Y2255966D01*
X1958721Y2255873D01*
X1958906Y2255688D01*
X1959183Y2255318D01*
X1959646Y2254856D01*
X1960108Y2254301D01*
X1960663Y2253562D01*
X1961310Y2252730D01*
X1961865Y2251713D01*
X1962512Y2250696D01*
X1963066Y2249494D01*
X1963621Y2248199D01*
X1964083Y2246812D01*
X1964546Y2245333D01*
X1964823Y2243761D01*
X1965008Y2242097D01*
X1965100Y2240340D01*
Y2239416D01*
X1965008Y2238769D01*
X1964916Y2238029D01*
X1964731Y2237104D01*
X1964546Y2236087D01*
X1964268Y2234886D01*
X1963991Y2233776D01*
X1963529Y2232482D01*
X1963066Y2231280D01*
X1962419Y2229985D01*
X1961680Y2228691D01*
X1960847Y2227397D01*
X1959830Y2226195D01*
X1958721Y2225085D01*
X1958629Y2224993D01*
X1958444Y2224808D01*
X1958074Y2224530D01*
X1957519Y2224161D01*
X1956872Y2223698D01*
X1956132Y2223236D01*
X1955208Y2222681D01*
X1954098Y2222127D01*
X1952896Y2221572D01*
X1951602Y2221017D01*
X1950123Y2220555D01*
X1948551Y2220093D01*
X1946794Y2219723D01*
X1944945Y2219445D01*
X1943003Y2219260D01*
X1940877Y2219168D01*
X1940785D01*
X1940415D01*
X1939768D01*
X1938843Y2219260D01*
Y2253931D01*
X1938751D01*
X1938473D01*
X1938103Y2253839D01*
X1937549D01*
X1936901Y2253747D01*
X1936162Y2253562D01*
X1934498Y2253284D01*
X1932648Y2252730D01*
X1930614Y2251990D01*
X1928765Y2250973D01*
X1927101Y2249679D01*
Y2249586D01*
X1926916Y2249494D01*
X1926454Y2248939D01*
X1925807Y2248107D01*
X1925159Y2246997D01*
X1924420Y2245518D01*
X1923773Y2243854D01*
X1923310Y2242005D01*
X1923218Y2240988D01*
X1923125Y2239878D01*
Y2239139D01*
X1923218Y2238306D01*
X1923403Y2237289D01*
X1923680Y2236180D01*
X1924050Y2234886D01*
X1924605Y2233684D01*
X1925344Y2232482D01*
X1925437Y2232389D01*
X1925807Y2231927D01*
X1926361Y2231372D01*
X1927101Y2230725D01*
X1928118Y2229985D01*
X1929412Y2229153D01*
X1930892Y2228321D01*
X1932648Y2227582D01*
X1931631Y2219445D01*
X1931539D01*
X1931354Y2219538D01*
X1930984Y2219630D01*
X1930429Y2219815D01*
X1929875Y2220093D01*
X1929135Y2220370D01*
X1927563Y2221110D01*
X1925807Y2222034D01*
X1923958Y2223329D01*
X1922201Y2224808D01*
X1920537Y2226657D01*
Y2226749D01*
X1920352Y2226934D01*
X1920167Y2227212D01*
X1919889Y2227582D01*
X1919612Y2228136D01*
X1919335Y2228691D01*
X1918965Y2229431D01*
X1918595Y2230263D01*
X1918225Y2231187D01*
X1917855Y2232112D01*
X1917301Y2234423D01*
X1916838Y2237012D01*
X1916654Y2239878D01*
Y2240895D01*
X1916746Y2241542D01*
X1916838Y2242374D01*
X1917023Y2243391D01*
X1917208Y2244501D01*
X1917393Y2245703D01*
X1918133Y2248292D01*
X1918688Y2249679D01*
X1919242Y2250973D01*
X1919982Y2252360D01*
X1920814Y2253654D01*
X1921739Y2254856D01*
X1922848Y2256058D01*
X1922941Y2256150D01*
X1923125Y2256335D01*
X1923495Y2256613D01*
X1924050Y2256983D01*
X1924697Y2257445D01*
X1925437Y2257907D01*
X1926361Y2258462D01*
X1927378Y2259017D01*
X1928580Y2259571D01*
X1929875Y2260126D01*
X1931354Y2260588D01*
X1932926Y2261051D01*
X1934590Y2261420D01*
X1936439Y2261698D01*
X1938381Y2261883D01*
X1940415Y2261975D01*
X1940507D01*
X1940969D01*
X1941524D01*
X1942356Y2261883D01*
D02*
G37*
G36*
X1964083Y2201879D02*
X1938288D01*
X1938196D01*
X1938011D01*
X1937733D01*
X1937271D01*
X1936254D01*
X1934960Y2201786D01*
X1933573D01*
X1932186Y2201694D01*
X1930984Y2201601D01*
X1929967Y2201416D01*
X1929875D01*
X1929505Y2201232D01*
X1928950Y2201047D01*
X1928211Y2200769D01*
X1927471Y2200307D01*
X1926639Y2199752D01*
X1925899Y2199105D01*
X1925159Y2198273D01*
X1925067Y2198181D01*
X1924882Y2197811D01*
X1924605Y2197348D01*
X1924327Y2196609D01*
X1923958Y2195777D01*
X1923680Y2194760D01*
X1923495Y2193650D01*
X1923403Y2192356D01*
Y2191709D01*
X1923495Y2191061D01*
X1923588Y2190229D01*
X1923865Y2189212D01*
X1924142Y2188103D01*
X1924605Y2186901D01*
X1925159Y2185699D01*
X1925252Y2185514D01*
X1925529Y2185144D01*
X1925899Y2184589D01*
X1926454Y2183942D01*
X1927194Y2183203D01*
X1928026Y2182463D01*
X1928950Y2181816D01*
X1930060Y2181261D01*
X1930245Y2181169D01*
X1930614Y2181076D01*
X1931354Y2180891D01*
X1932371Y2180614D01*
X1933665Y2180337D01*
X1935237Y2180152D01*
X1937086Y2180059D01*
X1939213Y2179967D01*
X1964083D01*
Y2172108D01*
X1917671D01*
Y2179135D01*
X1924420D01*
X1924327Y2179227D01*
X1924050Y2179412D01*
X1923680Y2179689D01*
X1923218Y2180152D01*
X1922663Y2180706D01*
X1921924Y2181354D01*
X1921276Y2182093D01*
X1920537Y2183018D01*
X1919797Y2184035D01*
X1919150Y2185144D01*
X1918503Y2186346D01*
X1917855Y2187641D01*
X1917393Y2189120D01*
X1917023Y2190599D01*
X1916746Y2192263D01*
X1916654Y2193928D01*
Y2194575D01*
X1916746Y2195407D01*
X1916838Y2196424D01*
X1917023Y2197626D01*
X1917301Y2198920D01*
X1917671Y2200215D01*
X1918225Y2201601D01*
X1918318Y2201786D01*
X1918503Y2202156D01*
X1918872Y2202803D01*
X1919335Y2203543D01*
X1919889Y2204468D01*
X1920537Y2205300D01*
X1921276Y2206132D01*
X1922108Y2206871D01*
X1922201Y2206964D01*
X1922571Y2207149D01*
X1923033Y2207426D01*
X1923773Y2207796D01*
X1924605Y2208258D01*
X1925622Y2208628D01*
X1926731Y2208998D01*
X1927933Y2209275D01*
X1928026D01*
X1928395Y2209368D01*
X1928950Y2209460D01*
X1929690D01*
X1930799Y2209553D01*
X1932001Y2209645D01*
X1933573Y2209738D01*
X1935330D01*
X1964083D01*
Y2201879D01*
D02*
G37*
G36*
Y2152785D02*
X1957057D01*
X1957149Y2152692D01*
X1957796Y2152322D01*
X1958629Y2151860D01*
X1959646Y2151120D01*
X1960663Y2150381D01*
X1961772Y2149549D01*
X1962697Y2148717D01*
X1963436Y2147884D01*
X1963529Y2147792D01*
X1963714Y2147515D01*
X1963991Y2146960D01*
X1964268Y2146405D01*
X1964546Y2145666D01*
X1964823Y2144741D01*
X1965008Y2143816D01*
X1965100Y2142799D01*
Y2142152D01*
X1965008Y2141320D01*
X1964823Y2140303D01*
X1964453Y2139101D01*
X1963991Y2137807D01*
X1963344Y2136327D01*
X1962512Y2134756D01*
X1955300Y2137622D01*
X1955393Y2137714D01*
X1955577Y2138084D01*
X1955855Y2138639D01*
X1956132Y2139379D01*
X1956410Y2140211D01*
X1956687Y2141228D01*
X1956872Y2142245D01*
X1956964Y2143262D01*
Y2143724D01*
X1956872Y2144186D01*
X1956779Y2144833D01*
X1956595Y2145481D01*
X1956317Y2146313D01*
X1955947Y2147145D01*
X1955393Y2147884D01*
X1955300Y2147977D01*
X1955115Y2148254D01*
X1954745Y2148532D01*
X1954283Y2148994D01*
X1953636Y2149456D01*
X1952896Y2149918D01*
X1952064Y2150381D01*
X1951047Y2150751D01*
X1950862Y2150843D01*
X1950308Y2150935D01*
X1949475Y2151120D01*
X1948366Y2151398D01*
X1946979Y2151675D01*
X1945407Y2151860D01*
X1943743Y2151953D01*
X1941894Y2152045D01*
X1917671D01*
Y2159904D01*
X1964083D01*
Y2152785D01*
D02*
G37*
G36*
X4817169Y2517087D02*
X4817076D01*
X4816891D01*
X4816521D01*
X4815967Y2516995D01*
X4815412Y2516903D01*
X4814765D01*
X4813193Y2516625D01*
X4811529Y2516348D01*
X4809865Y2515793D01*
X4808385Y2515238D01*
X4807738Y2514868D01*
X4807183Y2514406D01*
X4807091Y2514314D01*
X4806814Y2513944D01*
X4806351Y2513389D01*
X4805889Y2512650D01*
X4805334Y2511633D01*
X4804964Y2510523D01*
X4804595Y2509136D01*
X4804502Y2507657D01*
Y2507102D01*
X4804595Y2506547D01*
X4804687Y2505715D01*
X4804872Y2504883D01*
X4805057Y2503959D01*
X4805427Y2503034D01*
X4805889Y2502110D01*
X4805981Y2502017D01*
X4806166Y2501740D01*
X4806536Y2501370D01*
X4806906Y2500815D01*
X4807553Y2500353D01*
X4808200Y2499798D01*
X4808940Y2499336D01*
X4809865Y2498966D01*
X4809957D01*
X4810327Y2498781D01*
X4810974Y2498689D01*
X4811806Y2498504D01*
X4812916Y2498319D01*
X4814303Y2498226D01*
X4815967Y2498041D01*
X4817908D01*
X4862010D01*
Y2489536D01*
X4818371D01*
X4818278D01*
X4818001D01*
X4817631D01*
X4817076D01*
X4816337Y2489628D01*
X4815597D01*
X4813840Y2489813D01*
X4811806Y2489998D01*
X4809680Y2490368D01*
X4807738Y2490922D01*
X4805889Y2491570D01*
X4805797D01*
X4805704Y2491662D01*
X4805149Y2491939D01*
X4804410Y2492402D01*
X4803393Y2493049D01*
X4802376Y2493973D01*
X4801266Y2494990D01*
X4800157Y2496285D01*
X4799232Y2497764D01*
X4799140Y2497949D01*
X4798862Y2498504D01*
X4798493Y2499336D01*
X4798123Y2500538D01*
X4797660Y2502017D01*
X4797291Y2503681D01*
X4797013Y2505530D01*
X4796921Y2507564D01*
Y2508397D01*
X4797013Y2508951D01*
X4797106Y2509691D01*
X4797198Y2510431D01*
X4797568Y2512372D01*
X4798123Y2514406D01*
X4798955Y2516533D01*
X4799510Y2517642D01*
X4800157Y2518659D01*
X4800896Y2519584D01*
X4801729Y2520508D01*
X4801821Y2520601D01*
X4801913Y2520693D01*
X4802283Y2520878D01*
X4802653Y2521155D01*
X4803115Y2521525D01*
X4803763Y2521895D01*
X4804502Y2522265D01*
X4805334Y2522727D01*
X4806259Y2523097D01*
X4807368Y2523467D01*
X4808478Y2523837D01*
X4809772Y2524207D01*
X4811159Y2524391D01*
X4812731Y2524669D01*
X4814303Y2524761D01*
X4816059D01*
X4817169Y2517087D01*
D02*
G37*
G36*
X4785919Y2431935D02*
X4780279D01*
Y2483988D01*
X4785919D01*
Y2431935D01*
D02*
G37*
G36*
X4830667Y2428422D02*
X4831777D01*
X4833071Y2428237D01*
X4834643Y2428052D01*
X4836400Y2427775D01*
X4838249Y2427405D01*
X4840190Y2427035D01*
X4842224Y2426481D01*
X4844258Y2425741D01*
X4846385Y2424909D01*
X4848419Y2423984D01*
X4850453Y2422782D01*
X4852302Y2421488D01*
X4854059Y2420009D01*
X4854151Y2419916D01*
X4854428Y2419639D01*
X4854891Y2419084D01*
X4855445Y2418437D01*
X4856185Y2417605D01*
X4856925Y2416588D01*
X4857757Y2415386D01*
X4858589Y2413999D01*
X4859421Y2412520D01*
X4860253Y2410855D01*
X4860993Y2409006D01*
X4861732Y2407065D01*
X4862287Y2404938D01*
X4862749Y2402719D01*
X4863027Y2400408D01*
X4863119Y2397912D01*
Y2397080D01*
X4863027Y2396432D01*
Y2395600D01*
X4862934Y2394768D01*
X4862749Y2393659D01*
X4862565Y2392549D01*
X4862102Y2390145D01*
X4861363Y2387372D01*
X4860253Y2384690D01*
X4859606Y2383304D01*
X4858866Y2381917D01*
X4858774Y2381824D01*
X4858681Y2381639D01*
X4858404Y2381270D01*
X4858127Y2380715D01*
X4857664Y2380160D01*
X4857110Y2379420D01*
X4855815Y2377849D01*
X4854151Y2376184D01*
X4852117Y2374335D01*
X4849713Y2372579D01*
X4847032Y2371099D01*
X4846940D01*
X4846662Y2370914D01*
X4846292Y2370730D01*
X4845738Y2370545D01*
X4844998Y2370175D01*
X4844166Y2369897D01*
X4843149Y2369528D01*
X4842039Y2369158D01*
X4840837Y2368880D01*
X4839543Y2368511D01*
X4838064Y2368141D01*
X4836584Y2367863D01*
X4833348Y2367494D01*
X4829835Y2367309D01*
X4829743D01*
X4829373D01*
X4828911D01*
X4828171Y2367401D01*
X4827339D01*
X4826322Y2367494D01*
X4825212Y2367679D01*
X4824010Y2367771D01*
X4821329Y2368233D01*
X4818371Y2368973D01*
X4815412Y2369990D01*
X4813933Y2370545D01*
X4812453Y2371284D01*
X4812361D01*
X4812084Y2371469D01*
X4811714Y2371654D01*
X4811159Y2372024D01*
X4810512Y2372394D01*
X4809865Y2372856D01*
X4808108Y2374150D01*
X4806259Y2375722D01*
X4804317Y2377571D01*
X4802468Y2379790D01*
X4800804Y2382379D01*
Y2382471D01*
X4800619Y2382656D01*
X4800434Y2383119D01*
X4800157Y2383673D01*
X4799879Y2384321D01*
X4799602Y2385060D01*
X4799232Y2385985D01*
X4798862Y2387002D01*
X4798493Y2388111D01*
X4798123Y2389313D01*
X4797568Y2391994D01*
X4797106Y2394861D01*
X4796921Y2397912D01*
Y2398836D01*
X4797013Y2399391D01*
Y2400223D01*
X4797198Y2401148D01*
X4797291Y2402165D01*
X4797476Y2403367D01*
X4798030Y2405863D01*
X4798770Y2408544D01*
X4799879Y2411318D01*
X4800527Y2412705D01*
X4801266Y2414091D01*
X4801359Y2414184D01*
X4801451Y2414369D01*
X4801729Y2414739D01*
X4802098Y2415293D01*
X4802468Y2415848D01*
X4803023Y2416495D01*
X4804410Y2418067D01*
X4806074Y2419824D01*
X4808108Y2421673D01*
X4810419Y2423337D01*
X4813101Y2424909D01*
X4813193D01*
X4813470Y2425094D01*
X4813840Y2425279D01*
X4814395Y2425464D01*
X4815135Y2425741D01*
X4815967Y2426018D01*
X4816891Y2426388D01*
X4817908Y2426665D01*
X4819110Y2427035D01*
X4820312Y2427405D01*
X4823086Y2427960D01*
X4825952Y2428330D01*
X4829095Y2428515D01*
X4829188D01*
X4829280D01*
X4829835D01*
X4830667Y2428422D01*
D02*
G37*
G36*
X4862010Y2312760D02*
X4854428D01*
Y2347523D01*
X4834643D01*
Y2317475D01*
X4827061D01*
Y2347523D01*
X4798030D01*
Y2356029D01*
X4862010D01*
Y2312760D01*
D02*
G37*
G36*
Y2258118D02*
X4854428D01*
Y2292882D01*
X4834643D01*
Y2262833D01*
X4827061D01*
Y2292882D01*
X4798030D01*
Y2301388D01*
X4862010D01*
Y2258118D01*
D02*
G37*
G36*
X4819295Y2242031D02*
X4819203D01*
X4819110D01*
X4818833Y2241938D01*
X4818463D01*
X4817631Y2241753D01*
X4816429Y2241476D01*
X4815227Y2241106D01*
X4813840Y2240736D01*
X4812546Y2240089D01*
X4811344Y2239442D01*
X4811251Y2239350D01*
X4810882Y2239072D01*
X4810234Y2238610D01*
X4809587Y2237870D01*
X4808755Y2236946D01*
X4807923Y2235929D01*
X4807091Y2234542D01*
X4806351Y2233063D01*
Y2232970D01*
X4806259Y2232878D01*
X4806166Y2232600D01*
X4806074Y2232323D01*
X4805797Y2231398D01*
X4805427Y2230196D01*
X4805057Y2228717D01*
X4804780Y2227053D01*
X4804595Y2225204D01*
X4804502Y2223170D01*
Y2222338D01*
X4804595Y2221413D01*
X4804687Y2220304D01*
X4804872Y2219009D01*
X4805057Y2217530D01*
X4805427Y2216051D01*
X4805889Y2214664D01*
X4805981Y2214479D01*
X4806166Y2214017D01*
X4806536Y2213369D01*
X4806906Y2212537D01*
X4807553Y2211705D01*
X4808200Y2210781D01*
X4808940Y2209856D01*
X4809865Y2209116D01*
X4809957Y2209024D01*
X4810327Y2208839D01*
X4810789Y2208562D01*
X4811529Y2208192D01*
X4812269Y2207822D01*
X4813193Y2207545D01*
X4814210Y2207360D01*
X4815320Y2207267D01*
X4815412D01*
X4815874D01*
X4816429Y2207360D01*
X4817169Y2207452D01*
X4817908Y2207730D01*
X4818833Y2208007D01*
X4819757Y2208469D01*
X4820590Y2209116D01*
X4820682Y2209209D01*
X4820959Y2209486D01*
X4821329Y2209856D01*
X4821884Y2210503D01*
X4822439Y2211243D01*
X4823086Y2212260D01*
X4823733Y2213462D01*
X4824288Y2214849D01*
X4824380Y2214941D01*
X4824473Y2215403D01*
X4824750Y2216143D01*
X4824843Y2216605D01*
X4825027Y2217253D01*
X4825305Y2217900D01*
X4825490Y2218732D01*
X4825767Y2219656D01*
X4826044Y2220766D01*
X4826322Y2221875D01*
X4826692Y2223170D01*
X4827061Y2224649D01*
X4827431Y2226221D01*
Y2226313D01*
X4827524Y2226591D01*
X4827616Y2227053D01*
X4827801Y2227608D01*
X4827986Y2228347D01*
X4828171Y2229179D01*
X4828726Y2231029D01*
X4829373Y2233063D01*
X4830020Y2235189D01*
X4830667Y2237038D01*
X4831037Y2237870D01*
X4831407Y2238610D01*
Y2238702D01*
X4831499Y2238795D01*
X4831869Y2239350D01*
X4832331Y2240182D01*
X4833071Y2241106D01*
X4833903Y2242216D01*
X4834920Y2243325D01*
X4836122Y2244435D01*
X4837417Y2245359D01*
X4837601Y2245452D01*
X4838064Y2245729D01*
X4838803Y2246099D01*
X4839728Y2246469D01*
X4840930Y2246839D01*
X4842317Y2247208D01*
X4843796Y2247486D01*
X4845368Y2247578D01*
X4845460D01*
X4845553D01*
X4845830D01*
X4846200D01*
X4847124Y2247393D01*
X4848326Y2247208D01*
X4849713Y2246931D01*
X4851285Y2246469D01*
X4852857Y2245822D01*
X4854428Y2244897D01*
X4854521D01*
X4854613Y2244805D01*
X4855168Y2244342D01*
X4855908Y2243695D01*
X4856832Y2242863D01*
X4857849Y2241753D01*
X4858959Y2240367D01*
X4859976Y2238702D01*
X4860900Y2236853D01*
Y2236761D01*
X4860993Y2236576D01*
X4861085Y2236299D01*
X4861270Y2235929D01*
X4861455Y2235466D01*
X4861640Y2234819D01*
X4862010Y2233432D01*
X4862380Y2231676D01*
X4862749Y2229642D01*
X4863027Y2227515D01*
X4863119Y2225111D01*
Y2223909D01*
X4863027Y2223262D01*
Y2222615D01*
X4862842Y2220858D01*
X4862565Y2218917D01*
X4862102Y2216883D01*
X4861548Y2214664D01*
X4860808Y2212630D01*
Y2212537D01*
X4860715Y2212352D01*
X4860531Y2212075D01*
X4860346Y2211705D01*
X4859883Y2210781D01*
X4859051Y2209579D01*
X4858127Y2208192D01*
X4856925Y2206805D01*
X4855538Y2205511D01*
X4853966Y2204309D01*
X4853874D01*
X4853781Y2204216D01*
X4853504Y2204031D01*
X4853227Y2203846D01*
X4852302Y2203384D01*
X4851100Y2202829D01*
X4849621Y2202182D01*
X4847864Y2201720D01*
X4846015Y2201258D01*
X4843981Y2201073D01*
X4843334Y2209209D01*
X4843426D01*
X4843611D01*
X4843888Y2209301D01*
X4844351Y2209394D01*
X4845368Y2209671D01*
X4846755Y2210041D01*
X4848234Y2210596D01*
X4849713Y2211428D01*
X4851100Y2212445D01*
X4852394Y2213739D01*
X4852487Y2213924D01*
X4852857Y2214386D01*
X4853411Y2215311D01*
X4853966Y2216513D01*
X4854521Y2218085D01*
X4855076Y2219934D01*
X4855445Y2222245D01*
X4855538Y2224834D01*
Y2226128D01*
X4855445Y2226683D01*
X4855353Y2227423D01*
X4855168Y2229087D01*
X4854798Y2230936D01*
X4854336Y2232785D01*
X4853596Y2234542D01*
X4853134Y2235282D01*
X4852672Y2236021D01*
X4852579Y2236206D01*
X4852209Y2236576D01*
X4851562Y2237131D01*
X4850823Y2237685D01*
X4849806Y2238333D01*
X4848696Y2238887D01*
X4847402Y2239257D01*
X4845922Y2239442D01*
X4845738D01*
X4845368D01*
X4844721Y2239350D01*
X4843981Y2239165D01*
X4843056Y2238887D01*
X4842132Y2238425D01*
X4841207Y2237870D01*
X4840283Y2237038D01*
X4840190Y2236946D01*
X4839913Y2236483D01*
X4839635Y2236114D01*
X4839451Y2235744D01*
X4839173Y2235189D01*
X4838803Y2234542D01*
X4838526Y2233710D01*
X4838156Y2232785D01*
X4837786Y2231768D01*
X4837324Y2230566D01*
X4836954Y2229272D01*
X4836492Y2227793D01*
X4836122Y2226128D01*
X4835660Y2224279D01*
Y2224187D01*
X4835567Y2223817D01*
X4835475Y2223262D01*
X4835290Y2222615D01*
X4835105Y2221783D01*
X4834828Y2220766D01*
X4834550Y2219749D01*
X4834273Y2218639D01*
X4833626Y2216236D01*
X4832979Y2213924D01*
X4832609Y2212815D01*
X4832239Y2211798D01*
X4831962Y2210873D01*
X4831592Y2210134D01*
Y2210041D01*
X4831499Y2209856D01*
X4831314Y2209579D01*
X4831130Y2209209D01*
X4830575Y2208192D01*
X4829835Y2206990D01*
X4828818Y2205603D01*
X4827709Y2204216D01*
X4826414Y2202922D01*
X4825027Y2201812D01*
X4824843Y2201720D01*
X4824380Y2201350D01*
X4823548Y2200980D01*
X4822439Y2200426D01*
X4821144Y2199963D01*
X4819573Y2199501D01*
X4817816Y2199224D01*
X4815967Y2199131D01*
X4815874D01*
X4815782D01*
X4815504D01*
X4815135D01*
X4814118Y2199316D01*
X4812823Y2199501D01*
X4811344Y2199871D01*
X4809772Y2200333D01*
X4808108Y2201073D01*
X4806351Y2202090D01*
X4806259D01*
X4806166Y2202182D01*
X4805612Y2202645D01*
X4804780Y2203292D01*
X4803855Y2204216D01*
X4802746Y2205418D01*
X4801544Y2206898D01*
X4800434Y2208562D01*
X4799417Y2210503D01*
Y2210596D01*
X4799325Y2210781D01*
X4799232Y2211058D01*
X4799047Y2211428D01*
X4798862Y2211983D01*
X4798585Y2212630D01*
X4798215Y2214109D01*
X4797753Y2215866D01*
X4797291Y2217992D01*
X4797013Y2220304D01*
X4796921Y2222800D01*
Y2224279D01*
X4797013Y2225019D01*
Y2225851D01*
X4797106Y2226776D01*
X4797198Y2227885D01*
X4797568Y2230196D01*
X4797938Y2232600D01*
X4798585Y2235004D01*
X4799417Y2237316D01*
Y2237408D01*
X4799510Y2237593D01*
X4799694Y2237870D01*
X4799879Y2238240D01*
X4800434Y2239350D01*
X4801266Y2240644D01*
X4802376Y2242123D01*
X4803670Y2243695D01*
X4805242Y2245174D01*
X4806999Y2246561D01*
X4807091D01*
X4807276Y2246746D01*
X4807553Y2246839D01*
X4807923Y2247116D01*
X4808385Y2247301D01*
X4808940Y2247578D01*
X4810327Y2248225D01*
X4812084Y2248873D01*
X4814025Y2249427D01*
X4816244Y2249797D01*
X4818556Y2249982D01*
X4819295Y2242031D01*
D02*
G37*
G36*
X4862010Y2141069D02*
X4854428D01*
Y2178883D01*
X4834920D01*
Y2143473D01*
X4827339D01*
Y2178883D01*
X4805612D01*
Y2139590D01*
X4798030D01*
Y2187389D01*
X4862010D01*
Y2141069D01*
D02*
G37*
G36*
Y2081989D02*
X4854428D01*
Y2103069D01*
X4798030D01*
Y2111575D01*
X4854428D01*
Y2132655D01*
X4862010D01*
Y2081989D01*
D02*
G37*
G36*
X661429Y645068D02*
X662169Y644976D01*
X663001Y644883D01*
X663926Y644698D01*
X664943Y644514D01*
X667162Y643959D01*
X669473Y643034D01*
X670675Y642480D01*
X671785Y641832D01*
X672894Y641000D01*
X674003Y640168D01*
X674096Y640076D01*
X674281Y639891D01*
X674558Y639613D01*
X674836Y639244D01*
X675298Y638781D01*
X675760Y638134D01*
X676315Y637487D01*
X676870Y636655D01*
X677424Y635730D01*
X677979Y634806D01*
X678996Y632587D01*
X679828Y629998D01*
X680106Y628611D01*
X680290Y627132D01*
X672432Y626115D01*
Y626207D01*
X672339Y626392D01*
X672247Y626762D01*
X672154Y627224D01*
X672062Y627779D01*
X671877Y628426D01*
X671415Y629813D01*
X670768Y631477D01*
X669935Y633049D01*
X669011Y634528D01*
X667901Y635823D01*
X667716Y635915D01*
X667347Y636285D01*
X666607Y636747D01*
X665682Y637210D01*
X664573Y637764D01*
X663186Y638227D01*
X661614Y638596D01*
X659950Y638689D01*
X659395D01*
X659026Y638596D01*
X658009Y638504D01*
X656714Y638227D01*
X655235Y637764D01*
X653663Y637117D01*
X652091Y636193D01*
X650612Y634898D01*
X650427Y634713D01*
X649965Y634158D01*
X649410Y633326D01*
X648671Y632217D01*
X647931Y630830D01*
X647376Y629258D01*
X646914Y627409D01*
X646729Y625375D01*
Y625283D01*
Y625098D01*
Y624820D01*
X646821Y624451D01*
X646914Y623434D01*
X647191Y622232D01*
X647561Y620752D01*
X648208Y619273D01*
X649133Y617794D01*
X650335Y616407D01*
X650520Y616222D01*
X650982Y615852D01*
X651722Y615297D01*
X652739Y614650D01*
X654033Y614003D01*
X655605Y613448D01*
X657361Y613079D01*
X659303Y612894D01*
X660135D01*
X660782Y612986D01*
X661614Y613079D01*
X662539Y613263D01*
X663648Y613448D01*
X664850Y613726D01*
X663926Y606792D01*
X663463D01*
X663094Y606884D01*
X661892D01*
X660875Y606699D01*
X659673Y606514D01*
X658286Y606237D01*
X656714Y605775D01*
X655235Y605127D01*
X653663Y604295D01*
X653571D01*
X653478Y604203D01*
X653016Y603833D01*
X652369Y603186D01*
X651629Y602354D01*
X650889Y601152D01*
X650242Y599765D01*
X649780Y598193D01*
X649595Y597269D01*
Y596252D01*
Y596159D01*
Y596067D01*
Y595512D01*
X649780Y594772D01*
X649965Y593755D01*
X650335Y592646D01*
X650797Y591444D01*
X651537Y590242D01*
X652554Y589132D01*
X652646Y589040D01*
X653108Y588670D01*
X653756Y588208D01*
X654588Y587653D01*
X655697Y587191D01*
X656992Y586729D01*
X658471Y586359D01*
X660135Y586266D01*
X660875D01*
X661707Y586451D01*
X662816Y586636D01*
X664018Y587006D01*
X665220Y587468D01*
X666515Y588208D01*
X667716Y589132D01*
X667809Y589225D01*
X668179Y589687D01*
X668733Y590334D01*
X669381Y591259D01*
X670028Y592461D01*
X670675Y593940D01*
X671230Y595697D01*
X671600Y597731D01*
X679458Y596344D01*
Y596252D01*
X679366Y595974D01*
X679273Y595604D01*
X679181Y595050D01*
X678996Y594402D01*
X678719Y593663D01*
X678164Y591906D01*
X677239Y589872D01*
X676130Y587838D01*
X674743Y585896D01*
X672986Y584140D01*
X672894Y584047D01*
X672709Y583955D01*
X672432Y583770D01*
X672062Y583493D01*
X671600Y583123D01*
X670952Y582753D01*
X670305Y582383D01*
X669473Y581921D01*
X667624Y581181D01*
X665498Y580442D01*
X663001Y579979D01*
X661707Y579794D01*
X659395D01*
X658378Y579887D01*
X657176Y580072D01*
X655697Y580349D01*
X654033Y580811D01*
X652369Y581366D01*
X650705Y582106D01*
X650612D01*
X650520Y582198D01*
X649965Y582476D01*
X649133Y583030D01*
X648208Y583678D01*
X647099Y584602D01*
X645989Y585619D01*
X644880Y586821D01*
X643955Y588208D01*
X643863Y588393D01*
X643585Y588855D01*
X643216Y589687D01*
X642753Y590704D01*
X642291Y591906D01*
X641921Y593293D01*
X641644Y594865D01*
X641551Y596436D01*
Y596621D01*
Y597176D01*
X641644Y597916D01*
X641829Y598933D01*
X642106Y600135D01*
X642568Y601429D01*
X643123Y602723D01*
X643863Y604018D01*
X643955Y604203D01*
X644233Y604573D01*
X644787Y605220D01*
X645527Y605959D01*
X646452Y606792D01*
X647561Y607716D01*
X648855Y608548D01*
X650427Y609380D01*
X650335D01*
X650150Y609473D01*
X649872Y609565D01*
X649503Y609658D01*
X648486Y610027D01*
X647191Y610582D01*
X645712Y611322D01*
X644233Y612246D01*
X642846Y613448D01*
X641551Y614835D01*
X641459Y615020D01*
X641089Y615575D01*
X640534Y616499D01*
X639980Y617701D01*
X639425Y619181D01*
X638870Y620937D01*
X638500Y622971D01*
X638408Y625190D01*
Y625283D01*
Y625560D01*
Y626022D01*
X638500Y626577D01*
X638593Y627317D01*
X638778Y628149D01*
X638963Y629073D01*
X639148Y630090D01*
X639887Y632309D01*
X640442Y633511D01*
X640997Y634621D01*
X641736Y635823D01*
X642568Y637025D01*
X643493Y638227D01*
X644602Y639336D01*
X644695Y639428D01*
X644880Y639613D01*
X645250Y639891D01*
X645712Y640261D01*
X646267Y640723D01*
X647006Y641185D01*
X647838Y641740D01*
X648855Y642202D01*
X649872Y642757D01*
X651074Y643312D01*
X652276Y643774D01*
X653663Y644236D01*
X655142Y644606D01*
X656714Y644883D01*
X658286Y645068D01*
X660043Y645161D01*
X660875D01*
X661429Y645068D01*
D02*
G37*
G36*
X741681Y580072D02*
X717088D01*
X715424Y580164D01*
X713575Y580257D01*
X711726Y580442D01*
X709876Y580719D01*
X708305Y580996D01*
X708212D01*
X708027Y581089D01*
X707750D01*
X707380Y581274D01*
X706363Y581551D01*
X705069Y582013D01*
X703589Y582661D01*
X702018Y583493D01*
X700446Y584417D01*
X698967Y585619D01*
X698874Y585712D01*
X698782Y585804D01*
X698504Y586081D01*
X698134Y586359D01*
X697210Y587283D01*
X696100Y588578D01*
X694899Y590149D01*
X693604Y591999D01*
X692402Y594125D01*
X691385Y596529D01*
Y596621D01*
X691293Y596806D01*
X691108Y597176D01*
X691015Y597731D01*
X690738Y598378D01*
X690553Y599118D01*
X690368Y599950D01*
X690091Y600967D01*
X689813Y601984D01*
X689629Y603186D01*
X689166Y605775D01*
X688889Y608641D01*
X688796Y611784D01*
Y611877D01*
Y612062D01*
Y612524D01*
Y612986D01*
X688889Y613633D01*
Y614373D01*
X688981Y616130D01*
X689259Y618164D01*
X689536Y620290D01*
X689998Y622509D01*
X690553Y624728D01*
Y624820D01*
X690646Y625005D01*
X690738Y625283D01*
X690830Y625653D01*
X691200Y626670D01*
X691755Y627964D01*
X692310Y629443D01*
X693049Y630923D01*
X693974Y632494D01*
X694899Y633974D01*
X694991Y634158D01*
X695361Y634621D01*
X695916Y635268D01*
X696655Y636100D01*
X697487Y637025D01*
X698504Y637949D01*
X699521Y638966D01*
X700723Y639798D01*
X700908Y639891D01*
X701278Y640168D01*
X701925Y640538D01*
X702850Y641000D01*
X703959Y641555D01*
X705254Y642017D01*
X706733Y642572D01*
X708397Y643034D01*
X708582D01*
X708859Y643127D01*
X709137Y643219D01*
X710061Y643312D01*
X711356Y643497D01*
X712835Y643681D01*
X714592Y643866D01*
X716533Y643959D01*
X718660Y644051D01*
X741681D01*
Y580072D01*
D02*
G37*
G36*
X707816Y4637588D02*
X683223D01*
X681558Y4637680D01*
X679709Y4637773D01*
X677860Y4637957D01*
X676011Y4638235D01*
X674439Y4638512D01*
X674347D01*
X674162Y4638605D01*
X673885D01*
X673515Y4638790D01*
X672498Y4639067D01*
X671203Y4639529D01*
X669724Y4640176D01*
X668152Y4641008D01*
X666581Y4641933D01*
X665101Y4643135D01*
X665009Y4643227D01*
X664916Y4643320D01*
X664639Y4643597D01*
X664269Y4643875D01*
X663345Y4644799D01*
X662235Y4646094D01*
X661033Y4647665D01*
X659739Y4649514D01*
X658537Y4651641D01*
X657520Y4654045D01*
Y4654137D01*
X657427Y4654322D01*
X657243Y4654692D01*
X657150Y4655247D01*
X656873Y4655894D01*
X656688Y4656634D01*
X656503Y4657466D01*
X656226Y4658483D01*
X655948Y4659500D01*
X655763Y4660702D01*
X655301Y4663290D01*
X655024Y4666157D01*
X654931Y4669300D01*
Y4669392D01*
Y4669577D01*
Y4670040D01*
Y4670502D01*
X655024Y4671149D01*
Y4671889D01*
X655116Y4673645D01*
X655393Y4675679D01*
X655671Y4677806D01*
X656133Y4680025D01*
X656688Y4682244D01*
Y4682336D01*
X656780Y4682521D01*
X656873Y4682799D01*
X656965Y4683168D01*
X657335Y4684185D01*
X657890Y4685480D01*
X658444Y4686959D01*
X659184Y4688438D01*
X660109Y4690010D01*
X661033Y4691489D01*
X661126Y4691674D01*
X661496Y4692137D01*
X662050Y4692784D01*
X662790Y4693616D01*
X663622Y4694541D01*
X664639Y4695465D01*
X665656Y4696482D01*
X666858Y4697314D01*
X667043Y4697407D01*
X667413Y4697684D01*
X668060Y4698054D01*
X668984Y4698516D01*
X670094Y4699071D01*
X671388Y4699533D01*
X672868Y4700088D01*
X674532Y4700550D01*
X674717D01*
X674994Y4700643D01*
X675271Y4700735D01*
X676196Y4700828D01*
X677490Y4701012D01*
X678970Y4701197D01*
X680726Y4701382D01*
X682668Y4701475D01*
X684794Y4701567D01*
X707816D01*
Y4637588D01*
D02*
G37*
G36*
X647627Y4701475D02*
Y4701105D01*
Y4700550D01*
X647535Y4699811D01*
X647442Y4698978D01*
X647257Y4698054D01*
X647072Y4697129D01*
X646703Y4696112D01*
Y4696020D01*
X646610Y4695927D01*
X646425Y4695373D01*
X646055Y4694541D01*
X645501Y4693431D01*
X644761Y4692137D01*
X643836Y4690657D01*
X642819Y4689178D01*
X641525Y4687606D01*
Y4687514D01*
X641340Y4687421D01*
X640878Y4686867D01*
X640046Y4686035D01*
X638844Y4684833D01*
X637457Y4683446D01*
X635700Y4681782D01*
X633574Y4679932D01*
X631262Y4677991D01*
X631170Y4677898D01*
X630800Y4677621D01*
X630245Y4677159D01*
X629598Y4676604D01*
X628766Y4675864D01*
X627749Y4675032D01*
X626732Y4674108D01*
X625530Y4673091D01*
X623219Y4670872D01*
X620907Y4668653D01*
X619798Y4667543D01*
X618781Y4666434D01*
X617856Y4665417D01*
X617117Y4664400D01*
Y4664307D01*
X616932Y4664215D01*
X616747Y4663938D01*
X616562Y4663568D01*
X615915Y4662551D01*
X615175Y4661349D01*
X614528Y4659870D01*
X613881Y4658298D01*
X613511Y4656541D01*
X613326Y4654877D01*
Y4654784D01*
Y4654692D01*
X613418Y4654137D01*
X613511Y4653213D01*
X613788Y4652196D01*
X614158Y4650901D01*
X614805Y4649607D01*
X615637Y4648313D01*
X616747Y4647018D01*
X616932Y4646833D01*
X617394Y4646463D01*
X618041Y4646001D01*
X619058Y4645354D01*
X620353Y4644799D01*
X621832Y4644244D01*
X623589Y4643875D01*
X625530Y4643782D01*
X626085D01*
X626455Y4643875D01*
X627564Y4643967D01*
X628859Y4644244D01*
X630245Y4644614D01*
X631817Y4645261D01*
X633296Y4646094D01*
X634683Y4647203D01*
X634868Y4647388D01*
X635238Y4647850D01*
X635793Y4648590D01*
X636347Y4649699D01*
X636995Y4650994D01*
X637549Y4652658D01*
X637919Y4654507D01*
X638104Y4656634D01*
X646148Y4655801D01*
Y4655709D01*
X646055Y4655432D01*
Y4654969D01*
X645963Y4654322D01*
X645778Y4653583D01*
X645593Y4652750D01*
X645316Y4651733D01*
X645038Y4650716D01*
X644299Y4648497D01*
X643189Y4646278D01*
X642542Y4645169D01*
X641710Y4644060D01*
X640878Y4643043D01*
X639953Y4642118D01*
X639861Y4642026D01*
X639676Y4641933D01*
X639399Y4641656D01*
X638936Y4641378D01*
X638382Y4641008D01*
X637734Y4640639D01*
X636995Y4640176D01*
X636070Y4639714D01*
X635053Y4639252D01*
X633944Y4638790D01*
X632742Y4638420D01*
X631447Y4638050D01*
X630060Y4637773D01*
X628581Y4637495D01*
X627009Y4637403D01*
X625345Y4637310D01*
X624421D01*
X623773Y4637403D01*
X623034Y4637495D01*
X622109Y4637588D01*
X621092Y4637773D01*
X620075Y4637957D01*
X617671Y4638605D01*
X615268Y4639529D01*
X614066Y4640084D01*
X612864Y4640731D01*
X611754Y4641563D01*
X610737Y4642488D01*
X610645Y4642580D01*
X610460Y4642673D01*
X610275Y4643043D01*
X609905Y4643412D01*
X609443Y4643875D01*
X608980Y4644522D01*
X608518Y4645169D01*
X607963Y4646001D01*
X607039Y4647758D01*
X606114Y4649977D01*
X605745Y4651086D01*
X605560Y4652381D01*
X605375Y4653675D01*
X605282Y4655062D01*
Y4655247D01*
Y4655709D01*
X605375Y4656449D01*
X605467Y4657466D01*
X605652Y4658575D01*
X606022Y4659870D01*
X606392Y4661256D01*
X606946Y4662643D01*
X607039Y4662828D01*
X607224Y4663290D01*
X607594Y4664030D01*
X608148Y4665047D01*
X608888Y4666157D01*
X609813Y4667543D01*
X610922Y4668930D01*
X612216Y4670502D01*
X612401Y4670687D01*
X612864Y4671242D01*
X613326Y4671704D01*
X613788Y4672166D01*
X614343Y4672721D01*
X615083Y4673461D01*
X615822Y4674200D01*
X616747Y4675032D01*
X617671Y4675957D01*
X618781Y4676974D01*
X619983Y4677991D01*
X621277Y4679193D01*
X622756Y4680395D01*
X624236Y4681689D01*
X624328Y4681782D01*
X624513Y4681967D01*
X624883Y4682244D01*
X625345Y4682614D01*
X625900Y4683168D01*
X626547Y4683723D01*
X628026Y4684925D01*
X629598Y4686312D01*
X631077Y4687699D01*
X632372Y4688901D01*
X632927Y4689363D01*
X633389Y4689825D01*
X633481Y4689918D01*
X633759Y4690195D01*
X634129Y4690565D01*
X634591Y4691120D01*
X635053Y4691767D01*
X635608Y4692414D01*
X636717Y4693986D01*
X605190D01*
Y4701567D01*
X647627D01*
Y4701475D01*
D02*
G37*
G36*
X741681Y913922D02*
X717088D01*
X715424Y914014D01*
X713575Y914107D01*
X711726Y914292D01*
X709876Y914569D01*
X708305Y914846D01*
X708212D01*
X708027Y914939D01*
X707750D01*
X707380Y915124D01*
X706363Y915401D01*
X705069Y915863D01*
X703589Y916510D01*
X702018Y917343D01*
X700446Y918267D01*
X698967Y919469D01*
X698874Y919562D01*
X698782Y919654D01*
X698504Y919931D01*
X698134Y920209D01*
X697210Y921133D01*
X696100Y922428D01*
X694899Y923999D01*
X693604Y925849D01*
X692402Y927975D01*
X691385Y930379D01*
Y930471D01*
X691293Y930656D01*
X691108Y931026D01*
X691015Y931581D01*
X690738Y932228D01*
X690553Y932968D01*
X690368Y933800D01*
X690091Y934817D01*
X689813Y935834D01*
X689629Y937036D01*
X689166Y939624D01*
X688889Y942491D01*
X688796Y945634D01*
Y945727D01*
Y945911D01*
Y946374D01*
Y946836D01*
X688889Y947483D01*
Y948223D01*
X688981Y949980D01*
X689259Y952014D01*
X689536Y954140D01*
X689998Y956359D01*
X690553Y958578D01*
Y958670D01*
X690646Y958855D01*
X690738Y959133D01*
X690830Y959503D01*
X691200Y960520D01*
X691755Y961814D01*
X692310Y963293D01*
X693049Y964773D01*
X693974Y966344D01*
X694899Y967824D01*
X694991Y968008D01*
X695361Y968471D01*
X695916Y969118D01*
X696655Y969950D01*
X697487Y970875D01*
X698504Y971799D01*
X699521Y972816D01*
X700723Y973648D01*
X700908Y973741D01*
X701278Y974018D01*
X701925Y974388D01*
X702850Y974850D01*
X703959Y975405D01*
X705254Y975867D01*
X706733Y976422D01*
X708397Y976884D01*
X708582D01*
X708859Y976977D01*
X709137Y977069D01*
X710061Y977162D01*
X711356Y977347D01*
X712835Y977531D01*
X714592Y977716D01*
X716533Y977809D01*
X718660Y977901D01*
X741681D01*
Y913922D01*
D02*
G37*
G36*
X658656Y927883D02*
X658748Y927975D01*
X659211Y928345D01*
X659765Y928900D01*
X660690Y929547D01*
X661707Y930379D01*
X663001Y931303D01*
X664481Y932320D01*
X666145Y933337D01*
X666237D01*
X666330Y933430D01*
X666884Y933800D01*
X667809Y934262D01*
X668918Y934817D01*
X670213Y935464D01*
X671600Y936111D01*
X672986Y936758D01*
X674373Y937313D01*
Y929732D01*
X674281D01*
X674096Y929547D01*
X673726Y929454D01*
X673264Y929177D01*
X672709Y928900D01*
X672062Y928530D01*
X670490Y927605D01*
X668641Y926588D01*
X666792Y925294D01*
X664850Y923815D01*
X662909Y922243D01*
X662816Y922150D01*
X662724Y922058D01*
X662446Y921780D01*
X662077Y921503D01*
X661245Y920579D01*
X660135Y919469D01*
X659026Y918175D01*
X657824Y916695D01*
X656807Y915216D01*
X655882Y913644D01*
X650797D01*
Y977901D01*
X658656D01*
Y927883D01*
D02*
G37*
G36*
X707816Y4316157D02*
X683223D01*
X681558Y4316250D01*
X679709Y4316342D01*
X677860Y4316527D01*
X676011Y4316805D01*
X674439Y4317082D01*
X674347D01*
X674162Y4317174D01*
X673885D01*
X673515Y4317359D01*
X672498Y4317637D01*
X671203Y4318099D01*
X669724Y4318746D01*
X668152Y4319578D01*
X666581Y4320503D01*
X665101Y4321705D01*
X665009Y4321797D01*
X664916Y4321890D01*
X664639Y4322167D01*
X664269Y4322444D01*
X663345Y4323369D01*
X662235Y4324663D01*
X661033Y4326235D01*
X659739Y4328084D01*
X658537Y4330211D01*
X657520Y4332615D01*
Y4332707D01*
X657427Y4332892D01*
X657243Y4333262D01*
X657150Y4333817D01*
X656873Y4334464D01*
X656688Y4335203D01*
X656503Y4336036D01*
X656226Y4337053D01*
X655948Y4338070D01*
X655763Y4339271D01*
X655301Y4341860D01*
X655024Y4344726D01*
X654931Y4347870D01*
Y4347962D01*
Y4348147D01*
Y4348610D01*
Y4349072D01*
X655024Y4349719D01*
Y4350459D01*
X655116Y4352215D01*
X655393Y4354249D01*
X655671Y4356376D01*
X656133Y4358595D01*
X656688Y4360814D01*
Y4360906D01*
X656780Y4361091D01*
X656873Y4361368D01*
X656965Y4361738D01*
X657335Y4362755D01*
X657890Y4364050D01*
X658444Y4365529D01*
X659184Y4367008D01*
X660109Y4368580D01*
X661033Y4370059D01*
X661126Y4370244D01*
X661496Y4370707D01*
X662050Y4371354D01*
X662790Y4372186D01*
X663622Y4373110D01*
X664639Y4374035D01*
X665656Y4375052D01*
X666858Y4375884D01*
X667043Y4375977D01*
X667413Y4376254D01*
X668060Y4376624D01*
X668984Y4377086D01*
X670094Y4377641D01*
X671388Y4378103D01*
X672868Y4378658D01*
X674532Y4379120D01*
X674717D01*
X674994Y4379212D01*
X675271Y4379305D01*
X676196Y4379397D01*
X677490Y4379582D01*
X678970Y4379767D01*
X680726Y4379952D01*
X682668Y4380045D01*
X684794Y4380137D01*
X707816D01*
Y4316157D01*
D02*
G37*
G36*
X621370Y4364789D02*
X649199D01*
Y4357578D01*
X619890Y4316157D01*
X613511D01*
Y4357578D01*
X604820D01*
Y4364789D01*
X613511D01*
Y4380137D01*
X621370D01*
Y4364789D01*
D02*
G37*
G36*
X708640Y6320067D02*
X708548D01*
X708363D01*
X707993D01*
X707439Y6319975D01*
X706884Y6319882D01*
X706237D01*
X704665Y6319605D01*
X703001Y6319327D01*
X701336Y6318773D01*
X699857Y6318218D01*
X699210Y6317848D01*
X698655Y6317386D01*
X698563Y6317293D01*
X698285Y6316924D01*
X697823Y6316369D01*
X697361Y6315629D01*
X696806Y6314612D01*
X696436Y6313503D01*
X696066Y6312116D01*
X695974Y6310637D01*
Y6310082D01*
X696066Y6309527D01*
X696159Y6308695D01*
X696344Y6307863D01*
X696529Y6306938D01*
X696899Y6306014D01*
X697361Y6305089D01*
X697453Y6304997D01*
X697638Y6304719D01*
X698008Y6304350D01*
X698378Y6303795D01*
X699025Y6303333D01*
X699672Y6302778D01*
X700412Y6302316D01*
X701336Y6301946D01*
X701429D01*
X701799Y6301761D01*
X702446Y6301668D01*
X703278Y6301483D01*
X704387Y6301299D01*
X705774Y6301206D01*
X707439Y6301021D01*
X709380D01*
X753482D01*
Y6292515D01*
X709842D01*
X709750D01*
X709473D01*
X709103D01*
X708548D01*
X707808Y6292608D01*
X707069D01*
X705312Y6292793D01*
X703278Y6292978D01*
X701152Y6293347D01*
X699210Y6293902D01*
X697361Y6294549D01*
X697268D01*
X697176Y6294642D01*
X696621Y6294919D01*
X695882Y6295381D01*
X694864Y6296029D01*
X693847Y6296953D01*
X692738Y6297970D01*
X691629Y6299265D01*
X690704Y6300744D01*
X690612Y6300929D01*
X690334Y6301483D01*
X689964Y6302316D01*
X689595Y6303517D01*
X689132Y6304997D01*
X688762Y6306661D01*
X688485Y6308510D01*
X688393Y6310544D01*
Y6311376D01*
X688485Y6311931D01*
X688577Y6312671D01*
X688670Y6313410D01*
X689040Y6315352D01*
X689595Y6317386D01*
X690427Y6319512D01*
X690981Y6320622D01*
X691629Y6321639D01*
X692368Y6322563D01*
X693200Y6323488D01*
X693293Y6323580D01*
X693385Y6323673D01*
X693755Y6323858D01*
X694125Y6324135D01*
X694587Y6324505D01*
X695234Y6324875D01*
X695974Y6325245D01*
X696806Y6325707D01*
X697731Y6326077D01*
X698840Y6326447D01*
X699950Y6326816D01*
X701244Y6327186D01*
X702631Y6327371D01*
X704203Y6327649D01*
X705774Y6327741D01*
X707531D01*
X708640Y6320067D01*
D02*
G37*
G36*
X691259Y6282900D02*
X692091Y6282807D01*
X693015Y6282622D01*
X693940Y6282438D01*
X694957Y6282068D01*
X695049D01*
X695142Y6281975D01*
X695697Y6281790D01*
X696529Y6281421D01*
X697638Y6280866D01*
X698933Y6280126D01*
X700412Y6279202D01*
X701891Y6278185D01*
X703463Y6276890D01*
X703555D01*
X703648Y6276705D01*
X704203Y6276243D01*
X705035Y6275411D01*
X706237Y6274209D01*
X707623Y6272822D01*
X709288Y6271065D01*
X711137Y6268939D01*
X713078Y6266628D01*
X713171Y6266535D01*
X713448Y6266165D01*
X713910Y6265611D01*
X714465Y6264963D01*
X715205Y6264131D01*
X716037Y6263114D01*
X716961Y6262097D01*
X717978Y6260895D01*
X720197Y6258584D01*
X722416Y6256272D01*
X723526Y6255163D01*
X724635Y6254146D01*
X725652Y6253221D01*
X726669Y6252482D01*
X726762D01*
X726854Y6252297D01*
X727132Y6252112D01*
X727501Y6251927D01*
X728518Y6251280D01*
X729720Y6250540D01*
X731200Y6249893D01*
X732771Y6249246D01*
X734528Y6248876D01*
X736192Y6248691D01*
X736285D01*
X736377D01*
X736932Y6248784D01*
X737857Y6248876D01*
X738874Y6249153D01*
X740168Y6249523D01*
X741462Y6250170D01*
X742757Y6251002D01*
X744051Y6252112D01*
X744236Y6252297D01*
X744606Y6252759D01*
X745068Y6253406D01*
X745715Y6254423D01*
X746270Y6255718D01*
X746825Y6257197D01*
X747195Y6258954D01*
X747287Y6260895D01*
Y6261450D01*
X747195Y6261820D01*
X747102Y6262929D01*
X746825Y6264224D01*
X746455Y6265611D01*
X745808Y6267182D01*
X744976Y6268662D01*
X743866Y6270048D01*
X743681Y6270233D01*
X743219Y6270603D01*
X742479Y6271158D01*
X741370Y6271713D01*
X740075Y6272360D01*
X738411Y6272915D01*
X736562Y6273284D01*
X734436Y6273469D01*
X735268Y6281513D01*
X735360D01*
X735638Y6281421D01*
X736100D01*
X736747Y6281328D01*
X737487Y6281143D01*
X738319Y6280958D01*
X739336Y6280681D01*
X740353Y6280403D01*
X742572Y6279664D01*
X744791Y6278554D01*
X745900Y6277907D01*
X747010Y6277075D01*
X748027Y6276243D01*
X748951Y6275318D01*
X749044Y6275226D01*
X749136Y6275041D01*
X749414Y6274764D01*
X749691Y6274301D01*
X750061Y6273747D01*
X750431Y6273099D01*
X750893Y6272360D01*
X751355Y6271435D01*
X751817Y6270418D01*
X752280Y6269309D01*
X752649Y6268107D01*
X753019Y6266812D01*
X753297Y6265426D01*
X753574Y6263946D01*
X753667Y6262375D01*
X753759Y6260710D01*
Y6259786D01*
X753667Y6259139D01*
X753574Y6258399D01*
X753482Y6257474D01*
X753297Y6256457D01*
X753112Y6255440D01*
X752465Y6253037D01*
X751540Y6250633D01*
X750985Y6249431D01*
X750338Y6248229D01*
X749506Y6247119D01*
X748581Y6246102D01*
X748489Y6246010D01*
X748397Y6245825D01*
X748027Y6245640D01*
X747657Y6245270D01*
X747195Y6244808D01*
X746547Y6244346D01*
X745900Y6243883D01*
X745068Y6243329D01*
X743311Y6242404D01*
X741092Y6241480D01*
X739983Y6241110D01*
X738689Y6240925D01*
X737394Y6240740D01*
X736007Y6240647D01*
X735823D01*
X735360D01*
X734621Y6240740D01*
X733604Y6240832D01*
X732494Y6241017D01*
X731200Y6241387D01*
X729813Y6241757D01*
X728426Y6242312D01*
X728241Y6242404D01*
X727779Y6242589D01*
X727039Y6242959D01*
X726022Y6243514D01*
X724913Y6244253D01*
X723526Y6245178D01*
X722139Y6246287D01*
X720567Y6247582D01*
X720382Y6247767D01*
X719828Y6248229D01*
X719365Y6248691D01*
X718903Y6249153D01*
X718348Y6249708D01*
X717609Y6250448D01*
X716869Y6251187D01*
X716037Y6252112D01*
X715112Y6253037D01*
X714095Y6254146D01*
X713078Y6255348D01*
X711876Y6256642D01*
X710674Y6258122D01*
X709380Y6259601D01*
X709288Y6259693D01*
X709103Y6259878D01*
X708825Y6260248D01*
X708456Y6260710D01*
X707901Y6261265D01*
X707346Y6261912D01*
X706144Y6263392D01*
X704757Y6264963D01*
X703370Y6266443D01*
X702169Y6267737D01*
X701706Y6268292D01*
X701244Y6268754D01*
X701152Y6268846D01*
X700874Y6269124D01*
X700504Y6269494D01*
X699950Y6269956D01*
X699302Y6270418D01*
X698655Y6270973D01*
X697083Y6272082D01*
Y6240555D01*
X689502D01*
Y6282992D01*
X689595D01*
X689964D01*
X690519D01*
X691259Y6282900D01*
D02*
G37*
G36*
X703507Y8503867D02*
X703414D01*
X703229D01*
X702859D01*
X702305Y8503775D01*
X701750Y8503683D01*
X701103D01*
X699531Y8503405D01*
X697867Y8503128D01*
X696203Y8502573D01*
X694723Y8502018D01*
X694076Y8501648D01*
X693521Y8501186D01*
X693429Y8501094D01*
X693152Y8500724D01*
X692689Y8500169D01*
X692227Y8499430D01*
X691672Y8498413D01*
X691302Y8497303D01*
X690933Y8495916D01*
X690840Y8494437D01*
Y8493882D01*
X690933Y8493327D01*
X691025Y8492495D01*
X691210Y8491663D01*
X691395Y8490739D01*
X691765Y8489814D01*
X692227Y8488890D01*
X692319Y8488797D01*
X692504Y8488520D01*
X692874Y8488150D01*
X693244Y8487595D01*
X693891Y8487133D01*
X694538Y8486578D01*
X695278Y8486116D01*
X696203Y8485746D01*
X696295D01*
X696665Y8485561D01*
X697312Y8485469D01*
X698144Y8485284D01*
X699254Y8485099D01*
X700640Y8485006D01*
X702305Y8484821D01*
X704246D01*
X748348D01*
Y8476316D01*
X704709D01*
X704616D01*
X704339D01*
X703969D01*
X703414D01*
X702674Y8476408D01*
X701935D01*
X700178Y8476593D01*
X698144Y8476778D01*
X696018Y8477148D01*
X694076Y8477702D01*
X692227Y8478350D01*
X692135D01*
X692042Y8478442D01*
X691487Y8478719D01*
X690748Y8479182D01*
X689731Y8479829D01*
X688714Y8480753D01*
X687604Y8481770D01*
X686495Y8483065D01*
X685570Y8484544D01*
X685478Y8484729D01*
X685200Y8485284D01*
X684830Y8486116D01*
X684461Y8487318D01*
X683998Y8488797D01*
X683629Y8490461D01*
X683351Y8492310D01*
X683259Y8494344D01*
Y8495177D01*
X683351Y8495731D01*
X683444Y8496471D01*
X683536Y8497211D01*
X683906Y8499152D01*
X684461Y8501186D01*
X685293Y8503313D01*
X685847Y8504422D01*
X686495Y8505439D01*
X687234Y8506364D01*
X688066Y8507288D01*
X688159Y8507381D01*
X688251Y8507473D01*
X688621Y8507658D01*
X688991Y8507935D01*
X689453Y8508305D01*
X690100Y8508675D01*
X690840Y8509045D01*
X691672Y8509507D01*
X692597Y8509877D01*
X693706Y8510247D01*
X694816Y8510617D01*
X696110Y8510987D01*
X697497Y8511171D01*
X699069Y8511449D01*
X700640Y8511541D01*
X702397D01*
X703507Y8503867D01*
D02*
G37*
G36*
X732538Y8459581D02*
X732723Y8459396D01*
X732815Y8459026D01*
X733093Y8458564D01*
X733370Y8458009D01*
X733740Y8457362D01*
X734664Y8455790D01*
X735681Y8453941D01*
X736976Y8452092D01*
X738455Y8450150D01*
X740027Y8448209D01*
X740119Y8448116D01*
X740212Y8448024D01*
X740489Y8447747D01*
X740766Y8447377D01*
X741691Y8446545D01*
X742800Y8445435D01*
X744095Y8444326D01*
X745574Y8443124D01*
X747053Y8442107D01*
X748625Y8441182D01*
Y8436097D01*
X684368D01*
Y8443956D01*
X734387D01*
X734294Y8444048D01*
X733925Y8444511D01*
X733370Y8445065D01*
X732723Y8445990D01*
X731891Y8447007D01*
X730966Y8448301D01*
X729949Y8449781D01*
X728932Y8451445D01*
Y8451537D01*
X728840Y8451630D01*
X728470Y8452185D01*
X728007Y8453109D01*
X727453Y8454219D01*
X726806Y8455513D01*
X726158Y8456900D01*
X725511Y8458287D01*
X724956Y8459673D01*
X732538D01*
Y8459581D01*
D02*
G37*
%LPC*%
G36*
X7378854Y2970814D02*
Y2949179D01*
X7396421Y2955836D01*
X7396513D01*
X7396791Y2955928D01*
X7397253Y2956113D01*
X7397808Y2956298D01*
X7398455Y2956575D01*
X7399287Y2956853D01*
X7400212Y2957130D01*
X7401136Y2957500D01*
X7403263Y2958240D01*
X7405482Y2958979D01*
X7407700Y2959719D01*
X7409827Y2960366D01*
X7409734D01*
X7409550Y2960459D01*
X7409180D01*
X7408810Y2960644D01*
X7408163Y2960736D01*
X7407516Y2960921D01*
X7405944Y2961291D01*
X7404095Y2961753D01*
X7402061Y2962400D01*
X7399842Y2963047D01*
X7397530Y2963880D01*
X7378854Y2970814D01*
D02*
G37*
G36*
X7408902Y2914046D02*
X7360086D01*
Y2898883D01*
X7360178Y2898236D01*
X7360271Y2896849D01*
X7360363Y2895277D01*
X7360548Y2893613D01*
X7360825Y2891949D01*
X7361195Y2890562D01*
X7361288Y2890377D01*
X7361380Y2889915D01*
X7361657Y2889268D01*
X7362027Y2888435D01*
X7362582Y2887511D01*
X7363137Y2886586D01*
X7363784Y2885662D01*
X7364523Y2884737D01*
X7364708Y2884645D01*
X7365078Y2884275D01*
X7365725Y2883720D01*
X7366650Y2883073D01*
X7367852Y2882333D01*
X7369239Y2881501D01*
X7370811Y2880762D01*
X7372567Y2880114D01*
X7372660D01*
X7372845Y2880022D01*
X7373122Y2879929D01*
X7373492Y2879837D01*
X7373954Y2879745D01*
X7374601Y2879560D01*
X7375248Y2879375D01*
X7375988Y2879190D01*
X7377837Y2878912D01*
X7379964Y2878635D01*
X7382368Y2878450D01*
X7384956Y2878358D01*
X7385049D01*
X7385419D01*
X7385881D01*
X7386620Y2878450D01*
X7387453D01*
X7388377Y2878543D01*
X7389487Y2878635D01*
X7390596Y2878728D01*
X7393092Y2879190D01*
X7395681Y2879745D01*
X7398085Y2880577D01*
X7399287Y2881131D01*
X7400304Y2881686D01*
X7400396D01*
X7400581Y2881871D01*
X7400859Y2882056D01*
X7401229Y2882241D01*
X7402153Y2882981D01*
X7403263Y2883905D01*
X7404464Y2885107D01*
X7405666Y2886494D01*
X7406683Y2888066D01*
X7407516Y2889730D01*
X7407608Y2889915D01*
X7407700Y2890377D01*
X7407978Y2891209D01*
X7408255Y2892411D01*
X7408440Y2893890D01*
X7408717Y2895739D01*
X7408810Y2896849D01*
Y2898051D01*
X7408902Y2899253D01*
Y2914046D01*
D02*
G37*
G36*
X3376580Y2414554D02*
Y2392919D01*
X3394147Y2399576D01*
X3394239D01*
X3394517Y2399668D01*
X3394979Y2399853D01*
X3395534Y2400038D01*
X3396181Y2400315D01*
X3397013Y2400593D01*
X3397938Y2400870D01*
X3398862Y2401240D01*
X3400989Y2401980D01*
X3403208Y2402719D01*
X3405427Y2403459D01*
X3407553Y2404106D01*
X3407461D01*
X3407276Y2404199D01*
X3406906D01*
X3406536Y2404384D01*
X3405889Y2404476D01*
X3405242Y2404661D01*
X3403670Y2405031D01*
X3401821Y2405493D01*
X3399787Y2406140D01*
X3397568Y2406787D01*
X3395256Y2407620D01*
X3376580Y2414554D01*
D02*
G37*
G36*
X3374824Y2285670D02*
X3373159D01*
X3373067D01*
X3372790D01*
X3372327D01*
X3371680Y2285578D01*
X3370940D01*
X3370108Y2285485D01*
X3368167Y2285208D01*
X3365948Y2284745D01*
X3363821Y2284191D01*
X3361695Y2283266D01*
X3360770Y2282711D01*
X3359938Y2282064D01*
X3359753Y2281879D01*
X3359291Y2281417D01*
X3358551Y2280677D01*
X3357812Y2279660D01*
X3357072Y2278366D01*
X3356332Y2276887D01*
X3355870Y2275223D01*
X3355778Y2274298D01*
X3355685Y2273373D01*
Y2272819D01*
X3355778Y2272449D01*
X3355963Y2271524D01*
X3356240Y2270230D01*
X3356795Y2268843D01*
X3357534Y2267364D01*
X3358644Y2265884D01*
X3359291Y2265145D01*
X3360031Y2264405D01*
X3360123D01*
X3360216Y2264220D01*
X3360493Y2264035D01*
X3360863Y2263850D01*
X3361325Y2263481D01*
X3361972Y2263203D01*
X3362619Y2262833D01*
X3363451Y2262464D01*
X3364284Y2262186D01*
X3365393Y2261816D01*
X3366503Y2261447D01*
X3367704Y2261169D01*
X3369091Y2260984D01*
X3370571Y2260799D01*
X3372142Y2260614D01*
X3373807D01*
X3373899D01*
X3374176D01*
X3374639D01*
X3375286Y2260707D01*
X3376026D01*
X3376858Y2260799D01*
X3378799Y2261077D01*
X3380926Y2261539D01*
X3383052Y2262186D01*
X3385179Y2263111D01*
X3386196Y2263666D01*
X3387028Y2264313D01*
X3387120D01*
X3387213Y2264498D01*
X3387767Y2264960D01*
X3388415Y2265700D01*
X3389247Y2266717D01*
X3390079Y2268011D01*
X3390818Y2269490D01*
X3391281Y2271154D01*
X3391373Y2272079D01*
X3391466Y2273004D01*
Y2273466D01*
X3391373Y2273836D01*
X3391188Y2274760D01*
X3390911Y2275962D01*
X3390356Y2277349D01*
X3389524Y2278828D01*
X3388969Y2279660D01*
X3388322Y2280400D01*
X3387583Y2281140D01*
X3386750Y2281879D01*
X3386658D01*
X3386565Y2282064D01*
X3386288Y2282249D01*
X3385918Y2282434D01*
X3385364Y2282711D01*
X3384809Y2283081D01*
X3384069Y2283451D01*
X3383330Y2283728D01*
X3382405Y2284098D01*
X3381388Y2284468D01*
X3380278Y2284745D01*
X3379077Y2285115D01*
X3377690Y2285300D01*
X3376303Y2285485D01*
X3374824Y2285670D01*
D02*
G37*
G36*
X3362712Y2108062D02*
X3362619D01*
X3362157D01*
X3361602Y2107970D01*
X3360863Y2107785D01*
X3360031Y2107507D01*
X3359199Y2107045D01*
X3358274Y2106490D01*
X3357442Y2105751D01*
X3357349Y2105658D01*
X3357164Y2105288D01*
X3356795Y2104734D01*
X3356425Y2103994D01*
X3356055Y2102977D01*
X3355685Y2101775D01*
X3355500Y2100388D01*
X3355408Y2098724D01*
Y2097984D01*
X3355500Y2097060D01*
X3355685Y2096043D01*
X3355870Y2094748D01*
X3356240Y2093454D01*
X3356702Y2092067D01*
X3357349Y2090680D01*
X3357442Y2090495D01*
X3357719Y2090126D01*
X3358181Y2089478D01*
X3358829Y2088739D01*
X3359568Y2087907D01*
X3360493Y2086982D01*
X3361602Y2086242D01*
X3362804Y2085503D01*
X3362897Y2085410D01*
X3363267Y2085318D01*
X3363914Y2085133D01*
X3364746Y2084856D01*
X3365855Y2084578D01*
X3367150Y2084393D01*
X3368721Y2084301D01*
X3370571Y2084208D01*
X3373529Y2084116D01*
Y2084208D01*
X3373437Y2084301D01*
X3373344Y2084578D01*
X3373252Y2084948D01*
X3373067Y2085410D01*
X3372882Y2085965D01*
X3372697Y2086612D01*
X3372512Y2087352D01*
X3372235Y2088184D01*
X3372050Y2089201D01*
X3371773Y2090218D01*
X3371495Y2091420D01*
X3371218Y2092714D01*
X3370940Y2094009D01*
X3370756Y2095488D01*
X3370478Y2097060D01*
Y2097245D01*
X3370386Y2097799D01*
X3370201Y2098724D01*
X3370016Y2099741D01*
X3369831Y2100851D01*
X3369554Y2101960D01*
X3369276Y2102977D01*
X3368906Y2103902D01*
Y2103994D01*
X3368721Y2104271D01*
X3368537Y2104641D01*
X3368259Y2105011D01*
X3367520Y2106121D01*
X3366410Y2107045D01*
X3366318D01*
X3366133Y2107230D01*
X3365763Y2107322D01*
X3365301Y2107507D01*
X3364746Y2107692D01*
X3364191Y2107877D01*
X3363451Y2107970D01*
X3362712Y2108062D01*
D02*
G37*
G36*
X3373437Y2014219D02*
X3373344D01*
X3373067D01*
X3372605D01*
X3371957Y2014127D01*
X3371218D01*
X3370386Y2014034D01*
X3368444Y2013757D01*
X3366225Y2013295D01*
X3364006Y2012555D01*
X3361880Y2011630D01*
X3360955Y2010983D01*
X3360031Y2010336D01*
Y2010244D01*
X3359846Y2010151D01*
X3359383Y2009596D01*
X3358644Y2008764D01*
X3357904Y2007655D01*
X3357072Y2006268D01*
X3356332Y2004604D01*
X3355870Y2002662D01*
X3355778Y2001645D01*
X3355685Y2000536D01*
Y1999981D01*
X3355778Y1999519D01*
X3355963Y1998502D01*
X3356240Y1997115D01*
X3356795Y1995636D01*
X3357534Y1993971D01*
X3358644Y1992400D01*
X3359383Y1991568D01*
X3360123Y1990828D01*
X3360216Y1990735D01*
X3360308Y1990643D01*
X3360585Y1990458D01*
X3360955Y1990181D01*
X3361417Y1989903D01*
X3361972Y1989533D01*
X3362712Y1989164D01*
X3363451Y1988794D01*
X3364376Y1988424D01*
X3365393Y1988147D01*
X3366503Y1987777D01*
X3367704Y1987499D01*
X3369091Y1987222D01*
X3370478Y1987037D01*
X3372050Y1986852D01*
X3373714D01*
X3373807D01*
X3374084D01*
X3374546D01*
X3375101Y1986945D01*
X3375841D01*
X3376673Y1987037D01*
X3378614Y1987315D01*
X3380648Y1987777D01*
X3382867Y1988516D01*
X3384901Y1989533D01*
X3385918Y1990088D01*
X3386750Y1990828D01*
X3386843D01*
X3386935Y1991013D01*
X3387490Y1991568D01*
X3388137Y1992400D01*
X3388969Y1993509D01*
X3389801Y1994896D01*
X3390541Y1996560D01*
X3391003Y1998409D01*
X3391096Y1999426D01*
X3391188Y2000536D01*
Y2001090D01*
X3391096Y2001553D01*
X3391003Y2002570D01*
X3390634Y2003957D01*
X3390079Y2005528D01*
X3389339Y2007193D01*
X3388230Y2008764D01*
X3387490Y2009596D01*
X3386750Y2010336D01*
X3386658D01*
X3386565Y2010521D01*
X3386288Y2010706D01*
X3385918Y2010983D01*
X3385456Y2011261D01*
X3384901Y2011538D01*
X3384162Y2011908D01*
X3383422Y2012278D01*
X3382497Y2012647D01*
X3381573Y2013017D01*
X3380463Y2013295D01*
X3379261Y2013572D01*
X3377967Y2013849D01*
X3376580Y2014034D01*
X3375008Y2014127D01*
X3373437Y2014219D01*
D02*
G37*
G36*
X1945315Y2253469D02*
Y2227489D01*
X1945407D01*
X1945592D01*
X1945870Y2227582D01*
X1946239D01*
X1947349Y2227766D01*
X1948551Y2228044D01*
X1950030Y2228506D01*
X1951417Y2228968D01*
X1952804Y2229708D01*
X1954006Y2230540D01*
X1954098D01*
X1954191Y2230725D01*
X1954745Y2231187D01*
X1955485Y2232019D01*
X1956317Y2233129D01*
X1957149Y2234516D01*
X1957889Y2236180D01*
X1958444Y2238122D01*
X1958536Y2239139D01*
X1958629Y2240248D01*
Y2240803D01*
X1958536Y2241173D01*
X1958444Y2242190D01*
X1958166Y2243391D01*
X1957704Y2244871D01*
X1957057Y2246443D01*
X1956132Y2247922D01*
X1954930Y2249401D01*
X1954745Y2249586D01*
X1954283Y2249956D01*
X1953451Y2250603D01*
X1952342Y2251250D01*
X1951047Y2251990D01*
X1949383Y2252637D01*
X1947441Y2253192D01*
X1945315Y2253469D01*
D02*
G37*
G36*
X4829003Y2419824D02*
X4828911D01*
X4828541D01*
X4827894D01*
X4827061Y2419731D01*
X4826137Y2419639D01*
X4825027Y2419454D01*
X4823733Y2419269D01*
X4822439Y2419084D01*
X4819480Y2418344D01*
X4818001Y2417790D01*
X4816429Y2417235D01*
X4814950Y2416495D01*
X4813470Y2415663D01*
X4812084Y2414739D01*
X4810789Y2413629D01*
X4810697Y2413537D01*
X4810512Y2413352D01*
X4810142Y2412982D01*
X4809772Y2412520D01*
X4809217Y2411872D01*
X4808663Y2411133D01*
X4808108Y2410301D01*
X4807461Y2409376D01*
X4806814Y2408267D01*
X4806259Y2407065D01*
X4805704Y2405770D01*
X4805149Y2404384D01*
X4804780Y2402904D01*
X4804410Y2401425D01*
X4804225Y2399761D01*
X4804132Y2398004D01*
Y2397542D01*
X4804225Y2397080D01*
Y2396432D01*
X4804317Y2395600D01*
X4804502Y2394676D01*
X4804687Y2393566D01*
X4804964Y2392457D01*
X4805334Y2391162D01*
X4805797Y2389960D01*
X4806259Y2388574D01*
X4806906Y2387279D01*
X4807738Y2385985D01*
X4808570Y2384690D01*
X4809587Y2383396D01*
X4810789Y2382194D01*
X4810882Y2382102D01*
X4811067Y2381917D01*
X4811529Y2381639D01*
X4812084Y2381177D01*
X4812731Y2380715D01*
X4813563Y2380253D01*
X4814580Y2379698D01*
X4815689Y2379051D01*
X4816984Y2378496D01*
X4818463Y2377941D01*
X4820035Y2377479D01*
X4821699Y2376924D01*
X4823548Y2376554D01*
X4825582Y2376277D01*
X4827709Y2376092D01*
X4829928Y2376000D01*
X4830020D01*
X4830297D01*
X4830667D01*
X4831222D01*
X4831869Y2376092D01*
X4832701D01*
X4833533Y2376184D01*
X4834550Y2376369D01*
X4836677Y2376647D01*
X4838896Y2377109D01*
X4841300Y2377756D01*
X4843519Y2378681D01*
X4843611D01*
X4843796Y2378773D01*
X4844073Y2378958D01*
X4844443Y2379143D01*
X4845553Y2379790D01*
X4846847Y2380622D01*
X4848326Y2381732D01*
X4849806Y2383119D01*
X4851285Y2384690D01*
X4852579Y2386447D01*
Y2386540D01*
X4852764Y2386632D01*
X4852857Y2386909D01*
X4853134Y2387372D01*
X4853319Y2387834D01*
X4853596Y2388389D01*
X4854244Y2389776D01*
X4854798Y2391440D01*
X4855353Y2393381D01*
X4855723Y2395600D01*
X4855815Y2397912D01*
Y2398744D01*
X4855723Y2399391D01*
X4855630Y2400223D01*
X4855445Y2401055D01*
X4855261Y2402072D01*
X4855076Y2403182D01*
X4854336Y2405585D01*
X4853781Y2406880D01*
X4853227Y2408174D01*
X4852487Y2409561D01*
X4851655Y2410855D01*
X4850730Y2412150D01*
X4849621Y2413352D01*
X4849528Y2413444D01*
X4849343Y2413629D01*
X4848974Y2413907D01*
X4848419Y2414369D01*
X4847772Y2414831D01*
X4846940Y2415386D01*
X4845922Y2415941D01*
X4844721Y2416588D01*
X4843426Y2417142D01*
X4841854Y2417790D01*
X4840190Y2418344D01*
X4838341Y2418807D01*
X4836307Y2419269D01*
X4833996Y2419546D01*
X4831592Y2419731D01*
X4829003Y2419824D01*
D02*
G37*
G36*
X733175Y636470D02*
X718013D01*
X717365Y636377D01*
X715979Y636285D01*
X714407Y636193D01*
X712743Y636008D01*
X711078Y635730D01*
X709691Y635360D01*
X709507Y635268D01*
X709044Y635176D01*
X708397Y634898D01*
X707565Y634528D01*
X706640Y633974D01*
X705716Y633419D01*
X704791Y632772D01*
X703867Y632032D01*
X703774Y631847D01*
X703404Y631477D01*
X702850Y630830D01*
X702203Y629906D01*
X701463Y628704D01*
X700631Y627317D01*
X699891Y625745D01*
X699244Y623988D01*
Y623896D01*
X699152Y623711D01*
X699059Y623434D01*
X698967Y623064D01*
X698874Y622601D01*
X698689Y621954D01*
X698504Y621307D01*
X698319Y620567D01*
X698042Y618718D01*
X697765Y616592D01*
X697580Y614188D01*
X697487Y611599D01*
Y611507D01*
Y611137D01*
Y610675D01*
X697580Y609935D01*
Y609103D01*
X697672Y608178D01*
X697765Y607069D01*
X697857Y605959D01*
X698319Y603463D01*
X698874Y600874D01*
X699706Y598470D01*
X700261Y597269D01*
X700816Y596252D01*
Y596159D01*
X701001Y595974D01*
X701186Y595697D01*
X701370Y595327D01*
X702110Y594402D01*
X703035Y593293D01*
X704237Y592091D01*
X705623Y590889D01*
X707195Y589872D01*
X708859Y589040D01*
X709044Y588948D01*
X709507Y588855D01*
X710339Y588578D01*
X711541Y588300D01*
X713020Y588115D01*
X714869Y587838D01*
X715979Y587746D01*
X717180D01*
X718382Y587653D01*
X733175D01*
Y636470D01*
D02*
G37*
G36*
X699310Y4693986D02*
X684147D01*
X683500Y4693893D01*
X682113Y4693801D01*
X680541Y4693708D01*
X678877Y4693524D01*
X677213Y4693246D01*
X675826Y4692876D01*
X675641Y4692784D01*
X675179Y4692691D01*
X674532Y4692414D01*
X673700Y4692044D01*
X672775Y4691489D01*
X671851Y4690935D01*
X670926Y4690288D01*
X670001Y4689548D01*
X669909Y4689363D01*
X669539Y4688993D01*
X668984Y4688346D01*
X668337Y4687421D01*
X667598Y4686219D01*
X666765Y4684833D01*
X666026Y4683261D01*
X665379Y4681504D01*
Y4681412D01*
X665286Y4681227D01*
X665194Y4680949D01*
X665101Y4680580D01*
X665009Y4680117D01*
X664824Y4679470D01*
X664639Y4678823D01*
X664454Y4678083D01*
X664177Y4676234D01*
X663899Y4674108D01*
X663714Y4671704D01*
X663622Y4669115D01*
Y4669023D01*
Y4668653D01*
Y4668191D01*
X663714Y4667451D01*
Y4666619D01*
X663807Y4665694D01*
X663899Y4664585D01*
X663992Y4663475D01*
X664454Y4660979D01*
X665009Y4658390D01*
X665841Y4655986D01*
X666396Y4654784D01*
X666950Y4653767D01*
Y4653675D01*
X667135Y4653490D01*
X667320Y4653213D01*
X667505Y4652843D01*
X668245Y4651918D01*
X669169Y4650809D01*
X670371Y4649607D01*
X671758Y4648405D01*
X673330Y4647388D01*
X674994Y4646556D01*
X675179Y4646463D01*
X675641Y4646371D01*
X676473Y4646094D01*
X677675Y4645816D01*
X679155Y4645631D01*
X681004Y4645354D01*
X682113Y4645261D01*
X683315D01*
X684517Y4645169D01*
X699310D01*
Y4693986D01*
D02*
G37*
G36*
X733175Y970320D02*
X718013D01*
X717365Y970227D01*
X715979Y970135D01*
X714407Y970043D01*
X712743Y969858D01*
X711078Y969580D01*
X709691Y969210D01*
X709507Y969118D01*
X709044Y969025D01*
X708397Y968748D01*
X707565Y968378D01*
X706640Y967824D01*
X705716Y967269D01*
X704791Y966622D01*
X703867Y965882D01*
X703774Y965697D01*
X703404Y965327D01*
X702850Y964680D01*
X702203Y963756D01*
X701463Y962554D01*
X700631Y961167D01*
X699891Y959595D01*
X699244Y957838D01*
Y957746D01*
X699152Y957561D01*
X699059Y957284D01*
X698967Y956914D01*
X698874Y956451D01*
X698689Y955804D01*
X698504Y955157D01*
X698319Y954417D01*
X698042Y952568D01*
X697765Y950442D01*
X697580Y948038D01*
X697487Y945449D01*
Y945357D01*
Y944987D01*
Y944525D01*
X697580Y943785D01*
Y942953D01*
X697672Y942028D01*
X697765Y940919D01*
X697857Y939809D01*
X698319Y937313D01*
X698874Y934724D01*
X699706Y932320D01*
X700261Y931119D01*
X700816Y930102D01*
Y930009D01*
X701001Y929824D01*
X701186Y929547D01*
X701370Y929177D01*
X702110Y928252D01*
X703035Y927143D01*
X704237Y925941D01*
X705623Y924739D01*
X707195Y923722D01*
X708859Y922890D01*
X709044Y922797D01*
X709507Y922705D01*
X710339Y922428D01*
X711541Y922150D01*
X713020Y921965D01*
X714869Y921688D01*
X715979Y921596D01*
X717180D01*
X718382Y921503D01*
X733175D01*
Y970320D01*
D02*
G37*
G36*
X699310Y4372556D02*
X684147D01*
X683500Y4372463D01*
X682113Y4372371D01*
X680541Y4372278D01*
X678877Y4372093D01*
X677213Y4371816D01*
X675826Y4371446D01*
X675641Y4371354D01*
X675179Y4371261D01*
X674532Y4370984D01*
X673700Y4370614D01*
X672775Y4370059D01*
X671851Y4369505D01*
X670926Y4368857D01*
X670001Y4368118D01*
X669909Y4367933D01*
X669539Y4367563D01*
X668984Y4366916D01*
X668337Y4365991D01*
X667598Y4364789D01*
X666765Y4363403D01*
X666026Y4361831D01*
X665379Y4360074D01*
Y4359982D01*
X665286Y4359797D01*
X665194Y4359519D01*
X665101Y4359150D01*
X665009Y4358687D01*
X664824Y4358040D01*
X664639Y4357393D01*
X664454Y4356653D01*
X664177Y4354804D01*
X663899Y4352678D01*
X663714Y4350274D01*
X663622Y4347685D01*
Y4347593D01*
Y4347223D01*
Y4346760D01*
X663714Y4346021D01*
Y4345189D01*
X663807Y4344264D01*
X663899Y4343155D01*
X663992Y4342045D01*
X664454Y4339549D01*
X665009Y4336960D01*
X665841Y4334556D01*
X666396Y4333354D01*
X666950Y4332337D01*
Y4332245D01*
X667135Y4332060D01*
X667320Y4331783D01*
X667505Y4331413D01*
X668245Y4330488D01*
X669169Y4329379D01*
X670371Y4328177D01*
X671758Y4326975D01*
X673330Y4325958D01*
X674994Y4325126D01*
X675179Y4325033D01*
X675641Y4324941D01*
X676473Y4324663D01*
X677675Y4324386D01*
X679155Y4324201D01*
X681004Y4323924D01*
X682113Y4323831D01*
X683315D01*
X684517Y4323739D01*
X699310D01*
Y4372556D01*
D02*
G37*
G36*
X641525Y4357578D02*
X621370D01*
Y4328916D01*
X641525Y4357578D01*
D02*
G37*
%LPD*%
D33*
X3164760Y8882130D02*
Y9390130D01*
X8282760D01*
Y8882130D02*
Y9390130D01*
X3164760Y8882130D02*
X8282760D01*
D34*
X7197754Y5034020D02*
X7471754D01*
X7197754Y1128020D02*
Y5034020D01*
Y1128020D02*
X7471754D01*
Y5034020D01*
X3469480Y1206760D02*
Y3842760D01*
X3195480Y1206760D02*
X3469480D01*
X3195480D02*
Y3842760D01*
X3469480D01*
X1762923Y3849116D02*
X2036923D01*
X1762923Y1213114D02*
Y3849116D01*
Y1213114D02*
X2036923D01*
Y3849116D01*
X4917280Y1206760D02*
Y3842760D01*
X4643280Y1206760D02*
X4917280D01*
X4643280D02*
Y3842760D01*
X4917280D01*
X107880Y499160D02*
X1375480D01*
X107880D02*
Y791159D01*
X1375480D01*
Y499160D02*
Y791159D01*
X74015Y4555566D02*
X1341615D01*
X74015D02*
Y4847566D01*
X1341615D01*
Y4555566D02*
Y4847566D01*
X107880Y831900D02*
X1375480D01*
X107880D02*
Y1123900D01*
X1375480D01*
Y831900D02*
Y1123900D01*
X74015Y4234136D02*
X1341615D01*
X74015D02*
Y4526136D01*
X1341615D01*
Y4234136D02*
Y4526136D01*
X260894Y7380240D02*
X1115894D01*
X260894Y5275240D02*
Y7380240D01*
Y5275240D02*
X1115894D01*
Y7380240D01*
X255760Y9564040D02*
X1110760D01*
X255760Y7459040D02*
Y9564040D01*
Y7459040D02*
X1110760D01*
Y9564040D01*
%TF.MD5,424a00d57077001a60fa96f315c7e432*%
M02*
