%TF.GenerationSoftware,Altium Limited,Altium Designer,25.2.1 (25)*%
G04 Layer_Color=32896*
%FSLAX45Y45*%
%MOMM*%
%TF.SameCoordinates,2B528216-A015-4FBA-BB4B-E0E15DD4AA10*%
%TF.FilePolarity,Positive*%
%TF.FileFunction,Other,Top_3D_Body*%
%TF.Part,Single*%
G01*
G75*
%TA.AperFunction,NonConductor*%
%ADD33C,0.10000*%
%ADD34C,0.20000*%
D33*
X911Y1387201D02*
X913Y2387207D01*
X163413Y2447207D02*
X248413D01*
X240913Y2387207D02*
X248413Y2447207D01*
X163413D02*
X170913Y2387207D01*
X913D02*
X170913D01*
X750911Y1387201D02*
Y2387207D01*
X240913D02*
X750911D01*
X565911Y1327201D02*
X660911D01*
X655911Y1387201D02*
X660911Y1327201D01*
X565911D02*
X570911Y1387201D01*
X655911D02*
X750911D01*
X911D02*
X570911D01*
X911Y3015341D02*
X913Y4015347D01*
X163413Y4075347D02*
X248413D01*
X240913Y4015347D02*
X248413Y4075347D01*
X163413D02*
X170913Y4015347D01*
X913D02*
X170913D01*
X750911Y3015341D02*
Y4015347D01*
X240913D02*
X750911D01*
X565911Y2955341D02*
X660911D01*
X655911Y3015341D02*
X660911Y2955341D01*
X565911D02*
X570911Y3015341D01*
X655911D02*
X750911D01*
X911D02*
X570911D01*
X9222140Y7971245D02*
X9247119Y8031253D01*
X9127119D02*
X9247119D01*
X9127119D02*
X9152098Y7971245D01*
X9057098D02*
X9152098D01*
X9222098D02*
X9957098D01*
X9057098Y6471245D02*
Y7971245D01*
X9957099Y6471245D02*
Y7971245D01*
X9742099Y6471245D02*
X9957099D01*
X9057098D02*
X9672078D01*
X9647099Y6411236D02*
X9767099D01*
X9742120Y6471245D02*
X9767099Y6411236D01*
X9647099D02*
X9672078Y6471245D01*
X9222140Y5872715D02*
X9247119Y5932723D01*
X9127119D02*
X9247119D01*
X9127119D02*
X9152098Y5872715D01*
X9057098D02*
X9152098D01*
X9222098D02*
X9957098D01*
X9057098Y4372715D02*
Y5872715D01*
X9957099Y4372715D02*
Y5872715D01*
X9742099Y4372715D02*
X9957099D01*
X9057098D02*
X9672078D01*
X9647099Y4312706D02*
X9767099D01*
X9742120Y4372715D02*
X9767099Y4312706D01*
X9647099D02*
X9672078Y4372715D01*
D34*
X7207754Y5024020D02*
X7461754D01*
X7207754Y1138020D02*
Y5024020D01*
Y1138020D02*
X7461754D01*
Y5024020D01*
X3459480Y1216760D02*
Y3832760D01*
X3205480Y1216760D02*
X3459480D01*
X3205480D02*
Y3832760D01*
X3459480D01*
X1772920Y3839113D02*
X2026920D01*
X1772920Y1223111D02*
Y3839113D01*
Y1223111D02*
X2026920D01*
Y3839113D01*
X4907280Y1216760D02*
Y3832760D01*
X4653280Y1216760D02*
X4907280D01*
X4653280D02*
Y3832760D01*
X4907280D01*
X481680Y509160D02*
X1001680D01*
X481680D02*
Y781159D01*
X1001680D01*
Y509160D02*
Y781159D01*
X447815Y4565566D02*
X967815D01*
X447815D02*
Y4837566D01*
X967815D01*
Y4565566D02*
Y4837566D01*
X481680Y841900D02*
X1001680D01*
X481680D02*
Y1113900D01*
X1001680D01*
Y841900D02*
Y1113900D01*
X447815Y4244136D02*
X967815D01*
X447815D02*
Y4516136D01*
X967815D01*
Y4244136D02*
Y4516136D01*
X270894Y7370240D02*
X1105894D01*
X270894Y5285240D02*
Y7370240D01*
Y5285240D02*
X1105894D01*
Y7370240D01*
X265760Y9554040D02*
X1100760D01*
X265760Y7469040D02*
Y9554040D01*
Y7469040D02*
X1100760D01*
Y9554040D01*
%TF.MD5,fc9fc57c3187b381d76e93b2fb9a6d2e*%
M02*
