%TF.GenerationSoftware,Altium Limited,Altium Designer,25.2.1 (25)*%
G04 Layer_Physical_Order=1*
G04 Layer_Color=255*
%FSLAX45Y45*%
%MOMM*%
%TF.SameCoordinates,2B528216-A015-4FBA-BB4B-E0E15DD4AA10*%
%TF.FilePolarity,Positive*%
%TF.FileFunction,Copper,L1,Top,Signal*%
%TF.Part,Single*%
G01*
G75*
%TA.AperFunction,Conductor*%
%ADD10C,1.00000*%
%ADD11C,0.60000*%
%ADD12C,0.50000*%
%TA.AperFunction,NonConductor*%
%ADD13C,0.25400*%
%ADD14C,0.50000*%
%TA.AperFunction,ComponentPad*%
%ADD15C,1.55000*%
%ADD16R,1.55000X1.55000*%
G04:AMPARAMS|DCode=17|XSize=1.95mm|YSize=1.95mm|CornerRadius=0.4875mm|HoleSize=0mm|Usage=FLASHONLY|Rotation=270.000|XOffset=0mm|YOffset=0mm|HoleType=Round|Shape=RoundedRectangle|*
%AMROUNDEDRECTD17*
21,1,1.95000,0.97500,0,0,270.0*
21,1,0.97500,1.95000,0,0,270.0*
1,1,0.97500,-0.48750,-0.48750*
1,1,0.97500,-0.48750,0.48750*
1,1,0.97500,0.48750,0.48750*
1,1,0.97500,0.48750,-0.48750*
%
%ADD17ROUNDEDRECTD17*%
%ADD18C,1.95000*%
%ADD19C,1.59000*%
%ADD20R,1.59000X1.59000*%
%ADD21R,1.60000X1.60000*%
%ADD22C,1.60000*%
%ADD23C,1.20000*%
%ADD24C,1.20000*%
%ADD25C,1.70000*%
%ADD26R,1.70000X1.70000*%
%TA.AperFunction,ViaPad*%
%ADD27C,4.00000*%
%ADD28C,1.27000*%
%ADD29C,0.80000*%
%ADD30C,1.00000*%
G36*
X9723771Y9974600D02*
X9684255Y9966740D01*
X9643235Y9949749D01*
X9606318Y9925082D01*
X9574922Y9893686D01*
X9550255Y9856769D01*
X9533264Y9815749D01*
X9524602Y9772202D01*
Y9762702D01*
X9750002D01*
Y9750002D01*
X9762702D01*
Y9524602D01*
X9772202D01*
X9815749Y9533264D01*
X9856769Y9550255D01*
X9893686Y9574922D01*
X9925082Y9606318D01*
X9949749Y9643235D01*
X9966740Y9684255D01*
X9974600Y9723771D01*
X10000000Y9721269D01*
Y278734D01*
X9974600Y276232D01*
X9966740Y315747D01*
X9949749Y356768D01*
X9925082Y393685D01*
X9893686Y425080D01*
X9856769Y449748D01*
X9815749Y466739D01*
X9772202Y475401D01*
X9762702D01*
Y250001D01*
X9750002D01*
Y237301D01*
X9524602D01*
Y227801D01*
X9533264Y184254D01*
X9550255Y143234D01*
X9574922Y106317D01*
X9606318Y74921D01*
X9643235Y50254D01*
X9684255Y33263D01*
X9723785Y25400D01*
X9721283Y0D01*
X278720D01*
X276218Y25400D01*
X315747Y33263D01*
X356768Y50254D01*
X393685Y74921D01*
X425080Y106317D01*
X449748Y143234D01*
X466739Y184254D01*
X475401Y227801D01*
Y237301D01*
X250001D01*
Y250001D01*
X237301D01*
Y475401D01*
X227801D01*
X184254Y466739D01*
X143234Y449748D01*
X106317Y425080D01*
X74921Y393685D01*
X50254Y356768D01*
X33263Y315747D01*
X25400Y276218D01*
X0Y278720D01*
Y5285240D01*
X507145D01*
X512510Y5290604D01*
Y9489040D01*
X0D01*
Y9721283D01*
X25400Y9723785D01*
X33263Y9684255D01*
X50254Y9643235D01*
X74921Y9606318D01*
X106317Y9574922D01*
X143234Y9550255D01*
X184254Y9533264D01*
X227801Y9524602D01*
X237301D01*
Y9750002D01*
X250001D01*
Y9762702D01*
X475401D01*
Y9772202D01*
X466739Y9815749D01*
X449748Y9856769D01*
X425080Y9893686D01*
X393685Y9925082D01*
X356768Y9949749D01*
X315747Y9966740D01*
X276232Y9974600D01*
X278734Y10000000D01*
X9721269D01*
X9723771Y9974600D01*
D02*
G37*
%LPC*%
G36*
X9737302Y9737302D02*
X9524602D01*
Y9727802D01*
X9533264Y9684255D01*
X9550255Y9643235D01*
X9574922Y9606318D01*
X9606318Y9574922D01*
X9643235Y9550255D01*
X9684255Y9533264D01*
X9727802Y9524602D01*
X9737302D01*
Y9737302D01*
D02*
G37*
G36*
X475401D02*
X262701D01*
Y9524602D01*
X272201D01*
X315747Y9533264D01*
X356768Y9550255D01*
X393685Y9574922D01*
X425080Y9606318D01*
X449748Y9643235D01*
X466739Y9684255D01*
X475401Y9727802D01*
Y9737302D01*
D02*
G37*
G36*
X7134307Y9366030D02*
X7133461D01*
Y9275831D01*
X7223660D01*
Y9276677D01*
X7216647Y9302848D01*
X7203100Y9326312D01*
X7183942Y9345471D01*
X7160478Y9359018D01*
X7134307Y9366030D01*
D02*
G37*
G36*
X3324307D02*
X3323461D01*
Y9275831D01*
X3413660D01*
Y9276677D01*
X3406647Y9302848D01*
X3393100Y9326312D01*
X3373942Y9345471D01*
X3350478Y9359018D01*
X3324307Y9366030D01*
D02*
G37*
G36*
X5102307D02*
X5101461D01*
Y9275831D01*
X5191660D01*
Y9276677D01*
X5184647Y9302848D01*
X5171100Y9326312D01*
X5151942Y9345471D01*
X5128478Y9359018D01*
X5102307Y9366030D01*
D02*
G37*
G36*
X7108061D02*
X7107213D01*
X7081042Y9359018D01*
X7057578Y9345471D01*
X7038420Y9326312D01*
X7024872Y9302848D01*
X7017860Y9276677D01*
Y9275831D01*
X7108061D01*
Y9366030D01*
D02*
G37*
G36*
X3298061D02*
X3297213D01*
X3271042Y9359018D01*
X3247578Y9345471D01*
X3228420Y9326312D01*
X3214872Y9302848D01*
X3207860Y9276677D01*
Y9275831D01*
X3298061D01*
Y9366030D01*
D02*
G37*
G36*
X5076061D02*
X5075213D01*
X5049042Y9359018D01*
X5025578Y9345471D01*
X5006420Y9326312D01*
X4992872Y9302848D01*
X4985860Y9276677D01*
Y9275831D01*
X5076061D01*
Y9366030D01*
D02*
G37*
G36*
X8239660D02*
X8033860D01*
Y9160230D01*
X8239660D01*
Y9366030D01*
D02*
G37*
G36*
X7896307D02*
X7869213D01*
X7843042Y9359018D01*
X7819578Y9345471D01*
X7800420Y9326312D01*
X7786872Y9302848D01*
X7779860Y9276677D01*
Y9249583D01*
X7786872Y9223412D01*
X7800420Y9199948D01*
X7819578Y9180790D01*
X7843042Y9167243D01*
X7869213Y9160230D01*
X7896307D01*
X7922478Y9167243D01*
X7945942Y9180790D01*
X7965100Y9199948D01*
X7978647Y9223412D01*
X7985660Y9249583D01*
Y9276677D01*
X7978647Y9302848D01*
X7965100Y9326312D01*
X7945942Y9345471D01*
X7922478Y9359018D01*
X7896307Y9366030D01*
D02*
G37*
G36*
X7642307D02*
X7615213D01*
X7589042Y9359018D01*
X7565578Y9345471D01*
X7546420Y9326312D01*
X7532872Y9302848D01*
X7525860Y9276677D01*
Y9249583D01*
X7532872Y9223412D01*
X7546420Y9199948D01*
X7565578Y9180790D01*
X7589042Y9167243D01*
X7615213Y9160230D01*
X7642307D01*
X7668478Y9167243D01*
X7691942Y9180790D01*
X7711100Y9199948D01*
X7724647Y9223412D01*
X7731660Y9249583D01*
Y9276677D01*
X7724647Y9302848D01*
X7711100Y9326312D01*
X7691942Y9345471D01*
X7668478Y9359018D01*
X7642307Y9366030D01*
D02*
G37*
G36*
X7388307D02*
X7361213D01*
X7335042Y9359018D01*
X7311578Y9345471D01*
X7292420Y9326312D01*
X7278872Y9302848D01*
X7271860Y9276677D01*
Y9249583D01*
X7278872Y9223412D01*
X7292420Y9199948D01*
X7311578Y9180790D01*
X7335042Y9167243D01*
X7361213Y9160230D01*
X7388307D01*
X7414478Y9167243D01*
X7437942Y9180790D01*
X7457100Y9199948D01*
X7470647Y9223412D01*
X7477660Y9249583D01*
Y9276677D01*
X7470647Y9302848D01*
X7457100Y9326312D01*
X7437942Y9345471D01*
X7414478Y9359018D01*
X7388307Y9366030D01*
D02*
G37*
G36*
X7223660Y9250431D02*
X7133461D01*
Y9160230D01*
X7134307D01*
X7160478Y9167243D01*
X7183942Y9180790D01*
X7203100Y9199948D01*
X7216647Y9223412D01*
X7223660Y9249583D01*
Y9250431D01*
D02*
G37*
G36*
X7108061D02*
X7017860D01*
Y9249583D01*
X7024872Y9223412D01*
X7038420Y9199948D01*
X7057578Y9180790D01*
X7081042Y9167243D01*
X7107213Y9160230D01*
X7108061D01*
Y9250431D01*
D02*
G37*
G36*
X6880307Y9366030D02*
X6853213D01*
X6827042Y9359018D01*
X6803578Y9345471D01*
X6784420Y9326312D01*
X6770872Y9302848D01*
X6763860Y9276677D01*
Y9249583D01*
X6770872Y9223412D01*
X6784420Y9199948D01*
X6803578Y9180790D01*
X6827042Y9167243D01*
X6853213Y9160230D01*
X6880307D01*
X6906478Y9167243D01*
X6929942Y9180790D01*
X6949100Y9199948D01*
X6962647Y9223412D01*
X6969660Y9249583D01*
Y9276677D01*
X6962647Y9302848D01*
X6949100Y9326312D01*
X6929942Y9345471D01*
X6906478Y9359018D01*
X6880307Y9366030D01*
D02*
G37*
G36*
X6626307D02*
X6599213D01*
X6573042Y9359018D01*
X6549578Y9345471D01*
X6530420Y9326312D01*
X6516872Y9302848D01*
X6509860Y9276677D01*
Y9249583D01*
X6516872Y9223412D01*
X6530420Y9199948D01*
X6549578Y9180790D01*
X6573042Y9167243D01*
X6599213Y9160230D01*
X6626307D01*
X6652478Y9167243D01*
X6675942Y9180790D01*
X6695100Y9199948D01*
X6708647Y9223412D01*
X6715660Y9249583D01*
Y9276677D01*
X6708647Y9302848D01*
X6695100Y9326312D01*
X6675942Y9345471D01*
X6652478Y9359018D01*
X6626307Y9366030D01*
D02*
G37*
G36*
X6372307D02*
X6345213D01*
X6319042Y9359018D01*
X6295578Y9345471D01*
X6276420Y9326312D01*
X6262872Y9302848D01*
X6255860Y9276677D01*
Y9249583D01*
X6262872Y9223412D01*
X6276420Y9199948D01*
X6295578Y9180790D01*
X6319042Y9167243D01*
X6345213Y9160230D01*
X6372307D01*
X6398478Y9167243D01*
X6421942Y9180790D01*
X6441100Y9199948D01*
X6454647Y9223412D01*
X6461660Y9249583D01*
Y9276677D01*
X6454647Y9302848D01*
X6441100Y9326312D01*
X6421942Y9345471D01*
X6398478Y9359018D01*
X6372307Y9366030D01*
D02*
G37*
G36*
X6118307D02*
X6091213D01*
X6065042Y9359018D01*
X6041578Y9345471D01*
X6022420Y9326312D01*
X6008872Y9302848D01*
X6001860Y9276677D01*
Y9249583D01*
X6008872Y9223412D01*
X6022420Y9199948D01*
X6041578Y9180790D01*
X6065042Y9167243D01*
X6091213Y9160230D01*
X6118307D01*
X6144478Y9167243D01*
X6167942Y9180790D01*
X6187100Y9199948D01*
X6200647Y9223412D01*
X6207660Y9249583D01*
Y9276677D01*
X6200647Y9302848D01*
X6187100Y9326312D01*
X6167942Y9345471D01*
X6144478Y9359018D01*
X6118307Y9366030D01*
D02*
G37*
G36*
X5864307D02*
X5837213D01*
X5811042Y9359018D01*
X5787578Y9345471D01*
X5768420Y9326312D01*
X5754872Y9302848D01*
X5747860Y9276677D01*
Y9249583D01*
X5754872Y9223412D01*
X5768420Y9199948D01*
X5787578Y9180790D01*
X5811042Y9167243D01*
X5837213Y9160230D01*
X5864307D01*
X5890478Y9167243D01*
X5913942Y9180790D01*
X5933100Y9199948D01*
X5946647Y9223412D01*
X5953660Y9249583D01*
Y9276677D01*
X5946647Y9302848D01*
X5933100Y9326312D01*
X5913942Y9345471D01*
X5890478Y9359018D01*
X5864307Y9366030D01*
D02*
G37*
G36*
X5610307D02*
X5583213D01*
X5557042Y9359018D01*
X5533578Y9345471D01*
X5514420Y9326312D01*
X5500872Y9302848D01*
X5493860Y9276677D01*
Y9249583D01*
X5500872Y9223412D01*
X5514420Y9199948D01*
X5533578Y9180790D01*
X5557042Y9167243D01*
X5583213Y9160230D01*
X5610307D01*
X5636478Y9167243D01*
X5659942Y9180790D01*
X5679100Y9199948D01*
X5692647Y9223412D01*
X5699660Y9249583D01*
Y9276677D01*
X5692647Y9302848D01*
X5679100Y9326312D01*
X5659942Y9345471D01*
X5636478Y9359018D01*
X5610307Y9366030D01*
D02*
G37*
G36*
X5356307D02*
X5329213D01*
X5303042Y9359018D01*
X5279578Y9345471D01*
X5260420Y9326312D01*
X5246872Y9302848D01*
X5239860Y9276677D01*
Y9249583D01*
X5246872Y9223412D01*
X5260420Y9199948D01*
X5279578Y9180790D01*
X5303042Y9167243D01*
X5329213Y9160230D01*
X5356307D01*
X5382478Y9167243D01*
X5405942Y9180790D01*
X5425100Y9199948D01*
X5438647Y9223412D01*
X5445660Y9249583D01*
Y9276677D01*
X5438647Y9302848D01*
X5425100Y9326312D01*
X5405942Y9345471D01*
X5382478Y9359018D01*
X5356307Y9366030D01*
D02*
G37*
G36*
X5191660Y9250431D02*
X5101461D01*
Y9160230D01*
X5102307D01*
X5128478Y9167243D01*
X5151942Y9180790D01*
X5171100Y9199948D01*
X5184647Y9223412D01*
X5191660Y9249583D01*
Y9250431D01*
D02*
G37*
G36*
X5076061D02*
X4985860D01*
Y9249583D01*
X4992872Y9223412D01*
X5006420Y9199948D01*
X5025578Y9180790D01*
X5049042Y9167243D01*
X5075213Y9160230D01*
X5076061D01*
Y9250431D01*
D02*
G37*
G36*
X4848307Y9366030D02*
X4821213D01*
X4795042Y9359018D01*
X4771578Y9345471D01*
X4752420Y9326312D01*
X4738872Y9302848D01*
X4731860Y9276677D01*
Y9249583D01*
X4738872Y9223412D01*
X4752420Y9199948D01*
X4771578Y9180790D01*
X4795042Y9167243D01*
X4821213Y9160230D01*
X4848307D01*
X4874478Y9167243D01*
X4897942Y9180790D01*
X4917100Y9199948D01*
X4930647Y9223412D01*
X4937660Y9249583D01*
Y9276677D01*
X4930647Y9302848D01*
X4917100Y9326312D01*
X4897942Y9345471D01*
X4874478Y9359018D01*
X4848307Y9366030D01*
D02*
G37*
G36*
X4594307D02*
X4567213D01*
X4541042Y9359018D01*
X4517578Y9345471D01*
X4498420Y9326312D01*
X4484872Y9302848D01*
X4477860Y9276677D01*
Y9249583D01*
X4484872Y9223412D01*
X4498420Y9199948D01*
X4517578Y9180790D01*
X4541042Y9167243D01*
X4567213Y9160230D01*
X4594307D01*
X4620478Y9167243D01*
X4643942Y9180790D01*
X4663100Y9199948D01*
X4676647Y9223412D01*
X4683660Y9249583D01*
Y9276677D01*
X4676647Y9302848D01*
X4663100Y9326312D01*
X4643942Y9345471D01*
X4620478Y9359018D01*
X4594307Y9366030D01*
D02*
G37*
G36*
X4340307D02*
X4313213D01*
X4287042Y9359018D01*
X4263578Y9345471D01*
X4244420Y9326312D01*
X4230872Y9302848D01*
X4223860Y9276677D01*
Y9249583D01*
X4230872Y9223412D01*
X4244420Y9199948D01*
X4263578Y9180790D01*
X4287042Y9167243D01*
X4313213Y9160230D01*
X4340307D01*
X4366478Y9167243D01*
X4389942Y9180790D01*
X4409100Y9199948D01*
X4422647Y9223412D01*
X4429660Y9249583D01*
Y9276677D01*
X4422647Y9302848D01*
X4409100Y9326312D01*
X4389942Y9345471D01*
X4366478Y9359018D01*
X4340307Y9366030D01*
D02*
G37*
G36*
X4086307D02*
X4059213D01*
X4033042Y9359018D01*
X4009578Y9345471D01*
X3990420Y9326312D01*
X3976872Y9302848D01*
X3969860Y9276677D01*
Y9249583D01*
X3976872Y9223412D01*
X3990420Y9199948D01*
X4009578Y9180790D01*
X4033042Y9167243D01*
X4059213Y9160230D01*
X4086307D01*
X4112478Y9167243D01*
X4135942Y9180790D01*
X4155100Y9199948D01*
X4168647Y9223412D01*
X4175660Y9249583D01*
Y9276677D01*
X4168647Y9302848D01*
X4155100Y9326312D01*
X4135942Y9345471D01*
X4112478Y9359018D01*
X4086307Y9366030D01*
D02*
G37*
G36*
X3832307D02*
X3805213D01*
X3779042Y9359018D01*
X3755578Y9345471D01*
X3736420Y9326312D01*
X3722872Y9302848D01*
X3715860Y9276677D01*
Y9249583D01*
X3722872Y9223412D01*
X3736420Y9199948D01*
X3755578Y9180790D01*
X3779042Y9167243D01*
X3805213Y9160230D01*
X3832307D01*
X3858478Y9167243D01*
X3881942Y9180790D01*
X3901100Y9199948D01*
X3914647Y9223412D01*
X3921660Y9249583D01*
Y9276677D01*
X3914647Y9302848D01*
X3901100Y9326312D01*
X3881942Y9345471D01*
X3858478Y9359018D01*
X3832307Y9366030D01*
D02*
G37*
G36*
X3578307D02*
X3551213D01*
X3525042Y9359018D01*
X3501578Y9345471D01*
X3482420Y9326312D01*
X3468872Y9302848D01*
X3461860Y9276677D01*
Y9249583D01*
X3468872Y9223412D01*
X3482420Y9199948D01*
X3501578Y9180790D01*
X3525042Y9167243D01*
X3551213Y9160230D01*
X3578307D01*
X3604478Y9167243D01*
X3627942Y9180790D01*
X3647100Y9199948D01*
X3660647Y9223412D01*
X3667660Y9249583D01*
Y9276677D01*
X3660647Y9302848D01*
X3647100Y9326312D01*
X3627942Y9345471D01*
X3604478Y9359018D01*
X3578307Y9366030D01*
D02*
G37*
G36*
X3413660Y9250431D02*
X3323461D01*
Y9160230D01*
X3324307D01*
X3350478Y9167243D01*
X3373942Y9180790D01*
X3393100Y9199948D01*
X3406647Y9223412D01*
X3413660Y9249583D01*
Y9250431D01*
D02*
G37*
G36*
X3298061D02*
X3207860D01*
Y9249583D01*
X3214872Y9223412D01*
X3228420Y9199948D01*
X3247578Y9180790D01*
X3271042Y9167243D01*
X3297213Y9160230D01*
X3298061D01*
Y9250431D01*
D02*
G37*
G36*
X793660Y9341940D02*
X572860D01*
Y9121140D01*
X793660D01*
Y9341940D01*
D02*
G37*
G36*
X1314263Y9196000D02*
X1291777D01*
X1270057Y9190180D01*
X1250583Y9178937D01*
X1234683Y9163037D01*
X1223440Y9143563D01*
X1217620Y9121843D01*
Y9099357D01*
X1223440Y9077637D01*
X1234683Y9058163D01*
X1250583Y9042263D01*
X1270057Y9031020D01*
X1291777Y9025200D01*
X1314263D01*
X1335983Y9031020D01*
X1355457Y9042263D01*
X1371357Y9058163D01*
X1382600Y9077637D01*
X1388420Y9099357D01*
Y9121843D01*
X1382600Y9143563D01*
X1371357Y9163037D01*
X1355457Y9178937D01*
X1335983Y9190180D01*
X1314263Y9196000D01*
D02*
G37*
G36*
X5864307Y9112030D02*
X5863461D01*
Y9021831D01*
X5953660D01*
Y9022677D01*
X5946647Y9048848D01*
X5933100Y9072312D01*
X5913942Y9091471D01*
X5890478Y9105018D01*
X5864307Y9112030D01*
D02*
G37*
G36*
X4594307D02*
X4593461D01*
Y9021831D01*
X4683660D01*
Y9022677D01*
X4676647Y9048848D01*
X4663100Y9072312D01*
X4643942Y9091471D01*
X4620478Y9105018D01*
X4594307Y9112030D01*
D02*
G37*
G36*
X7642307D02*
X7641461D01*
Y9021831D01*
X7731660D01*
Y9022677D01*
X7724647Y9048848D01*
X7711100Y9072312D01*
X7691942Y9091471D01*
X7668478Y9105018D01*
X7642307Y9112030D01*
D02*
G37*
G36*
X6626307D02*
X6625461D01*
Y9021831D01*
X6715660D01*
Y9022677D01*
X6708647Y9048848D01*
X6695100Y9072312D01*
X6675942Y9091471D01*
X6652478Y9105018D01*
X6626307Y9112030D01*
D02*
G37*
G36*
X4086307D02*
X4085461D01*
Y9021831D01*
X4175660D01*
Y9022677D01*
X4168647Y9048848D01*
X4155100Y9072312D01*
X4135942Y9091471D01*
X4112478Y9105018D01*
X4086307Y9112030D01*
D02*
G37*
G36*
X5838061D02*
X5837213D01*
X5811042Y9105018D01*
X5787578Y9091471D01*
X5768420Y9072312D01*
X5754872Y9048848D01*
X5747860Y9022677D01*
Y9021831D01*
X5838061D01*
Y9112030D01*
D02*
G37*
G36*
X4568061D02*
X4567213D01*
X4541042Y9105018D01*
X4517578Y9091471D01*
X4498420Y9072312D01*
X4484872Y9048848D01*
X4477860Y9022677D01*
Y9021831D01*
X4568061D01*
Y9112030D01*
D02*
G37*
G36*
X7616061D02*
X7615213D01*
X7589042Y9105018D01*
X7565578Y9091471D01*
X7546420Y9072312D01*
X7532872Y9048848D01*
X7525860Y9022677D01*
Y9021831D01*
X7616061D01*
Y9112030D01*
D02*
G37*
G36*
X4060061D02*
X4059213D01*
X4033042Y9105018D01*
X4009578Y9091471D01*
X3990420Y9072312D01*
X3976872Y9048848D01*
X3969860Y9022677D01*
Y9021831D01*
X4060061D01*
Y9112030D01*
D02*
G37*
G36*
X6600061D02*
X6599213D01*
X6573042Y9105018D01*
X6549578Y9091471D01*
X6530420Y9072312D01*
X6516872Y9048848D01*
X6509860Y9022677D01*
Y9021831D01*
X6600061D01*
Y9112030D01*
D02*
G37*
G36*
X8150307D02*
X8123213D01*
X8097042Y9105018D01*
X8073578Y9091471D01*
X8054420Y9072312D01*
X8040872Y9048848D01*
X8033860Y9022677D01*
Y8995583D01*
X8040872Y8969412D01*
X8054420Y8945948D01*
X8073578Y8926790D01*
X8097042Y8913243D01*
X8123213Y8906230D01*
X8150307D01*
X8176478Y8913243D01*
X8199942Y8926790D01*
X8219100Y8945948D01*
X8232647Y8969412D01*
X8239660Y8995583D01*
Y9022677D01*
X8232647Y9048848D01*
X8219100Y9072312D01*
X8199942Y9091471D01*
X8176478Y9105018D01*
X8150307Y9112030D01*
D02*
G37*
G36*
X7896307D02*
X7869213D01*
X7843042Y9105018D01*
X7819578Y9091471D01*
X7800420Y9072312D01*
X7786872Y9048848D01*
X7779860Y9022677D01*
Y8995583D01*
X7786872Y8969412D01*
X7800420Y8945948D01*
X7819578Y8926790D01*
X7843042Y8913243D01*
X7869213Y8906230D01*
X7896307D01*
X7922478Y8913243D01*
X7945942Y8926790D01*
X7965100Y8945948D01*
X7978647Y8969412D01*
X7985660Y8995583D01*
Y9022677D01*
X7978647Y9048848D01*
X7965100Y9072312D01*
X7945942Y9091471D01*
X7922478Y9105018D01*
X7896307Y9112030D01*
D02*
G37*
G36*
X7731660Y8996431D02*
X7641461D01*
Y8906230D01*
X7642307D01*
X7668478Y8913243D01*
X7691942Y8926790D01*
X7711100Y8945948D01*
X7724647Y8969412D01*
X7731660Y8995583D01*
Y8996431D01*
D02*
G37*
G36*
X7616061D02*
X7525860D01*
Y8995583D01*
X7532872Y8969412D01*
X7546420Y8945948D01*
X7565578Y8926790D01*
X7589042Y8913243D01*
X7615213Y8906230D01*
X7616061D01*
Y8996431D01*
D02*
G37*
G36*
X7388307Y9112030D02*
X7361213D01*
X7335042Y9105018D01*
X7311578Y9091471D01*
X7292420Y9072312D01*
X7278872Y9048848D01*
X7271860Y9022677D01*
Y8995583D01*
X7278872Y8969412D01*
X7292420Y8945948D01*
X7311578Y8926790D01*
X7335042Y8913243D01*
X7361213Y8906230D01*
X7388307D01*
X7414478Y8913243D01*
X7437942Y8926790D01*
X7457100Y8945948D01*
X7470647Y8969412D01*
X7477660Y8995583D01*
Y9022677D01*
X7470647Y9048848D01*
X7457100Y9072312D01*
X7437942Y9091471D01*
X7414478Y9105018D01*
X7388307Y9112030D01*
D02*
G37*
G36*
X7134307D02*
X7107213D01*
X7081042Y9105018D01*
X7057578Y9091471D01*
X7038420Y9072312D01*
X7024872Y9048848D01*
X7017860Y9022677D01*
Y8995583D01*
X7024872Y8969412D01*
X7038420Y8945948D01*
X7057578Y8926790D01*
X7081042Y8913243D01*
X7107213Y8906230D01*
X7134307D01*
X7160478Y8913243D01*
X7183942Y8926790D01*
X7203100Y8945948D01*
X7216647Y8969412D01*
X7223660Y8995583D01*
Y9022677D01*
X7216647Y9048848D01*
X7203100Y9072312D01*
X7183942Y9091471D01*
X7160478Y9105018D01*
X7134307Y9112030D01*
D02*
G37*
G36*
X6880307D02*
X6853213D01*
X6827042Y9105018D01*
X6803578Y9091471D01*
X6784420Y9072312D01*
X6770872Y9048848D01*
X6763860Y9022677D01*
Y8995583D01*
X6770872Y8969412D01*
X6784420Y8945948D01*
X6803578Y8926790D01*
X6827042Y8913243D01*
X6853213Y8906230D01*
X6880307D01*
X6906478Y8913243D01*
X6929942Y8926790D01*
X6949100Y8945948D01*
X6962647Y8969412D01*
X6969660Y8995583D01*
Y9022677D01*
X6962647Y9048848D01*
X6949100Y9072312D01*
X6929942Y9091471D01*
X6906478Y9105018D01*
X6880307Y9112030D01*
D02*
G37*
G36*
X6715660Y8996431D02*
X6625461D01*
Y8906230D01*
X6626307D01*
X6652478Y8913243D01*
X6675942Y8926790D01*
X6695100Y8945948D01*
X6708647Y8969412D01*
X6715660Y8995583D01*
Y8996431D01*
D02*
G37*
G36*
X6600061D02*
X6509860D01*
Y8995583D01*
X6516872Y8969412D01*
X6530420Y8945948D01*
X6549578Y8926790D01*
X6573042Y8913243D01*
X6599213Y8906230D01*
X6600061D01*
Y8996431D01*
D02*
G37*
G36*
X6372307Y9112030D02*
X6345213D01*
X6319042Y9105018D01*
X6295578Y9091471D01*
X6276420Y9072312D01*
X6262872Y9048848D01*
X6255860Y9022677D01*
Y8995583D01*
X6262872Y8969412D01*
X6276420Y8945948D01*
X6295578Y8926790D01*
X6319042Y8913243D01*
X6345213Y8906230D01*
X6372307D01*
X6398478Y8913243D01*
X6421942Y8926790D01*
X6441100Y8945948D01*
X6454647Y8969412D01*
X6461660Y8995583D01*
Y9022677D01*
X6454647Y9048848D01*
X6441100Y9072312D01*
X6421942Y9091471D01*
X6398478Y9105018D01*
X6372307Y9112030D01*
D02*
G37*
G36*
X6118307D02*
X6091213D01*
X6065042Y9105018D01*
X6041578Y9091471D01*
X6022420Y9072312D01*
X6008872Y9048848D01*
X6001860Y9022677D01*
Y8995583D01*
X6008872Y8969412D01*
X6022420Y8945948D01*
X6041578Y8926790D01*
X6065042Y8913243D01*
X6091213Y8906230D01*
X6118307D01*
X6144478Y8913243D01*
X6167942Y8926790D01*
X6187100Y8945948D01*
X6200647Y8969412D01*
X6207660Y8995583D01*
Y9022677D01*
X6200647Y9048848D01*
X6187100Y9072312D01*
X6167942Y9091471D01*
X6144478Y9105018D01*
X6118307Y9112030D01*
D02*
G37*
G36*
X5953660Y8996431D02*
X5863461D01*
Y8906230D01*
X5864307D01*
X5890478Y8913243D01*
X5913942Y8926790D01*
X5933100Y8945948D01*
X5946647Y8969412D01*
X5953660Y8995583D01*
Y8996431D01*
D02*
G37*
G36*
X5838061D02*
X5747860D01*
Y8995583D01*
X5754872Y8969412D01*
X5768420Y8945948D01*
X5787578Y8926790D01*
X5811042Y8913243D01*
X5837213Y8906230D01*
X5838061D01*
Y8996431D01*
D02*
G37*
G36*
X5610307Y9112030D02*
X5583213D01*
X5557042Y9105018D01*
X5533578Y9091471D01*
X5514420Y9072312D01*
X5500872Y9048848D01*
X5493860Y9022677D01*
Y8995583D01*
X5500872Y8969412D01*
X5514420Y8945948D01*
X5533578Y8926790D01*
X5557042Y8913243D01*
X5583213Y8906230D01*
X5610307D01*
X5636478Y8913243D01*
X5659942Y8926790D01*
X5679100Y8945948D01*
X5692647Y8969412D01*
X5699660Y8995583D01*
Y9022677D01*
X5692647Y9048848D01*
X5679100Y9072312D01*
X5659942Y9091471D01*
X5636478Y9105018D01*
X5610307Y9112030D01*
D02*
G37*
G36*
X5356307D02*
X5329213D01*
X5303042Y9105018D01*
X5279578Y9091471D01*
X5260420Y9072312D01*
X5246872Y9048848D01*
X5239860Y9022677D01*
Y8995583D01*
X5246872Y8969412D01*
X5260420Y8945948D01*
X5279578Y8926790D01*
X5303042Y8913243D01*
X5329213Y8906230D01*
X5356307D01*
X5382478Y8913243D01*
X5405942Y8926790D01*
X5425100Y8945948D01*
X5438647Y8969412D01*
X5445660Y8995583D01*
Y9022677D01*
X5438647Y9048848D01*
X5425100Y9072312D01*
X5405942Y9091471D01*
X5382478Y9105018D01*
X5356307Y9112030D01*
D02*
G37*
G36*
X5102307D02*
X5075213D01*
X5049042Y9105018D01*
X5025578Y9091471D01*
X5006420Y9072312D01*
X4992872Y9048848D01*
X4985860Y9022677D01*
Y8995583D01*
X4992872Y8969412D01*
X5006420Y8945948D01*
X5025578Y8926790D01*
X5049042Y8913243D01*
X5075213Y8906230D01*
X5102307D01*
X5128478Y8913243D01*
X5151942Y8926790D01*
X5171100Y8945948D01*
X5184647Y8969412D01*
X5191660Y8995583D01*
Y9022677D01*
X5184647Y9048848D01*
X5171100Y9072312D01*
X5151942Y9091471D01*
X5128478Y9105018D01*
X5102307Y9112030D01*
D02*
G37*
G36*
X4848307D02*
X4821213D01*
X4795042Y9105018D01*
X4771578Y9091471D01*
X4752420Y9072312D01*
X4738872Y9048848D01*
X4731860Y9022677D01*
Y8995583D01*
X4738872Y8969412D01*
X4752420Y8945948D01*
X4771578Y8926790D01*
X4795042Y8913243D01*
X4821213Y8906230D01*
X4848307D01*
X4874478Y8913243D01*
X4897942Y8926790D01*
X4917100Y8945948D01*
X4930647Y8969412D01*
X4937660Y8995583D01*
Y9022677D01*
X4930647Y9048848D01*
X4917100Y9072312D01*
X4897942Y9091471D01*
X4874478Y9105018D01*
X4848307Y9112030D01*
D02*
G37*
G36*
X4683660Y8996431D02*
X4593461D01*
Y8906230D01*
X4594307D01*
X4620478Y8913243D01*
X4643942Y8926790D01*
X4663100Y8945948D01*
X4676647Y8969412D01*
X4683660Y8995583D01*
Y8996431D01*
D02*
G37*
G36*
X4568061D02*
X4477860D01*
Y8995583D01*
X4484872Y8969412D01*
X4498420Y8945948D01*
X4517578Y8926790D01*
X4541042Y8913243D01*
X4567213Y8906230D01*
X4568061D01*
Y8996431D01*
D02*
G37*
G36*
X4340307Y9112030D02*
X4313213D01*
X4287042Y9105018D01*
X4263578Y9091471D01*
X4244420Y9072312D01*
X4230872Y9048848D01*
X4223860Y9022677D01*
Y8995583D01*
X4230872Y8969412D01*
X4244420Y8945948D01*
X4263578Y8926790D01*
X4287042Y8913243D01*
X4313213Y8906230D01*
X4340307D01*
X4366478Y8913243D01*
X4389942Y8926790D01*
X4409100Y8945948D01*
X4422647Y8969412D01*
X4429660Y8995583D01*
Y9022677D01*
X4422647Y9048848D01*
X4409100Y9072312D01*
X4389942Y9091471D01*
X4366478Y9105018D01*
X4340307Y9112030D01*
D02*
G37*
G36*
X4175660Y8996431D02*
X4085461D01*
Y8906230D01*
X4086307D01*
X4112478Y8913243D01*
X4135942Y8926790D01*
X4155100Y8945948D01*
X4168647Y8969412D01*
X4175660Y8995583D01*
Y8996431D01*
D02*
G37*
G36*
X4060061D02*
X3969860D01*
Y8995583D01*
X3976872Y8969412D01*
X3990420Y8945948D01*
X4009578Y8926790D01*
X4033042Y8913243D01*
X4059213Y8906230D01*
X4060061D01*
Y8996431D01*
D02*
G37*
G36*
X3832307Y9112030D02*
X3805213D01*
X3779042Y9105018D01*
X3755578Y9091471D01*
X3736420Y9072312D01*
X3722872Y9048848D01*
X3715860Y9022677D01*
Y8995583D01*
X3722872Y8969412D01*
X3736420Y8945948D01*
X3755578Y8926790D01*
X3779042Y8913243D01*
X3805213Y8906230D01*
X3832307D01*
X3858478Y8913243D01*
X3881942Y8926790D01*
X3901100Y8945948D01*
X3914647Y8969412D01*
X3921660Y8995583D01*
Y9022677D01*
X3914647Y9048848D01*
X3901100Y9072312D01*
X3881942Y9091471D01*
X3858478Y9105018D01*
X3832307Y9112030D01*
D02*
G37*
G36*
X3578307D02*
X3551213D01*
X3525042Y9105018D01*
X3501578Y9091471D01*
X3482420Y9072312D01*
X3468872Y9048848D01*
X3461860Y9022677D01*
Y8995583D01*
X3468872Y8969412D01*
X3482420Y8945948D01*
X3501578Y8926790D01*
X3525042Y8913243D01*
X3551213Y8906230D01*
X3578307D01*
X3604478Y8913243D01*
X3627942Y8926790D01*
X3647100Y8945948D01*
X3660647Y8969412D01*
X3667660Y8995583D01*
Y9022677D01*
X3660647Y9048848D01*
X3647100Y9072312D01*
X3627942Y9091471D01*
X3604478Y9105018D01*
X3578307Y9112030D01*
D02*
G37*
G36*
X3324307D02*
X3297213D01*
X3271042Y9105018D01*
X3247578Y9091471D01*
X3228420Y9072312D01*
X3214872Y9048848D01*
X3207860Y9022677D01*
Y8995583D01*
X3214872Y8969412D01*
X3228420Y8945948D01*
X3247578Y8926790D01*
X3271042Y8913243D01*
X3297213Y8906230D01*
X3324307D01*
X3350478Y8913243D01*
X3373942Y8926790D01*
X3393100Y8945948D01*
X3406647Y8969412D01*
X3413660Y8995583D01*
Y9022677D01*
X3406647Y9048848D01*
X3393100Y9072312D01*
X3373942Y9091471D01*
X3350478Y9105018D01*
X3324307Y9112030D01*
D02*
G37*
G36*
X697794Y8841940D02*
X695962D01*
Y8744240D01*
X793660D01*
Y8746074D01*
X786136Y8774153D01*
X771602Y8799327D01*
X751047Y8819882D01*
X725873Y8834416D01*
X697794Y8841940D01*
D02*
G37*
G36*
X670562D02*
X668726D01*
X640647Y8834416D01*
X615473Y8819882D01*
X594918Y8799327D01*
X580384Y8774153D01*
X572860Y8746074D01*
Y8744240D01*
X670562D01*
Y8841940D01*
D02*
G37*
G36*
X1315721Y8695609D02*
Y8623300D01*
X1388029D01*
X1382600Y8643563D01*
X1371357Y8663037D01*
X1355457Y8678937D01*
X1335983Y8690180D01*
X1315721Y8695609D01*
D02*
G37*
G36*
X1290321Y8695610D02*
X1270057Y8690180D01*
X1250583Y8678937D01*
X1234683Y8663037D01*
X1223440Y8643563D01*
X1218011Y8623300D01*
X1290321D01*
Y8695610D01*
D02*
G37*
G36*
X793660Y8718840D02*
X695962D01*
Y8621140D01*
X697794D01*
X725873Y8628664D01*
X751047Y8643198D01*
X771602Y8663753D01*
X786136Y8688927D01*
X793660Y8717006D01*
Y8718840D01*
D02*
G37*
G36*
X670562D02*
X572860D01*
Y8717006D01*
X580384Y8688927D01*
X594918Y8663753D01*
X615473Y8643198D01*
X640647Y8628664D01*
X668726Y8621140D01*
X670562D01*
Y8718840D01*
D02*
G37*
G36*
X1388029Y8597900D02*
X1315721D01*
Y8525591D01*
X1335983Y8531020D01*
X1355457Y8542263D01*
X1371357Y8558163D01*
X1382600Y8577637D01*
X1388029Y8597900D01*
D02*
G37*
G36*
X1290321D02*
X1218011D01*
X1223440Y8577637D01*
X1234683Y8558163D01*
X1250583Y8542263D01*
X1270057Y8531020D01*
X1290321Y8525591D01*
Y8597900D01*
D02*
G37*
G36*
X697794Y8341940D02*
X668726D01*
X640647Y8334416D01*
X615473Y8319882D01*
X594918Y8299327D01*
X580384Y8274153D01*
X572860Y8246074D01*
Y8217006D01*
X580384Y8188927D01*
X594918Y8163753D01*
X615473Y8143198D01*
X640647Y8128664D01*
X668726Y8121140D01*
X697794D01*
X725873Y8128664D01*
X751047Y8143198D01*
X771602Y8163753D01*
X786136Y8188927D01*
X793660Y8217006D01*
Y8246074D01*
X786136Y8274153D01*
X771602Y8299327D01*
X751047Y8319882D01*
X725873Y8334416D01*
X697794Y8341940D01*
D02*
G37*
G36*
X1324489Y8202527D02*
X1302003D01*
X1280283Y8196707D01*
X1260809Y8185464D01*
X1244909Y8169564D01*
X1233666Y8150090D01*
X1227846Y8128370D01*
Y8105884D01*
X1233666Y8084164D01*
X1244909Y8064690D01*
X1260809Y8048790D01*
X1280283Y8037547D01*
X1302003Y8031727D01*
X1324489D01*
X1346209Y8037547D01*
X1365683Y8048790D01*
X1381583Y8064690D01*
X1392826Y8084164D01*
X1398646Y8105884D01*
Y8128370D01*
X1392826Y8150090D01*
X1381583Y8169564D01*
X1365683Y8185464D01*
X1346209Y8196707D01*
X1324489Y8202527D01*
D02*
G37*
G36*
X9811755Y8199796D02*
X9456237D01*
Y7945845D01*
X9811755D01*
Y8199796D01*
D02*
G37*
G36*
X5356307Y8642905D02*
X5332899D01*
X5310289Y8636847D01*
X5290017Y8625143D01*
X5273465Y8608591D01*
X5261762Y8588319D01*
X5255703Y8565709D01*
Y8542301D01*
X5261762Y8519691D01*
X5273465Y8499419D01*
X5288118Y8484767D01*
Y8363820D01*
Y7912496D01*
X5273206Y7897585D01*
X5079201D01*
X5057584Y7893285D01*
X5039259Y7881041D01*
X5039259Y7881040D01*
X4991260Y7833041D01*
X4979015Y7814715D01*
X4974715Y7793099D01*
X4974715Y7793098D01*
Y7729101D01*
X4974715Y7729099D01*
X4979015Y7707483D01*
X4991260Y7689158D01*
X5039259Y7641159D01*
X5039259Y7641158D01*
X5057584Y7628914D01*
X5079201Y7624614D01*
X5402574D01*
X5405249Y7621940D01*
Y7592765D01*
X5390068Y7577585D01*
X5079201D01*
X5057584Y7573285D01*
X5039259Y7561041D01*
X5039259Y7561040D01*
X4991260Y7513041D01*
X4979015Y7494716D01*
X4974715Y7473100D01*
X4974715Y7473098D01*
Y7409101D01*
X4974715Y7409099D01*
X4979015Y7387484D01*
X4991260Y7369158D01*
X5039259Y7321159D01*
X5039259Y7321158D01*
X5057584Y7308914D01*
X5079201Y7304614D01*
X5402574D01*
X5405249Y7301940D01*
Y7272765D01*
X5390068Y7257585D01*
X5079201D01*
X5057584Y7253285D01*
X5039259Y7241041D01*
X5039259Y7241040D01*
X4991260Y7193041D01*
X4979015Y7174716D01*
X4974715Y7153100D01*
X4974715Y7153098D01*
Y7089101D01*
X4974715Y7089100D01*
X4979015Y7067484D01*
X4991260Y7049158D01*
X5039259Y7001159D01*
X5039259Y7001158D01*
X5057584Y6988914D01*
X5079201Y6984614D01*
X5402574D01*
X5405249Y6981940D01*
Y6952766D01*
X5390068Y6937585D01*
X5079201D01*
X5057584Y6933285D01*
X5039259Y6921041D01*
X5039259Y6921040D01*
X4991260Y6873041D01*
X4979015Y6854716D01*
X4974715Y6833100D01*
X4974715Y6833099D01*
Y6769101D01*
X4974715Y6769100D01*
X4979015Y6747484D01*
X4991260Y6729158D01*
X5039259Y6681159D01*
X5039259Y6681159D01*
X5057584Y6668914D01*
X5079201Y6664615D01*
X5273206D01*
X5288118Y6649703D01*
Y6643099D01*
Y5524058D01*
X5288118Y5524057D01*
X5292418Y5502441D01*
X5304662Y5484116D01*
X5408146Y5380632D01*
X5408146Y5380631D01*
X5522535Y5266243D01*
Y5182450D01*
X5519654Y5167965D01*
X5519654Y5167964D01*
Y5049173D01*
X5519654Y5049171D01*
X5523954Y5027556D01*
X5536198Y5009230D01*
X5536199Y5009230D01*
X5565896Y4979533D01*
X5565897Y4979532D01*
X5584222Y4967287D01*
X5605838Y4962988D01*
X5605839Y4962988D01*
X5724631D01*
X5724632Y4962988D01*
X5746248Y4967287D01*
X5764573Y4979532D01*
X5892838Y5107796D01*
X5961447D01*
Y5039187D01*
X5781650Y4859390D01*
X5769406Y4841065D01*
X5765106Y4819449D01*
X5765106Y4819448D01*
Y4700656D01*
X5765106Y4700655D01*
X5769406Y4679039D01*
X5781650Y4660714D01*
X5811349Y4631016D01*
X5811349Y4631015D01*
X5829674Y4618771D01*
X5851290Y4614471D01*
X5851292Y4614471D01*
X5970083D01*
X5970084Y4614471D01*
X5991700Y4618771D01*
X6010025Y4631015D01*
X6189822Y4810812D01*
X6258432D01*
Y4742202D01*
X6078635Y4562405D01*
X6066391Y4544080D01*
X6062091Y4522464D01*
X6062091Y4522463D01*
Y4403672D01*
X6062091Y4403670D01*
X6066391Y4382054D01*
X6078635Y4363729D01*
X6108333Y4334031D01*
X6108333Y4334031D01*
X6126659Y4321786D01*
X6148275Y4317486D01*
X6148276Y4317487D01*
X6267067D01*
X6267068Y4317486D01*
X6288684Y4321786D01*
X6307010Y4334031D01*
X6486807Y4513828D01*
X6555417D01*
Y4445218D01*
X6375620Y4265421D01*
X6363375Y4247095D01*
X6359075Y4225479D01*
X6359076Y4225478D01*
Y4106687D01*
X6359075Y4106686D01*
X6363375Y4085070D01*
X6375620Y4066744D01*
X6405318Y4037047D01*
X6405318Y4037046D01*
X6423643Y4024802D01*
X6445259Y4020502D01*
X6445261Y4020502D01*
X6564052D01*
X6564053Y4020502D01*
X6585669Y4024802D01*
X6603994Y4037046D01*
X6641863Y4074915D01*
X6713863D01*
X6718532Y4070246D01*
X6718533Y4070245D01*
X6916420Y3872358D01*
Y3851636D01*
X6922478Y3829026D01*
X6934182Y3808754D01*
X6950734Y3792202D01*
X6971006Y3780498D01*
X6993616Y3774440D01*
X7017024D01*
X7039634Y3780498D01*
X7059906Y3792202D01*
X7076458Y3808754D01*
X7088162Y3829026D01*
X7094220Y3851636D01*
Y3875044D01*
X7088162Y3897654D01*
X7076458Y3917926D01*
X7059906Y3934478D01*
X7039634Y3946182D01*
X7017024Y3952240D01*
X6996302D01*
X6798415Y4150127D01*
X6798414Y4150128D01*
X6777201Y4171342D01*
X6758875Y4183586D01*
X6737260Y4187886D01*
X6737258Y4187886D01*
X6618468D01*
X6618466Y4187886D01*
X6596850Y4183586D01*
X6578525Y4171342D01*
X6578525Y4171341D01*
X6540656Y4133473D01*
X6472046D01*
Y4202082D01*
X6651843Y4381879D01*
X6651843Y4381879D01*
X6664088Y4400205D01*
X6668388Y4421821D01*
X6668387Y4421822D01*
Y4540613D01*
X6668388Y4540614D01*
X6664088Y4562230D01*
X6651843Y4580556D01*
X6651843Y4580556D01*
X6622145Y4610254D01*
X6603819Y4622499D01*
X6582203Y4626799D01*
X6582202Y4626798D01*
X6463411D01*
X6463410Y4626799D01*
X6441794Y4622499D01*
X6423468Y4610254D01*
X6423468Y4610254D01*
X6243671Y4430457D01*
X6175062D01*
Y4499067D01*
X6354858Y4678864D01*
X6354859Y4678864D01*
X6367103Y4697189D01*
X6371403Y4718805D01*
X6371403Y4718807D01*
Y4837598D01*
X6371403Y4837599D01*
X6367103Y4859215D01*
X6354859Y4877540D01*
X6354858Y4877541D01*
X6325160Y4907239D01*
X6306835Y4919483D01*
X6285219Y4923783D01*
X6285218Y4923783D01*
X6166427D01*
X6166425Y4923783D01*
X6144809Y4919483D01*
X6126484Y4907239D01*
X6126484Y4907238D01*
X5946687Y4727442D01*
X5878077D01*
Y4796052D01*
X6057873Y4975848D01*
X6057874Y4975849D01*
X6070118Y4994174D01*
X6074418Y5015790D01*
Y5134582D01*
X6074418Y5134584D01*
X6070118Y5156199D01*
X6057874Y5174525D01*
X6057873Y5174525D01*
X6028176Y5204223D01*
X6009850Y5216467D01*
X5988234Y5220767D01*
X5988233Y5220767D01*
X5869442D01*
X5869441Y5220767D01*
X5847825Y5216467D01*
X5829499Y5204223D01*
X5829499Y5204222D01*
X5701235Y5075958D01*
X5632624D01*
Y5156362D01*
X5635506Y5170846D01*
Y5289638D01*
X5635506Y5289640D01*
X5631206Y5311256D01*
X5618962Y5329581D01*
X5618961Y5329581D01*
X5488029Y5460514D01*
X5488028Y5460514D01*
X5401089Y5547454D01*
Y6643099D01*
Y6673100D01*
X5396789Y6694716D01*
X5384544Y6713041D01*
X5384544Y6713042D01*
X5336545Y6761041D01*
X5318219Y6773285D01*
X5296603Y6777585D01*
X5296602Y6777585D01*
X5102598D01*
X5087686Y6792497D01*
Y6809703D01*
X5102598Y6824614D01*
X5425970D01*
X5425971Y6824614D01*
X5447587Y6828914D01*
X5465913Y6841159D01*
X5513912Y6889158D01*
X5513913Y6889158D01*
X5526157Y6907484D01*
X5530457Y6929100D01*
Y6993100D01*
X5526157Y7014716D01*
X5513913Y7033041D01*
X5513912Y7033042D01*
X5465913Y7081041D01*
X5447587Y7093285D01*
X5425971Y7097585D01*
X5425970Y7097585D01*
X5102598D01*
X5087686Y7112497D01*
Y7129703D01*
X5102598Y7144614D01*
X5425970D01*
X5425971Y7144614D01*
X5447587Y7148914D01*
X5465913Y7161158D01*
X5513912Y7209158D01*
X5513913Y7209158D01*
X5526157Y7227483D01*
X5530457Y7249100D01*
Y7313100D01*
X5526157Y7334716D01*
X5513913Y7353041D01*
X5513912Y7353041D01*
X5465913Y7401041D01*
X5447587Y7413285D01*
X5425971Y7417585D01*
X5425970Y7417585D01*
X5102598D01*
X5087686Y7432497D01*
Y7449702D01*
X5102598Y7464614D01*
X5425970D01*
X5425971Y7464614D01*
X5447587Y7468914D01*
X5465913Y7481158D01*
X5513912Y7529158D01*
X5513913Y7529158D01*
X5526157Y7547483D01*
X5530457Y7569099D01*
Y7633100D01*
X5526157Y7654716D01*
X5513913Y7673041D01*
X5513912Y7673041D01*
X5465913Y7721041D01*
X5447587Y7733285D01*
X5425971Y7737585D01*
X5425970Y7737585D01*
X5102598D01*
X5087686Y7752497D01*
Y7769702D01*
X5102598Y7784614D01*
X5296602D01*
X5296603Y7784614D01*
X5318219Y7788914D01*
X5336545Y7801158D01*
X5384544Y7849158D01*
X5384544Y7849158D01*
X5396789Y7867483D01*
X5401089Y7889099D01*
Y8363820D01*
Y8484767D01*
X5415741Y8499419D01*
X5427445Y8519691D01*
X5433503Y8542301D01*
Y8565709D01*
X5427445Y8588319D01*
X5415741Y8608591D01*
X5399189Y8625143D01*
X5378917Y8636847D01*
X5356307Y8642905D01*
D02*
G37*
G36*
X697794Y7841940D02*
X695962D01*
Y7744240D01*
X793660D01*
Y7746074D01*
X786136Y7774153D01*
X771602Y7799327D01*
X751047Y7819882D01*
X725873Y7834416D01*
X697794Y7841940D01*
D02*
G37*
G36*
X670562D02*
X668726D01*
X640647Y7834416D01*
X615473Y7819882D01*
X594918Y7799327D01*
X580384Y7774153D01*
X572860Y7746074D01*
Y7744240D01*
X670562D01*
Y7841940D01*
D02*
G37*
G36*
X7131324Y8798560D02*
X7107916D01*
X7085306Y8792502D01*
X7065034Y8780798D01*
X7048482Y8764246D01*
X7036778Y8743974D01*
X7030720Y8721364D01*
Y8697956D01*
X7036778Y8675346D01*
X7048482Y8655074D01*
X7063135Y8640422D01*
Y8515415D01*
X7063134Y8515413D01*
X7067434Y8493798D01*
X7079679Y8475472D01*
X7101191Y8453960D01*
X7205972Y8349179D01*
Y8305464D01*
X7111297Y8210790D01*
X7099052Y8192464D01*
X7094752Y8170848D01*
X7094753Y8170847D01*
Y8080340D01*
X7094752Y8080339D01*
X7099052Y8058723D01*
X7111297Y8040398D01*
X7133924Y8017771D01*
X7133925Y8017770D01*
X7152250Y8005526D01*
X7173866Y8001226D01*
X7173867Y8001226D01*
X7264374D01*
X7264375Y8001226D01*
X7285991Y8005526D01*
X7304316Y8017770D01*
X7516536Y8229989D01*
X7549790D01*
Y8196735D01*
X7326362Y7973306D01*
X7314117Y7954981D01*
X7309817Y7933365D01*
X7309817Y7933364D01*
Y7842857D01*
X7309817Y7842856D01*
X7314117Y7821240D01*
X7326362Y7802914D01*
X7348989Y7780287D01*
X7348989Y7780286D01*
X7367315Y7768042D01*
X7388931Y7763742D01*
X7388932Y7763742D01*
X7479439D01*
X7479440Y7763742D01*
X7501056Y7768042D01*
X7519381Y7780286D01*
X7625265Y7886170D01*
X7668981D01*
X7673650Y7881502D01*
X7673650Y7881501D01*
X7873873Y7681279D01*
X7873873Y7681278D01*
X7892198Y7669033D01*
X7913814Y7664734D01*
X8840466D01*
X8855119Y7650081D01*
X8875391Y7638377D01*
X8898001Y7632319D01*
X8921409D01*
X8944019Y7638377D01*
X8964291Y7650081D01*
X8980843Y7666633D01*
X8992546Y7686905D01*
X8998605Y7709515D01*
Y7732923D01*
X8992546Y7755533D01*
X8980843Y7775805D01*
X8964291Y7792357D01*
X8944019Y7804061D01*
X8921409Y7810119D01*
X8898001D01*
X8875391Y7804061D01*
X8855119Y7792357D01*
X8840466Y7777704D01*
X7937211D01*
X7753533Y7961383D01*
X7753532Y7961384D01*
X7732319Y7982597D01*
X7713994Y7994841D01*
X7692378Y7999141D01*
X7692377Y7999141D01*
X7601869D01*
X7601868Y7999141D01*
X7580252Y7994841D01*
X7561927Y7982597D01*
X7561926Y7982596D01*
X7456043Y7876713D01*
X7422788D01*
Y7909968D01*
X7646216Y8133396D01*
X7646217Y8133396D01*
X7658461Y8151722D01*
X7662761Y8173338D01*
X7662761Y8173339D01*
Y8263846D01*
X7662761Y8263847D01*
X7658461Y8285463D01*
X7646217Y8303788D01*
X7646216Y8303789D01*
X7623589Y8326416D01*
X7605264Y8338660D01*
X7583648Y8342960D01*
X7583647Y8342960D01*
X7493140D01*
X7493139Y8342960D01*
X7471523Y8338660D01*
X7453197Y8326416D01*
X7453197Y8326415D01*
X7240978Y8114196D01*
X7207723D01*
Y8147451D01*
X7302397Y8242126D01*
X7302398Y8242126D01*
X7314642Y8260451D01*
X7318942Y8282067D01*
X7318942Y8282069D01*
Y8372575D01*
X7318942Y8372577D01*
X7314642Y8394193D01*
X7302398Y8412518D01*
X7176105Y8538811D01*
Y8640422D01*
X7190758Y8655074D01*
X7202462Y8675346D01*
X7208520Y8697956D01*
Y8721364D01*
X7202462Y8743974D01*
X7190758Y8764246D01*
X7174206Y8780798D01*
X7153934Y8792502D01*
X7131324Y8798560D01*
D02*
G37*
G36*
X1325946Y7702137D02*
Y7629828D01*
X1398255D01*
X1392826Y7650090D01*
X1381583Y7669564D01*
X1365683Y7685464D01*
X1346209Y7696707D01*
X1325946Y7702137D01*
D02*
G37*
G36*
X1300546D02*
X1280283Y7696707D01*
X1260809Y7685464D01*
X1244909Y7669564D01*
X1233666Y7650090D01*
X1228237Y7629828D01*
X1300546D01*
Y7702137D01*
D02*
G37*
G36*
X793660Y7718840D02*
X695962D01*
Y7621140D01*
X697794D01*
X725873Y7628664D01*
X751047Y7643198D01*
X771602Y7663753D01*
X786136Y7688927D01*
X793660Y7717006D01*
Y7718840D01*
D02*
G37*
G36*
X670562D02*
X572860D01*
Y7717006D01*
X580384Y7688927D01*
X594918Y7663753D01*
X615473Y7643198D01*
X640647Y7628664D01*
X668726Y7621140D01*
X670562D01*
Y7718840D01*
D02*
G37*
G36*
X9573280Y7844119D02*
X9540920D01*
X9509662Y7835744D01*
X9481637Y7819563D01*
X9458755Y7796681D01*
X9442575Y7768657D01*
X9434200Y7737399D01*
Y7705039D01*
X9442575Y7673781D01*
X9458755Y7645757D01*
X9481637Y7622875D01*
X9509662Y7606694D01*
X9540920Y7598319D01*
X9573280D01*
X9604537Y7606694D01*
X9632562Y7622875D01*
X9655444Y7645757D01*
X9671624Y7673781D01*
X9680000Y7705039D01*
Y7737399D01*
X9671624Y7768657D01*
X9655444Y7796681D01*
X9632562Y7819563D01*
X9604537Y7835744D01*
X9573280Y7844119D01*
D02*
G37*
G36*
X1398256Y7604428D02*
X1325946D01*
Y7532118D01*
X1346209Y7537547D01*
X1365683Y7548790D01*
X1381583Y7564690D01*
X1392826Y7584164D01*
X1398256Y7604428D01*
D02*
G37*
G36*
X1300546D02*
X1228236D01*
X1233666Y7584164D01*
X1244909Y7564690D01*
X1260809Y7548790D01*
X1280283Y7537547D01*
X1300546Y7532118D01*
Y7604428D01*
D02*
G37*
G36*
X9573280Y7344120D02*
X9569801D01*
Y7233920D01*
X9680000D01*
Y7237400D01*
X9671624Y7268658D01*
X9655444Y7296682D01*
X9632562Y7319564D01*
X9604537Y7335745D01*
X9573280Y7344120D01*
D02*
G37*
G36*
X9544401D02*
X9540920D01*
X9509662Y7335745D01*
X9481637Y7319564D01*
X9458755Y7296682D01*
X9442575Y7268658D01*
X9434200Y7237400D01*
Y7233920D01*
X9544401D01*
Y7344120D01*
D02*
G37*
G36*
X9680000Y7208520D02*
X9569801D01*
Y7098320D01*
X9573280D01*
X9604537Y7106695D01*
X9632562Y7122876D01*
X9655444Y7145758D01*
X9671624Y7173782D01*
X9680000Y7205040D01*
Y7208520D01*
D02*
G37*
G36*
X9544401D02*
X9434200D01*
Y7205040D01*
X9442575Y7173782D01*
X9458755Y7145758D01*
X9481637Y7122876D01*
X9509662Y7106695D01*
X9540920Y7098320D01*
X9544401D01*
Y7208520D01*
D02*
G37*
G36*
X798793Y7158140D02*
X577994D01*
Y6937340D01*
X798793D01*
Y7158140D01*
D02*
G37*
G36*
X1344744Y7047159D02*
X1322258D01*
X1300538Y7041339D01*
X1281064Y7030096D01*
X1265164Y7014196D01*
X1253921Y6994722D01*
X1248101Y6973002D01*
Y6950516D01*
X1253921Y6928796D01*
X1265164Y6909322D01*
X1281064Y6893422D01*
X1300538Y6882179D01*
X1322258Y6876359D01*
X1344744D01*
X1366464Y6882179D01*
X1385938Y6893422D01*
X1401838Y6909322D01*
X1413081Y6928796D01*
X1418901Y6950516D01*
Y6973002D01*
X1413081Y6994722D01*
X1401838Y7014196D01*
X1385938Y7030096D01*
X1366464Y7041339D01*
X1344744Y7047159D01*
D02*
G37*
G36*
X1656378Y7058642D02*
X1632970D01*
X1610360Y7052584D01*
X1590088Y7040880D01*
X1573536Y7024328D01*
X1561833Y7004056D01*
X1555774Y6981446D01*
Y6958038D01*
X1561833Y6935428D01*
X1573536Y6915156D01*
X1590088Y6898604D01*
X1610360Y6886901D01*
X1632970Y6880842D01*
X1656378D01*
X1678988Y6886901D01*
X1690750Y6893692D01*
X3879421D01*
X3892270Y6880842D01*
X3912542Y6869138D01*
X3935152Y6863080D01*
X3958560D01*
X3981170Y6869138D01*
X4001442Y6880842D01*
X4017994Y6897394D01*
X4029698Y6917666D01*
X4035756Y6940276D01*
Y6963684D01*
X4029698Y6986294D01*
X4017994Y7006566D01*
X4001442Y7023118D01*
X3981170Y7034822D01*
X3958560Y7040880D01*
X3947076D01*
X3941471Y7043202D01*
X3921788Y7045793D01*
X1690750D01*
X1678988Y7052584D01*
X1656378Y7058642D01*
D02*
G37*
G36*
X7029564Y7682254D02*
X7006156D01*
X6983546Y7676196D01*
X6963274Y7664492D01*
X6946722Y7647940D01*
X6935018Y7627668D01*
X6928960Y7605058D01*
Y7581650D01*
X6935018Y7559040D01*
X6946722Y7538768D01*
X6963274Y7522216D01*
X6983546Y7510513D01*
X6996665Y7506997D01*
X7838572Y6665091D01*
X7854322Y6653004D01*
X7872664Y6645407D01*
X7892348Y6642816D01*
X8886239D01*
X8898001Y6636025D01*
X8920611Y6629966D01*
X8944019D01*
X8966629Y6636025D01*
X8986901Y6647729D01*
X9003453Y6664281D01*
X9015157Y6684552D01*
X9021215Y6707163D01*
Y6730570D01*
X9015157Y6753181D01*
X9003453Y6773452D01*
X8986901Y6790004D01*
X8966629Y6801708D01*
X8944019Y6807766D01*
X8920611D01*
X8898001Y6801708D01*
X8886239Y6794917D01*
X7923849D01*
X7104217Y7614549D01*
X7100702Y7627668D01*
X7088998Y7647940D01*
X7072446Y7664492D01*
X7052174Y7676196D01*
X7029564Y7682254D01*
D02*
G37*
G36*
X9605850Y6844761D02*
X9508350D01*
X9488993Y6842212D01*
X9470955Y6834741D01*
X9455465Y6822855D01*
X9443580Y6807366D01*
X9436108Y6789328D01*
X9433560Y6769971D01*
Y6672471D01*
X9436108Y6653114D01*
X9443580Y6635076D01*
X9455465Y6619587D01*
X9470955Y6607701D01*
X9488993Y6600230D01*
X9508350Y6597681D01*
X9605850D01*
X9625207Y6600230D01*
X9643245Y6607701D01*
X9658734Y6619587D01*
X9670619Y6635076D01*
X9678091Y6653114D01*
X9680640Y6672471D01*
Y6769971D01*
X9678091Y6789328D01*
X9670619Y6807366D01*
X9658734Y6822855D01*
X9643245Y6834741D01*
X9625207Y6842212D01*
X9605850Y6844761D01*
D02*
G37*
G36*
X702928Y6658140D02*
X701093D01*
Y6560441D01*
X798793D01*
Y6562274D01*
X791270Y6590353D01*
X776736Y6615527D01*
X756181Y6636082D01*
X731006Y6650616D01*
X702928Y6658140D01*
D02*
G37*
G36*
X675693D02*
X673859D01*
X645781Y6650616D01*
X620606Y6636082D01*
X600052Y6615527D01*
X585517Y6590353D01*
X577994Y6562274D01*
Y6560441D01*
X675693D01*
Y6658140D01*
D02*
G37*
G36*
X1346200Y6546769D02*
Y6474459D01*
X1418510D01*
X1413081Y6494722D01*
X1401838Y6514196D01*
X1385938Y6530096D01*
X1366464Y6541339D01*
X1346200Y6546769D01*
D02*
G37*
G36*
X1320800Y6546768D02*
X1300538Y6541339D01*
X1281064Y6530096D01*
X1265164Y6514196D01*
X1253921Y6494722D01*
X1248491Y6474459D01*
X1320800D01*
Y6546768D01*
D02*
G37*
G36*
X798793Y6535041D02*
X701093D01*
Y6437340D01*
X702928D01*
X731006Y6444864D01*
X756181Y6459398D01*
X776736Y6479953D01*
X791270Y6505127D01*
X798793Y6533206D01*
Y6535041D01*
D02*
G37*
G36*
X675693D02*
X577994D01*
Y6533206D01*
X585517Y6505127D01*
X600052Y6479953D01*
X620606Y6459398D01*
X645781Y6444864D01*
X673859Y6437340D01*
X675693D01*
Y6535041D01*
D02*
G37*
G36*
X1320800Y6449059D02*
X1248492D01*
X1253921Y6428796D01*
X1265164Y6409322D01*
X1281064Y6393422D01*
X1300538Y6382179D01*
X1320800Y6376750D01*
Y6449059D01*
D02*
G37*
G36*
X1418510D02*
X1346200D01*
Y6376750D01*
X1366464Y6382179D01*
X1385938Y6393422D01*
X1401838Y6409322D01*
X1413081Y6428796D01*
X1418510Y6449059D01*
D02*
G37*
G36*
X9763678Y6428691D02*
X9408160D01*
Y6174740D01*
X9763678D01*
Y6428691D01*
D02*
G37*
G36*
X3737836Y6047882D02*
X3714428D01*
X3691818Y6041824D01*
X3680055Y6035033D01*
X1651334D01*
X1639572Y6041824D01*
X1616961Y6047882D01*
X1593554D01*
X1570943Y6041824D01*
X1550672Y6030120D01*
X1534120Y6013568D01*
X1522416Y5993296D01*
X1516357Y5970686D01*
Y5947278D01*
X1522416Y5924668D01*
X1534120Y5904396D01*
X1550672Y5887844D01*
X1570943Y5876141D01*
X1593554Y5870082D01*
X1616961D01*
X1639572Y5876141D01*
X1651334Y5882932D01*
X3680055D01*
X3691818Y5876141D01*
X3714428Y5870082D01*
X3737836D01*
X3760446Y5876141D01*
X3780718Y5887844D01*
X3797270Y5904396D01*
X3808973Y5924668D01*
X3815032Y5947278D01*
Y5970686D01*
X3808973Y5993296D01*
X3797270Y6013568D01*
X3780718Y6030120D01*
X3760446Y6041824D01*
X3737836Y6047882D01*
D02*
G37*
G36*
X702928Y6158140D02*
X673859D01*
X645781Y6150616D01*
X620606Y6136082D01*
X600052Y6115527D01*
X585517Y6090353D01*
X577994Y6062274D01*
Y6033206D01*
X585517Y6005127D01*
X600052Y5979953D01*
X620606Y5959398D01*
X645781Y5944864D01*
X673859Y5937340D01*
X702928D01*
X731006Y5944864D01*
X756181Y5959398D01*
X776736Y5979953D01*
X791270Y6005127D01*
X798793Y6033206D01*
Y6062274D01*
X791270Y6090353D01*
X776736Y6115527D01*
X756181Y6136082D01*
X731006Y6150616D01*
X702928Y6158140D01*
D02*
G37*
G36*
X1324489Y6044382D02*
X1302003D01*
X1280283Y6038562D01*
X1260809Y6027319D01*
X1244909Y6011419D01*
X1233666Y5991945D01*
X1227846Y5970225D01*
Y5947739D01*
X1233666Y5926019D01*
X1244909Y5906545D01*
X1260809Y5890645D01*
X1280283Y5879402D01*
X1302003Y5873582D01*
X1324489D01*
X1346209Y5879402D01*
X1365683Y5890645D01*
X1381583Y5906545D01*
X1392826Y5926019D01*
X1398646Y5947739D01*
Y5970225D01*
X1392826Y5991945D01*
X1381583Y6011419D01*
X1365683Y6027319D01*
X1346209Y6038562D01*
X1324489Y6044382D01*
D02*
G37*
G36*
X9763678Y6126431D02*
X9408160D01*
Y5872480D01*
X9763678D01*
Y6126431D01*
D02*
G37*
G36*
X702928Y5658140D02*
X701094D01*
Y5560440D01*
X798793D01*
Y5562274D01*
X791270Y5590353D01*
X776736Y5615527D01*
X756181Y5636082D01*
X731006Y5650616D01*
X702928Y5658140D01*
D02*
G37*
G36*
X675694D02*
X673859D01*
X645781Y5650616D01*
X620606Y5636082D01*
X600052Y5615527D01*
X585517Y5590353D01*
X577994Y5562274D01*
Y5560440D01*
X675694D01*
Y5658140D01*
D02*
G37*
G36*
X7219458Y6021623D02*
X7196050D01*
X7173440Y6015565D01*
X7153168Y6003861D01*
X7136616Y5987309D01*
X7124912Y5967038D01*
X7118854Y5944427D01*
Y5921020D01*
X7124912Y5898409D01*
X7136616Y5878138D01*
X7153168Y5861586D01*
X7173440Y5849882D01*
X7196050Y5843823D01*
X7219458D01*
X7242068Y5849882D01*
X7253830Y5856673D01*
X7993620D01*
X8281379Y5568913D01*
X8297130Y5556827D01*
X8315472Y5549230D01*
X8335155Y5546638D01*
X8898001D01*
X8909763Y5539847D01*
X8932374Y5533789D01*
X8955781D01*
X8978391Y5539847D01*
X8998663Y5551551D01*
X9015215Y5568103D01*
X9026919Y5588375D01*
X9032977Y5610985D01*
Y5634393D01*
X9026919Y5657003D01*
X9015215Y5677275D01*
X8998663Y5693827D01*
X8978391Y5705531D01*
X8955781Y5711589D01*
X8932374D01*
X8909763Y5705531D01*
X8898001Y5698740D01*
X8366657D01*
X8078897Y5986499D01*
X8063146Y5998585D01*
X8044804Y6006183D01*
X8025121Y6008774D01*
X7253830D01*
X7242068Y6015565D01*
X7219458Y6021623D01*
D02*
G37*
G36*
X9573280Y5745589D02*
X9540920D01*
X9509662Y5737214D01*
X9481637Y5721034D01*
X9458755Y5698151D01*
X9442575Y5670127D01*
X9434200Y5638869D01*
Y5606509D01*
X9442575Y5575251D01*
X9458755Y5547227D01*
X9481637Y5524345D01*
X9509662Y5508164D01*
X9540920Y5499789D01*
X9573280D01*
X9604537Y5508164D01*
X9632562Y5524345D01*
X9655444Y5547227D01*
X9671624Y5575251D01*
X9680000Y5606509D01*
Y5638869D01*
X9671624Y5670127D01*
X9655444Y5698151D01*
X9632562Y5721034D01*
X9604537Y5737214D01*
X9573280Y5745589D01*
D02*
G37*
G36*
X1325946Y5543992D02*
Y5471682D01*
X1398256D01*
X1392826Y5491945D01*
X1381583Y5511419D01*
X1365683Y5527319D01*
X1346209Y5538562D01*
X1325946Y5543992D01*
D02*
G37*
G36*
X1300546Y5543991D02*
X1280283Y5538562D01*
X1260809Y5527319D01*
X1244909Y5511419D01*
X1233666Y5491945D01*
X1228237Y5471682D01*
X1300546D01*
Y5543991D01*
D02*
G37*
G36*
X798793Y5535040D02*
X701094D01*
Y5437340D01*
X702928D01*
X731006Y5444864D01*
X756181Y5459398D01*
X776736Y5479953D01*
X791270Y5505127D01*
X798793Y5533206D01*
Y5535040D01*
D02*
G37*
G36*
X675694D02*
X577994D01*
Y5533206D01*
X585517Y5505127D01*
X600052Y5479953D01*
X620606Y5459398D01*
X645781Y5444864D01*
X673859Y5437340D01*
X675694D01*
Y5535040D01*
D02*
G37*
G36*
X1300546Y5446282D02*
X1228237D01*
X1233666Y5426019D01*
X1244909Y5406545D01*
X1260809Y5390645D01*
X1280283Y5379402D01*
X1300546Y5373973D01*
Y5446282D01*
D02*
G37*
G36*
X1398256D02*
X1325946D01*
Y5373972D01*
X1346209Y5379402D01*
X1365683Y5390645D01*
X1381583Y5406545D01*
X1392826Y5426019D01*
X1398256Y5446282D01*
D02*
G37*
G36*
X9573280Y5245590D02*
X9569800D01*
Y5135390D01*
X9680000D01*
Y5138870D01*
X9671624Y5170128D01*
X9655444Y5198152D01*
X9632562Y5221035D01*
X9604537Y5237215D01*
X9573280Y5245590D01*
D02*
G37*
G36*
X9544400D02*
X9540920D01*
X9509662Y5237215D01*
X9481637Y5221035D01*
X9458755Y5198152D01*
X9442575Y5170128D01*
X9434200Y5138870D01*
Y5135390D01*
X9544400D01*
Y5245590D01*
D02*
G37*
G36*
X9680000Y5109990D02*
X9569800D01*
Y4999790D01*
X9573280D01*
X9604537Y5008165D01*
X9632562Y5024346D01*
X9655444Y5047228D01*
X9671624Y5075252D01*
X9680000Y5106510D01*
Y5109990D01*
D02*
G37*
G36*
X9544400D02*
X9434200D01*
Y5106510D01*
X9442575Y5075252D01*
X9458755Y5047228D01*
X9481637Y5024346D01*
X9509662Y5008165D01*
X9540920Y4999790D01*
X9544400D01*
Y5109990D01*
D02*
G37*
G36*
X7439654Y4963920D02*
X7229854D01*
Y4754120D01*
X7439654D01*
Y4963920D01*
D02*
G37*
G36*
X7219458Y5536654D02*
X7196050D01*
X7173440Y5530595D01*
X7153168Y5518892D01*
X7136616Y5502340D01*
X7124912Y5482068D01*
X7118854Y5459458D01*
Y5436050D01*
X7124912Y5413440D01*
X7136616Y5393168D01*
X7153168Y5376616D01*
X7173440Y5364912D01*
X7196050Y5358854D01*
X7210481D01*
X7211055Y5358616D01*
X7230738Y5356025D01*
X7825947D01*
X8450583Y4731389D01*
X8466333Y4719303D01*
X8484675Y4711705D01*
X8504359Y4709114D01*
X8898001D01*
X8909763Y4702323D01*
X8932374Y4696265D01*
X8955781D01*
X8978391Y4702323D01*
X8998663Y4714027D01*
X9015215Y4730579D01*
X9026919Y4750851D01*
X9032977Y4773461D01*
Y4796868D01*
X9026919Y4819479D01*
X9015215Y4839751D01*
X8998663Y4856302D01*
X8978391Y4868006D01*
X8955781Y4874065D01*
X8932374D01*
X8909763Y4868006D01*
X8898001Y4861215D01*
X8535860D01*
X7911224Y5485851D01*
X7895473Y5497937D01*
X7877131Y5505535D01*
X7857448Y5508126D01*
X7273105D01*
X7262340Y5518892D01*
X7242068Y5530595D01*
X7219458Y5536654D01*
D02*
G37*
G36*
X1357015Y4806966D02*
X1146215D01*
Y4596166D01*
X1357015D01*
Y4806966D01*
D02*
G37*
G36*
X177891D02*
X150138D01*
X123332Y4799783D01*
X99297Y4785907D01*
X79674Y4766283D01*
X65798Y4742249D01*
X58615Y4715442D01*
Y4687690D01*
X65798Y4660883D01*
X79674Y4636849D01*
X99297Y4617225D01*
X123332Y4603349D01*
X150138Y4596166D01*
X177891D01*
X204698Y4603349D01*
X228732Y4617225D01*
X248356Y4636849D01*
X262232Y4660883D01*
X269414Y4687690D01*
Y4715442D01*
X262232Y4742249D01*
X248356Y4766283D01*
X228732Y4785907D01*
X204698Y4799783D01*
X177891Y4806966D01*
D02*
G37*
G36*
X7348564Y4709920D02*
X7320944D01*
X7294264Y4702771D01*
X7270344Y4688961D01*
X7250813Y4669430D01*
X7237003Y4645510D01*
X7229854Y4618830D01*
Y4591210D01*
X7237003Y4564530D01*
X7250813Y4540610D01*
X7270344Y4521079D01*
X7294264Y4507269D01*
X7320944Y4500120D01*
X7348564D01*
X7375244Y4507269D01*
X7399164Y4521079D01*
X7418695Y4540610D01*
X7432505Y4564530D01*
X7439654Y4591210D01*
Y4618830D01*
X7432505Y4645510D01*
X7418695Y4669430D01*
X7399164Y4688961D01*
X7375244Y4702771D01*
X7348564Y4709920D01*
D02*
G37*
G36*
X9605850Y4746231D02*
X9508350D01*
X9488993Y4743682D01*
X9470955Y4736211D01*
X9455465Y4724325D01*
X9443580Y4708836D01*
X9436108Y4690798D01*
X9433560Y4671441D01*
Y4573941D01*
X9436108Y4554584D01*
X9443580Y4536546D01*
X9455465Y4521057D01*
X9470955Y4509171D01*
X9488993Y4501700D01*
X9508350Y4499151D01*
X9605850D01*
X9625207Y4501700D01*
X9643245Y4509171D01*
X9658734Y4521057D01*
X9670619Y4536546D01*
X9678091Y4554584D01*
X9680640Y4573941D01*
Y4671441D01*
X9678091Y4690798D01*
X9670619Y4708836D01*
X9658734Y4724325D01*
X9643245Y4736211D01*
X9625207Y4743682D01*
X9605850Y4746231D01*
D02*
G37*
G36*
X1357015Y4485536D02*
X1264316D01*
Y4392836D01*
X1357015D01*
Y4485536D01*
D02*
G37*
G36*
X1238916D02*
X1146215D01*
Y4392836D01*
X1238916D01*
Y4485536D01*
D02*
G37*
G36*
X7348564Y4455920D02*
X7347455D01*
Y4363721D01*
X7439654D01*
Y4364830D01*
X7432505Y4391510D01*
X7418695Y4415430D01*
X7399164Y4434961D01*
X7375244Y4448771D01*
X7348564Y4455920D01*
D02*
G37*
G36*
X7322055D02*
X7320944D01*
X7294264Y4448771D01*
X7270344Y4434961D01*
X7250813Y4415430D01*
X7237003Y4391510D01*
X7229854Y4364830D01*
Y4363721D01*
X7322055D01*
Y4455920D01*
D02*
G37*
G36*
X1357015Y4367436D02*
X1264316D01*
Y4274736D01*
X1357015D01*
Y4367436D01*
D02*
G37*
G36*
X1238916D02*
X1146215D01*
Y4274736D01*
X1238916D01*
Y4367436D01*
D02*
G37*
G36*
X177891Y4485536D02*
X150138D01*
X123332Y4478353D01*
X99297Y4464477D01*
X79674Y4444853D01*
X65798Y4420819D01*
X58615Y4394013D01*
Y4366260D01*
X65798Y4339453D01*
X79674Y4315419D01*
X99297Y4295795D01*
X123332Y4281919D01*
X150138Y4274736D01*
X177891D01*
X204698Y4281919D01*
X228732Y4295795D01*
X248356Y4315419D01*
X262232Y4339453D01*
X269414Y4366260D01*
Y4394013D01*
X262232Y4420819D01*
X248356Y4444853D01*
X228732Y4464477D01*
X204698Y4478353D01*
X177891Y4485536D01*
D02*
G37*
G36*
X7439654Y4338321D02*
X7347455D01*
Y4246120D01*
X7348564D01*
X7375244Y4253269D01*
X7399164Y4267079D01*
X7418695Y4286610D01*
X7432505Y4310530D01*
X7439654Y4337210D01*
Y4338321D01*
D02*
G37*
G36*
X7322055D02*
X7229854D01*
Y4337210D01*
X7237003Y4310530D01*
X7250813Y4286610D01*
X7270344Y4267079D01*
X7294264Y4253269D01*
X7320944Y4246120D01*
X7322055D01*
Y4338321D01*
D02*
G37*
G36*
X7348564Y4201920D02*
X7347455D01*
Y4109721D01*
X7439654D01*
Y4110830D01*
X7432505Y4137510D01*
X7418695Y4161430D01*
X7399164Y4180961D01*
X7375244Y4194771D01*
X7348564Y4201920D01*
D02*
G37*
G36*
X7322055D02*
X7320944D01*
X7294264Y4194771D01*
X7270344Y4180961D01*
X7250813Y4161430D01*
X7237003Y4137510D01*
X7229854Y4110830D01*
Y4109721D01*
X7322055D01*
Y4201920D01*
D02*
G37*
G36*
X9738278Y4296071D02*
X9382760D01*
Y4042120D01*
X9738278D01*
Y4296071D01*
D02*
G37*
G36*
X8692130Y4069316D02*
X8668722D01*
X8646112Y4063258D01*
X8625840Y4051554D01*
X8611941Y4037655D01*
X7925473D01*
X7925034Y4038417D01*
X7910995Y4052455D01*
X7893802Y4062382D01*
X7874625Y4067520D01*
X7854772D01*
X7835595Y4062382D01*
X7818402Y4052455D01*
X7804363Y4038417D01*
X7794437Y4021223D01*
X7789299Y4002047D01*
Y3982193D01*
X7794437Y3963017D01*
X7804363Y3945823D01*
X7818402Y3931785D01*
X7835595Y3921858D01*
X7854772Y3916720D01*
X7874625D01*
X7893802Y3921858D01*
X7910995Y3931785D01*
X7914091Y3934881D01*
X8604063D01*
X8609288Y3925830D01*
X8625840Y3909278D01*
X8646112Y3897575D01*
X8668722Y3891516D01*
X8692130D01*
X8714740Y3897575D01*
X8735012Y3909278D01*
X8751564Y3925830D01*
X8763267Y3946102D01*
X8769326Y3968712D01*
Y3992120D01*
X8763267Y4014730D01*
X8751564Y4035002D01*
X8735012Y4051554D01*
X8714740Y4063258D01*
X8692130Y4069316D01*
D02*
G37*
G36*
X7439654Y4084321D02*
X7347455D01*
Y3992120D01*
X7348564D01*
X7375244Y3999269D01*
X7399164Y4013079D01*
X7418695Y4032610D01*
X7432505Y4056530D01*
X7439654Y4083210D01*
Y4084321D01*
D02*
G37*
G36*
X7322055D02*
X7229854D01*
Y4083210D01*
X7237003Y4056530D01*
X7250813Y4032610D01*
X7270344Y4013079D01*
X7294264Y3999269D01*
X7320944Y3992120D01*
X7322055D01*
Y4084321D01*
D02*
G37*
G36*
X379668Y3888899D02*
X343618D01*
Y3778060D01*
X454458D01*
Y3814109D01*
X451909Y3833467D01*
X444438Y3851504D01*
X432552Y3866994D01*
X417063Y3878879D01*
X399025Y3886351D01*
X379668Y3888899D01*
D02*
G37*
G36*
X318218D02*
X282168D01*
X262811Y3886351D01*
X244773Y3878879D01*
X229284Y3866994D01*
X217398Y3851504D01*
X209926Y3833467D01*
X207378Y3814109D01*
Y3778060D01*
X318218D01*
Y3888899D01*
D02*
G37*
G36*
X7348564Y3947920D02*
X7320944D01*
X7294264Y3940771D01*
X7270344Y3926961D01*
X7250813Y3907430D01*
X7237003Y3883510D01*
X7229854Y3856830D01*
Y3829210D01*
X7237003Y3802530D01*
X7250813Y3778610D01*
X7270344Y3759079D01*
X7294264Y3745269D01*
X7320944Y3738120D01*
X7348564D01*
X7375244Y3745269D01*
X7399164Y3759079D01*
X7418695Y3778610D01*
X7432505Y3802530D01*
X7439654Y3829210D01*
Y3856830D01*
X7432505Y3883510D01*
X7418695Y3907430D01*
X7399164Y3926961D01*
X7375244Y3940771D01*
X7348564Y3947920D01*
D02*
G37*
G36*
X454458Y3752660D02*
X343618D01*
Y3641820D01*
X379668D01*
X399025Y3644368D01*
X417063Y3651840D01*
X432552Y3663725D01*
X444438Y3679215D01*
X451909Y3697252D01*
X454458Y3716610D01*
Y3752660D01*
D02*
G37*
G36*
X318218D02*
X207378D01*
Y3716610D01*
X209926Y3697252D01*
X217398Y3679215D01*
X229284Y3663725D01*
X244773Y3651840D01*
X262811Y3644368D01*
X282168Y3641820D01*
X318218D01*
Y3752660D01*
D02*
G37*
G36*
X2004820Y3779015D02*
X1795020D01*
Y3569215D01*
X2004820D01*
Y3779015D01*
D02*
G37*
G36*
X4885180Y3772660D02*
X4675380D01*
Y3562860D01*
X4885180D01*
Y3772660D01*
D02*
G37*
G36*
X3437380D02*
X3227580D01*
Y3562860D01*
X3437380D01*
Y3772660D01*
D02*
G37*
G36*
X7348564Y3693920D02*
X7320944D01*
X7294264Y3686771D01*
X7270344Y3672961D01*
X7250813Y3653430D01*
X7237003Y3629510D01*
X7229854Y3602830D01*
Y3575210D01*
X7237003Y3548530D01*
X7250813Y3524610D01*
X7270344Y3505079D01*
X7294264Y3491269D01*
X7320944Y3484120D01*
X7348564D01*
X7375244Y3491269D01*
X7399164Y3505079D01*
X7418695Y3524610D01*
X7432505Y3548530D01*
X7439654Y3575210D01*
Y3602830D01*
X7432505Y3629510D01*
X7418695Y3653430D01*
X7399164Y3672961D01*
X7375244Y3686771D01*
X7348564Y3693920D01*
D02*
G37*
G36*
X1913730Y3525015D02*
X1886110D01*
X1859430Y3517866D01*
X1835510Y3504056D01*
X1815979Y3484525D01*
X1802169Y3460605D01*
X1795020Y3433925D01*
Y3406305D01*
X1802169Y3379625D01*
X1815979Y3355705D01*
X1835510Y3336174D01*
X1859430Y3322363D01*
X1886110Y3315215D01*
X1913730D01*
X1940410Y3322363D01*
X1964330Y3336174D01*
X1983861Y3355705D01*
X1997671Y3379625D01*
X2004820Y3406305D01*
Y3433925D01*
X1997671Y3460605D01*
X1983861Y3484525D01*
X1964330Y3504056D01*
X1940410Y3517866D01*
X1913730Y3525015D01*
D02*
G37*
G36*
X4794090Y3518660D02*
X4766470D01*
X4739790Y3511511D01*
X4715870Y3497701D01*
X4696339Y3478170D01*
X4682529Y3454250D01*
X4675380Y3427570D01*
Y3399950D01*
X4682529Y3373270D01*
X4696339Y3349350D01*
X4715870Y3329819D01*
X4739790Y3316009D01*
X4766470Y3308860D01*
X4794090D01*
X4820770Y3316009D01*
X4844690Y3329819D01*
X4864221Y3349350D01*
X4878031Y3373270D01*
X4885180Y3399950D01*
Y3427570D01*
X4878031Y3454250D01*
X4864221Y3478170D01*
X4844690Y3497701D01*
X4820770Y3511511D01*
X4794090Y3518660D01*
D02*
G37*
G36*
X3346290D02*
X3318670D01*
X3291990Y3511511D01*
X3268070Y3497701D01*
X3248539Y3478170D01*
X3234729Y3454250D01*
X3227580Y3427570D01*
Y3399950D01*
X3234729Y3373270D01*
X3248539Y3349350D01*
X3268070Y3329819D01*
X3291990Y3316009D01*
X3318670Y3308860D01*
X3346290D01*
X3372970Y3316009D01*
X3396890Y3329819D01*
X3416421Y3349350D01*
X3430231Y3373270D01*
X3437380Y3399950D01*
Y3427570D01*
X3430231Y3454250D01*
X3416421Y3478170D01*
X3396890Y3497701D01*
X3372970Y3511511D01*
X3346290Y3518660D01*
D02*
G37*
G36*
X7348564Y3439920D02*
X7320944D01*
X7294264Y3432771D01*
X7270344Y3418961D01*
X7250813Y3399430D01*
X7237003Y3375510D01*
X7229854Y3348830D01*
Y3321210D01*
X7237003Y3294530D01*
X7250813Y3270610D01*
X7270344Y3251079D01*
X7294264Y3237269D01*
X7320944Y3230120D01*
X7348564D01*
X7375244Y3237269D01*
X7399164Y3251079D01*
X7418695Y3270610D01*
X7432505Y3294530D01*
X7439654Y3321210D01*
Y3348830D01*
X7432505Y3375510D01*
X7418695Y3399430D01*
X7399164Y3418961D01*
X7375244Y3432771D01*
X7348564Y3439920D01*
D02*
G37*
G36*
X1913730Y3271015D02*
X1912621D01*
Y3178816D01*
X2004820D01*
Y3179925D01*
X1997671Y3206605D01*
X1983861Y3230525D01*
X1964330Y3250056D01*
X1940410Y3263866D01*
X1913730Y3271015D01*
D02*
G37*
G36*
X1887221D02*
X1886110D01*
X1859430Y3263866D01*
X1835510Y3250056D01*
X1815979Y3230525D01*
X1802169Y3206605D01*
X1795020Y3179925D01*
Y3178816D01*
X1887221D01*
Y3271015D01*
D02*
G37*
G36*
X4794090Y3264660D02*
X4792981D01*
Y3172461D01*
X4885180D01*
Y3173570D01*
X4878031Y3200250D01*
X4864221Y3224170D01*
X4844690Y3243701D01*
X4820770Y3257511D01*
X4794090Y3264660D01*
D02*
G37*
G36*
X3346290D02*
X3345181D01*
Y3172461D01*
X3437380D01*
Y3173570D01*
X3430231Y3200250D01*
X3416421Y3224170D01*
X3396890Y3243701D01*
X3372970Y3257511D01*
X3346290Y3264660D01*
D02*
G37*
G36*
X4767581D02*
X4766470D01*
X4739790Y3257511D01*
X4715870Y3243701D01*
X4696339Y3224170D01*
X4682529Y3200250D01*
X4675380Y3173570D01*
Y3172461D01*
X4767581D01*
Y3264660D01*
D02*
G37*
G36*
X3319781D02*
X3318670D01*
X3291990Y3257511D01*
X3268070Y3243701D01*
X3248539Y3224170D01*
X3234729Y3200250D01*
X3227580Y3173570D01*
Y3172461D01*
X3319781D01*
Y3264660D01*
D02*
G37*
G36*
X347098Y3388260D02*
X314738D01*
X283480Y3379885D01*
X255455Y3363705D01*
X232573Y3340823D01*
X216393Y3312798D01*
X208018Y3281541D01*
Y3249180D01*
X216393Y3217923D01*
X232573Y3189898D01*
X255455Y3167016D01*
X283480Y3150836D01*
X314738Y3142461D01*
X347098D01*
X378355Y3150836D01*
X406380Y3167016D01*
X429262Y3189898D01*
X445442Y3217923D01*
X453818Y3249180D01*
Y3281541D01*
X445442Y3312798D01*
X429262Y3340823D01*
X406380Y3363705D01*
X378355Y3379885D01*
X347098Y3388260D01*
D02*
G37*
G36*
X2004820Y3153416D02*
X1912621D01*
Y3061215D01*
X1913730D01*
X1940410Y3068363D01*
X1964330Y3082174D01*
X1983861Y3101705D01*
X1997671Y3125625D01*
X2004820Y3152305D01*
Y3153416D01*
D02*
G37*
G36*
X1887221D02*
X1795020D01*
Y3152305D01*
X1802169Y3125625D01*
X1815979Y3101705D01*
X1835510Y3082174D01*
X1859430Y3068363D01*
X1886110Y3061215D01*
X1887221D01*
Y3153416D01*
D02*
G37*
G36*
X4885180Y3147061D02*
X4792981D01*
Y3054860D01*
X4794090D01*
X4820770Y3062009D01*
X4844690Y3075819D01*
X4864221Y3095350D01*
X4878031Y3119270D01*
X4885180Y3145950D01*
Y3147061D01*
D02*
G37*
G36*
X4767581D02*
X4675380D01*
Y3145950D01*
X4682529Y3119270D01*
X4696339Y3095350D01*
X4715870Y3075819D01*
X4739790Y3062009D01*
X4766470Y3054860D01*
X4767581D01*
Y3147061D01*
D02*
G37*
G36*
X3437380D02*
X3345181D01*
Y3054860D01*
X3346290D01*
X3372970Y3062009D01*
X3396890Y3075819D01*
X3416421Y3095350D01*
X3430231Y3119270D01*
X3437380Y3145950D01*
Y3147061D01*
D02*
G37*
G36*
X3319781D02*
X3227580D01*
Y3145950D01*
X3234729Y3119270D01*
X3248539Y3095350D01*
X3268070Y3075819D01*
X3291990Y3062009D01*
X3318670Y3054860D01*
X3319781D01*
Y3147061D01*
D02*
G37*
G36*
X7348564Y3185920D02*
X7320944D01*
X7294264Y3178771D01*
X7270344Y3164961D01*
X7250813Y3145430D01*
X7237003Y3121510D01*
X7229854Y3094830D01*
Y3067210D01*
X7237003Y3040530D01*
X7250813Y3016610D01*
X7270344Y2997079D01*
X7294264Y2983269D01*
X7320944Y2976120D01*
X7348564D01*
X7375244Y2983269D01*
X7399164Y2997079D01*
X7418695Y3016610D01*
X7432505Y3040530D01*
X7439654Y3067210D01*
Y3094830D01*
X7432505Y3121510D01*
X7418695Y3145430D01*
X7399164Y3164961D01*
X7375244Y3178771D01*
X7348564Y3185920D01*
D02*
G37*
G36*
X1913730Y3017015D02*
X1886110D01*
X1859430Y3009866D01*
X1835510Y2996056D01*
X1815979Y2976525D01*
X1802169Y2952605D01*
X1795020Y2925925D01*
Y2898305D01*
X1802169Y2871625D01*
X1815979Y2847705D01*
X1835510Y2828174D01*
X1859430Y2814363D01*
X1886110Y2807215D01*
X1913730D01*
X1940410Y2814363D01*
X1964330Y2828174D01*
X1983861Y2847705D01*
X1997671Y2871625D01*
X2004820Y2898305D01*
Y2925925D01*
X1997671Y2952605D01*
X1983861Y2976525D01*
X1964330Y2996056D01*
X1940410Y3009866D01*
X1913730Y3017015D01*
D02*
G37*
G36*
X4794090Y3010660D02*
X4766470D01*
X4739790Y3003511D01*
X4715870Y2989701D01*
X4696339Y2970170D01*
X4682529Y2946250D01*
X4675380Y2919570D01*
Y2891950D01*
X4682529Y2865270D01*
X4696339Y2841350D01*
X4715870Y2821819D01*
X4739790Y2808009D01*
X4766470Y2800860D01*
X4794090D01*
X4820770Y2808009D01*
X4844690Y2821819D01*
X4864221Y2841350D01*
X4878031Y2865270D01*
X4885180Y2891950D01*
Y2919570D01*
X4878031Y2946250D01*
X4864221Y2970170D01*
X4844690Y2989701D01*
X4820770Y3003511D01*
X4794090Y3010660D01*
D02*
G37*
G36*
X3346290D02*
X3318670D01*
X3291990Y3003511D01*
X3268070Y2989701D01*
X3248539Y2970170D01*
X3234729Y2946250D01*
X3227580Y2919570D01*
Y2891950D01*
X3234729Y2865270D01*
X3248539Y2841350D01*
X3268070Y2821819D01*
X3291990Y2808009D01*
X3318670Y2800860D01*
X3346290D01*
X3372970Y2808009D01*
X3396890Y2821819D01*
X3416421Y2841350D01*
X3430231Y2865270D01*
X3437380Y2891950D01*
Y2919570D01*
X3430231Y2946250D01*
X3416421Y2970170D01*
X3396890Y2989701D01*
X3372970Y3003511D01*
X3346290Y3010660D01*
D02*
G37*
G36*
X210953Y2865801D02*
Y2793491D01*
X283263D01*
X277833Y2813754D01*
X266590Y2833228D01*
X250690Y2849128D01*
X231216Y2860371D01*
X210953Y2865801D01*
D02*
G37*
G36*
X185553Y2865800D02*
X165290Y2860371D01*
X145816Y2849128D01*
X129916Y2833228D01*
X118673Y2813754D01*
X113243Y2793491D01*
X185553D01*
Y2865800D01*
D02*
G37*
G36*
X7348564Y2931920D02*
X7320944D01*
X7294264Y2924771D01*
X7270344Y2910961D01*
X7250813Y2891430D01*
X7237003Y2867510D01*
X7229854Y2840830D01*
Y2813210D01*
X7237003Y2786530D01*
X7250813Y2762610D01*
X7270344Y2743079D01*
X7294264Y2729269D01*
X7320944Y2722120D01*
X7348564D01*
X7375244Y2729269D01*
X7399164Y2743079D01*
X7418695Y2762610D01*
X7432505Y2786530D01*
X7439654Y2813210D01*
Y2840830D01*
X7432505Y2867510D01*
X7418695Y2891430D01*
X7399164Y2910961D01*
X7375244Y2924771D01*
X7348564Y2931920D01*
D02*
G37*
G36*
X1913730Y2763015D02*
X1912621D01*
Y2670816D01*
X2004820D01*
Y2671925D01*
X1997671Y2698605D01*
X1983861Y2722525D01*
X1964330Y2742056D01*
X1940410Y2755866D01*
X1913730Y2763015D01*
D02*
G37*
G36*
X1887221D02*
X1886110D01*
X1859430Y2755866D01*
X1835510Y2742056D01*
X1815979Y2722525D01*
X1802169Y2698605D01*
X1795020Y2671925D01*
Y2670816D01*
X1887221D01*
Y2763015D01*
D02*
G37*
G36*
X4794090Y2756660D02*
X4792981D01*
Y2664461D01*
X4885180D01*
Y2665570D01*
X4878031Y2692250D01*
X4864221Y2716170D01*
X4844690Y2735701D01*
X4820770Y2749511D01*
X4794090Y2756660D01*
D02*
G37*
G36*
X3346290D02*
X3345181D01*
Y2664461D01*
X3437380D01*
Y2665570D01*
X3430231Y2692250D01*
X3416421Y2716170D01*
X3396890Y2735701D01*
X3372970Y2749511D01*
X3346290Y2756660D01*
D02*
G37*
G36*
X4767581D02*
X4766470D01*
X4739790Y2749511D01*
X4715870Y2735701D01*
X4696339Y2716170D01*
X4682529Y2692250D01*
X4675380Y2665570D01*
Y2664461D01*
X4767581D01*
Y2756660D01*
D02*
G37*
G36*
X3319781D02*
X3318670D01*
X3291990Y2749511D01*
X3268070Y2735701D01*
X3248539Y2716170D01*
X3234729Y2692250D01*
X3227580Y2665570D01*
Y2664461D01*
X3319781D01*
Y2756660D01*
D02*
G37*
G36*
X283263Y2768091D02*
X198253D01*
X113243D01*
X118673Y2747828D01*
X129916Y2728354D01*
X135670Y2722600D01*
X142936Y2705791D01*
X135670Y2688982D01*
X129916Y2683228D01*
X118673Y2663754D01*
X113243Y2643490D01*
X198253D01*
X283263D01*
X277833Y2663754D01*
X266590Y2683228D01*
X260836Y2688982D01*
X253570Y2705791D01*
X260836Y2722600D01*
X266590Y2728354D01*
X277833Y2747828D01*
X283263Y2768091D01*
D02*
G37*
G36*
X2004820Y2645416D02*
X1912621D01*
Y2553215D01*
X1913730D01*
X1940410Y2560363D01*
X1964330Y2574174D01*
X1983861Y2593705D01*
X1997671Y2617625D01*
X2004820Y2644305D01*
Y2645416D01*
D02*
G37*
G36*
X1887221D02*
X1795020D01*
Y2644305D01*
X1802169Y2617625D01*
X1815979Y2593705D01*
X1835510Y2574174D01*
X1859430Y2560363D01*
X1886110Y2553215D01*
X1887221D01*
Y2645416D01*
D02*
G37*
G36*
X4885180Y2639061D02*
X4792981D01*
Y2546860D01*
X4794090D01*
X4820770Y2554009D01*
X4844690Y2567819D01*
X4864221Y2587350D01*
X4878031Y2611270D01*
X4885180Y2637950D01*
Y2639061D01*
D02*
G37*
G36*
X4767581D02*
X4675380D01*
Y2637950D01*
X4682529Y2611270D01*
X4696339Y2587350D01*
X4715870Y2567819D01*
X4739790Y2554009D01*
X4766470Y2546860D01*
X4767581D01*
Y2639061D01*
D02*
G37*
G36*
X3437380D02*
X3345181D01*
Y2546860D01*
X3346290D01*
X3372970Y2554009D01*
X3396890Y2567819D01*
X3416421Y2587350D01*
X3430231Y2611270D01*
X3437380Y2637950D01*
Y2639061D01*
D02*
G37*
G36*
X3319781D02*
X3227580D01*
Y2637950D01*
X3234729Y2611270D01*
X3248539Y2587350D01*
X3268070Y2567819D01*
X3291990Y2554009D01*
X3318670Y2546860D01*
X3319781D01*
Y2639061D01*
D02*
G37*
G36*
X185553Y2618090D02*
X113244D01*
X118673Y2597828D01*
X129916Y2578354D01*
X145816Y2562454D01*
X165290Y2551211D01*
X185553Y2545781D01*
Y2618090D01*
D02*
G37*
G36*
X283263D02*
X210953D01*
Y2545781D01*
X231216Y2551211D01*
X250690Y2562454D01*
X266590Y2578354D01*
X277833Y2597828D01*
X283263Y2618090D01*
D02*
G37*
G36*
X7616406Y4452629D02*
X7592998D01*
X7570388Y4446571D01*
X7550116Y4434867D01*
X7533564Y4418315D01*
X7521860Y4398043D01*
X7515802Y4375433D01*
Y4352025D01*
X7521860Y4329415D01*
X7533564Y4309143D01*
X7550116Y4292591D01*
X7552273Y4291346D01*
Y2652011D01*
X7541678Y2641416D01*
X7529974Y2621144D01*
X7523916Y2598534D01*
Y2575126D01*
X7529974Y2552516D01*
X7541678Y2532244D01*
X7558230Y2515692D01*
X7578502Y2503989D01*
X7601112Y2497930D01*
X7624520D01*
X7647130Y2503989D01*
X7667402Y2515692D01*
X7683954Y2532244D01*
X7695657Y2552516D01*
X7701716Y2575126D01*
Y2598534D01*
X7695657Y2621144D01*
X7683954Y2641416D01*
X7667402Y2657968D01*
X7665244Y2659214D01*
Y4298548D01*
X7675840Y4309143D01*
X7687543Y4329415D01*
X7693602Y4352025D01*
Y4375433D01*
X7687543Y4398043D01*
X7675840Y4418315D01*
X7659288Y4434867D01*
X7639016Y4446571D01*
X7616406Y4452629D01*
D02*
G37*
G36*
X9882169Y3407877D02*
X9650611D01*
Y2483210D01*
X9882169D01*
Y3407877D01*
D02*
G37*
G36*
X7348564Y2677920D02*
X7320944D01*
X7294264Y2670771D01*
X7270344Y2656961D01*
X7250813Y2637430D01*
X7237003Y2613510D01*
X7229854Y2586830D01*
Y2559210D01*
X7237003Y2532530D01*
X7250813Y2508610D01*
X7270344Y2489079D01*
X7294264Y2475269D01*
X7320944Y2468120D01*
X7348564D01*
X7375244Y2475269D01*
X7399164Y2489079D01*
X7418695Y2508610D01*
X7432505Y2532530D01*
X7439654Y2559210D01*
Y2586830D01*
X7432505Y2613510D01*
X7418695Y2637430D01*
X7399164Y2656961D01*
X7375244Y2670771D01*
X7348564Y2677920D01*
D02*
G37*
G36*
Y2423920D02*
X7347455D01*
Y2331721D01*
X7439654D01*
Y2332830D01*
X7432505Y2359510D01*
X7418695Y2383430D01*
X7399164Y2402961D01*
X7375244Y2416771D01*
X7348564Y2423920D01*
D02*
G37*
G36*
X7322055D02*
X7320944D01*
X7294264Y2416771D01*
X7270344Y2402961D01*
X7250813Y2383430D01*
X7237003Y2359510D01*
X7229854Y2332830D01*
Y2331721D01*
X7322055D01*
Y2423920D01*
D02*
G37*
G36*
X1913730Y2509015D02*
X1886110D01*
X1859430Y2501866D01*
X1835510Y2488056D01*
X1815979Y2468525D01*
X1802169Y2444605D01*
X1795020Y2417925D01*
Y2390305D01*
X1802169Y2363625D01*
X1815979Y2339705D01*
X1835510Y2320174D01*
X1859430Y2306363D01*
X1886110Y2299215D01*
X1913730D01*
X1940410Y2306363D01*
X1964330Y2320174D01*
X1983861Y2339705D01*
X1997671Y2363625D01*
X2004820Y2390305D01*
Y2417925D01*
X1997671Y2444605D01*
X1983861Y2468525D01*
X1964330Y2488056D01*
X1940410Y2501866D01*
X1913730Y2509015D01*
D02*
G37*
G36*
X4794090Y2502660D02*
X4766470D01*
X4739790Y2495511D01*
X4715870Y2481701D01*
X4696339Y2462170D01*
X4682529Y2438250D01*
X4675380Y2411570D01*
Y2383950D01*
X4682529Y2357270D01*
X4696339Y2333350D01*
X4715870Y2313819D01*
X4739790Y2300009D01*
X4766470Y2292860D01*
X4794090D01*
X4820770Y2300009D01*
X4844690Y2313819D01*
X4864221Y2333350D01*
X4878031Y2357270D01*
X4885180Y2383950D01*
Y2411570D01*
X4878031Y2438250D01*
X4864221Y2462170D01*
X4844690Y2481701D01*
X4820770Y2495511D01*
X4794090Y2502660D01*
D02*
G37*
G36*
X3346290D02*
X3318670D01*
X3291990Y2495511D01*
X3268070Y2481701D01*
X3248539Y2462170D01*
X3234729Y2438250D01*
X3227580Y2411570D01*
Y2383950D01*
X3234729Y2357270D01*
X3248539Y2333350D01*
X3268070Y2313819D01*
X3291990Y2300009D01*
X3318670Y2292860D01*
X3346290D01*
X3372970Y2300009D01*
X3396890Y2313819D01*
X3416421Y2333350D01*
X3430231Y2357270D01*
X3437380Y2383950D01*
Y2411570D01*
X3430231Y2438250D01*
X3416421Y2462170D01*
X3396890Y2481701D01*
X3372970Y2495511D01*
X3346290Y2502660D01*
D02*
G37*
G36*
X7439654Y2306321D02*
X7347455D01*
Y2214120D01*
X7348564D01*
X7375244Y2221269D01*
X7399164Y2235079D01*
X7418695Y2254610D01*
X7432505Y2278530D01*
X7439654Y2305210D01*
Y2306321D01*
D02*
G37*
G36*
X7322055D02*
X7229854D01*
Y2305210D01*
X7237003Y2278530D01*
X7250813Y2254610D01*
X7270344Y2235079D01*
X7294264Y2221269D01*
X7320944Y2214120D01*
X7322055D01*
Y2306321D01*
D02*
G37*
G36*
X1913730Y2255015D02*
X1912621D01*
Y2162816D01*
X2004820D01*
Y2163925D01*
X1997671Y2190605D01*
X1983861Y2214525D01*
X1964330Y2234056D01*
X1940410Y2247866D01*
X1913730Y2255015D01*
D02*
G37*
G36*
X1887221D02*
X1886110D01*
X1859430Y2247866D01*
X1835510Y2234056D01*
X1815979Y2214525D01*
X1802169Y2190605D01*
X1795020Y2163925D01*
Y2162816D01*
X1887221D01*
Y2255015D01*
D02*
G37*
G36*
X1234440Y2999569D02*
X1002882D01*
Y2161540D01*
X1234440D01*
Y2999569D01*
D02*
G37*
G36*
X4794090Y2248660D02*
X4792981D01*
Y2156461D01*
X4885180D01*
Y2157570D01*
X4878031Y2184250D01*
X4864221Y2208170D01*
X4844690Y2227701D01*
X4820770Y2241511D01*
X4794090Y2248660D01*
D02*
G37*
G36*
X3346290D02*
X3345181D01*
Y2156461D01*
X3437380D01*
Y2157570D01*
X3430231Y2184250D01*
X3416421Y2208170D01*
X3396890Y2227701D01*
X3372970Y2241511D01*
X3346290Y2248660D01*
D02*
G37*
G36*
X4767581D02*
X4766470D01*
X4739790Y2241511D01*
X4715870Y2227701D01*
X4696339Y2208170D01*
X4682529Y2184250D01*
X4675380Y2157570D01*
Y2156461D01*
X4767581D01*
Y2248660D01*
D02*
G37*
G36*
X3319781D02*
X3318670D01*
X3291990Y2241511D01*
X3268070Y2227701D01*
X3248539Y2208170D01*
X3234729Y2184250D01*
X3227580Y2157570D01*
Y2156461D01*
X3319781D01*
Y2248660D01*
D02*
G37*
G36*
X379668Y2260759D02*
X343618D01*
Y2149920D01*
X454458D01*
Y2185969D01*
X451909Y2205327D01*
X444438Y2223364D01*
X432552Y2238854D01*
X417063Y2250739D01*
X399025Y2258211D01*
X379668Y2260759D01*
D02*
G37*
G36*
X318218D02*
X282168D01*
X262811Y2258211D01*
X244773Y2250739D01*
X229284Y2238854D01*
X217398Y2223364D01*
X209926Y2205327D01*
X207378Y2185969D01*
Y2149920D01*
X318218D01*
Y2260759D01*
D02*
G37*
G36*
X5263119Y3526531D02*
X5009168D01*
Y2129950D01*
X5263119D01*
Y3526531D01*
D02*
G37*
G36*
X3792220Y3297996D02*
X3538269D01*
Y2104550D01*
X3792220D01*
Y3297996D01*
D02*
G37*
G36*
X7348564Y2169920D02*
X7347455D01*
Y2077721D01*
X7439654D01*
Y2078830D01*
X7432505Y2105510D01*
X7418695Y2129430D01*
X7399164Y2148961D01*
X7375244Y2162771D01*
X7348564Y2169920D01*
D02*
G37*
G36*
X7322055D02*
X7320944D01*
X7294264Y2162771D01*
X7270344Y2148961D01*
X7250813Y2129430D01*
X7237003Y2105510D01*
X7229854Y2078830D01*
Y2077721D01*
X7322055D01*
Y2169920D01*
D02*
G37*
G36*
X2004820Y2137416D02*
X1912621D01*
Y2045215D01*
X1913730D01*
X1940410Y2052363D01*
X1964330Y2066174D01*
X1983861Y2085705D01*
X1997671Y2109625D01*
X2004820Y2136305D01*
Y2137416D01*
D02*
G37*
G36*
X1887221D02*
X1795020D01*
Y2136305D01*
X1802169Y2109625D01*
X1815979Y2085705D01*
X1835510Y2066174D01*
X1859430Y2052363D01*
X1886110Y2045215D01*
X1887221D01*
Y2137416D01*
D02*
G37*
G36*
X4885180Y2131061D02*
X4792981D01*
Y2038860D01*
X4794090D01*
X4820770Y2046009D01*
X4844690Y2059819D01*
X4864221Y2079350D01*
X4878031Y2103270D01*
X4885180Y2129950D01*
Y2131061D01*
D02*
G37*
G36*
X4767581D02*
X4675380D01*
Y2129950D01*
X4682529Y2103270D01*
X4696339Y2079350D01*
X4715870Y2059819D01*
X4739790Y2046009D01*
X4766470Y2038860D01*
X4767581D01*
Y2131061D01*
D02*
G37*
G36*
X3437380D02*
X3345181D01*
Y2038860D01*
X3346290D01*
X3372970Y2046009D01*
X3396890Y2059819D01*
X3416421Y2079350D01*
X3430231Y2103270D01*
X3437380Y2129950D01*
Y2131061D01*
D02*
G37*
G36*
X3319781D02*
X3227580D01*
Y2129950D01*
X3234729Y2103270D01*
X3248539Y2079350D01*
X3268070Y2059819D01*
X3291990Y2046009D01*
X3318670Y2038860D01*
X3319781D01*
Y2131061D01*
D02*
G37*
G36*
X454458Y2124520D02*
X343618D01*
Y2013680D01*
X379668D01*
X399025Y2016228D01*
X417063Y2023700D01*
X432552Y2035585D01*
X444438Y2051075D01*
X451909Y2069112D01*
X454458Y2088470D01*
Y2124520D01*
D02*
G37*
G36*
X318218D02*
X207378D01*
Y2088470D01*
X209926Y2069112D01*
X217398Y2051075D01*
X229284Y2035585D01*
X244773Y2023700D01*
X262811Y2016228D01*
X282168Y2013680D01*
X318218D01*
Y2124520D01*
D02*
G37*
G36*
X7439654Y2052321D02*
X7347455D01*
Y1960120D01*
X7348564D01*
X7375244Y1967269D01*
X7399164Y1981079D01*
X7418695Y2000610D01*
X7432505Y2024530D01*
X7439654Y2051210D01*
Y2052321D01*
D02*
G37*
G36*
X7322055D02*
X7229854D01*
Y2051210D01*
X7237003Y2024530D01*
X7250813Y2000610D01*
X7270344Y1981079D01*
X7294264Y1967269D01*
X7320944Y1960120D01*
X7322055D01*
Y2052321D01*
D02*
G37*
G36*
X1913730Y2001015D02*
X1886110D01*
X1859430Y1993866D01*
X1835510Y1980056D01*
X1815979Y1960525D01*
X1802169Y1936605D01*
X1795020Y1909925D01*
Y1882305D01*
X1802169Y1855625D01*
X1815979Y1831705D01*
X1835510Y1812174D01*
X1859430Y1798363D01*
X1886110Y1791215D01*
X1913730D01*
X1940410Y1798363D01*
X1964330Y1812174D01*
X1983861Y1831705D01*
X1997671Y1855625D01*
X2004820Y1882305D01*
Y1909925D01*
X1997671Y1936605D01*
X1983861Y1960525D01*
X1964330Y1980056D01*
X1940410Y1993866D01*
X1913730Y2001015D01*
D02*
G37*
G36*
X4794090Y1994660D02*
X4766470D01*
X4739790Y1987511D01*
X4715870Y1973701D01*
X4696339Y1954170D01*
X4682529Y1930250D01*
X4675380Y1903570D01*
Y1875950D01*
X4682529Y1849270D01*
X4696339Y1825350D01*
X4715870Y1805819D01*
X4739790Y1792009D01*
X4766470Y1784860D01*
X4794090D01*
X4820770Y1792009D01*
X4844690Y1805819D01*
X4864221Y1825350D01*
X4878031Y1849270D01*
X4885180Y1875950D01*
Y1903570D01*
X4878031Y1930250D01*
X4864221Y1954170D01*
X4844690Y1973701D01*
X4820770Y1987511D01*
X4794090Y1994660D01*
D02*
G37*
G36*
X3346290D02*
X3318670D01*
X3291990Y1987511D01*
X3268070Y1973701D01*
X3248539Y1954170D01*
X3234729Y1930250D01*
X3227580Y1903570D01*
Y1875950D01*
X3234729Y1849270D01*
X3248539Y1825350D01*
X3268070Y1805819D01*
X3291990Y1792009D01*
X3318670Y1784860D01*
X3346290D01*
X3372970Y1792009D01*
X3396890Y1805819D01*
X3416421Y1825350D01*
X3430231Y1849270D01*
X3437380Y1875950D01*
Y1903570D01*
X3430231Y1930250D01*
X3416421Y1954170D01*
X3396890Y1973701D01*
X3372970Y1987511D01*
X3346290Y1994660D01*
D02*
G37*
G36*
X7348564Y1915920D02*
X7320944D01*
X7294264Y1908771D01*
X7270344Y1894961D01*
X7250813Y1875430D01*
X7237003Y1851510D01*
X7229854Y1824830D01*
Y1797210D01*
X7237003Y1770530D01*
X7250813Y1746610D01*
X7270344Y1727079D01*
X7294264Y1713269D01*
X7320944Y1706120D01*
X7348564D01*
X7375244Y1713269D01*
X7399164Y1727079D01*
X7418695Y1746610D01*
X7432505Y1770530D01*
X7439654Y1797210D01*
Y1824830D01*
X7432505Y1851510D01*
X7418695Y1875430D01*
X7399164Y1894961D01*
X7375244Y1908771D01*
X7348564Y1915920D01*
D02*
G37*
G36*
X1913730Y1747015D02*
X1912621D01*
Y1654816D01*
X2004820D01*
Y1655925D01*
X1997671Y1682605D01*
X1983861Y1706525D01*
X1964330Y1726056D01*
X1940410Y1739866D01*
X1913730Y1747015D01*
D02*
G37*
G36*
X1887221D02*
X1886110D01*
X1859430Y1739866D01*
X1835510Y1726056D01*
X1815979Y1706525D01*
X1802169Y1682605D01*
X1795020Y1655925D01*
Y1654816D01*
X1887221D01*
Y1747015D01*
D02*
G37*
G36*
X4794090Y1740660D02*
X4792981D01*
Y1648461D01*
X4885180D01*
Y1649570D01*
X4878031Y1676250D01*
X4864221Y1700170D01*
X4844690Y1719701D01*
X4820770Y1733511D01*
X4794090Y1740660D01*
D02*
G37*
G36*
X3346290D02*
X3345181D01*
Y1648461D01*
X3437380D01*
Y1649570D01*
X3430231Y1676250D01*
X3416421Y1700170D01*
X3396890Y1719701D01*
X3372970Y1733511D01*
X3346290Y1740660D01*
D02*
G37*
G36*
X4767581D02*
X4766470D01*
X4739790Y1733511D01*
X4715870Y1719701D01*
X4696339Y1700170D01*
X4682529Y1676250D01*
X4675380Y1649570D01*
Y1648461D01*
X4767581D01*
Y1740660D01*
D02*
G37*
G36*
X3319781D02*
X3318670D01*
X3291990Y1733511D01*
X3268070Y1719701D01*
X3248539Y1700170D01*
X3234729Y1676250D01*
X3227580Y1649570D01*
Y1648461D01*
X3319781D01*
Y1740660D01*
D02*
G37*
G36*
X7348564Y1661920D02*
X7347455D01*
Y1569721D01*
X7439654D01*
Y1570830D01*
X7432505Y1597510D01*
X7418695Y1621430D01*
X7399164Y1640961D01*
X7375244Y1654771D01*
X7348564Y1661920D01*
D02*
G37*
G36*
X7322055D02*
X7320944D01*
X7294264Y1654771D01*
X7270344Y1640961D01*
X7250813Y1621430D01*
X7237003Y1597510D01*
X7229854Y1570830D01*
Y1569721D01*
X7322055D01*
Y1661920D01*
D02*
G37*
G36*
X2004820Y1629416D02*
X1912621D01*
Y1537215D01*
X1913730D01*
X1940410Y1544363D01*
X1964330Y1558174D01*
X1983861Y1577705D01*
X1997671Y1601625D01*
X2004820Y1628305D01*
Y1629416D01*
D02*
G37*
G36*
X1887221D02*
X1795020D01*
Y1628305D01*
X1802169Y1601625D01*
X1815979Y1577705D01*
X1835510Y1558174D01*
X1859430Y1544363D01*
X1886110Y1537215D01*
X1887221D01*
Y1629416D01*
D02*
G37*
G36*
X4885180Y1623061D02*
X4792981D01*
Y1530860D01*
X4794090D01*
X4820770Y1538009D01*
X4844690Y1551819D01*
X4864221Y1571350D01*
X4878031Y1595270D01*
X4885180Y1621950D01*
Y1623061D01*
D02*
G37*
G36*
X4767581D02*
X4675380D01*
Y1621950D01*
X4682529Y1595270D01*
X4696339Y1571350D01*
X4715870Y1551819D01*
X4739790Y1538009D01*
X4766470Y1530860D01*
X4767581D01*
Y1623061D01*
D02*
G37*
G36*
X3437380D02*
X3345181D01*
Y1530860D01*
X3346290D01*
X3372970Y1538009D01*
X3396890Y1551819D01*
X3416421Y1571350D01*
X3430231Y1595270D01*
X3437380Y1621950D01*
Y1623061D01*
D02*
G37*
G36*
X3319781D02*
X3227580D01*
Y1621950D01*
X3234729Y1595270D01*
X3248539Y1571350D01*
X3268070Y1551819D01*
X3291990Y1538009D01*
X3318670Y1530860D01*
X3319781D01*
Y1623061D01*
D02*
G37*
G36*
X347098Y1760120D02*
X314738D01*
X283480Y1751745D01*
X255455Y1735565D01*
X232573Y1712683D01*
X216393Y1684658D01*
X208018Y1653401D01*
Y1621040D01*
X216393Y1589783D01*
X232573Y1561758D01*
X255455Y1538876D01*
X283480Y1522696D01*
X314738Y1514321D01*
X347098D01*
X378355Y1522696D01*
X406380Y1538876D01*
X429262Y1561758D01*
X445442Y1589783D01*
X453818Y1621040D01*
Y1653401D01*
X445442Y1684658D01*
X429262Y1712683D01*
X406380Y1735565D01*
X378355Y1751745D01*
X347098Y1760120D01*
D02*
G37*
G36*
X7439654Y1544321D02*
X7347455D01*
Y1452120D01*
X7348564D01*
X7375244Y1459269D01*
X7399164Y1473079D01*
X7418695Y1492610D01*
X7432505Y1516530D01*
X7439654Y1543210D01*
Y1544321D01*
D02*
G37*
G36*
X7322055D02*
X7229854D01*
Y1543210D01*
X7237003Y1516530D01*
X7250813Y1492610D01*
X7270344Y1473079D01*
X7294264Y1459269D01*
X7320944Y1452120D01*
X7322055D01*
Y1544321D01*
D02*
G37*
G36*
X7843802Y2366249D02*
X7589851D01*
Y1426720D01*
X7843802D01*
Y2366249D01*
D02*
G37*
G36*
X2402840Y4187573D02*
X2148889D01*
Y1343660D01*
X2402840D01*
Y4187573D01*
D02*
G37*
G36*
X1913730Y1493015D02*
X1886110D01*
X1859430Y1485866D01*
X1835510Y1472056D01*
X1815979Y1452525D01*
X1802169Y1428605D01*
X1795020Y1401925D01*
Y1374305D01*
X1802169Y1347625D01*
X1815979Y1323705D01*
X1835510Y1304174D01*
X1859430Y1290363D01*
X1886110Y1283215D01*
X1913730D01*
X1940410Y1290363D01*
X1964330Y1304174D01*
X1983861Y1323705D01*
X1997671Y1347625D01*
X2004820Y1374305D01*
Y1401925D01*
X1997671Y1428605D01*
X1983861Y1452525D01*
X1964330Y1472056D01*
X1940410Y1485866D01*
X1913730Y1493015D01*
D02*
G37*
G36*
X4794090Y1486660D02*
X4766470D01*
X4739790Y1479511D01*
X4715870Y1465701D01*
X4696339Y1446170D01*
X4682529Y1422250D01*
X4675380Y1395570D01*
Y1367950D01*
X4682529Y1341270D01*
X4696339Y1317350D01*
X4715870Y1297819D01*
X4739790Y1284009D01*
X4766470Y1276860D01*
X4794090D01*
X4820770Y1284009D01*
X4844690Y1297819D01*
X4864221Y1317350D01*
X4878031Y1341270D01*
X4885180Y1367950D01*
Y1395570D01*
X4878031Y1422250D01*
X4864221Y1446170D01*
X4844690Y1465701D01*
X4820770Y1479511D01*
X4794090Y1486660D01*
D02*
G37*
G36*
X3346290D02*
X3318670D01*
X3291990Y1479511D01*
X3268070Y1465701D01*
X3248539Y1446170D01*
X3234729Y1422250D01*
X3227580Y1395570D01*
Y1367950D01*
X3234729Y1341270D01*
X3248539Y1317350D01*
X3268070Y1297819D01*
X3291990Y1284009D01*
X3318670Y1276860D01*
X3346290D01*
X3372970Y1284009D01*
X3396890Y1297819D01*
X3416421Y1317350D01*
X3430231Y1341270D01*
X3437380Y1367950D01*
Y1395570D01*
X3430231Y1422250D01*
X3416421Y1446170D01*
X3396890Y1465701D01*
X3372970Y1479511D01*
X3346290Y1486660D01*
D02*
G37*
G36*
X7348564Y1407920D02*
X7320944D01*
X7294264Y1400771D01*
X7270344Y1386961D01*
X7250813Y1367430D01*
X7237003Y1343510D01*
X7229854Y1316830D01*
Y1289210D01*
X7237003Y1262530D01*
X7250813Y1238610D01*
X7270344Y1219079D01*
X7294264Y1205269D01*
X7320944Y1198120D01*
X7348564D01*
X7375244Y1205269D01*
X7399164Y1219079D01*
X7418695Y1238610D01*
X7432505Y1262530D01*
X7439654Y1289210D01*
Y1316830D01*
X7432505Y1343510D01*
X7418695Y1367430D01*
X7399164Y1386961D01*
X7375244Y1400771D01*
X7348564Y1407920D01*
D02*
G37*
G36*
X1390880Y1083300D02*
X1180080D01*
Y872500D01*
X1390880D01*
Y1083300D01*
D02*
G37*
G36*
X211756D02*
X184004D01*
X157197Y1076117D01*
X133163Y1062241D01*
X113539Y1042617D01*
X99663Y1018583D01*
X92480Y991776D01*
Y964024D01*
X99663Y937217D01*
X113539Y913183D01*
X133163Y893559D01*
X157197Y879683D01*
X184004Y872500D01*
X211756D01*
X238563Y879683D01*
X262597Y893559D01*
X282221Y913183D01*
X296097Y937217D01*
X303280Y964024D01*
Y991776D01*
X296097Y1018583D01*
X282221Y1042617D01*
X262597Y1062241D01*
X238563Y1076117D01*
X211756Y1083300D01*
D02*
G37*
G36*
X1390880Y750559D02*
X1298181D01*
Y657860D01*
X1390880D01*
Y750559D01*
D02*
G37*
G36*
X1272781D02*
X1180080D01*
Y657860D01*
X1272781D01*
Y750559D01*
D02*
G37*
G36*
X1390880Y632460D02*
X1298181D01*
Y539760D01*
X1390880D01*
Y632460D01*
D02*
G37*
G36*
X1272781D02*
X1180080D01*
Y539760D01*
X1272781D01*
Y632460D01*
D02*
G37*
G36*
X211756Y750559D02*
X184004D01*
X157197Y743376D01*
X133163Y729500D01*
X113539Y709877D01*
X99663Y685842D01*
X92480Y659036D01*
Y631283D01*
X99663Y604477D01*
X113539Y580442D01*
X133163Y560819D01*
X157197Y546943D01*
X184004Y539760D01*
X211756D01*
X238563Y546943D01*
X262597Y560819D01*
X282221Y580442D01*
X296097Y604477D01*
X303280Y631283D01*
Y659036D01*
X296097Y685842D01*
X282221Y709877D01*
X262597Y729500D01*
X238563Y743376D01*
X211756Y750559D01*
D02*
G37*
G36*
X7120978Y712074D02*
X3567679D01*
Y358140D01*
X7120978D01*
Y712074D01*
D02*
G37*
G36*
X9737302Y475401D02*
X9727802D01*
X9684255Y466739D01*
X9643235Y449748D01*
X9606318Y425080D01*
X9574922Y393685D01*
X9550255Y356768D01*
X9533264Y315747D01*
X9524602Y272201D01*
Y262701D01*
X9737302D01*
Y475401D01*
D02*
G37*
G36*
X272201D02*
X262701D01*
Y262701D01*
X475401D01*
Y272201D01*
X466739Y315747D01*
X449748Y356768D01*
X425080Y393685D01*
X393685Y425080D01*
X356768Y449748D01*
X315747Y466739D01*
X272201Y475401D01*
D02*
G37*
%LPD*%
D10*
X7608759Y2590887D02*
X7612816Y2586830D01*
X7604702Y4363729D02*
X7608759Y4359672D01*
X1644674Y6969742D02*
X3921788D01*
X3939550Y6951980D02*
X3946856D01*
X3921788Y6969742D02*
X3939550Y6951980D01*
X1605257Y5958982D02*
X3726132D01*
X7017860Y7593354D02*
X7892348Y6718866D01*
X8932315D01*
X7215060Y5447754D02*
X7230738Y5432075D01*
X7207754Y5447754D02*
X7215060D01*
X7857448Y5432075D02*
X8504359Y4785165D01*
X7230738Y5432075D02*
X7857448D01*
X7207754Y5932723D02*
X8025121D01*
X8335155Y5622689D01*
X8504359Y4785165D02*
X8944077D01*
X8335155Y5622689D02*
X8944077D01*
X688394Y6047740D02*
X693215D01*
D11*
X7608759Y2590887D02*
Y4359672D01*
X5344603Y7889099D02*
Y8363820D01*
X5296603Y7841099D02*
X5344603Y7889099D01*
X5079201Y7841099D02*
X5296603D01*
X5031201Y7793099D02*
X5079201Y7841099D01*
X5031201Y7729099D02*
Y7793099D01*
Y7729099D02*
X5079201Y7681099D01*
X5425971D01*
X5473971Y7633100D01*
Y7569099D02*
Y7633100D01*
X5425971Y7521100D02*
X5473971Y7569099D01*
X5079201Y7521100D02*
X5425971D01*
X5031201Y7473100D02*
X5079201Y7521100D01*
X5031201Y7409099D02*
Y7473100D01*
Y7409099D02*
X5079201Y7361100D01*
X5425971D01*
X5473971Y7313100D01*
Y7249100D02*
Y7313100D01*
X5425971Y7201100D02*
X5473971Y7249100D01*
X5079201Y7201100D02*
X5425971D01*
X5031201Y7153100D02*
X5079201Y7201100D01*
X5031201Y7089100D02*
Y7153100D01*
Y7089100D02*
X5079201Y7041100D01*
X5425971D01*
X5473971Y6993100D01*
Y6929100D02*
Y6993100D01*
X5425971Y6881100D02*
X5473971Y6929100D01*
X5079201Y6881100D02*
X5425971D01*
X5031201Y6833100D02*
X5079201Y6881100D01*
X5031201Y6769100D02*
Y6833100D01*
Y6769100D02*
X5079201Y6721100D01*
X5296603D01*
X5344603Y6673100D01*
Y6643099D02*
Y6673100D01*
Y5524057D02*
Y6643099D01*
Y5524057D02*
X5448088Y5420572D01*
X5344603Y8363820D02*
Y8554005D01*
X7141132Y8493901D02*
X7262457Y8372577D01*
Y8282067D02*
Y8372577D01*
X7151238Y8170848D02*
X7262457Y8282067D01*
X7151238Y8080339D02*
Y8170848D01*
Y8080339D02*
X7173866Y8057711D01*
X7264375D01*
X7493139Y8286475D01*
X7583648D01*
X7606276Y8263847D01*
Y8173338D02*
Y8263847D01*
X7366303Y7933365D02*
X7606276Y8173338D01*
X7366303Y7842856D02*
Y7933365D01*
Y7842856D02*
X7388931Y7820228D01*
X7479440D01*
X7601868Y7942656D01*
X7692378D01*
X7713591Y7921442D01*
X7913814Y7721219D01*
X7119620Y8515413D02*
X7141132Y8493901D01*
X7119620Y8515413D02*
Y8709660D01*
X7913814Y7721219D02*
X8909705D01*
X5448088Y5420572D02*
X5579020Y5289640D01*
Y5170846D02*
Y5289640D01*
X5576139Y5167965D02*
X5579020Y5170846D01*
X5576139Y5049172D02*
Y5167965D01*
Y5049172D02*
X5605838Y5019473D01*
X5724632D01*
X5869441Y5164282D01*
X5988234D01*
X6017933Y5134584D01*
Y5015790D02*
Y5134584D01*
X5821592Y4819449D02*
X6017933Y5015790D01*
X5821592Y4700655D02*
Y4819449D01*
Y4700655D02*
X5851290Y4670956D01*
X5970084D01*
X6166425Y4867298D01*
X6285219D01*
X6314918Y4837599D01*
Y4718805D02*
Y4837599D01*
X6118576Y4522464D02*
X6314918Y4718805D01*
X6118576Y4403670D02*
Y4522464D01*
Y4403670D02*
X6148275Y4373972D01*
X6267068D01*
X6463410Y4570313D01*
X6582203D01*
X6611902Y4540614D01*
Y4421821D02*
Y4540614D01*
X6415561Y4225479D02*
X6611902Y4421821D01*
X6415561Y4106686D02*
Y4225479D01*
Y4106686D02*
X6445259Y4076987D01*
X6564053D01*
X6618466Y4131400D01*
X6737260D01*
X6758474Y4110186D01*
X7005320Y3863340D01*
D12*
X7864699Y3992120D02*
X7870550Y3986268D01*
X8674574D02*
X8680426Y3980416D01*
X7870550Y3986268D02*
X8674574D01*
X198603Y2680391D02*
Y2725291D01*
D13*
X9507037Y7996645D02*
Y8148996D01*
X9583213D01*
X9608605Y8123604D01*
Y8072820D01*
X9583213Y8047428D01*
X9507037D01*
X9557821D02*
X9608605Y7996645D01*
X9659388Y8148996D02*
X9760955Y7996645D01*
Y8148996D02*
X9659388Y7996645D01*
X9458960Y6377891D02*
X9560527D01*
X9509743D01*
Y6225540D01*
X9611311Y6377891D02*
X9712878Y6225540D01*
Y6377891D02*
X9611311Y6225540D01*
X9433560Y4245271D02*
X9535127D01*
X9484343D01*
Y4092920D01*
X9585911Y4245271D02*
X9687478Y4092920D01*
Y4245271D02*
X9585911Y4092920D01*
X9458960Y5923280D02*
Y6075631D01*
X9535135D01*
X9560527Y6050239D01*
Y5999455D01*
X9535135Y5974063D01*
X9458960D01*
X9509743D02*
X9560527Y5923280D01*
X9611311Y6075631D02*
X9712878Y5923280D01*
Y6075631D02*
X9611311Y5923280D01*
X1183640Y2212340D02*
X1097001D01*
X1053682Y2255659D01*
X1097001Y2298978D01*
X1183640D01*
X1118661D01*
Y2212340D01*
X1183640Y2342298D02*
X1053682D01*
X1183640Y2428936D01*
X1053682D01*
X1183640Y2472256D02*
X1097001D01*
X1053682Y2515575D01*
X1097001Y2558895D01*
X1183640D01*
X1118661D01*
Y2472256D01*
X1053682Y2602214D02*
X1183640D01*
Y2688853D01*
X1053682Y2797151D02*
Y2753832D01*
X1075342Y2732172D01*
X1161980D01*
X1183640Y2753832D01*
Y2797151D01*
X1161980Y2818811D01*
X1075342D01*
X1053682Y2797151D01*
X1075342Y2948769D02*
X1053682Y2927109D01*
Y2883790D01*
X1075342Y2862130D01*
X1161980D01*
X1183640Y2883790D01*
Y2927109D01*
X1161980Y2948769D01*
X1118661D01*
Y2905450D01*
X9701411Y2534010D02*
X9831369D01*
Y2598989D01*
X9809709Y2620649D01*
X9723071D01*
X9701411Y2598989D01*
Y2534010D01*
Y2663968D02*
Y2707287D01*
Y2685628D01*
X9831369D01*
Y2663968D01*
Y2707287D01*
X9723071Y2858905D02*
X9701411Y2837245D01*
Y2793926D01*
X9723071Y2772266D01*
X9809709D01*
X9831369Y2793926D01*
Y2837245D01*
X9809709Y2858905D01*
X9766390D01*
Y2815586D01*
X9701411Y2902224D02*
Y2945544D01*
Y2923884D01*
X9831369D01*
Y2902224D01*
Y2945544D01*
X9701411Y3010523D02*
Y3097161D01*
Y3053842D01*
X9831369D01*
Y3140481D02*
X9744730D01*
X9701411Y3183800D01*
X9744730Y3227119D01*
X9831369D01*
X9766390D01*
Y3140481D01*
X9701411Y3270439D02*
X9831369D01*
Y3357077D01*
X7793002Y1477520D02*
X7767610D01*
Y1502912D01*
X7793002D01*
Y1477520D01*
Y1680654D02*
X7640651D01*
X7716826Y1604479D01*
Y1706046D01*
X7793002Y1909180D02*
X7691434D01*
X7640651Y1959964D01*
X7691434Y2010747D01*
X7793002D01*
X7716826D01*
Y1909180D01*
X7640651Y2061531D02*
X7793002D01*
Y2137706D01*
X7767610Y2163098D01*
X7666043D01*
X7640651Y2137706D01*
Y2061531D01*
X7666043Y2315449D02*
X7640651Y2290057D01*
Y2239273D01*
X7666043Y2213882D01*
X7767610D01*
X7793002Y2239273D01*
Y2290057D01*
X7767610Y2315449D01*
X5212319Y2180750D02*
X5186927D01*
Y2206142D01*
X5212319D01*
Y2180750D01*
X5085360Y2307709D02*
X5059968Y2333100D01*
Y2383884D01*
X5085360Y2409276D01*
X5110752D01*
X5136143Y2383884D01*
Y2358492D01*
Y2383884D01*
X5161535Y2409276D01*
X5186927D01*
X5212319Y2383884D01*
Y2333100D01*
X5186927Y2307709D01*
X5059968Y2688585D02*
Y2637802D01*
X5085360Y2612410D01*
X5186927D01*
X5212319Y2637802D01*
Y2688585D01*
X5186927Y2713977D01*
X5085360D01*
X5059968Y2688585D01*
Y2866328D02*
Y2764761D01*
X5136143D01*
Y2815544D01*
Y2764761D01*
X5212319D01*
X5059968Y3018679D02*
Y2917112D01*
X5136143D01*
Y2967895D01*
Y2917112D01*
X5212319D01*
X5085360Y3171029D02*
X5059968Y3145638D01*
Y3094854D01*
X5085360Y3069462D01*
X5110752D01*
X5136143Y3094854D01*
Y3145638D01*
X5161535Y3171029D01*
X5186927D01*
X5212319Y3145638D01*
Y3094854D01*
X5186927Y3069462D01*
X5059968Y3323380D02*
Y3221813D01*
X5212319D01*
Y3323380D01*
X5136143Y3221813D02*
Y3272596D01*
X5059968Y3374164D02*
Y3475731D01*
Y3424947D01*
X5212319D01*
X3741420Y2155350D02*
X3716028D01*
Y2180742D01*
X3741420D01*
Y2155350D01*
Y2383876D02*
Y2282309D01*
X3639853Y2383876D01*
X3614461D01*
X3589069Y2358484D01*
Y2307700D01*
X3614461Y2282309D01*
X3741420Y2587010D02*
X3639853D01*
X3589069Y2637794D01*
X3639853Y2688577D01*
X3741420D01*
X3665245D01*
Y2587010D01*
X3741420Y2739361D02*
X3589069D01*
X3639853Y2790144D01*
X3589069Y2840928D01*
X3741420D01*
Y2891712D02*
X3589069D01*
Y2967887D01*
X3614461Y2993279D01*
X3665245D01*
X3690637Y2967887D01*
Y2891712D01*
X3589069Y3044062D02*
X3741420D01*
Y3145629D01*
X3589069Y3196413D02*
Y3247196D01*
Y3221805D01*
X3741420D01*
Y3196413D01*
Y3247196D01*
X2352040Y1394460D02*
X2326648D01*
Y1419852D01*
X2352040D01*
Y1394460D01*
Y1521419D02*
Y1572202D01*
Y1546811D01*
X2199689D01*
X2225081Y1521419D01*
Y1902296D02*
X2199689Y1876904D01*
Y1826120D01*
X2225081Y1800728D01*
X2250473D01*
X2275865Y1826120D01*
Y1876904D01*
X2301257Y1902296D01*
X2326648D01*
X2352040Y1876904D01*
Y1826120D01*
X2326648Y1800728D01*
X2199689Y1953079D02*
X2326648D01*
X2352040Y1978471D01*
Y2029255D01*
X2326648Y2054646D01*
X2199689D01*
Y2105430D02*
Y2156213D01*
Y2130822D01*
X2352040D01*
Y2105430D01*
Y2156213D01*
X2199689Y2232389D02*
X2301257D01*
X2352040Y2283172D01*
X2301257Y2333956D01*
X2199689D01*
Y2486307D02*
Y2384739D01*
X2352040D01*
Y2486307D01*
X2275865Y2384739D02*
Y2435523D01*
X2199689Y2537090D02*
X2326648D01*
X2352040Y2562482D01*
Y2613266D01*
X2326648Y2638657D01*
X2199689D01*
X2352040Y2689441D02*
X2199689D01*
Y2765616D01*
X2225081Y2791008D01*
X2275865D01*
X2301257Y2765616D01*
Y2689441D01*
Y2740224D02*
X2352040Y2791008D01*
X2275865Y2994142D02*
Y3095710D01*
X2225081Y3044926D02*
X2326648D01*
X2199689Y3400411D02*
Y3298844D01*
X2275865D01*
Y3349627D01*
Y3298844D01*
X2352040D01*
X2199689Y3451195D02*
Y3501978D01*
Y3476586D01*
X2352040D01*
Y3451195D01*
Y3501978D01*
X2199689Y3578153D02*
X2352040D01*
Y3679721D01*
X2199689Y3730504D02*
Y3832071D01*
Y3781288D01*
X2352040D01*
Y3882855D02*
X2199689D01*
Y3959030D01*
X2225081Y3984422D01*
X2275865D01*
X2301257Y3959030D01*
Y3882855D01*
Y3933638D02*
X2352040Y3984422D01*
X2199689Y4136773D02*
Y4035206D01*
X2352040D01*
Y4136773D01*
X2275865Y4035206D02*
Y4085989D01*
D14*
X3643079Y484323D02*
Y509715D01*
X3668471D01*
Y484323D01*
X3643079D01*
X3770038Y611282D02*
X3795430Y636674D01*
X3846213D01*
X3871605Y611282D01*
Y509715D01*
X3846213Y484323D01*
X3795430D01*
X3770038Y509715D01*
Y611282D01*
X4176306D02*
X4150914Y636674D01*
X4100131D01*
X4074739Y611282D01*
Y509715D01*
X4100131Y484323D01*
X4150914D01*
X4176306Y509715D01*
X4227090Y484323D02*
Y585891D01*
X4277873Y636674D01*
X4328657Y585891D01*
Y484323D01*
Y560499D01*
X4227090D01*
X4379441Y484323D02*
Y636674D01*
X4455616D01*
X4481008Y611282D01*
Y560499D01*
X4455616Y535107D01*
X4379441D01*
X4430224D02*
X4481008Y484323D01*
X4531791Y636674D02*
X4633359D01*
X4582575D01*
Y484323D01*
X4785709Y636674D02*
X4684142D01*
Y484323D01*
X4785709D01*
X4684142Y560499D02*
X4734926D01*
X4988843Y484323D02*
Y636674D01*
X5039627Y585891D01*
X5090411Y636674D01*
Y484323D01*
X5242761Y636674D02*
X5141194D01*
Y484323D01*
X5242761D01*
X5141194Y560499D02*
X5191978D01*
X5293545Y484323D02*
Y636674D01*
X5369720D01*
X5395112Y611282D01*
Y560499D01*
X5369720Y535107D01*
X5293545D01*
X5344328D02*
X5395112Y484323D01*
X5547463Y636674D02*
X5445896D01*
Y484323D01*
X5547463D01*
X5445896Y560499D02*
X5496679D01*
X5623638Y458932D02*
X5649030Y484323D01*
Y509715D01*
X5623638D01*
Y484323D01*
X5649030D01*
X5623638Y458932D01*
X5598246Y433540D01*
X5902948Y636674D02*
X6004515D01*
X5953731D01*
Y484323D01*
X6131474Y636674D02*
X6080690D01*
X6055299Y611282D01*
Y509715D01*
X6080690Y484323D01*
X6131474D01*
X6156866Y509715D01*
Y611282D01*
X6131474Y636674D01*
X6207649Y484323D02*
Y636674D01*
X6283825D01*
X6309216Y611282D01*
Y560499D01*
X6283825Y535107D01*
X6207649D01*
X6613918Y611282D02*
X6588526Y636674D01*
X6537743D01*
X6512351Y611282D01*
Y585891D01*
X6537743Y560499D01*
X6588526D01*
X6613918Y535107D01*
Y509715D01*
X6588526Y484323D01*
X6537743D01*
X6512351Y509715D01*
X6664701Y636674D02*
X6715485D01*
X6690093D01*
Y484323D01*
X6664701D01*
X6715485D01*
X6791660Y636674D02*
Y484323D01*
X6867836D01*
X6893228Y509715D01*
Y611282D01*
X6867836Y636674D01*
X6791660D01*
X7045578D02*
X6944011D01*
Y484323D01*
X7045578D01*
X6944011Y560499D02*
X6994794D01*
D15*
X5850760Y9009130D02*
D03*
X5596760D02*
D03*
X5342760D02*
D03*
X5088760D02*
D03*
X4834760D02*
D03*
X5596760Y9263130D02*
D03*
X5850760D02*
D03*
X8136760Y9009130D02*
D03*
X7882760D02*
D03*
X7628760D02*
D03*
X7374760D02*
D03*
X7120760D02*
D03*
X6866760D02*
D03*
X6612760D02*
D03*
X6358760D02*
D03*
X6104760D02*
D03*
X4072760D02*
D03*
X3818760D02*
D03*
X6104760Y9263130D02*
D03*
X6358760D02*
D03*
X7882760D02*
D03*
X7628760D02*
D03*
X7120760D02*
D03*
X6866760D02*
D03*
X6612760D02*
D03*
X7374760D02*
D03*
X4580760Y9009130D02*
D03*
X4326760D02*
D03*
X3564760D02*
D03*
X3310760D02*
D03*
X5342760Y9263130D02*
D03*
X5088760D02*
D03*
X4834760D02*
D03*
X4580760D02*
D03*
X4326760D02*
D03*
X4072760D02*
D03*
X3818760D02*
D03*
X3564760D02*
D03*
X3310760D02*
D03*
D16*
X8136760D02*
D03*
D17*
X330918Y2137219D02*
D03*
Y3765360D02*
D03*
X9557100Y6721221D02*
D03*
Y4622691D02*
D03*
D18*
X330918Y1637220D02*
D03*
Y3265360D02*
D03*
X9557100Y7221220D02*
D03*
Y7721219D02*
D03*
Y5122690D02*
D03*
Y5622689D02*
D03*
D19*
X7334754Y1303020D02*
D03*
Y1557020D02*
D03*
Y1811020D02*
D03*
Y2065020D02*
D03*
Y2319020D02*
D03*
Y2573020D02*
D03*
Y2827020D02*
D03*
Y3081020D02*
D03*
Y3335020D02*
D03*
Y3589020D02*
D03*
Y3843020D02*
D03*
Y4097020D02*
D03*
Y4351020D02*
D03*
Y4605020D02*
D03*
X3332480Y3413760D02*
D03*
Y3159760D02*
D03*
Y2905760D02*
D03*
Y2651760D02*
D03*
Y2397760D02*
D03*
Y2143760D02*
D03*
Y1889760D02*
D03*
Y1635760D02*
D03*
Y1381760D02*
D03*
X1899920Y1388115D02*
D03*
Y1642115D02*
D03*
Y1896115D02*
D03*
Y2150115D02*
D03*
Y2404115D02*
D03*
Y2658115D02*
D03*
Y2912115D02*
D03*
Y3166115D02*
D03*
Y3420115D02*
D03*
X4780280Y3413760D02*
D03*
Y3159760D02*
D03*
Y2905760D02*
D03*
Y2651760D02*
D03*
Y2397760D02*
D03*
Y2143760D02*
D03*
Y1889760D02*
D03*
Y1635760D02*
D03*
Y1381760D02*
D03*
D20*
X7334754Y4859020D02*
D03*
X3332480Y3667760D02*
D03*
X1899920Y3674115D02*
D03*
X4780280Y3667760D02*
D03*
D21*
X1285480Y645159D02*
D03*
X1251615Y4701566D02*
D03*
X1285480Y977900D02*
D03*
X1251615Y4380136D02*
D03*
D22*
X197880Y645159D02*
D03*
X164015Y4701566D02*
D03*
X197880Y977900D02*
D03*
X164015Y4380136D02*
D03*
D23*
X198253Y2630791D02*
D03*
X1313246Y7617127D02*
D03*
Y8117127D02*
D03*
X1303020Y8610600D02*
D03*
Y9110600D02*
D03*
X1333501Y6461759D02*
D03*
Y6961759D02*
D03*
X1313246Y5458982D02*
D03*
Y5958982D02*
D03*
D24*
X198253Y2780791D02*
D03*
D25*
X688394Y5547740D02*
D03*
Y6047740D02*
D03*
Y6547740D02*
D03*
X683260Y7731540D02*
D03*
Y8231540D02*
D03*
Y8731540D02*
D03*
D26*
X688394Y7047740D02*
D03*
X683260Y9231540D02*
D03*
D27*
X250001Y9750002D02*
D03*
X9750002D02*
D03*
X250001Y250001D02*
D03*
X9750002D02*
D03*
D28*
X7604702Y4363729D02*
D03*
X5344603Y8554005D02*
D03*
X3946856Y6951980D02*
D03*
X3726132Y5958982D02*
D03*
X1605257D02*
D03*
X1644674Y6969742D02*
D03*
X7017860Y7593354D02*
D03*
X8932315Y6718866D02*
D03*
X7005320Y3863340D02*
D03*
X7207754Y5447754D02*
D03*
Y5932723D02*
D03*
X8680426Y3980416D02*
D03*
X8944077Y4785165D02*
D03*
Y5622689D02*
D03*
X8909705Y7721219D02*
D03*
X7119620Y8709660D02*
D03*
X7612816Y2586830D02*
D03*
D29*
X8240633Y6992075D02*
D03*
X8568274Y7271245D02*
D03*
X5598460Y5565998D02*
D03*
X5327868Y5240282D02*
D03*
X6747021Y4355447D02*
D03*
X6216089Y4129929D02*
D03*
X7543562Y7418026D02*
D03*
X7005990Y5682043D02*
D03*
X7868643Y4298595D02*
D03*
X7915610Y3616877D02*
D03*
X8683749Y3725650D02*
D03*
X8240930Y3759316D02*
D03*
Y4760594D02*
D03*
X7842850Y5033782D02*
D03*
X8229372Y5446040D02*
D03*
X7818120Y5612378D02*
D03*
X7823200Y6471245D02*
D03*
X8267700Y6271260D02*
D03*
X8587037Y6116720D02*
D03*
X8525568Y8065093D02*
D03*
X8237177D02*
D03*
X7922478Y8130539D02*
D03*
X7946972Y7271245D02*
D03*
X7676529Y8551860D02*
D03*
D30*
X7864699Y3992120D02*
D03*
%TF.MD5,09eab41b7d4696c6501e55f13e318f2e*%
M02*
