%TF.GenerationSoftware,Altium Limited,Altium Designer,25.2.1 (25)*%
G04 Layer_Color=8388736*
%FSLAX45Y45*%
%MOMM*%
%TF.SameCoordinates,2B528216-A015-4FBA-BB4B-E0E15DD4AA10*%
%TF.FilePolarity,Positive*%
%TF.FileFunction,Other,Top_Component_Center*%
%TF.Part,Single*%
G01*
G75*
%TA.AperFunction,NonConductor*%
%ADD33C,0.10000*%
%ADD46C,0.05000*%
D33*
X7284754Y3081020D02*
X7384754D01*
X7334754Y3031020D02*
Y3131020D01*
X3332480Y2474760D02*
Y2574760D01*
X3282480Y2524760D02*
X3382480D01*
X1849923Y2531115D02*
X1949922D01*
X1899920Y2481112D02*
Y2581112D01*
X4780280Y2474760D02*
Y2574760D01*
X4730280Y2524760D02*
X4830280D01*
X691680Y645159D02*
X791680D01*
X741680Y595160D02*
Y695159D01*
X657815Y4701566D02*
X757815D01*
X707815Y4651566D02*
Y4751566D01*
X691680Y977900D02*
X791680D01*
X741680Y927900D02*
Y1027900D01*
X657815Y4380136D02*
X757815D01*
X707815Y4330136D02*
Y4430136D01*
X638394Y6327740D02*
X738393D01*
X688394Y6277740D02*
Y6377740D01*
X633260Y8511540D02*
X733260D01*
X683260Y8461540D02*
Y8561540D01*
D46*
X375920Y1837220D02*
Y1937220D01*
X325920Y1887220D02*
X425920D01*
X375920Y3465360D02*
Y3565360D01*
X325920Y3515360D02*
X425920D01*
X9457099Y7221245D02*
X9557099D01*
X9507099Y7171245D02*
Y7271245D01*
X9457099Y5122715D02*
X9557099D01*
X9507099Y5072715D02*
Y5172715D01*
%TF.MD5,fafce5548db84d9d9a352d6557bdaacd*%
M02*
