%TF.GenerationSoftware,Altium Limited,Altium Designer,25.2.1 (25)*%
G04 Layer_Color=255*
%FSLAX45Y45*%
%MOMM*%
%TF.SameCoordinates,2B528216-A015-4FBA-BB4B-E0E15DD4AA10*%
%TF.FilePolarity,Positive*%
%TF.FileFunction,Pads,Top*%
%TF.Part,Single*%
G01*
G75*
%TA.AperFunction,ComponentPad*%
%ADD15C,1.55000*%
%ADD16R,1.55000X1.55000*%
G04:AMPARAMS|DCode=17|XSize=1.95mm|YSize=1.95mm|CornerRadius=0.4875mm|HoleSize=0mm|Usage=FLASHONLY|Rotation=270.000|XOffset=0mm|YOffset=0mm|HoleType=Round|Shape=RoundedRectangle|*
%AMROUNDEDRECTD17*
21,1,1.95000,0.97500,0,0,270.0*
21,1,0.97500,1.95000,0,0,270.0*
1,1,0.97500,-0.48750,-0.48750*
1,1,0.97500,-0.48750,0.48750*
1,1,0.97500,0.48750,0.48750*
1,1,0.97500,0.48750,-0.48750*
%
%ADD17ROUNDEDRECTD17*%
%ADD18C,1.95000*%
%ADD19C,1.59000*%
%ADD20R,1.59000X1.59000*%
%ADD21R,1.60000X1.60000*%
%ADD22C,1.60000*%
%ADD23C,1.20000*%
%ADD24C,1.20000*%
%ADD25C,1.70000*%
%ADD26R,1.70000X1.70000*%
%TA.AperFunction,ViaPad*%
%ADD27C,4.00000*%
D15*
X5850760Y9009130D02*
D03*
X5596760D02*
D03*
X5342760D02*
D03*
X5088760D02*
D03*
X4834760D02*
D03*
X5596760Y9263130D02*
D03*
X5850760D02*
D03*
X8136760Y9009130D02*
D03*
X7882760D02*
D03*
X7628760D02*
D03*
X7374760D02*
D03*
X7120760D02*
D03*
X6866760D02*
D03*
X6612760D02*
D03*
X6358760D02*
D03*
X6104760D02*
D03*
X4072760D02*
D03*
X3818760D02*
D03*
X6104760Y9263130D02*
D03*
X6358760D02*
D03*
X7882760D02*
D03*
X7628760D02*
D03*
X7120760D02*
D03*
X6866760D02*
D03*
X6612760D02*
D03*
X7374760D02*
D03*
X4580760Y9009130D02*
D03*
X4326760D02*
D03*
X3564760D02*
D03*
X3310760D02*
D03*
X5342760Y9263130D02*
D03*
X5088760D02*
D03*
X4834760D02*
D03*
X4580760D02*
D03*
X4326760D02*
D03*
X4072760D02*
D03*
X3818760D02*
D03*
X3564760D02*
D03*
X3310760D02*
D03*
D16*
X8136760D02*
D03*
D17*
X330918Y2137219D02*
D03*
Y3765360D02*
D03*
X9557100Y6721221D02*
D03*
Y4622691D02*
D03*
D18*
X330918Y1637220D02*
D03*
Y3265360D02*
D03*
X9557100Y7221220D02*
D03*
Y7721219D02*
D03*
Y5122690D02*
D03*
Y5622689D02*
D03*
D19*
X7334754Y1303020D02*
D03*
Y1557020D02*
D03*
Y1811020D02*
D03*
Y2065020D02*
D03*
Y2319020D02*
D03*
Y2573020D02*
D03*
Y2827020D02*
D03*
Y3081020D02*
D03*
Y3335020D02*
D03*
Y3589020D02*
D03*
Y3843020D02*
D03*
Y4097020D02*
D03*
Y4351020D02*
D03*
Y4605020D02*
D03*
X3332480Y3413760D02*
D03*
Y3159760D02*
D03*
Y2905760D02*
D03*
Y2651760D02*
D03*
Y2397760D02*
D03*
Y2143760D02*
D03*
Y1889760D02*
D03*
Y1635760D02*
D03*
Y1381760D02*
D03*
X1899920Y1388115D02*
D03*
Y1642115D02*
D03*
Y1896115D02*
D03*
Y2150115D02*
D03*
Y2404115D02*
D03*
Y2658115D02*
D03*
Y2912115D02*
D03*
Y3166115D02*
D03*
Y3420115D02*
D03*
X4780280Y3413760D02*
D03*
Y3159760D02*
D03*
Y2905760D02*
D03*
Y2651760D02*
D03*
Y2397760D02*
D03*
Y2143760D02*
D03*
Y1889760D02*
D03*
Y1635760D02*
D03*
Y1381760D02*
D03*
D20*
X7334754Y4859020D02*
D03*
X3332480Y3667760D02*
D03*
X1899920Y3674115D02*
D03*
X4780280Y3667760D02*
D03*
D21*
X1285480Y645159D02*
D03*
X1251615Y4701566D02*
D03*
X1285480Y977900D02*
D03*
X1251615Y4380136D02*
D03*
D22*
X197880Y645159D02*
D03*
X164015Y4701566D02*
D03*
X197880Y977900D02*
D03*
X164015Y4380136D02*
D03*
D23*
X198253Y2630791D02*
D03*
X1313246Y7617127D02*
D03*
Y8117127D02*
D03*
X1303020Y8610600D02*
D03*
Y9110600D02*
D03*
X1333501Y6461759D02*
D03*
Y6961759D02*
D03*
X1313246Y5458982D02*
D03*
Y5958982D02*
D03*
D24*
X198253Y2780791D02*
D03*
D25*
X688394Y5547740D02*
D03*
Y6047740D02*
D03*
Y6547740D02*
D03*
X683260Y7731540D02*
D03*
Y8231540D02*
D03*
Y8731540D02*
D03*
D26*
X688394Y7047740D02*
D03*
X683260Y9231540D02*
D03*
D27*
X250001Y9750002D02*
D03*
X9750002D02*
D03*
X250001Y250001D02*
D03*
X9750002D02*
D03*
%TF.MD5,64f252038bd966a425f5bfe8b0b1da4b*%
M02*
