%TF.GenerationSoftware,Altium Limited,Altium Designer,25.2.1 (25)*%
G04 Layer_Color=32768*
%FSLAX45Y45*%
%MOMM*%
%TF.SameCoordinates,2B528216-A015-4FBA-BB4B-E0E15DD4AA10*%
%TF.FilePolarity,Positive*%
%TF.FileFunction,Other,Top_Courtyard*%
%TF.Part,Single*%
G01*
G75*
%TA.AperFunction,NonConductor*%
%ADD34C,0.20000*%
%ADD46C,0.05000*%
D34*
X7197754Y5034020D02*
X7471754D01*
X7197754Y1128020D02*
Y5034020D01*
Y1128020D02*
X7471754D01*
Y5034020D01*
X3469480Y1206760D02*
Y3842760D01*
X3195480Y1206760D02*
X3469480D01*
X3195480D02*
Y3842760D01*
X3469480D01*
X1762923Y3849116D02*
X2036923D01*
X1762923Y1213114D02*
Y3849116D01*
Y1213114D02*
X2036923D01*
Y3849116D01*
X4917280Y1206760D02*
Y3842760D01*
X4643280Y1206760D02*
X4917280D01*
X4643280D02*
Y3842760D01*
X4917280D01*
X107880Y499160D02*
X1375480D01*
X107880D02*
Y791159D01*
X1375480D01*
Y499160D02*
Y791159D01*
X74015Y4555566D02*
X1341615D01*
X74015D02*
Y4847566D01*
X1341615D01*
Y4555566D02*
Y4847566D01*
X107880Y831900D02*
X1375480D01*
X107880D02*
Y1123900D01*
X1375480D01*
Y831900D02*
Y1123900D01*
X74015Y4234136D02*
X1341615D01*
X74015D02*
Y4526136D01*
X1341615D01*
Y4234136D02*
Y4526136D01*
X260894Y7380240D02*
X1115894D01*
X260894Y5275240D02*
Y7380240D01*
Y5275240D02*
X1115894D01*
Y7380240D01*
X255760Y9564040D02*
X1110760D01*
X255760Y7459040D02*
Y9564040D01*
Y7459040D02*
X1110760D01*
Y9564040D01*
D46*
X3142260Y8859630D02*
Y9412630D01*
X8305260D01*
Y8859630D02*
Y9412630D01*
X3142260Y8859630D02*
X8305260D01*
X-19080Y2467220D02*
X770920D01*
X-19080Y1307220D02*
Y2467220D01*
Y1307220D02*
X770920D01*
Y2467220D01*
X-19080Y4095360D02*
X770920D01*
X-19080Y2935360D02*
Y4095360D01*
Y2935360D02*
X770920D01*
Y4095360D01*
X9037099Y6391245D02*
Y8051245D01*
X9977099D01*
Y6391245D02*
Y8051245D01*
X9037099Y6391245D02*
X9977099D01*
X9037099Y4292715D02*
Y5952715D01*
X9977099D01*
Y4292715D02*
Y5952715D01*
X9037099Y4292715D02*
X9977099D01*
%TF.MD5,66d11195b5fdbdf98c5724987af7d71e*%
M02*
