%TF.GenerationSoftware,Altium Limited,Altium Designer,25.2.1 (25)*%
G04 Layer_Color=32768*
%FSLAX45Y45*%
%MOMM*%
%TF.SameCoordinates,2B528216-A015-4FBA-BB4B-E0E15DD4AA10*%
%TF.FilePolarity,Positive*%
%TF.FileFunction,Other,Top_Component_Outline*%
%TF.Part,Single*%
G01*
G75*
%TA.AperFunction,NonConductor*%
%ADD33C,0.10000*%
D33*
X911Y1387201D02*
X570911D01*
X655911D02*
X750911D01*
X565911Y1327201D02*
X570911Y1387201D01*
X655911D02*
X660911Y1327201D01*
X565911D02*
X660911D01*
X240913Y2387207D02*
X750911D01*
Y1387201D02*
Y2387207D01*
X913D02*
X170913D01*
X163413Y2447207D02*
X170913Y2387207D01*
X240913D02*
X248413Y2447207D01*
X163413D02*
X248413D01*
X911Y1387201D02*
X913Y2387207D01*
X911Y3015341D02*
X570911D01*
X655911D02*
X750911D01*
X565911Y2955341D02*
X570911Y3015341D01*
X655911D02*
X660911Y2955341D01*
X565911D02*
X660911D01*
X240913Y4015347D02*
X750911D01*
Y3015341D02*
Y4015347D01*
X913D02*
X170913D01*
X163413Y4075347D02*
X170913Y4015347D01*
X240913D02*
X248413Y4075347D01*
X163413D02*
X248413D01*
X911Y3015341D02*
X913Y4015347D01*
X9647099Y6411236D02*
X9672078Y6471245D01*
X9742120D02*
X9767099Y6411236D01*
X9647099D02*
X9767099D01*
X9057098Y6471245D02*
X9672078D01*
X9742099D02*
X9957099D01*
Y7971245D01*
X9057098Y6471245D02*
Y7971245D01*
X9222098D02*
X9957098D01*
X9057098D02*
X9152098D01*
X9127119Y8031253D02*
X9152098Y7971245D01*
X9127119Y8031253D02*
X9247119D01*
X9222140Y7971245D02*
X9247119Y8031253D01*
X9647099Y4312706D02*
X9672078Y4372715D01*
X9742120D02*
X9767099Y4312706D01*
X9647099D02*
X9767099D01*
X9057098Y4372715D02*
X9672078D01*
X9742099D02*
X9957099D01*
Y5872715D01*
X9057098Y4372715D02*
Y5872715D01*
X9222098D02*
X9957098D01*
X9057098D02*
X9152098D01*
X9127119Y5932723D02*
X9152098Y5872715D01*
X9127119Y5932723D02*
X9247119D01*
X9222140Y5872715D02*
X9247119Y5932723D01*
%TF.MD5,9fdf50a2ab190f167cdc93f3c2a3e4ec*%
M02*
