%TF.GenerationSoftware,Altium Limited,Altium Designer,25.2.1 (25)*%
G04 Layer_Color=128*
%FSLAX45Y45*%
%MOMM*%
%TF.SameCoordinates,2B528216-A015-4FBA-BB4B-E0E15DD4AA10*%
%TF.FilePolarity,Positive*%
%TF.FileFunction,Drillmap*%
%TF.Part,Single*%
G01*
G75*
%TA.AperFunction,NonConductor*%
%ADD62C,0.12700*%
D62*
X5799760Y9009130D02*
X5901760D01*
X5850760Y8958130D02*
Y9060130D01*
X5545760Y9009130D02*
X5647760D01*
X5596760Y8958130D02*
Y9060130D01*
X5291760Y9009130D02*
X5393760D01*
X5342760Y8958130D02*
Y9060130D01*
X5037760Y9009130D02*
X5139760D01*
X5088760Y8958130D02*
Y9060130D01*
X4783760Y9009130D02*
X4885760D01*
X4834760Y8958130D02*
Y9060130D01*
X5545760Y9263130D02*
X5647760D01*
X5596760Y9212130D02*
Y9314130D01*
X5799760Y9263130D02*
X5901760D01*
X5850760Y9212130D02*
Y9314130D01*
X8085760Y9009130D02*
X8187760D01*
X8136760Y8958130D02*
Y9060130D01*
X7831760Y9009130D02*
X7933760D01*
X7882760Y8958130D02*
Y9060130D01*
X7577760Y9009130D02*
X7679760D01*
X7628760Y8958130D02*
Y9060130D01*
X7323760Y9009130D02*
X7425760D01*
X7374760Y8958130D02*
Y9060130D01*
X7069760Y9009130D02*
X7171760D01*
X7120760Y8958130D02*
Y9060130D01*
X6815760Y9009130D02*
X6917760D01*
X6866760Y8958130D02*
Y9060130D01*
X6561760Y9009130D02*
X6663760D01*
X6612760Y8958130D02*
Y9060130D01*
X6307760Y9009130D02*
X6409760D01*
X6358760Y8958130D02*
Y9060130D01*
X6053760Y9009130D02*
X6155760D01*
X6104760Y8958130D02*
Y9060130D01*
X4021760Y9009130D02*
X4123760D01*
X4072760Y8958130D02*
Y9060130D01*
X3767760Y9009130D02*
X3869760D01*
X3818760Y8958130D02*
Y9060130D01*
X6053760Y9263130D02*
X6155760D01*
X6104760Y9212130D02*
Y9314130D01*
X6307760Y9263130D02*
X6409760D01*
X6358760Y9212130D02*
Y9314130D01*
X8085760Y9263130D02*
X8187760D01*
X8136760Y9212130D02*
Y9314130D01*
X7831760Y9263130D02*
X7933760D01*
X7882760Y9212130D02*
Y9314130D01*
X7577760Y9263130D02*
X7679760D01*
X7628760Y9212130D02*
Y9314130D01*
X7069760Y9263130D02*
X7171760D01*
X7120760Y9212130D02*
Y9314130D01*
X6815760Y9263130D02*
X6917760D01*
X6866760Y9212130D02*
Y9314130D01*
X6561760Y9263130D02*
X6663760D01*
X6612760Y9212130D02*
Y9314130D01*
X7323760Y9263130D02*
X7425760D01*
X7374760Y9212130D02*
Y9314130D01*
X4529760Y9009130D02*
X4631760D01*
X4580760Y8958130D02*
Y9060130D01*
X4275760Y9009130D02*
X4377760D01*
X4326760Y8958130D02*
Y9060130D01*
X3513760Y9009130D02*
X3615760D01*
X3564760Y8958130D02*
Y9060130D01*
X3259760Y9009130D02*
X3361760D01*
X3310760Y8958130D02*
Y9060130D01*
X5291760Y9263130D02*
X5393760D01*
X5342760Y9212130D02*
Y9314130D01*
X5037760Y9263130D02*
X5139760D01*
X5088760Y9212130D02*
Y9314130D01*
X4783760Y9263130D02*
X4885760D01*
X4834760Y9212130D02*
Y9314130D01*
X4529760Y9263130D02*
X4631760D01*
X4580760Y9212130D02*
Y9314130D01*
X4275760Y9263130D02*
X4377760D01*
X4326760Y9212130D02*
Y9314130D01*
X4021760Y9263130D02*
X4123760D01*
X4072760Y9212130D02*
Y9314130D01*
X3767760Y9263130D02*
X3869760D01*
X3818760Y9212130D02*
Y9314130D01*
X3513760Y9263130D02*
X3615760D01*
X3564760Y9212130D02*
Y9314130D01*
X3259760Y9263130D02*
X3361760D01*
X3310760Y9212130D02*
Y9314130D01*
X265918Y2137219D02*
X395918D01*
X330918Y2072220D02*
Y2202219D01*
X265918Y1637220D02*
X395918D01*
X330918Y1572221D02*
Y1702220D01*
X265918Y3765360D02*
X395918D01*
X330918Y3700360D02*
Y3830359D01*
X265918Y3265360D02*
X395918D01*
X330918Y3200361D02*
Y3330360D01*
X9492100Y7221220D02*
X9622100D01*
X9557100Y7156220D02*
Y7286220D01*
X9492100Y6721221D02*
X9622100D01*
X9557100Y6656221D02*
Y6786221D01*
X9492100Y7721219D02*
X9622100D01*
X9557100Y7656219D02*
Y7786219D01*
X9492100Y5122690D02*
X9622100D01*
X9557100Y5057690D02*
Y5187690D01*
X9492100Y4622691D02*
X9622100D01*
X9557100Y4557691D02*
Y4687691D01*
X9492100Y5622689D02*
X9622100D01*
X9557100Y5557689D02*
Y5687689D01*
X7282754Y1303020D02*
X7386754D01*
X7334754Y1251020D02*
Y1355020D01*
X7282754Y1557020D02*
X7386754D01*
X7334754Y1505020D02*
Y1609020D01*
X7282754Y1811020D02*
X7386754D01*
X7334754Y1759020D02*
Y1863020D01*
X7282754Y2065020D02*
X7386754D01*
X7334754Y2013020D02*
Y2117020D01*
X7282754Y2319020D02*
X7386754D01*
X7334754Y2267020D02*
Y2371020D01*
X7282754Y2573020D02*
X7386754D01*
X7334754Y2521020D02*
Y2625020D01*
X7282754Y2827020D02*
X7386754D01*
X7334754Y2775020D02*
Y2879020D01*
X7282754Y3081020D02*
X7386754D01*
X7334754Y3029020D02*
Y3133020D01*
X7282754Y3335020D02*
X7386754D01*
X7334754Y3283020D02*
Y3387020D01*
X7282754Y3589020D02*
X7386754D01*
X7334754Y3537020D02*
Y3641020D01*
X7282754Y3843020D02*
X7386754D01*
X7334754Y3791020D02*
Y3895020D01*
X7282754Y4097020D02*
X7386754D01*
X7334754Y4045020D02*
Y4149020D01*
X7282754Y4351020D02*
X7386754D01*
X7334754Y4299020D02*
Y4403020D01*
X7282754Y4605020D02*
X7386754D01*
X7334754Y4553020D02*
Y4657020D01*
X7282754Y4859020D02*
X7386754D01*
X7334754Y4807020D02*
Y4911020D01*
X3280480Y3667760D02*
X3384480D01*
X3332480Y3615760D02*
Y3719760D01*
X3280480Y3413760D02*
X3384480D01*
X3332480Y3361760D02*
Y3465760D01*
X3280480Y3159760D02*
X3384480D01*
X3332480Y3107760D02*
Y3211760D01*
X3280480Y2905760D02*
X3384480D01*
X3332480Y2853760D02*
Y2957760D01*
X3280480Y2651760D02*
X3384480D01*
X3332480Y2599760D02*
Y2703760D01*
X3280480Y2397760D02*
X3384480D01*
X3332480Y2345760D02*
Y2449760D01*
X3280480Y2143760D02*
X3384480D01*
X3332480Y2091760D02*
Y2195760D01*
X3280480Y1889760D02*
X3384480D01*
X3332480Y1837760D02*
Y1941760D01*
X3280480Y1635760D02*
X3384480D01*
X3332480Y1583760D02*
Y1687760D01*
X3280480Y1381760D02*
X3384480D01*
X3332480Y1329760D02*
Y1433760D01*
X1847920Y1388115D02*
X1951920D01*
X1899920Y1336115D02*
Y1440115D01*
X1847920Y1642115D02*
X1951920D01*
X1899920Y1590115D02*
Y1694115D01*
X1847920Y1896115D02*
X1951920D01*
X1899920Y1844115D02*
Y1948115D01*
X1847920Y2150115D02*
X1951920D01*
X1899920Y2098115D02*
Y2202115D01*
X1847920Y2404115D02*
X1951920D01*
X1899920Y2352115D02*
Y2456115D01*
X1847920Y2658115D02*
X1951920D01*
X1899920Y2606115D02*
Y2710115D01*
X1847920Y2912115D02*
X1951920D01*
X1899920Y2860115D02*
Y2964115D01*
X1847920Y3166115D02*
X1951920D01*
X1899920Y3114115D02*
Y3218115D01*
X1847920Y3420115D02*
X1951920D01*
X1899920Y3368115D02*
Y3472115D01*
X1847920Y3674115D02*
X1951920D01*
X1899920Y3622115D02*
Y3726115D01*
X4728280Y3667760D02*
X4832280D01*
X4780280Y3615760D02*
Y3719760D01*
X4728280Y3413760D02*
X4832280D01*
X4780280Y3361760D02*
Y3465760D01*
X4728280Y3159760D02*
X4832280D01*
X4780280Y3107760D02*
Y3211760D01*
X4728280Y2905760D02*
X4832280D01*
X4780280Y2853760D02*
Y2957760D01*
X4728280Y2651760D02*
X4832280D01*
X4780280Y2599760D02*
Y2703760D01*
X4728280Y2397760D02*
X4832280D01*
X4780280Y2345760D02*
Y2449760D01*
X4728280Y2143760D02*
X4832280D01*
X4780280Y2091760D02*
Y2195760D01*
X4728280Y1889760D02*
X4832280D01*
X4780280Y1837760D02*
Y1941760D01*
X4728280Y1635760D02*
X4832280D01*
X4780280Y1583760D02*
Y1687760D01*
X4728280Y1381760D02*
X4832280D01*
X4780280Y1329760D02*
Y1433760D01*
X1232980Y645159D02*
X1337980D01*
X1285480Y592659D02*
Y697660D01*
X145380Y645159D02*
X250380D01*
X197880Y592659D02*
Y697660D01*
X1199115Y4701566D02*
X1304115D01*
X1251615Y4649066D02*
Y4754066D01*
X111515Y4701566D02*
X216515D01*
X164015Y4649066D02*
Y4754066D01*
X1232980Y977900D02*
X1337980D01*
X1285480Y925400D02*
Y1030400D01*
X145380Y977900D02*
X250380D01*
X197880Y925400D02*
Y1030400D01*
X1199115Y4380136D02*
X1304115D01*
X1251615Y4327636D02*
Y4432636D01*
X111515Y4380136D02*
X216515D01*
X164015Y4327636D02*
Y4432636D01*
X163253Y2630791D02*
X233253D01*
X198253Y2595791D02*
Y2665791D01*
X163253Y2780791D02*
X233253D01*
X198253Y2745791D02*
Y2815791D01*
X1278246Y7617127D02*
X1348246D01*
X1313246Y7582127D02*
Y7652127D01*
X1278246Y8117127D02*
X1348246D01*
X1313246Y8082127D02*
Y8152127D01*
X1268020Y8610600D02*
X1338020D01*
X1303020Y8575600D02*
Y8645600D01*
X1268020Y9110600D02*
X1338020D01*
X1303020Y9075600D02*
Y9145600D01*
X1298501Y6461759D02*
X1368501D01*
X1333501Y6426759D02*
Y6496759D01*
X1298501Y6961759D02*
X1368501D01*
X1333501Y6926759D02*
Y6996759D01*
X1278246Y5458982D02*
X1348246D01*
X1313246Y5423982D02*
Y5493982D01*
X1278246Y5958982D02*
X1348246D01*
X1313246Y5923982D02*
Y5993982D01*
X633394Y5547740D02*
X743393D01*
X688394Y5492740D02*
Y5602740D01*
X633394Y6047740D02*
X743393D01*
X688394Y5992740D02*
Y6102740D01*
X633394Y6547740D02*
X743393D01*
X688394Y6492740D02*
Y6602740D01*
X633394Y7047740D02*
X743393D01*
X688394Y6992740D02*
Y7102740D01*
X628260Y7731540D02*
X738260D01*
X683260Y7676540D02*
Y7786540D01*
X628260Y8231540D02*
X738260D01*
X683260Y8176540D02*
Y8286540D01*
X628260Y8731540D02*
X738260D01*
X683260Y8676540D02*
Y8786540D01*
X628260Y9231540D02*
X738260D01*
X683260Y9176540D02*
Y9286540D01*
X100001Y9750002D02*
X400001D01*
X250001Y9600002D02*
Y9900002D01*
X9600002Y9750002D02*
X9900002D01*
X9750002Y9600002D02*
Y9900002D01*
X100001Y250001D02*
X400001D01*
X250001Y100001D02*
Y400001D01*
X9600002Y250001D02*
X9900002D01*
X9750002Y100001D02*
Y400001D01*
X7569142Y4363729D02*
X7640262D01*
X7604702Y4328169D02*
Y4399289D01*
X8205073Y6992075D02*
X8276193D01*
X8240633Y6956515D02*
Y7027635D01*
X8532714Y7271245D02*
X8603834D01*
X8568274Y7235685D02*
Y7306805D01*
X5309043Y8554005D02*
X5380163D01*
X5344603Y8518445D02*
Y8589565D01*
X3911296Y6951980D02*
X3982416D01*
X3946856Y6916420D02*
Y6987540D01*
X3690572Y5958982D02*
X3761692D01*
X3726132Y5923422D02*
Y5994542D01*
X1569697Y5958982D02*
X1640817D01*
X1605257Y5923422D02*
Y5994542D01*
X1609114Y6969742D02*
X1680234D01*
X1644674Y6934182D02*
Y7005302D01*
X6982300Y7593354D02*
X7053420D01*
X7017860Y7557794D02*
Y7628914D01*
X8896755Y6718866D02*
X8967875D01*
X8932315Y6683306D02*
Y6754426D01*
X5562900Y5565998D02*
X5634020D01*
X5598460Y5530438D02*
Y5601558D01*
X5292308Y5240282D02*
X5363428D01*
X5327868Y5204722D02*
Y5275842D01*
X6711461Y4355447D02*
X6782581D01*
X6747021Y4319887D02*
Y4391007D01*
X6180529Y4129929D02*
X6251649D01*
X6216089Y4094369D02*
Y4165489D01*
X7508002Y7418026D02*
X7579122D01*
X7543562Y7382466D02*
Y7453586D01*
X6970430Y5682043D02*
X7041550D01*
X7005990Y5646483D02*
Y5717603D01*
X7833083Y4298595D02*
X7904203D01*
X7868643Y4263035D02*
Y4334155D01*
X7880050Y3616877D02*
X7951170D01*
X7915610Y3581317D02*
Y3652437D01*
X8648189Y3725650D02*
X8719309D01*
X8683749Y3690090D02*
Y3761210D01*
X8205370Y3759316D02*
X8276490D01*
X8240930Y3723756D02*
Y3794876D01*
X8205370Y4760594D02*
X8276490D01*
X8240930Y4725034D02*
Y4796154D01*
X7807290Y5033782D02*
X7878410D01*
X7842850Y4998222D02*
Y5069342D01*
X8193812Y5446040D02*
X8264932D01*
X8229372Y5410480D02*
Y5481600D01*
X7782560Y5612378D02*
X7853680D01*
X7818120Y5576818D02*
Y5647938D01*
X7787640Y6471245D02*
X7858760D01*
X7823200Y6435685D02*
Y6506805D01*
X8232140Y6271260D02*
X8303260D01*
X8267700Y6235700D02*
Y6306820D01*
X8551477Y6116720D02*
X8622597D01*
X8587037Y6081160D02*
Y6152280D01*
X8490008Y8065093D02*
X8561128D01*
X8525568Y8029533D02*
Y8100653D01*
X8201617Y8065093D02*
X8272737D01*
X8237177Y8029533D02*
Y8100653D01*
X7886918Y8130539D02*
X7958038D01*
X7922478Y8094979D02*
Y8166099D01*
X6969760Y3863340D02*
X7040880D01*
X7005320Y3827780D02*
Y3898900D01*
X7172194Y5447754D02*
X7243314D01*
X7207754Y5412194D02*
Y5483314D01*
X7172194Y5932723D02*
X7243314D01*
X7207754Y5897163D02*
Y5968283D01*
X8644866Y3980416D02*
X8715986D01*
X8680426Y3944856D02*
Y4015976D01*
X8908517Y4785165D02*
X8979637D01*
X8944077Y4749605D02*
Y4820725D01*
X8908517Y5622689D02*
X8979637D01*
X8944077Y5587129D02*
Y5658249D01*
X8874145Y7721219D02*
X8945265D01*
X8909705Y7685659D02*
Y7756779D01*
X7084060Y8709660D02*
X7155180D01*
X7119620Y8674100D02*
Y8745220D01*
X7829139Y3992120D02*
X7900259D01*
X7864699Y3956560D02*
Y4027680D01*
X7911412Y7271245D02*
X7982532D01*
X7946972Y7235685D02*
Y7306805D01*
X7640969Y8551860D02*
X7712089D01*
X7676529Y8516300D02*
Y8587420D01*
X7577256Y2586830D02*
X7648376D01*
X7612816Y2551270D02*
Y2622390D01*
%TF.MD5,ef92b4bc09283ca8ef5557699b2fa59a*%
M02*
