%TF.GenerationSoftware,Altium Limited,Altium Designer,25.2.1 (25)*%
G04 Layer_Color=16711935*
%FSLAX45Y45*%
%MOMM*%
%TF.SameCoordinates,2B528216-A015-4FBA-BB4B-E0E15DD4AA10*%
%TF.FilePolarity,Negative*%
%TF.FileFunction,Soldermask,Bot*%
%TF.Part,Single*%
G01*
G75*
%TA.AperFunction,ComponentPad*%
%ADD19C,1.59000*%
%ADD20R,1.59000X1.59000*%
%ADD21R,1.60000X1.60000*%
%ADD22C,1.60000*%
%ADD25C,1.70000*%
%ADD26R,1.70000X1.70000*%
%ADD36C,2.05800*%
%ADD37R,2.05800X2.05800*%
G04:AMPARAMS|DCode=38|XSize=2.458mm|YSize=2.458mm|CornerRadius=0.7415mm|HoleSize=0mm|Usage=FLASHONLY|Rotation=270.000|XOffset=0mm|YOffset=0mm|HoleType=Round|Shape=RoundedRectangle|*
%AMROUNDEDRECTD38*
21,1,2.45800,0.97500,0,0,270.0*
21,1,0.97500,2.45800,0,0,270.0*
1,1,1.48300,-0.48750,-0.48750*
1,1,1.48300,-0.48750,0.48750*
1,1,1.48300,0.48750,0.48750*
1,1,1.48300,0.48750,-0.48750*
%
%ADD38ROUNDEDRECTD38*%
%ADD39C,2.45800*%
%ADD40C,1.70800*%
%ADD41C,1.70800*%
%TA.AperFunction,ViaPad*%
%ADD42C,4.50800*%
%ADD43C,1.77800*%
%ADD44C,1.30800*%
%ADD45C,1.50800*%
D19*
X7334754Y1303020D02*
D03*
Y1557020D02*
D03*
Y1811020D02*
D03*
Y2065020D02*
D03*
Y2319020D02*
D03*
Y2573020D02*
D03*
Y2827020D02*
D03*
Y3081020D02*
D03*
Y3335020D02*
D03*
Y3589020D02*
D03*
Y3843020D02*
D03*
Y4097020D02*
D03*
Y4351020D02*
D03*
Y4605020D02*
D03*
X3332480Y3413760D02*
D03*
Y3159760D02*
D03*
Y2905760D02*
D03*
Y2651760D02*
D03*
Y2397760D02*
D03*
Y2143760D02*
D03*
Y1889760D02*
D03*
Y1635760D02*
D03*
Y1381760D02*
D03*
X1899920Y1388115D02*
D03*
Y1642115D02*
D03*
Y1896115D02*
D03*
Y2150115D02*
D03*
Y2404115D02*
D03*
Y2658115D02*
D03*
Y2912115D02*
D03*
Y3166115D02*
D03*
Y3420115D02*
D03*
X4780280Y3413760D02*
D03*
Y3159760D02*
D03*
Y2905760D02*
D03*
Y2651760D02*
D03*
Y2397760D02*
D03*
Y2143760D02*
D03*
Y1889760D02*
D03*
Y1635760D02*
D03*
Y1381760D02*
D03*
D20*
X7334754Y4859020D02*
D03*
X3332480Y3667760D02*
D03*
X1899920Y3674115D02*
D03*
X4780280Y3667760D02*
D03*
D21*
X1285480Y645159D02*
D03*
X1251615Y4701566D02*
D03*
X1285480Y977900D02*
D03*
X1251615Y4380136D02*
D03*
D22*
X197880Y645159D02*
D03*
X164015Y4701566D02*
D03*
X197880Y977900D02*
D03*
X164015Y4380136D02*
D03*
D25*
X688394Y5547740D02*
D03*
Y6047740D02*
D03*
Y6547740D02*
D03*
X683260Y7731540D02*
D03*
Y8231540D02*
D03*
Y8731540D02*
D03*
D26*
X688394Y7047740D02*
D03*
X683260Y9231540D02*
D03*
D36*
X5850760Y9009130D02*
D03*
X5596760D02*
D03*
X5342760D02*
D03*
X5088760D02*
D03*
X4834760D02*
D03*
X5596760Y9263130D02*
D03*
X5850760D02*
D03*
X8136760Y9009130D02*
D03*
X7882760D02*
D03*
X7628760D02*
D03*
X7374760D02*
D03*
X7120760D02*
D03*
X6866760D02*
D03*
X6612760D02*
D03*
X6358760D02*
D03*
X6104760D02*
D03*
X4072760D02*
D03*
X3818760D02*
D03*
X6104760Y9263130D02*
D03*
X6358760D02*
D03*
X7882760D02*
D03*
X7628760D02*
D03*
X7120760D02*
D03*
X6866760D02*
D03*
X6612760D02*
D03*
X7374760D02*
D03*
X4580760Y9009130D02*
D03*
X4326760D02*
D03*
X3564760D02*
D03*
X3310760D02*
D03*
X5342760Y9263130D02*
D03*
X5088760D02*
D03*
X4834760D02*
D03*
X4580760D02*
D03*
X4326760D02*
D03*
X4072760D02*
D03*
X3818760D02*
D03*
X3564760D02*
D03*
X3310760D02*
D03*
D37*
X8136760D02*
D03*
D38*
X330918Y2137219D02*
D03*
Y3765360D02*
D03*
X9557100Y6721221D02*
D03*
Y4622691D02*
D03*
D39*
X330918Y1637220D02*
D03*
Y3265360D02*
D03*
X9557100Y7221220D02*
D03*
Y7721219D02*
D03*
Y5122690D02*
D03*
Y5622689D02*
D03*
D40*
X198253Y2630791D02*
D03*
X1313246Y7617127D02*
D03*
Y8117127D02*
D03*
X1303020Y8610600D02*
D03*
Y9110600D02*
D03*
X1333501Y6461759D02*
D03*
Y6961759D02*
D03*
X1313246Y5458982D02*
D03*
Y5958982D02*
D03*
D41*
X198253Y2780791D02*
D03*
D42*
X250001Y9750002D02*
D03*
X9750002D02*
D03*
X250001Y250001D02*
D03*
X9750002D02*
D03*
D43*
X7604702Y4363729D02*
D03*
X5344603Y8554005D02*
D03*
X3946856Y6951980D02*
D03*
X3726132Y5958982D02*
D03*
X1605257D02*
D03*
X1644674Y6969742D02*
D03*
X7017860Y7593354D02*
D03*
X8932315Y6718866D02*
D03*
X7005320Y3863340D02*
D03*
X7207754Y5447754D02*
D03*
Y5932723D02*
D03*
X8680426Y3980416D02*
D03*
X8944077Y4785165D02*
D03*
Y5622689D02*
D03*
X8909705Y7721219D02*
D03*
X7119620Y8709660D02*
D03*
X7612816Y2586830D02*
D03*
D44*
X8240633Y6992075D02*
D03*
X8568274Y7271245D02*
D03*
X5598460Y5565998D02*
D03*
X5327868Y5240282D02*
D03*
X6747021Y4355447D02*
D03*
X6216089Y4129929D02*
D03*
X7543562Y7418026D02*
D03*
X7005990Y5682043D02*
D03*
X7868643Y4298595D02*
D03*
X7915610Y3616877D02*
D03*
X8683749Y3725650D02*
D03*
X8240930Y3759316D02*
D03*
Y4760594D02*
D03*
X7842850Y5033782D02*
D03*
X8229372Y5446040D02*
D03*
X7818120Y5612378D02*
D03*
X7823200Y6471245D02*
D03*
X8267700Y6271260D02*
D03*
X8587037Y6116720D02*
D03*
X8525568Y8065093D02*
D03*
X8237177D02*
D03*
X7922478Y8130539D02*
D03*
X7946972Y7271245D02*
D03*
X7676529Y8551860D02*
D03*
D45*
X7864699Y3992120D02*
D03*
%TF.MD5,5bf0d1b93fdc507fcb92108e9fa44278*%
M02*
