%TF.GenerationSoftware,Altium Limited,Altium Designer,25.2.1 (25)*%
G04 Layer_Physical_Order=2*
G04 Layer_Color=16711680*
%FSLAX45Y45*%
%MOMM*%
%TF.SameCoordinates,03B5D1EE-3DB5-40E3-92DE-3EA2DCE1FA9C*%
%TF.FilePolarity,Positive*%
%TF.FileFunction,Copper,L2,Bot,Signal*%
%TF.Part,Single*%
G01*
G75*
%TA.AperFunction,Conductor*%
%ADD10C,0.80000*%
%TA.AperFunction,ComponentPad*%
%ADD11R,1.50000X1.50000*%
%ADD12C,1.50000*%
%ADD13C,1.20000*%
%ADD14C,1.55000*%
%ADD15R,1.55000X1.55000*%
%TA.AperFunction,ViaPad*%
%ADD16C,1.27000*%
%TA.AperFunction,NonConductor*%
%ADD17C,0.50000*%
%ADD18C,0.25400*%
G36*
X4000001Y-1D02*
X-1D01*
X-1Y-1D01*
X-1Y3817567D01*
X39999Y3833160D01*
X185923D01*
Y4087110D01*
X39999D01*
X33540Y4087111D01*
X-1Y4102704D01*
Y5000001D01*
X4000001D01*
Y-1D01*
D02*
G37*
%LPC*%
G36*
X3011910Y4018754D02*
X2989424D01*
X2967704Y4012934D01*
X2948230Y4001691D01*
X2944679Y3998140D01*
X2507301D01*
X2506107Y3999334D01*
X2486634Y4010577D01*
X2464914Y4016397D01*
X2442427D01*
X2420707Y4010577D01*
X2401234Y3999334D01*
X2385629Y3983730D01*
X2377761Y3980470D01*
X2364099Y3969987D01*
X2101714Y3707602D01*
X2098359D01*
X2076639Y3701783D01*
X2057165Y3690539D01*
X2041265Y3674639D01*
X2030022Y3655166D01*
X2024202Y3633446D01*
Y3610960D01*
X2030022Y3589239D01*
X2041265Y3569766D01*
X2057165Y3553866D01*
X2076639Y3542623D01*
X2098359Y3536803D01*
X2120845D01*
X2142565Y3542623D01*
X2162039Y3553866D01*
X2177939Y3569766D01*
X2189182Y3589239D01*
X2195002Y3610960D01*
Y3614315D01*
X2429696Y3849009D01*
X2442427Y3845597D01*
X2464914D01*
X2486634Y3851417D01*
X2506107Y3862660D01*
X2509658Y3866211D01*
X2947036D01*
X2948230Y3865017D01*
X2967704Y3853774D01*
X2989424Y3847954D01*
X3011910D01*
X3033630Y3853774D01*
X3053104Y3865017D01*
X3069004Y3880917D01*
X3080247Y3900391D01*
X3086067Y3922111D01*
Y3944597D01*
X3080247Y3966317D01*
X3069004Y3985791D01*
X3053104Y4001691D01*
X3033630Y4012934D01*
X3011910Y4018754D01*
D02*
G37*
G36*
X774519Y3753018D02*
X751112D01*
X728501Y3746959D01*
X708229Y3735255D01*
X691678Y3718704D01*
X687249Y3711034D01*
X252901D01*
Y3745899D01*
X47101D01*
Y3540099D01*
X252901D01*
Y3579105D01*
X731049D01*
X734773Y3579595D01*
X751112Y3575218D01*
X774519D01*
X797129Y3581276D01*
X817401Y3592980D01*
X833953Y3609532D01*
X845657Y3629804D01*
X851715Y3652414D01*
Y3675821D01*
X845657Y3698432D01*
X833953Y3718704D01*
X817401Y3735255D01*
X797129Y3746959D01*
X774519Y3753018D01*
D02*
G37*
G36*
X1011303Y3445249D02*
Y3372939D01*
X1083613D01*
X1078184Y3393203D01*
X1066940Y3412676D01*
X1051040Y3428577D01*
X1031567Y3439820D01*
X1011303Y3445249D01*
D02*
G37*
G36*
X985903Y3445249D02*
X965640Y3439820D01*
X946167Y3428577D01*
X930267Y3412676D01*
X919024Y3393203D01*
X913594Y3372939D01*
X985903D01*
Y3445249D01*
D02*
G37*
G36*
Y3347539D02*
X913594D01*
X919024Y3327277D01*
X930267Y3307803D01*
X946167Y3291903D01*
X965640Y3280660D01*
X985903Y3275230D01*
Y3347539D01*
D02*
G37*
G36*
X1083613D02*
X1011303D01*
Y3275230D01*
X1031567Y3280660D01*
X1051040Y3291903D01*
X1066940Y3307803D01*
X1078184Y3327277D01*
X1083613Y3347539D01*
D02*
G37*
G36*
X163548Y3237899D02*
X162701D01*
Y3147699D01*
X252901D01*
Y3148546D01*
X245889Y3174717D01*
X232341Y3198181D01*
X213183Y3217339D01*
X189719Y3230886D01*
X163548Y3237899D01*
D02*
G37*
G36*
X137301D02*
X136454D01*
X110283Y3230886D01*
X86819Y3217339D01*
X67661Y3198181D01*
X54113Y3174717D01*
X47101Y3148546D01*
Y3147699D01*
X137301D01*
Y3237899D01*
D02*
G37*
G36*
X252901Y3122299D02*
X162701D01*
Y3032099D01*
X163548D01*
X189719Y3039111D01*
X213183Y3052658D01*
X232341Y3071817D01*
X245889Y3095281D01*
X252901Y3121452D01*
Y3122299D01*
D02*
G37*
G36*
X137301D02*
X47101D01*
Y3121452D01*
X54113Y3095281D01*
X67661Y3071817D01*
X86819Y3052658D01*
X110283Y3039111D01*
X136454Y3032099D01*
X137301D01*
Y3122299D01*
D02*
G37*
G36*
X2464914Y3216397D02*
X2442427D01*
X2420707Y3210577D01*
X2401234Y3199334D01*
X2385334Y3183434D01*
X2374091Y3163960D01*
X2368271Y3142240D01*
Y3119754D01*
X2374091Y3098034D01*
X2385334Y3078560D01*
X2391026Y3072868D01*
Y2920534D01*
X2188277D01*
X2174893Y2933918D01*
X2151999Y2947136D01*
X2126464Y2953978D01*
X2100028D01*
X2074493Y2947136D01*
X2051599Y2933918D01*
X2032906Y2915225D01*
X2019688Y2892331D01*
X2012846Y2866796D01*
Y2840360D01*
X2019688Y2814825D01*
X2032906Y2791931D01*
X2051599Y2773238D01*
X2074493Y2760020D01*
X2100028Y2753178D01*
X2126464D01*
X2151999Y2760020D01*
X2174893Y2773238D01*
X2190260Y2788606D01*
X2406493D01*
X2407873Y2787225D01*
X2427347Y2775982D01*
X2449067Y2770162D01*
X2471553D01*
X2493273Y2775982D01*
X2512747Y2787225D01*
X2528647Y2803125D01*
X2539890Y2822599D01*
X2545710Y2844319D01*
Y2866805D01*
X2539890Y2888525D01*
X2528647Y2907999D01*
X2522955Y2913691D01*
Y3080201D01*
X2533250Y3098034D01*
X2539070Y3119754D01*
Y3142240D01*
X2533250Y3163960D01*
X2522007Y3183434D01*
X2506107Y3199334D01*
X2486634Y3210577D01*
X2464914Y3216397D01*
D02*
G37*
G36*
X1620845Y3707602D02*
X1598359D01*
X1576639Y3701783D01*
X1557165Y3690539D01*
X1541265Y3674639D01*
X1530022Y3655166D01*
X1524202Y3633446D01*
Y3610960D01*
X1530022Y3589239D01*
X1541265Y3569766D01*
X1545175Y3565856D01*
Y3319702D01*
X1547423Y3302629D01*
X1554012Y3286720D01*
X1564495Y3273058D01*
X1793281Y3044272D01*
Y2929601D01*
X1783223Y2919542D01*
X1681268D01*
X1666893Y2933918D01*
X1643999Y2947136D01*
X1618464Y2953978D01*
X1592028D01*
X1566493Y2947136D01*
X1543599Y2933918D01*
X1524906Y2915225D01*
X1511688Y2892331D01*
X1504846Y2866796D01*
Y2840360D01*
X1511688Y2814825D01*
X1524906Y2791931D01*
X1539281Y2777555D01*
Y2728832D01*
X1531059Y2720610D01*
X1397467D01*
X1389999Y2760020D01*
X1412893Y2773238D01*
X1431586Y2791931D01*
X1444804Y2814825D01*
X1451646Y2840360D01*
Y2866796D01*
X1444804Y2892331D01*
X1431586Y2915225D01*
X1412893Y2933918D01*
X1389999Y2947136D01*
X1364464Y2953978D01*
X1338028D01*
X1312493Y2947136D01*
X1289599Y2933918D01*
X1278554Y2922873D01*
X1064568D01*
Y3008165D01*
X1062320Y3025238D01*
X1055730Y3041147D01*
X1045247Y3054809D01*
X664414Y3435643D01*
X650752Y3446126D01*
X634843Y3452715D01*
X617770Y3454963D01*
X229559D01*
X213183Y3471339D01*
X189719Y3484886D01*
X163548Y3491899D01*
X136454D01*
X110283Y3484886D01*
X86819Y3471339D01*
X67661Y3452181D01*
X54113Y3428717D01*
X47101Y3402546D01*
Y3375452D01*
X54113Y3349281D01*
X67661Y3325817D01*
X86819Y3306658D01*
X110283Y3293111D01*
X136454Y3286099D01*
X163548D01*
X189719Y3293111D01*
X213183Y3306658D01*
X229559Y3323035D01*
X590447D01*
X932639Y2980842D01*
Y2915049D01*
X930267Y2912676D01*
X919024Y2893203D01*
X913204Y2871483D01*
Y2848997D01*
X919024Y2827277D01*
X930267Y2807803D01*
X946167Y2791903D01*
X965640Y2780660D01*
X987360Y2774840D01*
X1009847D01*
X1031567Y2780660D01*
X1049380Y2790944D01*
X1271892D01*
X1289599Y2773238D01*
X1312492Y2760020D01*
X1305024Y2720610D01*
X942307D01*
X735275Y2927643D01*
X721613Y2938126D01*
X705704Y2944715D01*
X688631Y2946963D01*
X229559D01*
X213183Y2963339D01*
X189719Y2976886D01*
X163548Y2983899D01*
X136454D01*
X110283Y2976886D01*
X86819Y2963339D01*
X67661Y2944181D01*
X54113Y2920717D01*
X47101Y2894546D01*
Y2867452D01*
X54113Y2841281D01*
X67661Y2817817D01*
X86819Y2798658D01*
X110283Y2785111D01*
X136454Y2778099D01*
X163548D01*
X189719Y2785111D01*
X213183Y2798658D01*
X229559Y2815035D01*
X661308D01*
X868340Y2608002D01*
X882002Y2597519D01*
X897911Y2590929D01*
X891666Y2551862D01*
X694416D01*
X677343Y2549615D01*
X661434Y2543025D01*
X647772Y2532542D01*
X554193Y2438963D01*
X229559D01*
X213183Y2455339D01*
X189719Y2468886D01*
X163548Y2475899D01*
X136454D01*
X110283Y2468886D01*
X86819Y2455339D01*
X67661Y2436181D01*
X54113Y2412717D01*
X47101Y2386546D01*
Y2359452D01*
X54113Y2333281D01*
X67661Y2309817D01*
X86819Y2290658D01*
X110283Y2277111D01*
X136454Y2270099D01*
X163548D01*
X189719Y2277111D01*
X213183Y2290658D01*
X229559Y2307035D01*
X581516D01*
X598589Y2309282D01*
X614499Y2315872D01*
X628160Y2326355D01*
X642250Y2340445D01*
X645166Y2340004D01*
X680281Y2321907D01*
Y2311291D01*
X686339Y2288681D01*
X698043Y2268409D01*
X714595Y2251857D01*
X734866Y2240154D01*
X757477Y2234095D01*
X780884D01*
X803495Y2240154D01*
X823766Y2251857D01*
X828940Y2257031D01*
X1926793D01*
X2032061Y2151763D01*
X2019688Y2130331D01*
X2012846Y2104796D01*
Y2078360D01*
X2019688Y2052825D01*
X2032906Y2029931D01*
X2051599Y2011238D01*
X2074493Y1998020D01*
X2100028Y1991178D01*
X2126464D01*
X2151999Y1998020D01*
X2174893Y2011238D01*
X2188138Y2024484D01*
X2457249D01*
X2473467Y2015120D01*
X2495187Y2009300D01*
X2517673D01*
X2539393Y2015120D01*
X2558867Y2026363D01*
X2574767Y2042263D01*
X2586010Y2061737D01*
X2591830Y2083457D01*
Y2105943D01*
X2586010Y2127663D01*
X2574767Y2147137D01*
X2558867Y2163037D01*
X2539393Y2174280D01*
X2517673Y2180100D01*
X2495187D01*
X2473467Y2174280D01*
X2453994Y2163037D01*
X2447369Y2156412D01*
X2190398D01*
X2174893Y2171918D01*
X2165816Y2177158D01*
Y2177259D01*
X2163569Y2194332D01*
X2156979Y2210241D01*
X2146496Y2223903D01*
X2000760Y2369639D01*
X1987099Y2380122D01*
X1995509Y2419934D01*
X3074767D01*
X3091840Y2422181D01*
X3107749Y2428771D01*
X3121411Y2439254D01*
X3289382Y2607225D01*
X3299865Y2620887D01*
X3306455Y2636796D01*
X3308703Y2653869D01*
Y3037165D01*
X3306455Y3054238D01*
X3299865Y3070147D01*
X3289382Y3083809D01*
X3200846Y3172344D01*
X3187185Y3182828D01*
X3171275Y3189417D01*
X3154202Y3191665D01*
X3063130D01*
X3053104Y3201691D01*
X3033630Y3212934D01*
X3011910Y3218754D01*
X2989424D01*
X2967704Y3212934D01*
X2948230Y3201691D01*
X2932330Y3185791D01*
X2921087Y3166317D01*
X2915267Y3144597D01*
Y3122111D01*
X2921087Y3100391D01*
X2932330Y3080917D01*
X2948230Y3065017D01*
X2967704Y3053774D01*
X2989424Y3047954D01*
X3011910D01*
X3033630Y3053774D01*
X3043957Y3059736D01*
X3126879D01*
X3176774Y3009842D01*
Y2681192D01*
X3047444Y2551862D01*
X1581700D01*
X1575456Y2590929D01*
X1591365Y2597519D01*
X1605027Y2608002D01*
X1651890Y2654865D01*
X1662373Y2668527D01*
X1668962Y2684436D01*
X1671210Y2701509D01*
Y2777555D01*
X1681268Y2787614D01*
X1783223D01*
X1797599Y2773238D01*
X1820493Y2760020D01*
X1846028Y2753178D01*
X1872464D01*
X1897999Y2760020D01*
X1920893Y2773238D01*
X1939586Y2791931D01*
X1952804Y2814825D01*
X1959646Y2840360D01*
Y2866796D01*
X1952804Y2892331D01*
X1939586Y2915225D01*
X1925210Y2929601D01*
Y3071595D01*
X1922962Y3088668D01*
X1916373Y3104577D01*
X1905890Y3118239D01*
X1677104Y3347025D01*
Y3568930D01*
X1677939Y3569766D01*
X1689182Y3589239D01*
X1695002Y3610960D01*
Y3633446D01*
X1689182Y3655166D01*
X1677939Y3674639D01*
X1662039Y3690539D01*
X1642565Y3701783D01*
X1620845Y3707602D01*
D02*
G37*
G36*
X2973010Y2940572D02*
Y2868262D01*
X3045319D01*
X3039890Y2888525D01*
X3028647Y2907999D01*
X3012747Y2923899D01*
X2993273Y2935142D01*
X2973010Y2940572D01*
D02*
G37*
G36*
X2947610Y2940571D02*
X2927347Y2935142D01*
X2907873Y2923899D01*
X2891973Y2907999D01*
X2880730Y2888525D01*
X2875301Y2868262D01*
X2947610D01*
Y2940571D01*
D02*
G37*
G36*
Y2842862D02*
X2875300D01*
X2880730Y2822599D01*
X2891973Y2803125D01*
X2907873Y2787225D01*
X2927347Y2775982D01*
X2947610Y2770552D01*
Y2842862D01*
D02*
G37*
G36*
X3045320D02*
X2973010D01*
Y2770552D01*
X2993273Y2775982D01*
X3012747Y2787225D01*
X3028647Y2803125D01*
X3039890Y2822599D01*
X3045320Y2842862D01*
D02*
G37*
G36*
X163548Y2729899D02*
X162701D01*
Y2639699D01*
X252901D01*
Y2640546D01*
X245889Y2666717D01*
X232341Y2690181D01*
X213183Y2709339D01*
X189719Y2722886D01*
X163548Y2729899D01*
D02*
G37*
G36*
X137301D02*
X136454D01*
X110283Y2722886D01*
X86819Y2709339D01*
X67661Y2690181D01*
X54113Y2666717D01*
X47101Y2640546D01*
Y2639699D01*
X137301D01*
Y2729899D01*
D02*
G37*
G36*
X252901Y2614299D02*
X162701D01*
Y2524099D01*
X163548D01*
X189719Y2531111D01*
X213183Y2544658D01*
X232341Y2563817D01*
X245889Y2587281D01*
X252901Y2613452D01*
Y2614299D01*
D02*
G37*
G36*
X137301D02*
X47101D01*
Y2613452D01*
X54113Y2587281D01*
X67661Y2563817D01*
X86819Y2544658D01*
X110283Y2531111D01*
X136454Y2524099D01*
X137301D01*
Y2614299D01*
D02*
G37*
G36*
X1618464Y2191978D02*
X1592028D01*
X1566493Y2185136D01*
X1543599Y2171918D01*
X1529223Y2157542D01*
X1451646D01*
Y2191978D01*
X1250846D01*
Y2084466D01*
X970619Y1804238D01*
X966500Y1806616D01*
X944780Y1812436D01*
X922294D01*
X900574Y1806616D01*
X881101Y1795373D01*
X878728Y1793000D01*
X656436D01*
X537794Y1911643D01*
X524133Y1922126D01*
X508223Y1928715D01*
X491150Y1930963D01*
X229559D01*
X213183Y1947339D01*
X189719Y1960886D01*
X163548Y1967899D01*
X136454D01*
X110283Y1960886D01*
X86819Y1947339D01*
X67661Y1928181D01*
X54113Y1904717D01*
X47101Y1878546D01*
Y1851452D01*
X54113Y1825281D01*
X67661Y1801817D01*
X86819Y1782658D01*
X110283Y1769111D01*
X136454Y1762099D01*
X163548D01*
X189719Y1769111D01*
X213183Y1782658D01*
X229559Y1799035D01*
X463827D01*
X582469Y1680392D01*
X596131Y1669909D01*
X612040Y1663320D01*
X629113Y1661072D01*
X878728D01*
X881101Y1658699D01*
X900574Y1647456D01*
X922294Y1641636D01*
X944780D01*
X966500Y1647456D01*
X985974Y1658699D01*
X996249Y1668975D01*
X1011430Y1670973D01*
X1027340Y1677563D01*
X1041001Y1688046D01*
X1344133Y1991178D01*
X1451646D01*
Y2025614D01*
X1529223D01*
X1543599Y2011238D01*
X1566493Y1998020D01*
X1592028Y1991178D01*
X1618464D01*
X1643999Y1998020D01*
X1666893Y2011238D01*
X1685586Y2029931D01*
X1698804Y2052825D01*
X1705646Y2078360D01*
Y2104796D01*
X1698804Y2130331D01*
X1685586Y2153225D01*
X1666893Y2171918D01*
X1643999Y2185136D01*
X1618464Y2191978D01*
D02*
G37*
G36*
X163548Y2221899D02*
X162701D01*
Y2131699D01*
X252901D01*
Y2132546D01*
X245889Y2158717D01*
X232341Y2182181D01*
X213183Y2201339D01*
X189719Y2214886D01*
X163548Y2221899D01*
D02*
G37*
G36*
X137301D02*
X136454D01*
X110283Y2214886D01*
X86819Y2201339D01*
X67661Y2182181D01*
X54113Y2158717D01*
X47101Y2132546D01*
Y2131699D01*
X137301D01*
Y2221899D01*
D02*
G37*
G36*
X3019130Y2179710D02*
Y2107400D01*
X3091440D01*
X3086010Y2127663D01*
X3074767Y2147137D01*
X3058867Y2163037D01*
X3039393Y2174280D01*
X3019130Y2179710D01*
D02*
G37*
G36*
X2993730Y2179709D02*
X2973467Y2174280D01*
X2953994Y2163037D01*
X2938093Y2147137D01*
X2926850Y2127663D01*
X2921421Y2107400D01*
X2993730D01*
Y2179709D01*
D02*
G37*
G36*
X252901Y2106299D02*
X162701D01*
Y2016099D01*
X163548D01*
X189719Y2023111D01*
X213183Y2036658D01*
X232341Y2055817D01*
X245889Y2079281D01*
X252901Y2105452D01*
Y2106299D01*
D02*
G37*
G36*
X137301D02*
X47101D01*
Y2105452D01*
X54113Y2079281D01*
X67661Y2055817D01*
X86819Y2036658D01*
X110283Y2023111D01*
X136454Y2016099D01*
X137301D01*
Y2106299D01*
D02*
G37*
G36*
X2993730Y2082000D02*
X2921421D01*
X2926850Y2061737D01*
X2938093Y2042263D01*
X2953994Y2026363D01*
X2973467Y2015120D01*
X2993730Y2009690D01*
Y2082000D01*
D02*
G37*
G36*
X3091440D02*
X3019130D01*
Y2009690D01*
X3039393Y2015120D01*
X3058867Y2026363D01*
X3074767Y2042263D01*
X3086010Y2061737D01*
X3091440Y2082000D01*
D02*
G37*
G36*
X163548Y1713899D02*
X162701D01*
Y1623699D01*
X252901D01*
Y1624546D01*
X245889Y1650717D01*
X232341Y1674181D01*
X213183Y1693339D01*
X189719Y1706886D01*
X163548Y1713899D01*
D02*
G37*
G36*
X137301D02*
X136454D01*
X110283Y1706886D01*
X86819Y1693339D01*
X67661Y1674181D01*
X54113Y1650717D01*
X47101Y1624546D01*
Y1623699D01*
X137301D01*
Y1713899D01*
D02*
G37*
G36*
X252901Y1598299D02*
X162701D01*
Y1508099D01*
X163548D01*
X189719Y1515111D01*
X213183Y1528658D01*
X232341Y1547817D01*
X245889Y1571281D01*
X252901Y1597452D01*
Y1598299D01*
D02*
G37*
G36*
X137301D02*
X47101D01*
Y1597452D01*
X54113Y1571281D01*
X67661Y1547817D01*
X86819Y1528658D01*
X110283Y1515111D01*
X136454Y1508099D01*
X137301D01*
Y1598299D01*
D02*
G37*
G36*
X1613459Y1730558D02*
X1590973D01*
X1569253Y1724738D01*
X1549779Y1713495D01*
X1533879Y1697595D01*
X1522636Y1678121D01*
X1516816Y1656401D01*
Y1653046D01*
X1411432Y1547662D01*
X750097D01*
X733024Y1545414D01*
X717115Y1538825D01*
X703454Y1528342D01*
X598075Y1422963D01*
X229559D01*
X213183Y1439339D01*
X189719Y1452886D01*
X163548Y1459899D01*
X136454D01*
X110283Y1452886D01*
X86819Y1439339D01*
X67661Y1420181D01*
X54113Y1396717D01*
X47101Y1370546D01*
Y1343452D01*
X54113Y1317281D01*
X67661Y1293817D01*
X86819Y1274658D01*
X110283Y1261111D01*
X136454Y1254099D01*
X163548D01*
X189719Y1261111D01*
X213183Y1274658D01*
X229559Y1291035D01*
X625398D01*
X642471Y1293282D01*
X658380Y1299872D01*
X672042Y1310355D01*
X777421Y1415734D01*
X1438756D01*
X1455828Y1417981D01*
X1471738Y1424571D01*
X1485399Y1435054D01*
X1610103Y1559758D01*
X1613459D01*
X1635179Y1565578D01*
X1654653Y1576821D01*
X1670553Y1592721D01*
X1681796Y1612195D01*
X1687616Y1633915D01*
Y1656401D01*
X1681796Y1678121D01*
X1670553Y1697595D01*
X1654653Y1713495D01*
X1635179Y1724738D01*
X1613459Y1730558D01*
D02*
G37*
G36*
X3121067Y1721732D02*
X2670364D01*
Y1221046D01*
X3121067D01*
Y1721732D01*
D02*
G37*
G36*
X2384279Y1292585D02*
Y1220276D01*
X2456588D01*
X2451158Y1240539D01*
X2439915Y1260012D01*
X2424015Y1275912D01*
X2404542Y1287155D01*
X2384279Y1292585D01*
D02*
G37*
G36*
X2358879D02*
X2338615Y1287155D01*
X2319142Y1275912D01*
X2303242Y1260012D01*
X2291998Y1240539D01*
X2286569Y1220276D01*
X2358879D01*
Y1292585D01*
D02*
G37*
G36*
X2456588Y1194876D02*
X2384279D01*
Y1122566D01*
X2404542Y1127995D01*
X2424015Y1139239D01*
X2439915Y1155139D01*
X2451158Y1174612D01*
X2456588Y1194876D01*
D02*
G37*
G36*
X2358879D02*
X2286569D01*
X2291998Y1174612D01*
X2303242Y1155139D01*
X2319142Y1139239D01*
X2338615Y1127995D01*
X2358879Y1122566D01*
Y1194876D01*
D02*
G37*
G36*
X2104479Y1730558D02*
X2081993D01*
X2060272Y1724738D01*
X2040799Y1713495D01*
X2024899Y1697595D01*
X2013656Y1678121D01*
X2007836Y1656401D01*
Y1653046D01*
X1812079Y1457289D01*
X1801596Y1443627D01*
X1795006Y1427718D01*
X1792758Y1410645D01*
Y1128988D01*
X1594328Y930558D01*
X1590973D01*
X1569253Y924738D01*
X1549779Y913495D01*
X1547406Y911122D01*
X1342739D01*
X1018937Y1234924D01*
Y1238279D01*
X1013117Y1259999D01*
X1001874Y1279473D01*
X985974Y1295373D01*
X966500Y1306616D01*
X944780Y1312436D01*
X922294D01*
X900574Y1306616D01*
X881101Y1295373D01*
X865200Y1279473D01*
X853957Y1259999D01*
X848137Y1238279D01*
Y1215793D01*
X853957Y1194073D01*
X865200Y1174599D01*
X881101Y1158699D01*
X900574Y1147456D01*
X922294Y1141636D01*
X925650D01*
X1268772Y798514D01*
X1282433Y788031D01*
X1298343Y781441D01*
X1315415Y779194D01*
X1547406D01*
X1549779Y776821D01*
X1569253Y765578D01*
X1590973Y759758D01*
X1613459D01*
X1635179Y765578D01*
X1654653Y776821D01*
X1670553Y792721D01*
X1681796Y812195D01*
X1687616Y833915D01*
Y837270D01*
X1905367Y1055021D01*
X1915850Y1068683D01*
X1922439Y1084592D01*
X1924687Y1101665D01*
Y1383322D01*
X2101123Y1559758D01*
X2104479D01*
X2126199Y1565578D01*
X2145672Y1576821D01*
X2161573Y1592721D01*
X2172816Y1612195D01*
X2178635Y1633915D01*
Y1656401D01*
X2172816Y1678121D01*
X2161573Y1697595D01*
X2145672Y1713495D01*
X2126199Y1724738D01*
X2104479Y1730558D01*
D02*
G37*
G36*
X1872464Y2191978D02*
X1846028D01*
X1820493Y2185136D01*
X1797599Y2171918D01*
X1778906Y2153225D01*
X1765688Y2130331D01*
X1758846Y2104796D01*
Y2078360D01*
X1765688Y2052825D01*
X1778906Y2029931D01*
X1793281Y2015555D01*
Y1922126D01*
X1795529Y1905053D01*
X1802119Y1889144D01*
X1812602Y1875482D01*
X1877014Y1811070D01*
X1890675Y1800587D01*
X1906584Y1793997D01*
X1923657Y1791750D01*
X2227826D01*
X2289260Y1730317D01*
X2286179Y1718819D01*
Y1696332D01*
X2291998Y1674612D01*
X2303242Y1655139D01*
X2305614Y1652766D01*
Y1555665D01*
X2046592Y1296643D01*
X2036109Y1282981D01*
X2029519Y1267072D01*
X2027271Y1249999D01*
Y899967D01*
X2024899Y897595D01*
X2013656Y878121D01*
X2007836Y856401D01*
Y833915D01*
X2013656Y812195D01*
X2024899Y792721D01*
X2040799Y776821D01*
X2060272Y765578D01*
X2081993Y759758D01*
X2104479D01*
X2126199Y765578D01*
X2145672Y776821D01*
X2161573Y792721D01*
X2172816Y812195D01*
X2178635Y833915D01*
Y856401D01*
X2172816Y878121D01*
X2161573Y897595D01*
X2159200Y899967D01*
Y1222675D01*
X2418222Y1481698D01*
X2428705Y1495359D01*
X2435295Y1511269D01*
X2437543Y1528342D01*
Y1652766D01*
X2439915Y1655139D01*
X2451158Y1674612D01*
X2456978Y1696332D01*
Y1718819D01*
X2451158Y1740539D01*
X2439915Y1760012D01*
X2424015Y1775912D01*
X2423392Y1776273D01*
X2421052Y1781921D01*
X2410569Y1795583D01*
X2301793Y1904358D01*
X2288132Y1914841D01*
X2272223Y1921431D01*
X2255150Y1923678D01*
X1950981D01*
X1925210Y1949449D01*
Y2015555D01*
X1939586Y2029931D01*
X1952804Y2052825D01*
X1959646Y2078360D01*
Y2104796D01*
X1952804Y2130331D01*
X1939586Y2153225D01*
X1920893Y2171918D01*
X1897999Y2185136D01*
X1872464Y2191978D01*
D02*
G37*
%LPD*%
D10*
X150001Y1864999D02*
X491150D01*
X629113Y1727036D02*
X933537D01*
X491150Y1864999D02*
X629113Y1727036D01*
X933537D02*
X941191Y1734690D01*
X994357D01*
X1351246Y2091578D02*
X1605246D01*
X994357Y1734690D02*
X1351246Y2091578D01*
X1438756Y1481698D02*
X1602216Y1645158D01*
X750097Y1481698D02*
X1438756D01*
X625398Y1356999D02*
X750097Y1481698D01*
X150001Y1356999D02*
X625398D01*
X933537Y1227036D02*
X1315415Y845158D01*
X1602216D01*
X1858723Y1410645D02*
X2093236Y1645158D01*
X1602216Y845158D02*
X1858723Y1101665D01*
Y1410645D01*
X3074767Y2485898D02*
X3242738Y2653869D01*
Y3037165D01*
X2999489Y3932176D02*
X3000667Y3933354D01*
X2454849Y3932176D02*
X2999489D01*
X2453670Y3930997D02*
X2454849Y3932176D01*
X2446017Y3923343D02*
X2453670Y3930997D01*
X2410743Y3923343D02*
X2446017D01*
X2109602Y3622203D02*
X2410743Y3923343D01*
X1923657Y1857714D02*
X2255150D01*
X2363925Y1748939D01*
X1859246Y1922126D02*
X1923657Y1857714D01*
X1859246Y1922126D02*
Y2091578D01*
X2363925Y1715229D02*
Y1748939D01*
Y1715229D02*
X2371578Y1707575D01*
X1605246Y2701509D02*
Y2853578D01*
X1558383Y2654646D02*
X1605246Y2701509D01*
X914984Y2654646D02*
X1558383D01*
X688631Y2880999D02*
X914984Y2654646D01*
X581516Y2372999D02*
X694416Y2485898D01*
X3074767D01*
X2099852Y2104972D02*
Y2177259D01*
X769181Y2322995D02*
X1954116D01*
X2099852Y2104972D02*
X2113246Y2091578D01*
X1954116Y2322995D02*
X2099852Y2177259D01*
X2459318Y2854570D02*
X2460310Y2855562D01*
X2114238Y2854570D02*
X2459318D01*
X2113246Y2853578D02*
X2114238Y2854570D01*
X2114376Y2090448D02*
X2518515D01*
X150001Y2372999D02*
X581516D01*
X998604Y2860240D02*
Y3008165D01*
X150001Y3388999D02*
X617770D01*
X998604Y3008165D01*
Y2860240D02*
X1001934Y2856909D01*
X150001Y2880999D02*
X688631D01*
X152072Y3645069D02*
X731049D01*
X750097Y3664118D02*
X762815D01*
X731049Y3645069D02*
X750097Y3664118D01*
X150001Y3642999D02*
X152072Y3645069D01*
X3154202Y3125701D02*
X3242738Y3037165D01*
X3008321Y3125701D02*
X3154202D01*
X3000667Y3133354D02*
X3008321Y3125701D01*
X2456990Y2858882D02*
X2460310Y2855562D01*
X2456990Y2858882D02*
Y3127677D01*
X2453670Y3130997D02*
X2456990Y3127677D01*
X1859246Y2853578D02*
Y3071595D01*
X1612676Y3318165D02*
X1859246Y3071595D01*
X1611139Y3319702D02*
X1612676Y3318165D01*
X1611139Y3319702D02*
Y3620665D01*
X1609602Y3622203D02*
X1611139Y3620665D01*
X1602214Y1645159D02*
X1602216Y1645158D01*
X1001934Y2856909D02*
X1347915D01*
X1351246Y2853578D01*
X2093236Y845158D02*
Y1249999D01*
X2371578Y1528342D01*
Y1707575D01*
X1343605Y2861218D02*
X1351246Y2853578D01*
X1605246D02*
X1859246D01*
D11*
X1351246Y2091578D02*
D03*
D12*
X1605246D02*
D03*
X1859246D02*
D03*
X2113246D02*
D03*
X1351246Y2853578D02*
D03*
X1605246D02*
D03*
X1859246D02*
D03*
X2113246D02*
D03*
D13*
X933537Y1227036D02*
D03*
Y1727036D02*
D03*
X1602216Y845158D02*
D03*
Y1645158D02*
D03*
X998604Y3360240D02*
D03*
Y2860240D02*
D03*
X2960310Y2855562D02*
D03*
X2460310D02*
D03*
X2371578Y1207575D02*
D03*
Y1707575D02*
D03*
X3000667Y3933354D02*
D03*
Y3133354D02*
D03*
X2453670Y3130997D02*
D03*
Y3930997D02*
D03*
X2093236Y845158D02*
D03*
Y1645158D02*
D03*
X3006430Y2094700D02*
D03*
X2506430D02*
D03*
X1609602Y3622203D02*
D03*
X2109602D02*
D03*
D14*
X150001Y1356999D02*
D03*
Y1610999D02*
D03*
Y1864999D02*
D03*
Y2118999D02*
D03*
Y2372999D02*
D03*
Y2626999D02*
D03*
Y2880999D02*
D03*
Y3134999D02*
D03*
Y3388999D02*
D03*
D15*
Y3642999D02*
D03*
D16*
X577898Y3123882D02*
D03*
X344775Y2112912D02*
D03*
X769181Y2322995D02*
D03*
X588808Y2630686D02*
D03*
Y2112912D02*
D03*
X762815Y3664118D02*
D03*
X344775Y1552699D02*
D03*
X372361Y2630686D02*
D03*
X577898Y3878400D02*
D03*
X372361Y3123882D02*
D03*
D17*
X3045667Y1646332D02*
X2995683D01*
Y1596349D01*
X3045667D01*
Y1646332D01*
Y1396413D02*
Y1296446D01*
Y1346429D01*
X2745764D01*
X2795748Y1396413D01*
D18*
X135123Y3883960D02*
X84340D01*
X109732D01*
Y4036310D01*
X135123Y4010919D01*
%TF.MD5,525f09aefbe86c47fce888e0cfafbd1f*%
M02*
