%TF.GenerationSoftware,Altium Limited,Altium Designer,25.2.1 (25)*%
G04 Layer_Physical_Order=1*
G04 Layer_Color=255*
%FSLAX45Y45*%
%MOMM*%
%TF.SameCoordinates,03B5D1EE-3DB5-40E3-92DE-3EA2DCE1FA9C*%
%TF.FilePolarity,Positive*%
%TF.FileFunction,Copper,L1,Top,Signal*%
%TF.Part,Single*%
G01*
G75*
%TA.AperFunction,Conductor*%
%ADD10C,0.80000*%
%TA.AperFunction,ComponentPad*%
%ADD11R,1.50000X1.50000*%
%ADD12C,1.50000*%
%ADD13C,1.20000*%
%ADD14C,1.55000*%
%ADD15R,1.55000X1.55000*%
%TA.AperFunction,ViaPad*%
%ADD16C,1.27000*%
D10*
X342875Y2091201D02*
X364586Y2112912D01*
X342875Y1554599D02*
Y2091201D01*
X364586Y2112912D02*
X366485D01*
X577898Y3123882D02*
Y3878400D01*
X762815Y3664118D02*
X769181Y3657752D01*
Y2322995D02*
Y3657752D01*
X372361Y2630686D02*
Y3123882D01*
X588808Y2112912D02*
Y2630686D01*
D11*
X1351246Y2091578D02*
D03*
D12*
X1605246D02*
D03*
X1859246D02*
D03*
X2113246D02*
D03*
X1351246Y2853578D02*
D03*
X1605246D02*
D03*
X1859246D02*
D03*
X2113246D02*
D03*
D13*
X933537Y1227036D02*
D03*
Y1727036D02*
D03*
X1602216Y845158D02*
D03*
Y1645158D02*
D03*
X998604Y3360240D02*
D03*
Y2860240D02*
D03*
X2960310Y2855562D02*
D03*
X2460310D02*
D03*
X2371578Y1207575D02*
D03*
Y1707575D02*
D03*
X3000667Y3933354D02*
D03*
Y3133354D02*
D03*
X2453670Y3130997D02*
D03*
Y3930997D02*
D03*
X2093236Y845158D02*
D03*
Y1645158D02*
D03*
X3006430Y2094700D02*
D03*
X2506430D02*
D03*
X1609602Y3622203D02*
D03*
X2109602D02*
D03*
D14*
X150001Y1356999D02*
D03*
Y1610999D02*
D03*
Y1864999D02*
D03*
Y2118999D02*
D03*
Y2372999D02*
D03*
Y2626999D02*
D03*
Y2880999D02*
D03*
Y3134999D02*
D03*
Y3388999D02*
D03*
D15*
Y3642999D02*
D03*
D16*
X577898Y3123882D02*
D03*
X344775Y2112912D02*
D03*
X769181Y2322995D02*
D03*
X588808Y2630686D02*
D03*
Y2112912D02*
D03*
X762815Y3664118D02*
D03*
X344775Y1552699D02*
D03*
X372361Y2630686D02*
D03*
X577898Y3878400D02*
D03*
X372361Y3123882D02*
D03*
%TF.MD5,e3f77f8db43a42c1fa8ebfba1e064e99*%
M02*
