%TF.GenerationSoftware,Altium Limited,Altium Designer,25.2.1 (25)*%
G04 Layer_Color=255*
%FSLAX45Y45*%
%MOMM*%
%TF.SameCoordinates,2170BF73-9D4C-4C4A-8FE2-E0CFDA2738D4*%
%TF.FilePolarity,Positive*%
%TF.FileFunction,Pads,Top*%
%TF.Part,Single*%
G01*
G75*
%TA.AperFunction,ComponentPad*%
%ADD11C,1.57000*%
%ADD12R,1.57000X1.57000*%
%ADD13C,1.20000*%
%ADD14R,1.50000X1.50000*%
%ADD15C,1.50000*%
%ADD16C,1.55000*%
%ADD17R,1.55000X1.55000*%
%ADD18R,1.30000X1.30000*%
%ADD19C,1.30000*%
%ADD20R,1.30000X1.30000*%
%ADD21R,1.20000X1.20000*%
%ADD22R,1.20000X1.20000*%
D11*
X4140200Y3850640D02*
D03*
X2761264Y1443765D02*
D03*
X1595164Y2231899D02*
D03*
X1849164D02*
D03*
X2103164D02*
D03*
X2357164D02*
D03*
X2611164D02*
D03*
X2865164D02*
D03*
X3119164D02*
D03*
X3373164D02*
D03*
X3627164D02*
D03*
X3373164Y3501899D02*
D03*
X3119164D02*
D03*
X2865164D02*
D03*
X2611164D02*
D03*
X2357164D02*
D03*
X2103164D02*
D03*
X1849164D02*
D03*
X1595164D02*
D03*
X1341164D02*
D03*
D12*
X3886200Y3850640D02*
D03*
X3015264Y1443765D02*
D03*
X1341164Y2231899D02*
D03*
X3627164Y3501899D02*
D03*
D13*
X4643581Y360074D02*
D03*
X3843581D02*
D03*
X3792164Y587682D02*
D03*
Y1387682D02*
D03*
X5325995Y1555927D02*
D03*
Y755927D02*
D03*
X4068702Y899559D02*
D03*
Y1399559D02*
D03*
X5626262Y1006099D02*
D03*
Y1506099D02*
D03*
X5296058Y505992D02*
D03*
X4796058D02*
D03*
X4102616Y1901059D02*
D03*
X3602616D02*
D03*
X3526656Y840927D02*
D03*
Y1640927D02*
D03*
X1037864Y3082341D02*
D03*
Y2282341D02*
D03*
X1868776Y2519769D02*
D03*
X2668776D02*
D03*
X1658658Y2768920D02*
D03*
X2458658D02*
D03*
X1278010Y3015021D02*
D03*
X2078010D02*
D03*
X4965860Y3024792D02*
D03*
X4465860D02*
D03*
X2281455Y4138039D02*
D03*
Y4638039D02*
D03*
X4965860Y2702945D02*
D03*
X4465860D02*
D03*
X1376517Y4152486D02*
D03*
X1876517D02*
D03*
X1244700Y4424680D02*
D03*
X2044700D02*
D03*
X3972014Y2227949D02*
D03*
Y3027949D02*
D03*
X2878009Y1937624D02*
D03*
X2078010D02*
D03*
X1630919Y5469299D02*
D03*
X2430919D02*
D03*
X3180419Y4585603D02*
D03*
X3023119Y5776990D02*
D03*
X2223119D02*
D03*
X5476815Y4876390D02*
D03*
X4676815D02*
D03*
X5478680Y4625340D02*
D03*
X4678680D02*
D03*
X2047457Y4673700D02*
D03*
X1247457D02*
D03*
X607060Y5240400D02*
D03*
X1449157Y5776990D02*
D03*
X1949157D02*
D03*
X5093100Y5402480D02*
D03*
X5601100Y5656480D02*
D03*
X3754200Y4694045D02*
D03*
X4254200D02*
D03*
X5468620Y5142143D02*
D03*
X4668620D02*
D03*
X4787900Y4081629D02*
D03*
X5287900D02*
D03*
X4511039Y4075916D02*
D03*
Y4875916D02*
D03*
D14*
X5075358Y818035D02*
D03*
D15*
Y1072035D02*
D03*
Y1326035D02*
D03*
Y1580035D02*
D03*
X4313358Y818035D02*
D03*
Y1072035D02*
D03*
Y1326035D02*
D03*
Y1580035D02*
D03*
D16*
X300000Y1222000D02*
D03*
Y1476000D02*
D03*
Y1730000D02*
D03*
Y1984000D02*
D03*
Y2238000D02*
D03*
Y2492000D02*
D03*
Y2746000D02*
D03*
Y3000000D02*
D03*
Y3254000D02*
D03*
Y3508000D02*
D03*
Y3762000D02*
D03*
Y4016000D02*
D03*
Y4270000D02*
D03*
Y4524000D02*
D03*
D17*
Y4778000D02*
D03*
D18*
X2835019Y5277407D02*
D03*
D19*
Y5477407D02*
D03*
X5578100Y3581400D02*
D03*
X1879049Y5086220D02*
D03*
D20*
X5378100Y3581400D02*
D03*
X1679049Y5086220D02*
D03*
D21*
X2680419Y4585603D02*
D03*
X4331100Y5656480D02*
D03*
D22*
X607060Y5740400D02*
D03*
%TF.MD5,233b848f9da39a8aad7c4268c4db41ac*%
M02*
