%TF.GenerationSoftware,Altium Limited,Altium Designer,25.2.1 (25)*%
G04 Layer_Color=32896*
%FSLAX45Y45*%
%MOMM*%
%TF.SameCoordinates,2170BF73-9D4C-4C4A-8FE2-E0CFDA2738D4*%
%TF.FilePolarity,Positive*%
%TF.FileFunction,Legend,Bot*%
%TF.Part,Single*%
G01*
G75*
%TA.AperFunction,NonConductor*%
%ADD30C,0.25400*%
%ADD31C,0.25000*%
%ADD32C,0.20000*%
G36*
X4268777Y5660844D02*
X4269794Y5659365D01*
X4270996Y5657885D01*
X4272105Y5656591D01*
X4273214Y5655481D01*
X4274047Y5654557D01*
X4274416Y5654280D01*
X4274694Y5654002D01*
X4274786Y5653910D01*
X4274879Y5653817D01*
X4276820Y5652245D01*
X4278762Y5650766D01*
X4280611Y5649472D01*
X4282460Y5648455D01*
X4284032Y5647530D01*
X4284679Y5647160D01*
X4285234Y5646883D01*
X4285696Y5646606D01*
X4286066Y5646513D01*
X4286251Y5646328D01*
X4286343D01*
Y5638747D01*
X4284956Y5639302D01*
X4283570Y5639949D01*
X4282183Y5640596D01*
X4280888Y5641243D01*
X4279779Y5641798D01*
X4278854Y5642260D01*
X4278300Y5642630D01*
X4278207Y5642723D01*
X4278115D01*
X4276450Y5643740D01*
X4274971Y5644757D01*
X4273677Y5645681D01*
X4272660Y5646513D01*
X4271735Y5647160D01*
X4271180Y5647715D01*
X4270718Y5648085D01*
X4270626Y5648177D01*
Y5598159D01*
X4262767D01*
Y5662416D01*
X4267852D01*
X4268777Y5660844D01*
D02*
G37*
G36*
X4353559Y5625156D02*
Y5623307D01*
X4353466Y5621550D01*
X4353374Y5619886D01*
X4353189Y5618314D01*
X4353004Y5616927D01*
X4352819Y5615633D01*
X4352542Y5614431D01*
X4352357Y5613322D01*
X4352172Y5612304D01*
X4351895Y5611472D01*
X4351710Y5610733D01*
X4351525Y5610178D01*
X4351340Y5609716D01*
X4351247Y5609346D01*
X4351155Y5609161D01*
Y5609069D01*
X4350138Y5607035D01*
X4348843Y5605185D01*
X4347549Y5603706D01*
X4346162Y5602412D01*
X4344960Y5601395D01*
X4343943Y5600655D01*
X4343573Y5600470D01*
X4343296Y5600285D01*
X4343111Y5600100D01*
X4343019D01*
X4340707Y5599083D01*
X4338303Y5598344D01*
X4335807Y5597789D01*
X4333496Y5597419D01*
X4332479Y5597327D01*
X4331462Y5597234D01*
X4330537Y5597142D01*
X4329798D01*
X4329150Y5597049D01*
X4328318D01*
X4324990Y5597234D01*
X4323511Y5597419D01*
X4322124Y5597604D01*
X4320737Y5597881D01*
X4319535Y5598159D01*
X4318425Y5598436D01*
X4317408Y5598806D01*
X4316484Y5599176D01*
X4315744Y5599453D01*
X4315005Y5599730D01*
X4314450Y5600008D01*
X4313988Y5600285D01*
X4313710Y5600378D01*
X4313525Y5600563D01*
X4313433D01*
X4311399Y5601949D01*
X4309735Y5603521D01*
X4308440Y5605000D01*
X4307331Y5606480D01*
X4306499Y5607774D01*
X4305944Y5608791D01*
X4305759Y5609161D01*
X4305574Y5609438D01*
X4305482Y5609623D01*
Y5609716D01*
X4305112Y5610825D01*
X4304742Y5612027D01*
X4304187Y5614523D01*
X4303817Y5617112D01*
X4303540Y5619609D01*
X4303448Y5620718D01*
X4303355Y5621827D01*
Y5622752D01*
X4303263Y5623584D01*
Y5624231D01*
Y5624694D01*
Y5625063D01*
Y5625156D01*
Y5662138D01*
X4311769D01*
Y5625156D01*
Y5623029D01*
X4311954Y5620995D01*
X4312138Y5619239D01*
X4312416Y5617574D01*
X4312693Y5616095D01*
X4313063Y5614708D01*
X4313340Y5613506D01*
X4313710Y5612489D01*
X4314080Y5611657D01*
X4314450Y5610825D01*
X4314820Y5610270D01*
X4315097Y5609716D01*
X4315374Y5609346D01*
X4315559Y5609069D01*
X4315652Y5608976D01*
X4315744Y5608884D01*
X4316576Y5608144D01*
X4317501Y5607497D01*
X4319535Y5606480D01*
X4321661Y5605740D01*
X4323880Y5605278D01*
X4325914Y5604908D01*
X4326746Y5604816D01*
X4327579D01*
X4328133Y5604723D01*
X4329058D01*
X4330999Y5604816D01*
X4332756Y5605093D01*
X4334420Y5605370D01*
X4335715Y5605833D01*
X4336824Y5606202D01*
X4337656Y5606480D01*
X4338119Y5606757D01*
X4338303Y5606850D01*
X4339598Y5607682D01*
X4340707Y5608699D01*
X4341632Y5609716D01*
X4342279Y5610640D01*
X4342834Y5611565D01*
X4343296Y5612212D01*
X4343481Y5612674D01*
X4343573Y5612859D01*
X4343851Y5613691D01*
X4344036Y5614523D01*
X4344406Y5616465D01*
X4344683Y5618499D01*
X4344868Y5620533D01*
X4344960Y5622290D01*
Y5623122D01*
X4345053Y5623769D01*
Y5624324D01*
Y5624786D01*
Y5625063D01*
Y5625156D01*
Y5662138D01*
X4353559D01*
Y5625156D01*
D02*
G37*
D30*
X1253446Y5290282D02*
Y5206975D01*
X1236785Y5190314D01*
X1203462D01*
X1186801Y5206975D01*
Y5290282D01*
X1103495Y5190314D02*
Y5290282D01*
X1153479Y5240298D01*
X1086833D01*
D31*
X1462140Y5590299D02*
G03*
X1462140Y5590299I-12500J0D01*
G01*
X3637919Y4851640D02*
G03*
X3637919Y4851640I-12500J0D01*
G01*
D32*
X1295390Y4915049D02*
Y5565549D01*
X944890Y4915049D02*
X1295390D01*
X944890D02*
Y5565549D01*
X1295390D01*
X3779669Y4876390D02*
Y5526890D01*
X4130169D01*
Y4876390D02*
Y5526890D01*
X3779669Y4876390D02*
X4130169D01*
%TF.MD5,4b2a4c15bd628560021d68805a867842*%
M02*
