%TF.GenerationSoftware,Altium Limited,Altium Designer,25.2.1 (25)*%
G04 Layer_Color=8388736*
%FSLAX45Y45*%
%MOMM*%
%TF.SameCoordinates,2170BF73-9D4C-4C4A-8FE2-E0CFDA2738D4*%
%TF.FilePolarity,Positive*%
%TF.FileFunction,Other,Bottom_Assembly*%
%TF.Part,Single*%
G01*
G75*
%TA.AperFunction,NonConductor*%
%ADD32C,0.20000*%
G36*
X1120141Y5268404D02*
Y5266555D01*
X1120049Y5264799D01*
X1119956Y5263135D01*
X1119771Y5261563D01*
X1119587Y5260176D01*
X1119402Y5258882D01*
X1119124Y5257680D01*
X1118939Y5256570D01*
X1118754Y5255553D01*
X1118477Y5254721D01*
X1118292Y5253981D01*
X1118107Y5253427D01*
X1117922Y5252964D01*
X1117830Y5252595D01*
X1117737Y5252410D01*
Y5252317D01*
X1116720Y5250283D01*
X1115426Y5248434D01*
X1114132Y5246955D01*
X1112745Y5245660D01*
X1111543Y5244643D01*
X1110526Y5243904D01*
X1110156Y5243719D01*
X1109879Y5243534D01*
X1109694Y5243349D01*
X1109601D01*
X1107290Y5242332D01*
X1104886Y5241592D01*
X1102390Y5241038D01*
X1100078Y5240668D01*
X1099061Y5240575D01*
X1098044Y5240483D01*
X1097120Y5240390D01*
X1096380D01*
X1095733Y5240298D01*
X1094901D01*
X1091572Y5240483D01*
X1090093Y5240668D01*
X1088706Y5240853D01*
X1087319Y5241130D01*
X1086117Y5241407D01*
X1085008Y5241685D01*
X1083991Y5242055D01*
X1083066Y5242424D01*
X1082327Y5242702D01*
X1081587Y5242979D01*
X1081032Y5243256D01*
X1080570Y5243534D01*
X1080293Y5243626D01*
X1080108Y5243811D01*
X1080015D01*
X1077981Y5245198D01*
X1076317Y5246770D01*
X1075023Y5248249D01*
X1073913Y5249728D01*
X1073081Y5251023D01*
X1072526Y5252040D01*
X1072342Y5252410D01*
X1072157Y5252687D01*
X1072064Y5252872D01*
Y5252964D01*
X1071694Y5254074D01*
X1071325Y5255276D01*
X1070770Y5257772D01*
X1070400Y5260361D01*
X1070123Y5262857D01*
X1070030Y5263967D01*
X1069938Y5265076D01*
Y5266001D01*
X1069845Y5266833D01*
Y5267480D01*
Y5267942D01*
Y5268312D01*
Y5268404D01*
Y5305387D01*
X1078351D01*
Y5268404D01*
Y5266278D01*
X1078536Y5264244D01*
X1078721Y5262487D01*
X1078998Y5260823D01*
X1079276Y5259344D01*
X1079646Y5257957D01*
X1079923Y5256755D01*
X1080293Y5255738D01*
X1080663Y5254906D01*
X1081032Y5254074D01*
X1081402Y5253519D01*
X1081680Y5252964D01*
X1081957Y5252595D01*
X1082142Y5252317D01*
X1082234Y5252225D01*
X1082327Y5252132D01*
X1083159Y5251393D01*
X1084083Y5250745D01*
X1086117Y5249728D01*
X1088244Y5248989D01*
X1090463Y5248526D01*
X1092497Y5248157D01*
X1093329Y5248064D01*
X1094161D01*
X1094716Y5247972D01*
X1095640D01*
X1097582Y5248064D01*
X1099339Y5248342D01*
X1101003Y5248619D01*
X1102297Y5249081D01*
X1103407Y5249451D01*
X1104239Y5249728D01*
X1104701Y5250006D01*
X1104886Y5250098D01*
X1106180Y5250930D01*
X1107290Y5251947D01*
X1108214Y5252964D01*
X1108862Y5253889D01*
X1109416Y5254813D01*
X1109879Y5255461D01*
X1110064Y5255923D01*
X1110156Y5256108D01*
X1110433Y5256940D01*
X1110618Y5257772D01*
X1110988Y5259714D01*
X1111265Y5261748D01*
X1111450Y5263782D01*
X1111543Y5265538D01*
Y5266370D01*
X1111635Y5267018D01*
Y5267572D01*
Y5268035D01*
Y5268312D01*
Y5268404D01*
Y5305387D01*
X1120141D01*
Y5268404D01*
D02*
G37*
G36*
X1061617Y5263967D02*
Y5256755D01*
X1033787D01*
Y5241407D01*
X1025929D01*
Y5256755D01*
X1017238D01*
Y5263967D01*
X1025929D01*
Y5305387D01*
X1032308D01*
X1061617Y5263967D01*
D02*
G37*
G36*
X4045710Y5136275D02*
X4040625D01*
X4039700Y5137847D01*
X4038683Y5139326D01*
X4037481Y5140805D01*
X4036372Y5142100D01*
X4035262Y5143209D01*
X4034430Y5144134D01*
X4034060Y5144411D01*
X4033783Y5144688D01*
X4033690Y5144781D01*
X4033598Y5144873D01*
X4031656Y5146445D01*
X4029715Y5147924D01*
X4027866Y5149219D01*
X4026017Y5150236D01*
X4024445Y5151160D01*
X4023798Y5151530D01*
X4023243Y5151808D01*
X4022781Y5152085D01*
X4022411Y5152177D01*
X4022226Y5152362D01*
X4022133D01*
Y5159944D01*
X4023520Y5159389D01*
X4024907Y5158742D01*
X4026294Y5158095D01*
X4027588Y5157447D01*
X4028698Y5156893D01*
X4029622Y5156430D01*
X4030177Y5156061D01*
X4030270Y5155968D01*
X4030362D01*
X4032026Y5154951D01*
X4033506Y5153934D01*
X4034800Y5153010D01*
X4035817Y5152177D01*
X4036741Y5151530D01*
X4037296Y5150975D01*
X4037758Y5150606D01*
X4037851Y5150513D01*
Y5200532D01*
X4045710D01*
Y5136275D01*
D02*
G37*
G36*
X3983487Y5201456D02*
X3984966Y5201272D01*
X3986353Y5201087D01*
X3987740Y5200809D01*
X3988942Y5200532D01*
X3990051Y5200255D01*
X3991068Y5199885D01*
X3991993Y5199515D01*
X3992732Y5199238D01*
X3993472Y5198960D01*
X3994027Y5198683D01*
X3994489Y5198405D01*
X3994766Y5198313D01*
X3994951Y5198128D01*
X3995044D01*
X3997078Y5196741D01*
X3998742Y5195169D01*
X4000036Y5193690D01*
X4001146Y5192211D01*
X4001978Y5190916D01*
X4002533Y5189899D01*
X4002718Y5189530D01*
X4002903Y5189252D01*
X4002995Y5189067D01*
Y5188975D01*
X4003365Y5187865D01*
X4003735Y5186663D01*
X4004289Y5184167D01*
X4004659Y5181578D01*
X4004937Y5179082D01*
X4005029Y5177973D01*
X4005122Y5176863D01*
Y5175939D01*
X4005214Y5175106D01*
Y5174459D01*
Y5173997D01*
Y5173627D01*
Y5173535D01*
Y5136552D01*
X3996708D01*
Y5173535D01*
Y5175661D01*
X3996523Y5177695D01*
X3996338Y5179452D01*
X3996061Y5181116D01*
X3995783Y5182595D01*
X3995414Y5183982D01*
X3995136Y5185184D01*
X3994766Y5186201D01*
X3994397Y5187033D01*
X3994027Y5187865D01*
X3993657Y5188420D01*
X3993380Y5188975D01*
X3993102Y5189345D01*
X3992917Y5189622D01*
X3992825Y5189715D01*
X3992732Y5189807D01*
X3991900Y5190547D01*
X3990976Y5191194D01*
X3988942Y5192211D01*
X3986815Y5192950D01*
X3984596Y5193413D01*
X3982562Y5193783D01*
X3981730Y5193875D01*
X3980898D01*
X3980343Y5193968D01*
X3979419D01*
X3977477Y5193875D01*
X3975721Y5193598D01*
X3974056Y5193320D01*
X3972762Y5192858D01*
X3971652Y5192488D01*
X3970820Y5192211D01*
X3970358Y5191933D01*
X3970173Y5191841D01*
X3968879Y5191009D01*
X3967769Y5189992D01*
X3966845Y5188975D01*
X3966198Y5188050D01*
X3965643Y5187126D01*
X3965181Y5186479D01*
X3964996Y5186016D01*
X3964903Y5185831D01*
X3964626Y5184999D01*
X3964441Y5184167D01*
X3964071Y5182226D01*
X3963794Y5180192D01*
X3963609Y5178158D01*
X3963516Y5176401D01*
Y5175569D01*
X3963424Y5174922D01*
Y5174367D01*
Y5173905D01*
Y5173627D01*
Y5173535D01*
Y5136552D01*
X3954918D01*
Y5173535D01*
Y5175384D01*
X3955010Y5177141D01*
X3955103Y5178805D01*
X3955288Y5180376D01*
X3955473Y5181763D01*
X3955658Y5183058D01*
X3955935Y5184260D01*
X3956120Y5185369D01*
X3956305Y5186386D01*
X3956582Y5187218D01*
X3956767Y5187958D01*
X3956952Y5188513D01*
X3957137Y5188975D01*
X3957229Y5189345D01*
X3957322Y5189530D01*
Y5189622D01*
X3958339Y5191656D01*
X3959633Y5193505D01*
X3960928Y5194985D01*
X3962314Y5196279D01*
X3963516Y5197296D01*
X3964533Y5198036D01*
X3964903Y5198220D01*
X3965181Y5198405D01*
X3965365Y5198590D01*
X3965458D01*
X3967769Y5199607D01*
X3970173Y5200347D01*
X3972669Y5200902D01*
X3974981Y5201272D01*
X3975998Y5201364D01*
X3977015Y5201456D01*
X3977939Y5201549D01*
X3978679D01*
X3979326Y5201641D01*
X3980158D01*
X3983487Y5201456D01*
D02*
G37*
%LPC*%
G36*
X1033787Y5292628D02*
Y5263967D01*
X1053943D01*
X1033787Y5292628D01*
D02*
G37*
%LPD*%
D32*
X1509855Y4905049D02*
Y5575549D01*
X730425Y4905049D02*
X1509855D01*
X730425D02*
Y5575549D01*
X1509855D01*
X3565204Y4866390D02*
Y5536890D01*
X4344634D01*
Y4866390D02*
Y5536890D01*
X3565204Y4866390D02*
X4344634D01*
%TF.MD5,805bf208ca2c92d731f19c2d79abedf0*%
M02*
