%TF.GenerationSoftware,Altium Limited,Altium Designer,25.2.1 (25)*%
G04 Layer_Physical_Order=2*
G04 Layer_Color=16711680*
%FSLAX45Y45*%
%MOMM*%
%TF.SameCoordinates,2170BF73-9D4C-4C4A-8FE2-E0CFDA2738D4*%
%TF.FilePolarity,Positive*%
%TF.FileFunction,Copper,L2,Bot,Signal*%
%TF.Part,Single*%
G01*
G75*
%TA.AperFunction,Conductor*%
%ADD10C,1.00000*%
%TA.AperFunction,ComponentPad*%
%ADD11C,1.57000*%
%ADD12R,1.57000X1.57000*%
%ADD13C,1.20000*%
%ADD14R,1.50000X1.50000*%
%ADD15C,1.50000*%
%ADD16C,1.55000*%
%ADD17R,1.55000X1.55000*%
%ADD18R,1.30000X1.30000*%
%ADD19C,1.30000*%
%ADD20R,1.30000X1.30000*%
%ADD21R,1.20000X1.20000*%
%ADD22R,1.20000X1.20000*%
%TA.AperFunction,ViaPad*%
%ADD23C,1.27000*%
%ADD24C,0.50000*%
%TA.AperFunction,SMDPad,CuDef*%
G04:AMPARAMS|DCode=25|XSize=1.00429mm|YSize=3.18213mm|CornerRadius=0.43687mm|HoleSize=0mm|Usage=FLASHONLY|Rotation=180.000|XOffset=0mm|YOffset=0mm|HoleType=Round|Shape=RoundedRectangle|*
%AMROUNDEDRECTD25*
21,1,1.00429,2.30840,0,0,180.0*
21,1,0.13056,3.18213,0,0,180.0*
1,1,0.87373,-0.06528,1.15420*
1,1,0.87373,0.06528,1.15420*
1,1,0.87373,0.06528,-1.15420*
1,1,0.87373,-0.06528,-1.15420*
%
%ADD25ROUNDEDRECTD25*%
G04:AMPARAMS|DCode=26|XSize=1.00429mm|YSize=0.87213mm|CornerRadius=0.43606mm|HoleSize=0mm|Usage=FLASHONLY|Rotation=180.000|XOffset=0mm|YOffset=0mm|HoleType=Round|Shape=RoundedRectangle|*
%AMROUNDEDRECTD26*
21,1,1.00429,0.00000,0,0,180.0*
21,1,0.13216,0.87213,0,0,180.0*
1,1,0.87213,-0.06608,0.00000*
1,1,0.87213,0.06608,0.00000*
1,1,0.87213,0.06608,0.00000*
1,1,0.87213,-0.06608,0.00000*
%
%ADD26ROUNDEDRECTD26*%
%ADD27R,1.00429X0.87213*%
%TA.AperFunction,Conductor*%
%ADD28C,0.45000*%
%TA.AperFunction,NonConductor*%
%ADD29C,0.50000*%
%ADD30C,0.25400*%
G36*
X5800001Y5999997D02*
Y0D01*
X25399Y-3D01*
X0Y25398D01*
Y5999999D01*
X5800000D01*
X5800001Y5999997D01*
D02*
G37*
%LPC*%
G36*
X3035819Y5862000D02*
Y5789690D01*
X3108129D01*
X3102699Y5809953D01*
X3091456Y5829427D01*
X3075556Y5845327D01*
X3056082Y5856570D01*
X3035819Y5862000D01*
D02*
G37*
G36*
X3010419D02*
X2990156Y5856570D01*
X2970682Y5845327D01*
X2954782Y5829427D01*
X2943539Y5809953D01*
X2938110Y5789690D01*
X3010419D01*
Y5862000D01*
D02*
G37*
G36*
X1961857D02*
Y5789690D01*
X2034167D01*
X2028737Y5809953D01*
X2017494Y5829427D01*
X2001594Y5845327D01*
X1982120Y5856570D01*
X1961857Y5862000D01*
D02*
G37*
G36*
X1936457D02*
X1916194Y5856570D01*
X1896720Y5845327D01*
X1880820Y5829427D01*
X1869577Y5809953D01*
X1864148Y5789690D01*
X1936457D01*
Y5862000D01*
D02*
G37*
G36*
X692460Y5825800D02*
X619761D01*
Y5753099D01*
X692460D01*
Y5825800D01*
D02*
G37*
G36*
X594361D02*
X521660D01*
Y5753099D01*
X594361D01*
Y5825800D01*
D02*
G37*
G36*
X3108129Y5764290D02*
X3035819D01*
Y5691981D01*
X3056082Y5697410D01*
X3075556Y5708653D01*
X3091456Y5724553D01*
X3102699Y5744027D01*
X3108129Y5764290D01*
D02*
G37*
G36*
X3010419D02*
X2938110D01*
X2943539Y5744027D01*
X2954782Y5724553D01*
X2970682Y5708653D01*
X2990156Y5697410D01*
X3010419Y5691981D01*
Y5764290D01*
D02*
G37*
G36*
X2034167D02*
X1961857D01*
Y5691981D01*
X1982120Y5697410D01*
X2001594Y5708653D01*
X2017494Y5724553D01*
X2028737Y5744027D01*
X2034167Y5764290D01*
D02*
G37*
G36*
X1936457D02*
X1864148D01*
X1869577Y5744027D01*
X1880820Y5724553D01*
X1896720Y5708653D01*
X1916194Y5697410D01*
X1936457Y5691981D01*
Y5764290D01*
D02*
G37*
G36*
X692460Y5727699D02*
X619761D01*
Y5655000D01*
X692460D01*
Y5727699D01*
D02*
G37*
G36*
X594361D02*
X521660D01*
Y5655000D01*
X594361D01*
Y5727699D01*
D02*
G37*
G36*
X5612343Y5741880D02*
X5589857D01*
X5568137Y5736060D01*
X5548663Y5724817D01*
X5532763Y5708917D01*
X5521520Y5689443D01*
X5515700Y5667723D01*
Y5645237D01*
X5521520Y5623517D01*
X5532763Y5604043D01*
X5548663Y5588143D01*
X5568137Y5576900D01*
X5589857Y5571080D01*
X5612343D01*
X5634063Y5576900D01*
X5653537Y5588143D01*
X5669437Y5604043D01*
X5680680Y5623517D01*
X5686500Y5645237D01*
Y5667723D01*
X5680680Y5689443D01*
X5669437Y5708917D01*
X5653537Y5724817D01*
X5634063Y5736060D01*
X5612343Y5741880D01*
D02*
G37*
G36*
X2847718Y5567593D02*
Y5490107D01*
X2925205D01*
X2919259Y5512300D01*
X2907357Y5532914D01*
X2890526Y5549745D01*
X2869912Y5561646D01*
X2847718Y5567593D01*
D02*
G37*
G36*
X2822318Y5567593D02*
X2800126Y5561646D01*
X2779512Y5549745D01*
X2762681Y5532914D01*
X2750780Y5512300D01*
X2744833Y5490107D01*
X2822318D01*
Y5567593D01*
D02*
G37*
G36*
X5105800Y5487489D02*
Y5415180D01*
X5178109D01*
X5172680Y5435443D01*
X5161437Y5454917D01*
X5145537Y5470817D01*
X5126063Y5482060D01*
X5105800Y5487489D01*
D02*
G37*
G36*
X5080400D02*
X5060137Y5482060D01*
X5040663Y5470817D01*
X5024763Y5454917D01*
X5013520Y5435443D01*
X5008090Y5415180D01*
X5080400D01*
Y5487489D01*
D02*
G37*
G36*
X2234362Y5862390D02*
X2211876D01*
X2190156Y5856570D01*
X2170682Y5845327D01*
X2154782Y5829427D01*
X2143539Y5809953D01*
X2137719Y5788233D01*
Y5765747D01*
X2143539Y5744027D01*
X2154782Y5724553D01*
X2170682Y5708653D01*
X2190156Y5697410D01*
X2196975Y5695583D01*
X2340518Y5552040D01*
Y5483650D01*
X2343109Y5463966D01*
X2345519Y5458148D01*
Y5458056D01*
X2351339Y5436336D01*
X2362582Y5416862D01*
X2378482Y5400962D01*
X2397956Y5389719D01*
X2419676Y5383899D01*
X2442162D01*
X2463882Y5389719D01*
X2483356Y5400962D01*
X2499256Y5416862D01*
X2510499Y5436336D01*
X2516319Y5458056D01*
Y5480542D01*
X2510499Y5502262D01*
X2499256Y5521736D01*
X2492619Y5528373D01*
Y5583541D01*
X2490028Y5603224D01*
X2485577Y5613969D01*
X2482431Y5621566D01*
X2470345Y5637317D01*
X2304526Y5803135D01*
X2302699Y5809953D01*
X2291456Y5829427D01*
X2275556Y5845327D01*
X2256082Y5856570D01*
X2234362Y5862390D01*
D02*
G37*
G36*
X1460400D02*
X1437914D01*
X1416194Y5856570D01*
X1396720Y5845327D01*
X1380820Y5829427D01*
X1369577Y5809953D01*
X1363757Y5788233D01*
Y5765747D01*
X1369577Y5744027D01*
X1373348Y5737496D01*
Y5469540D01*
X1374025Y5464395D01*
Y5400293D01*
X1419207D01*
X1429956Y5395840D01*
X1449640Y5393249D01*
X1591843D01*
X1597956Y5389719D01*
X1619676Y5383899D01*
X1642162D01*
X1663882Y5389719D01*
X1669995Y5393249D01*
X2063655D01*
X2110638Y5346266D01*
X2098424Y5324441D01*
X2058324Y5341051D01*
X2016118Y5351184D01*
X1972847Y5354589D01*
Y5354387D01*
X1679049D01*
X1659366Y5351796D01*
X1641024Y5344198D01*
X1625274Y5332113D01*
X1613188Y5316362D01*
X1605590Y5298020D01*
X1602999Y5278337D01*
Y5176620D01*
X1588650D01*
Y5103372D01*
X1572627Y5087350D01*
X1449640D01*
X1429956Y5084758D01*
X1411615Y5077161D01*
X1395864Y5065075D01*
X1383778Y5049324D01*
X1376181Y5030983D01*
X1376035Y5029877D01*
X1375802Y5029313D01*
X1373430Y5011299D01*
X1373804Y5008459D01*
Y4853098D01*
X1374314Y4849220D01*
X1373240Y4845211D01*
Y4821803D01*
X1379298Y4799193D01*
X1391002Y4778921D01*
X1407554Y4762369D01*
X1427826Y4750665D01*
X1450436Y4744607D01*
X1473844D01*
X1496454Y4750665D01*
X1516726Y4762369D01*
X1533278Y4778921D01*
X1544982Y4799193D01*
X1551040Y4821803D01*
Y4845211D01*
X1544982Y4867821D01*
X1533278Y4888093D01*
X1525905Y4895465D01*
Y4935248D01*
X1604128D01*
X1623812Y4937840D01*
X1642154Y4945437D01*
X1657904Y4957523D01*
X1696202Y4995820D01*
X1769449D01*
Y5047835D01*
X1794810Y5051327D01*
X1806711Y5030713D01*
X1823542Y5013882D01*
X1844156Y5001981D01*
X1866351Y4996034D01*
Y5086221D01*
Y5176407D01*
X1844156Y5170460D01*
X1823542Y5158558D01*
X1806711Y5141727D01*
X1794810Y5121113D01*
X1769449Y5124605D01*
Y5176620D01*
X1755100D01*
Y5202286D01*
X1972847D01*
X1974549Y5202510D01*
X2005135Y5198483D01*
X2031030Y5187757D01*
X2031678Y5185340D01*
X2043381Y5165068D01*
X2059933Y5148516D01*
X2080205Y5136813D01*
X2102815Y5130754D01*
X2126223D01*
X2148833Y5136813D01*
X2169105Y5148516D01*
X2180004Y5159416D01*
X2203530Y5152011D01*
X2205404Y5150642D01*
Y4939198D01*
X2021312Y4755107D01*
X2014494Y4753280D01*
X1995020Y4742036D01*
X1979120Y4726136D01*
X1967877Y4706663D01*
X1962057Y4684943D01*
Y4662457D01*
X1967877Y4640736D01*
X1979120Y4621263D01*
X1995020Y4605363D01*
X2014494Y4594120D01*
X2036214Y4588300D01*
X2058700D01*
X2080420Y4594120D01*
X2099894Y4605363D01*
X2115794Y4621263D01*
X2127037Y4640736D01*
X2128864Y4647555D01*
X2335231Y4853921D01*
X2347317Y4869672D01*
X2354914Y4888014D01*
X2357506Y4907697D01*
Y5164913D01*
X2361705Y5168030D01*
X2392745Y5165068D01*
X2409296Y5148516D01*
X2429568Y5136813D01*
X2452178Y5130754D01*
X2475586D01*
X2498196Y5136813D01*
X2518468Y5148516D01*
X2535020Y5165068D01*
X2546724Y5185340D01*
X2547565Y5188479D01*
X2560443Y5201357D01*
X2744619D01*
Y5187007D01*
X2925419D01*
Y5201357D01*
X3221424D01*
X3241107Y5203948D01*
X3259449Y5211545D01*
X3275200Y5223631D01*
X3406158Y5354589D01*
X3625419D01*
X3645103Y5357181D01*
X3663445Y5364778D01*
X3679195Y5376864D01*
X3691281Y5392615D01*
X3698879Y5410957D01*
X3699024Y5412063D01*
X3699258Y5412626D01*
X3701629Y5430640D01*
X3699258Y5448654D01*
X3699024Y5449218D01*
X3698879Y5450324D01*
X3691281Y5468665D01*
X3679195Y5484416D01*
X3663445Y5496502D01*
X3645103Y5504099D01*
X3625419Y5506691D01*
X3374657D01*
X3354973Y5504099D01*
X3344229Y5499649D01*
X3336631Y5496502D01*
X3320881Y5484416D01*
X3189923Y5353458D01*
X2925419D01*
Y5367807D01*
X2873404D01*
X2869912Y5393168D01*
X2890526Y5405069D01*
X2907357Y5421900D01*
X2919259Y5442514D01*
X2925205Y5464707D01*
X2835018D01*
X2744833D01*
X2750780Y5442514D01*
X2762681Y5421900D01*
X2779512Y5405069D01*
X2800126Y5393168D01*
X2796634Y5367807D01*
X2744619D01*
Y5353458D01*
X2528941D01*
X2509258Y5350867D01*
X2490916Y5343269D01*
X2475165Y5331183D01*
X2452536Y5308554D01*
X2452178D01*
X2429568Y5302496D01*
X2409296Y5290792D01*
X2392745Y5274240D01*
X2361705Y5271278D01*
X2357506Y5274395D01*
Y5283001D01*
X2354914Y5302684D01*
X2347317Y5321026D01*
X2335231Y5336776D01*
X2148932Y5523075D01*
X2133182Y5535161D01*
X2114840Y5542759D01*
X2095156Y5545350D01*
X1669995D01*
X1663882Y5548879D01*
X1642162Y5554699D01*
X1619676D01*
X1597956Y5548879D01*
X1591843Y5545350D01*
X1525449D01*
Y5738332D01*
X1528737Y5744027D01*
X1534557Y5765747D01*
Y5788233D01*
X1528737Y5809953D01*
X1517494Y5829427D01*
X1501594Y5845327D01*
X1482120Y5856570D01*
X1460400Y5862390D01*
D02*
G37*
G36*
X5178109Y5389780D02*
X5105800D01*
Y5317470D01*
X5126063Y5322900D01*
X5145537Y5334143D01*
X5161437Y5350043D01*
X5172680Y5369517D01*
X5178109Y5389780D01*
D02*
G37*
G36*
X5080400D02*
X5008090D01*
X5013520Y5369517D01*
X5024763Y5350043D01*
X5040663Y5334143D01*
X5060137Y5322900D01*
X5080400Y5317470D01*
Y5389780D01*
D02*
G37*
G36*
X797168Y5425402D02*
X784112D01*
X766077Y5423028D01*
X749271Y5416066D01*
X734839Y5404992D01*
X723765Y5390560D01*
X716804Y5373754D01*
X714429Y5355719D01*
Y5316400D01*
X646224D01*
X640023Y5319980D01*
X618303Y5325800D01*
X595817D01*
X574097Y5319980D01*
X554623Y5308737D01*
X538723Y5292837D01*
X527480Y5273363D01*
X521660Y5251643D01*
Y5229157D01*
X527480Y5207437D01*
X538723Y5187963D01*
X554623Y5172063D01*
X574097Y5160820D01*
X595817Y5155000D01*
X618303D01*
X640023Y5160820D01*
X646048Y5164299D01*
X714429D01*
Y5124879D01*
X716804Y5106844D01*
X723765Y5090038D01*
X734839Y5075606D01*
X749271Y5064532D01*
X766077Y5057571D01*
X784112Y5055196D01*
X797168D01*
X815203Y5057571D01*
X832009Y5064532D01*
X846441Y5075606D01*
X857515Y5090038D01*
X864476Y5106844D01*
X866851Y5124879D01*
Y5164248D01*
X1158394D01*
X1171407Y5149411D01*
Y4712776D01*
X1167877Y4706663D01*
X1162057Y4684943D01*
Y4662457D01*
X1167877Y4640736D01*
X1170028Y4637011D01*
Y4466144D01*
X1165120Y4457643D01*
X1159300Y4435923D01*
Y4413437D01*
X1165120Y4391717D01*
X1176363Y4372243D01*
X1192263Y4356343D01*
X1211737Y4345100D01*
X1233457Y4339280D01*
X1255943D01*
X1277663Y4345100D01*
X1283776Y4348629D01*
X1547787D01*
X1561817Y4334600D01*
Y4011397D01*
X1564408Y3991713D01*
X1572005Y3973372D01*
X1584091Y3957621D01*
X1833488Y3708224D01*
X1849239Y3696138D01*
X1867580Y3688541D01*
X1887264Y3685949D01*
X2572784D01*
X2584546Y3679159D01*
X2607156Y3673100D01*
X2630564D01*
X2653174Y3679159D01*
X2673446Y3690862D01*
X2689998Y3707414D01*
X2701701Y3727686D01*
X2707760Y3750296D01*
Y3773704D01*
X2701701Y3796314D01*
X2689998Y3816586D01*
X2673446Y3833138D01*
X2653174Y3844842D01*
X2630564Y3850900D01*
X2607156D01*
X2584546Y3844842D01*
X2572784Y3838051D01*
X1918765D01*
X1713918Y4042898D01*
Y4366101D01*
X1711327Y4385785D01*
X1706876Y4396529D01*
X1703729Y4404127D01*
X1691643Y4419877D01*
X1633064Y4478456D01*
X1617314Y4490542D01*
X1598972Y4498139D01*
X1579288Y4500731D01*
X1322129D01*
Y4632236D01*
X1327037Y4640736D01*
X1332857Y4662457D01*
Y4684943D01*
X1327037Y4706663D01*
X1323508Y4712776D01*
Y5117910D01*
X1369847Y5164248D01*
X1449640D01*
X1469323Y5166840D01*
X1487665Y5174437D01*
X1503416Y5186523D01*
X1515502Y5202274D01*
X1523099Y5220616D01*
X1523245Y5221722D01*
X1523478Y5222285D01*
X1525850Y5240299D01*
X1523478Y5258313D01*
X1523245Y5258877D01*
X1523099Y5259983D01*
X1515502Y5278324D01*
X1503416Y5294075D01*
X1487665Y5306161D01*
X1469323Y5313758D01*
X1449640Y5316350D01*
X866851D01*
Y5355719D01*
X864476Y5373754D01*
X857515Y5390560D01*
X846441Y5404992D01*
X832009Y5416066D01*
X815203Y5423028D01*
X797168Y5425402D01*
D02*
G37*
G36*
X1891751Y5176405D02*
Y5098921D01*
X1969235D01*
X1963288Y5121113D01*
X1951387Y5141727D01*
X1934556Y5158558D01*
X1913942Y5170460D01*
X1891751Y5176405D01*
D02*
G37*
G36*
X4416500Y5741880D02*
X4245700D01*
Y5571080D01*
X4308948D01*
X4592569Y5287459D01*
Y5181219D01*
X4589040Y5175106D01*
X4583220Y5153386D01*
Y5130900D01*
X4589040Y5109180D01*
X4600283Y5089706D01*
X4616183Y5073806D01*
X4635657Y5062563D01*
X4657377Y5056743D01*
X4679863D01*
X4701583Y5062563D01*
X4721057Y5073806D01*
X4736957Y5089706D01*
X4748200Y5109180D01*
X4754020Y5130900D01*
Y5153386D01*
X4748200Y5175106D01*
X4744671Y5181219D01*
Y5318960D01*
X4742079Y5338643D01*
X4734482Y5356985D01*
X4722396Y5372736D01*
X4416500Y5678632D01*
Y5741880D01*
D02*
G37*
G36*
X1969235Y5073521D02*
X1891751D01*
Y4996035D01*
X1913942Y5001981D01*
X1934556Y5013882D01*
X1951387Y5030713D01*
X1963288Y5051327D01*
X1969235Y5073521D01*
D02*
G37*
G36*
X326566Y5067046D02*
X124998D01*
Y4932123D01*
X326566D01*
Y5067046D01*
D02*
G37*
G36*
X4290947Y5386743D02*
X4277891D01*
X4259856Y5384368D01*
X4243050Y5377407D01*
X4228618Y5366333D01*
X4217544Y5351901D01*
X4210583Y5335095D01*
X4208208Y5317060D01*
Y5277691D01*
X3477277D01*
X3457593Y5275099D01*
X3446849Y5270649D01*
X3439251Y5267502D01*
X3423501Y5255416D01*
X3126643Y4958558D01*
X3114557Y4942808D01*
X3106960Y4924466D01*
X3104368Y4904782D01*
Y4624679D01*
X3100839Y4618566D01*
X3095019Y4596846D01*
Y4574360D01*
X3100839Y4552640D01*
X3112082Y4533166D01*
X3127982Y4517266D01*
X3147456Y4506023D01*
X3169176Y4500203D01*
X3191662D01*
X3213382Y4506023D01*
X3232856Y4517266D01*
X3248756Y4533166D01*
X3259999Y4552640D01*
X3265819Y4574360D01*
Y4596846D01*
X3259999Y4618566D01*
X3256470Y4624679D01*
Y4873281D01*
X3508778Y5125589D01*
X4208208D01*
Y5086220D01*
X4208369Y5085005D01*
Y4955326D01*
X4210960Y4935642D01*
X4218557Y4917300D01*
X4230643Y4901550D01*
X4246394Y4889464D01*
X4264736Y4881866D01*
X4284419Y4879275D01*
X4304103Y4881866D01*
X4322444Y4889464D01*
X4338195Y4901550D01*
X4339818Y4903664D01*
X4371940Y4907463D01*
X4429632Y4849771D01*
X4431459Y4842953D01*
X4442702Y4823479D01*
X4458602Y4807579D01*
X4478076Y4796336D01*
X4499796Y4790516D01*
X4522282D01*
X4544002Y4796336D01*
X4550115Y4799865D01*
X4638560D01*
X4643852Y4796810D01*
X4665572Y4790990D01*
X4688058D01*
X4709778Y4796810D01*
X4729252Y4808053D01*
X4745152Y4823953D01*
X4756395Y4843427D01*
X4762215Y4865147D01*
Y4887633D01*
X4756395Y4909353D01*
X4745152Y4928827D01*
X4729252Y4944727D01*
X4709778Y4955970D01*
X4688058Y4961790D01*
X4665572D01*
X4643852Y4955970D01*
X4636918Y4951967D01*
X4550115D01*
X4544002Y4955496D01*
X4537183Y4957323D01*
X4360630Y5133877D01*
Y5317060D01*
X4358255Y5335095D01*
X4351294Y5351901D01*
X4340220Y5366333D01*
X4325788Y5377407D01*
X4308982Y5384368D01*
X4290947Y5386743D01*
D02*
G37*
G36*
X4266900Y4779054D02*
Y4706745D01*
X4339209D01*
X4333780Y4727008D01*
X4322537Y4746481D01*
X4306637Y4762382D01*
X4287163Y4773625D01*
X4266900Y4779054D01*
D02*
G37*
G36*
X4241500D02*
X4221237Y4773625D01*
X4201763Y4762382D01*
X4185863Y4746481D01*
X4174620Y4727008D01*
X4169190Y4706745D01*
X4241500D01*
Y4779054D01*
D02*
G37*
G36*
X4691382Y4710349D02*
Y4638039D01*
X4763690D01*
X4758260Y4658303D01*
X4747017Y4677777D01*
X4731117Y4693677D01*
X4711643Y4704920D01*
X4691382Y4710349D01*
D02*
G37*
G36*
X4665982Y4710350D02*
X4645717Y4704920D01*
X4626243Y4693677D01*
X4610343Y4677777D01*
X4599100Y4658303D01*
X4593670Y4638039D01*
X4665982D01*
Y4710350D01*
D02*
G37*
G36*
X4339209Y4681345D02*
X4266900D01*
Y4609035D01*
X4287163Y4614465D01*
X4306637Y4625708D01*
X4322537Y4641608D01*
X4333780Y4661082D01*
X4339209Y4681345D01*
D02*
G37*
G36*
X4241500D02*
X4169190D01*
X4174620Y4661082D01*
X4185863Y4641608D01*
X4201763Y4625708D01*
X4221237Y4614465D01*
X4241500Y4609035D01*
Y4681345D01*
D02*
G37*
G36*
X2765819Y4671003D02*
X2693117D01*
Y4598303D01*
X2765819D01*
Y4671003D01*
D02*
G37*
G36*
X2667717D02*
X2595019D01*
Y4598303D01*
X2667717D01*
Y4671003D01*
D02*
G37*
G36*
X4763689Y4612639D02*
X4691382D01*
Y4540331D01*
X4711643Y4545760D01*
X4731117Y4557003D01*
X4747017Y4572903D01*
X4758260Y4592377D01*
X4763689Y4612639D01*
D02*
G37*
G36*
X4665982D02*
X4593671D01*
X4599100Y4592377D01*
X4610343Y4572903D01*
X4626243Y4557003D01*
X4645717Y4545760D01*
X4665982Y4540330D01*
Y4612639D01*
D02*
G37*
G36*
X5479863Y5227543D02*
X5457377D01*
X5435657Y5221723D01*
X5416183Y5210480D01*
X5400283Y5194580D01*
X5389040Y5175106D01*
X5383220Y5153386D01*
Y5130900D01*
X5389040Y5109180D01*
X5392569Y5103067D01*
Y4891940D01*
X5391415Y4887633D01*
Y4865147D01*
X5397235Y4843427D01*
X5401697Y4835699D01*
Y4662801D01*
X5399100Y4658303D01*
X5397273Y4651485D01*
X5251599Y4505811D01*
X4049986D01*
X3835607Y4720189D01*
X3833780Y4727008D01*
X3822537Y4746481D01*
X3806637Y4762382D01*
X3788159Y4773050D01*
X3701684Y4859524D01*
Y4972425D01*
X3701034Y4977369D01*
Y5041647D01*
X3655853D01*
X3645102Y5046099D01*
X3625419Y5048691D01*
X3605736Y5046099D01*
X3594986Y5041647D01*
X3549805D01*
Y4975953D01*
X3549369Y4972640D01*
X3549583Y4971010D01*
Y4828023D01*
X3552175Y4808339D01*
X3559772Y4789997D01*
X3571858Y4774247D01*
X3670812Y4675293D01*
X3674620Y4661082D01*
X3685863Y4641608D01*
X3701763Y4625708D01*
X3721237Y4614465D01*
X3728055Y4612638D01*
X3964708Y4375984D01*
X3980459Y4363898D01*
X3998801Y4356301D01*
X4018484Y4353709D01*
X5283100D01*
X5302783Y4356301D01*
X5321125Y4363898D01*
X5336876Y4375984D01*
X5504825Y4543933D01*
X5511643Y4545760D01*
X5531117Y4557003D01*
X5547017Y4572903D01*
X5558260Y4592377D01*
X5564080Y4614097D01*
Y4636583D01*
X5558260Y4658303D01*
X5553798Y4666031D01*
Y4838929D01*
X5556395Y4843427D01*
X5562215Y4865147D01*
Y4887633D01*
X5556395Y4909353D01*
X5545152Y4928827D01*
X5544671Y4929308D01*
Y5103067D01*
X5548200Y5109180D01*
X5554020Y5130900D01*
Y5153386D01*
X5548200Y5175106D01*
X5536957Y5194580D01*
X5521057Y5210480D01*
X5501583Y5221723D01*
X5479863Y5227543D01*
D02*
G37*
G36*
X2292698Y4723439D02*
X2270212D01*
X2248492Y4717619D01*
X2229018Y4706376D01*
X2213118Y4690476D01*
X2201875Y4671003D01*
X2196055Y4649283D01*
Y4626796D01*
X2201578Y4606186D01*
Y4577583D01*
X2128552Y4504557D01*
X2076553D01*
X2055943Y4510080D01*
X2033457D01*
X2011737Y4504260D01*
X1992263Y4493017D01*
X1976363Y4477117D01*
X1965120Y4457643D01*
X1959300Y4435923D01*
Y4413437D01*
X1964823Y4392827D01*
Y4348343D01*
X1850372Y4233893D01*
X1843554Y4232066D01*
X1824080Y4220823D01*
X1808180Y4204923D01*
X1796937Y4185449D01*
X1791117Y4163729D01*
Y4141243D01*
X1796937Y4119523D01*
X1808180Y4100049D01*
X1824080Y4084149D01*
X1843554Y4072906D01*
X1865274Y4067086D01*
X1887760D01*
X1909480Y4072906D01*
X1928954Y4084149D01*
X1944854Y4100049D01*
X1956097Y4119523D01*
X1957924Y4126341D01*
X2094649Y4263066D01*
X2106735Y4278816D01*
X2114333Y4297158D01*
X2116924Y4316842D01*
Y4352456D01*
X2160053D01*
X2179736Y4355047D01*
X2198078Y4362645D01*
X2213829Y4374731D01*
X2331404Y4492306D01*
X2343490Y4508057D01*
X2351087Y4526399D01*
X2353679Y4546082D01*
Y4592335D01*
X2361035Y4605076D01*
X2366855Y4626796D01*
Y4649283D01*
X2361035Y4671003D01*
X2349792Y4690476D01*
X2333892Y4706376D01*
X2314418Y4717619D01*
X2292698Y4723439D01*
D02*
G37*
G36*
X2765819Y4572903D02*
X2693117D01*
Y4500203D01*
X2765819D01*
Y4572903D01*
D02*
G37*
G36*
X2667717D02*
X2595019D01*
Y4500203D01*
X2667717D01*
Y4572903D01*
D02*
G37*
G36*
X402900Y4880900D02*
X197100D01*
Y4675100D01*
X402900D01*
Y4703116D01*
X477604D01*
X487346Y4697491D01*
X509956Y4691433D01*
X533364D01*
X555974Y4697491D01*
X565716Y4703116D01*
X714539D01*
Y4569989D01*
X707798Y4558314D01*
X701740Y4535704D01*
Y4512296D01*
X707798Y4489686D01*
X719502Y4469414D01*
X736054Y4452862D01*
X756326Y4441159D01*
X778936Y4435100D01*
X802344D01*
X824954Y4441159D01*
X845226Y4452862D01*
X861778Y4469414D01*
X873482Y4489686D01*
X879540Y4512296D01*
Y4535704D01*
X873482Y4558314D01*
X866640Y4570164D01*
Y4731924D01*
X873431Y4743686D01*
X879490Y4766296D01*
Y4789704D01*
X873431Y4812314D01*
X861728Y4832586D01*
X845176Y4849138D01*
X824904Y4860842D01*
X802294Y4866900D01*
X778886D01*
X756276Y4860842D01*
X746533Y4855217D01*
X569757D01*
X555974Y4863174D01*
X533364Y4869233D01*
X509956D01*
X487346Y4863174D01*
X473563Y4855217D01*
X402900D01*
Y4880900D01*
D02*
G37*
G36*
X313547Y4372900D02*
X312699D01*
Y4282699D01*
X402900D01*
Y4283547D01*
X395887Y4309718D01*
X382340Y4333182D01*
X363182Y4352341D01*
X339718Y4365888D01*
X313547Y4372900D01*
D02*
G37*
G36*
X287299D02*
X286453D01*
X260282Y4365888D01*
X236818Y4352341D01*
X217659Y4333182D01*
X204112Y4309718D01*
X197100Y4283547D01*
Y4282699D01*
X287299D01*
Y4372900D01*
D02*
G37*
G36*
X402900Y4257299D02*
X312699D01*
Y4167100D01*
X313547D01*
X339718Y4174113D01*
X363182Y4187660D01*
X382340Y4206818D01*
X395887Y4230282D01*
X402900Y4256453D01*
Y4257299D01*
D02*
G37*
G36*
X287299D02*
X197100D01*
Y4256453D01*
X204112Y4230282D01*
X217659Y4206818D01*
X236818Y4187660D01*
X260282Y4174113D01*
X286453Y4167100D01*
X287299D01*
Y4257299D01*
D02*
G37*
G36*
X1389217Y4237495D02*
Y4165186D01*
X1461527D01*
X1456097Y4185449D01*
X1444854Y4204923D01*
X1428954Y4220823D01*
X1409480Y4232066D01*
X1389217Y4237495D01*
D02*
G37*
G36*
X1363817D02*
X1343554Y4232066D01*
X1324080Y4220823D01*
X1308180Y4204923D01*
X1296937Y4185449D01*
X1291508Y4165186D01*
X1363817D01*
Y4237495D01*
D02*
G37*
G36*
X4799143Y4167029D02*
X4776657D01*
X4754937Y4161209D01*
X4743876Y4154823D01*
X4545167D01*
X4544002Y4155496D01*
X4522282Y4161316D01*
X4499796D01*
X4478076Y4155496D01*
X4465334Y4148140D01*
X4361649D01*
X4341966Y4145549D01*
X4331221Y4141098D01*
X4323624Y4137951D01*
X4307874Y4125865D01*
X4136548Y3954540D01*
X4126521D01*
X4100096Y3947459D01*
X4076404Y3933781D01*
X4057059Y3914436D01*
X4043381Y3890744D01*
X4036300Y3864319D01*
Y3836961D01*
X4043381Y3810536D01*
X4057059Y3786844D01*
X4076404Y3767499D01*
X4100096Y3753821D01*
X4126521Y3746740D01*
X4153879D01*
X4180304Y3753821D01*
X4203996Y3767499D01*
X4223341Y3786844D01*
X4237019Y3810536D01*
X4244100Y3836961D01*
Y3846988D01*
X4393150Y3996039D01*
X4479186D01*
X4499796Y3990516D01*
X4522282D01*
X4544002Y3996336D01*
X4555063Y4002722D01*
X4753772D01*
X4754937Y4002049D01*
X4761755Y4000222D01*
X5219354Y3542624D01*
X5235104Y3530538D01*
X5242701Y3527391D01*
X5253446Y3522941D01*
X5273129Y3520349D01*
X5287700D01*
Y3491000D01*
X5468500D01*
Y3543015D01*
X5493860Y3546507D01*
X5505762Y3525893D01*
X5522593Y3509062D01*
X5543207Y3497161D01*
X5565398Y3491215D01*
Y3581399D01*
Y3671585D01*
X5543207Y3665639D01*
X5522593Y3653738D01*
X5505762Y3636907D01*
X5493860Y3616293D01*
X5468500Y3619785D01*
Y3671800D01*
X5368043D01*
X5363100Y3672451D01*
X5304630D01*
X4869307Y4107774D01*
X4867480Y4114592D01*
X4856237Y4134066D01*
X4840337Y4149966D01*
X4820863Y4161209D01*
X4799143Y4167029D01*
D02*
G37*
G36*
X2294155Y4223049D02*
Y4150739D01*
X2366464D01*
X2361035Y4171003D01*
X2349792Y4190476D01*
X2333892Y4206376D01*
X2314418Y4217619D01*
X2294155Y4223049D01*
D02*
G37*
G36*
X2268755Y4223049D02*
X2248492Y4217619D01*
X2229018Y4206376D01*
X2213118Y4190476D01*
X2201875Y4171003D01*
X2196445Y4150739D01*
X2268755D01*
Y4223049D01*
D02*
G37*
G36*
X5300602Y4166638D02*
Y4094329D01*
X5372909D01*
X5367480Y4114592D01*
X5356237Y4134066D01*
X5340337Y4149966D01*
X5320863Y4161209D01*
X5300602Y4166638D01*
D02*
G37*
G36*
X5275202Y4166639D02*
X5254937Y4161209D01*
X5235463Y4149966D01*
X5219563Y4134066D01*
X5208320Y4114592D01*
X5202891Y4094329D01*
X5275202D01*
Y4166639D01*
D02*
G37*
G36*
X1461527Y4139786D02*
X1389217D01*
Y4067476D01*
X1409480Y4072906D01*
X1428954Y4084149D01*
X1444854Y4100049D01*
X1456097Y4119523D01*
X1461527Y4139786D01*
D02*
G37*
G36*
X1363817D02*
X1291508D01*
X1296937Y4119523D01*
X1308180Y4100049D01*
X1324080Y4084149D01*
X1343554Y4072906D01*
X1363817Y4067476D01*
Y4139786D01*
D02*
G37*
G36*
X2366464Y4125339D02*
X2294155D01*
Y4053030D01*
X2314418Y4058459D01*
X2333892Y4069703D01*
X2349792Y4085603D01*
X2361035Y4105076D01*
X2366464Y4125339D01*
D02*
G37*
G36*
X2268755D02*
X2196445D01*
X2201875Y4105076D01*
X2213118Y4085603D01*
X2229018Y4069703D01*
X2248492Y4058459D01*
X2268755Y4053030D01*
Y4125339D01*
D02*
G37*
G36*
X313547Y4118900D02*
X312699D01*
Y4028699D01*
X402900D01*
Y4029547D01*
X395887Y4055718D01*
X382340Y4079182D01*
X363182Y4098341D01*
X339718Y4111888D01*
X313547Y4118900D01*
D02*
G37*
G36*
X287299D02*
X286453D01*
X260282Y4111888D01*
X236818Y4098341D01*
X217659Y4079182D01*
X204112Y4055718D01*
X197100Y4029547D01*
Y4028699D01*
X287299D01*
Y4118900D01*
D02*
G37*
G36*
X5372909Y4068929D02*
X5300602D01*
Y3996620D01*
X5320863Y4002049D01*
X5340337Y4013292D01*
X5356237Y4029193D01*
X5367480Y4048666D01*
X5372909Y4068929D01*
D02*
G37*
G36*
X5275202D02*
X5202891D01*
X5208320Y4048666D01*
X5219563Y4029193D01*
X5235463Y4013292D01*
X5254937Y4002049D01*
X5275202Y3996619D01*
Y4068929D01*
D02*
G37*
G36*
X402900Y4003299D02*
X312699D01*
Y3913100D01*
X313547D01*
X339718Y3920113D01*
X363182Y3933660D01*
X382340Y3952818D01*
X395887Y3976282D01*
X402900Y4002453D01*
Y4003299D01*
D02*
G37*
G36*
X287299D02*
X197100D01*
Y4002453D01*
X204112Y3976282D01*
X217659Y3952818D01*
X236818Y3933660D01*
X260282Y3920113D01*
X286453Y3913100D01*
X287299D01*
Y4003299D01*
D02*
G37*
G36*
X3784411Y4028480D02*
X3057057D01*
X3037374Y4025889D01*
X3026629Y4021438D01*
X3019032Y4018291D01*
X3003281Y4006205D01*
X2811388Y3814312D01*
X2799302Y3798562D01*
X2791705Y3780220D01*
X2789113Y3760536D01*
Y3572785D01*
X2782023Y3565695D01*
X2768344Y3542003D01*
X2761264Y3515577D01*
Y3488220D01*
X2768344Y3461795D01*
X2782023Y3438103D01*
X2801368Y3418758D01*
X2825060Y3405079D01*
X2851485Y3397999D01*
X2878843D01*
X2905268Y3405079D01*
X2928960Y3418758D01*
X2948305Y3438103D01*
X2961983Y3461795D01*
X2969064Y3488220D01*
Y3515577D01*
X2961983Y3542003D01*
X2948305Y3565695D01*
X2941215Y3572785D01*
Y3729035D01*
X3088558Y3876379D01*
X3752909D01*
X3782300Y3846988D01*
Y3746740D01*
X3990100D01*
Y3954540D01*
X3889852D01*
X3838186Y4006205D01*
X3822436Y4018291D01*
X3804094Y4025889D01*
X3784411Y4028480D01*
D02*
G37*
G36*
X5590798Y3671587D02*
Y3594099D01*
X5668286D01*
X5662339Y3616293D01*
X5650438Y3636907D01*
X5633607Y3653738D01*
X5612993Y3665639D01*
X5590798Y3671587D01*
D02*
G37*
G36*
X3386843Y3605799D02*
X3385863D01*
Y3514599D01*
X3477064D01*
Y3515577D01*
X3469983Y3542003D01*
X3456305Y3565695D01*
X3436960Y3585040D01*
X3413268Y3598718D01*
X3386843Y3605799D01*
D02*
G37*
G36*
X3132843D02*
X3131863D01*
Y3514599D01*
X3223064D01*
Y3515577D01*
X3215983Y3542003D01*
X3202305Y3565695D01*
X3182960Y3585040D01*
X3159268Y3598718D01*
X3132843Y3605799D01*
D02*
G37*
G36*
X3106463D02*
X3105485D01*
X3079060Y3598718D01*
X3055368Y3585040D01*
X3036023Y3565695D01*
X3022344Y3542003D01*
X3015264Y3515577D01*
Y3514599D01*
X3106463D01*
Y3605799D01*
D02*
G37*
G36*
X3360463D02*
X3359485D01*
X3333060Y3598718D01*
X3309368Y3585040D01*
X3290023Y3565695D01*
X3276344Y3542003D01*
X3269264Y3515577D01*
Y3514599D01*
X3360463D01*
Y3605799D01*
D02*
G37*
G36*
X5668286Y3568699D02*
X5590798D01*
Y3491213D01*
X5612993Y3497161D01*
X5633607Y3509062D01*
X5650438Y3525893D01*
X5662339Y3546507D01*
X5668286Y3568699D01*
D02*
G37*
G36*
X3505397Y3850900D02*
X3481989D01*
X3459379Y3844842D01*
X3439107Y3833138D01*
X3422556Y3816586D01*
X3410852Y3796314D01*
X3404793Y3773704D01*
Y3750296D01*
X3410852Y3727686D01*
X3422556Y3707414D01*
X3439107Y3690862D01*
X3459379Y3679159D01*
X3481989Y3673100D01*
X3482348D01*
X3508713Y3646734D01*
X3522613Y3636068D01*
Y3530399D01*
X3523264Y3525458D01*
Y3397999D01*
X3731064D01*
Y3605799D01*
X3674715D01*
Y3670431D01*
X3672123Y3690115D01*
X3664526Y3708457D01*
X3652440Y3724207D01*
X3622361Y3754286D01*
X3606611Y3766372D01*
X3602460Y3768092D01*
X3577376Y3793175D01*
X3576535Y3796314D01*
X3564831Y3816586D01*
X3548279Y3833138D01*
X3528007Y3844842D01*
X3505397Y3850900D01*
D02*
G37*
G36*
X3477064Y3489199D02*
X3385863D01*
Y3397999D01*
X3386843D01*
X3413268Y3405079D01*
X3436960Y3418758D01*
X3456305Y3438103D01*
X3469983Y3461795D01*
X3477064Y3488220D01*
Y3489199D01*
D02*
G37*
G36*
X3360463D02*
X3269264D01*
Y3488220D01*
X3276344Y3461795D01*
X3290023Y3438103D01*
X3309368Y3418758D01*
X3333060Y3405079D01*
X3359485Y3397999D01*
X3360463D01*
Y3489199D01*
D02*
G37*
G36*
X3223064D02*
X3131863D01*
Y3397999D01*
X3132843D01*
X3159268Y3405079D01*
X3182960Y3418758D01*
X3202305Y3438103D01*
X3215983Y3461795D01*
X3223064Y3488220D01*
Y3489199D01*
D02*
G37*
G36*
X3106463D02*
X3015264D01*
Y3488220D01*
X3022344Y3461795D01*
X3036023Y3438103D01*
X3055368Y3418758D01*
X3079060Y3405079D01*
X3105485Y3397999D01*
X3106463D01*
Y3489199D01*
D02*
G37*
G36*
X2116843Y3605799D02*
X2089485D01*
X2063060Y3598718D01*
X2039368Y3585040D01*
X2020023Y3565695D01*
X2006344Y3542003D01*
X1999264Y3515577D01*
Y3488220D01*
X2006344Y3461795D01*
X2020023Y3438103D01*
X2039368Y3418758D01*
X2063060Y3405079D01*
X2089485Y3397999D01*
X2116843D01*
X2143268Y3405079D01*
X2166960Y3418758D01*
X2186305Y3438103D01*
X2199983Y3461795D01*
X2207064Y3488220D01*
Y3515577D01*
X2199983Y3542003D01*
X2186305Y3565695D01*
X2166960Y3585040D01*
X2143268Y3598718D01*
X2116843Y3605799D01*
D02*
G37*
G36*
X1862843D02*
X1835485D01*
X1809060Y3598718D01*
X1785368Y3585040D01*
X1766023Y3565695D01*
X1752344Y3542003D01*
X1745264Y3515577D01*
Y3488220D01*
X1752344Y3461795D01*
X1766023Y3438103D01*
X1785368Y3418758D01*
X1809060Y3405079D01*
X1835485Y3397999D01*
X1862843D01*
X1889268Y3405079D01*
X1912960Y3418758D01*
X1932305Y3438103D01*
X1945983Y3461795D01*
X1953064Y3488220D01*
Y3515577D01*
X1945983Y3542003D01*
X1932305Y3565695D01*
X1912960Y3585040D01*
X1889268Y3598718D01*
X1862843Y3605799D01*
D02*
G37*
G36*
X1608843D02*
X1581485D01*
X1555060Y3598718D01*
X1531368Y3585040D01*
X1512023Y3565695D01*
X1498344Y3542003D01*
X1491264Y3515577D01*
Y3488220D01*
X1498344Y3461795D01*
X1512023Y3438103D01*
X1531368Y3418758D01*
X1555060Y3405079D01*
X1581485Y3397999D01*
X1608843D01*
X1635268Y3405079D01*
X1658960Y3418758D01*
X1678305Y3438103D01*
X1691983Y3461795D01*
X1699064Y3488220D01*
Y3515577D01*
X1691983Y3542003D01*
X1678305Y3565695D01*
X1658960Y3585040D01*
X1635268Y3598718D01*
X1608843Y3605799D01*
D02*
G37*
G36*
X1354843D02*
X1327485D01*
X1301060Y3598718D01*
X1277368Y3585040D01*
X1258023Y3565695D01*
X1244344Y3542003D01*
X1237264Y3515577D01*
Y3488220D01*
X1244344Y3461795D01*
X1258023Y3438103D01*
X1277368Y3418758D01*
X1301060Y3405079D01*
X1327485Y3397999D01*
X1354843D01*
X1381268Y3405079D01*
X1404960Y3418758D01*
X1424305Y3438103D01*
X1437983Y3461795D01*
X1445064Y3488220D01*
Y3515577D01*
X1437983Y3542003D01*
X1424305Y3565695D01*
X1404960Y3585040D01*
X1381268Y3598718D01*
X1354843Y3605799D01*
D02*
G37*
G36*
X4978562Y3109801D02*
Y3037491D01*
X5050870D01*
X5045440Y3057755D01*
X5034197Y3077229D01*
X5018297Y3093129D01*
X4998823Y3104372D01*
X4978562Y3109801D01*
D02*
G37*
G36*
X4953162Y3109802D02*
X4932897Y3104372D01*
X4913423Y3093129D01*
X4897523Y3077229D01*
X4886280Y3057755D01*
X4880851Y3037491D01*
X4953162D01*
Y3109802D01*
D02*
G37*
G36*
X313547Y3864900D02*
X286453D01*
X260282Y3857888D01*
X236818Y3844341D01*
X217659Y3825182D01*
X204112Y3801718D01*
X197100Y3775547D01*
Y3748453D01*
X204112Y3722282D01*
X217659Y3698818D01*
X236818Y3679660D01*
X260282Y3666113D01*
X286453Y3659100D01*
X313547D01*
X339718Y3666113D01*
X344043Y3668610D01*
X956457Y3056197D01*
X958284Y3049377D01*
X969527Y3029904D01*
X971853Y3027578D01*
X962085Y3001424D01*
X949996Y3000570D01*
X416291Y3534276D01*
X400540Y3546362D01*
X395454Y3548469D01*
X382340Y3571182D01*
X363182Y3590341D01*
X339718Y3603888D01*
X313547Y3610900D01*
X286453D01*
X260282Y3603888D01*
X236818Y3590341D01*
X217659Y3571182D01*
X204112Y3547718D01*
X197100Y3521547D01*
Y3494453D01*
X204112Y3468282D01*
X217659Y3444818D01*
X236818Y3425660D01*
X260282Y3412113D01*
X286453Y3405100D01*
X313547D01*
X321949Y3407352D01*
X322699Y3407041D01*
X329290Y3406173D01*
X370988Y3364475D01*
X365852Y3340610D01*
X362091Y3337451D01*
X360747Y3337746D01*
X339718Y3349888D01*
X313547Y3356900D01*
X286453D01*
X260282Y3349888D01*
X236818Y3336341D01*
X217659Y3317182D01*
X204112Y3293718D01*
X197100Y3267547D01*
Y3240453D01*
X204112Y3214282D01*
X217659Y3190818D01*
X236818Y3171660D01*
X260282Y3158113D01*
X286453Y3151100D01*
X313547D01*
X339718Y3158113D01*
X351008Y3164631D01*
X426987Y3088652D01*
X415123Y3064595D01*
X408040Y3065527D01*
X379995D01*
X363182Y3082341D01*
X339718Y3095888D01*
X313547Y3102900D01*
X286453D01*
X260282Y3095888D01*
X236818Y3082341D01*
X217659Y3063182D01*
X204112Y3039718D01*
X197100Y3013547D01*
Y2986453D01*
X204112Y2960282D01*
X217659Y2936818D01*
X236818Y2917660D01*
X260282Y2904113D01*
X286453Y2897100D01*
X313547D01*
X339718Y2904113D01*
X355849Y2913426D01*
X376538D01*
X470014Y2819951D01*
X459492Y2794551D01*
X390788D01*
X382340Y2809182D01*
X363182Y2828341D01*
X339718Y2841888D01*
X313547Y2848900D01*
X286453D01*
X260282Y2841888D01*
X236818Y2828341D01*
X217659Y2809182D01*
X204112Y2785718D01*
X197100Y2759547D01*
Y2732453D01*
X204112Y2706282D01*
X217659Y2682818D01*
X236818Y2663660D01*
X260282Y2650113D01*
X286453Y2643100D01*
X313547D01*
X321949Y2645352D01*
X322699Y2645041D01*
X342383Y2642450D01*
X445221D01*
X666890Y2420781D01*
Y2309731D01*
X669481Y2290048D01*
X677078Y2271706D01*
X689164Y2255956D01*
X1061272Y1883847D01*
X1077023Y1871762D01*
X1095365Y1864164D01*
X1115048Y1861573D01*
X2038933D01*
X2045046Y1858044D01*
X2066767Y1852224D01*
X2089253D01*
X2110973Y1858044D01*
X2130446Y1869287D01*
X2146346Y1885187D01*
X2157590Y1904660D01*
X2163409Y1926380D01*
Y1948867D01*
X2157590Y1970587D01*
X2146346Y1990060D01*
X2130446Y2005960D01*
X2110973Y2017203D01*
X2089253Y2023023D01*
X2066767D01*
X2045046Y2017203D01*
X2038933Y2013674D01*
X1146550D01*
X818991Y2341233D01*
Y2452282D01*
X816400Y2471966D01*
X808802Y2490307D01*
X808630Y2490532D01*
X821156Y2515932D01*
X1019247D01*
X1029768Y2490532D01*
X980542Y2441306D01*
X968456Y2425555D01*
X960858Y2407214D01*
X958267Y2387530D01*
Y2315241D01*
X952464Y2293584D01*
Y2271098D01*
X958284Y2249378D01*
X969527Y2229904D01*
X985427Y2214004D01*
X1004901Y2202761D01*
X1026621Y2196941D01*
X1049107D01*
X1070827Y2202761D01*
X1090301Y2214004D01*
X1106201Y2229904D01*
X1117444Y2249378D01*
X1123264Y2271098D01*
Y2293584D01*
X1117444Y2315304D01*
X1110368Y2327559D01*
Y2356029D01*
X1130571Y2376231D01*
X1617748D01*
X1640318Y2353661D01*
X1627170Y2330888D01*
X1608843Y2335799D01*
X1581485D01*
X1555060Y2328718D01*
X1531368Y2315040D01*
X1512023Y2295695D01*
X1498344Y2272003D01*
X1491264Y2245577D01*
Y2218220D01*
X1498344Y2191795D01*
X1512023Y2168103D01*
X1531368Y2148758D01*
X1555060Y2135079D01*
X1581485Y2127999D01*
X1608843D01*
X1635268Y2135079D01*
X1658960Y2148758D01*
X1678305Y2168103D01*
X1691983Y2191795D01*
X1699064Y2218220D01*
Y2245577D01*
X1695999Y2257014D01*
X1718773Y2270162D01*
X1745264Y2243671D01*
Y2218220D01*
X1752344Y2191795D01*
X1766023Y2168103D01*
X1785368Y2148758D01*
X1809060Y2135079D01*
X1835485Y2127999D01*
X1862843D01*
X1889268Y2135079D01*
X1912960Y2148758D01*
X1932305Y2168103D01*
X1945983Y2191795D01*
X1953064Y2218220D01*
Y2245577D01*
X1945983Y2272003D01*
X1932305Y2295695D01*
X1912960Y2315040D01*
X1889268Y2328718D01*
X1870215Y2333823D01*
X1814311Y2389728D01*
X1813335Y2392083D01*
X1801249Y2407834D01*
X1718551Y2490532D01*
X1729071Y2515932D01*
X1765061D01*
X1787369Y2493624D01*
X1789196Y2486806D01*
X1800439Y2467332D01*
X1816340Y2451432D01*
X1835813Y2440189D01*
X1857533Y2434369D01*
X1880019D01*
X1901739Y2440189D01*
X1921213Y2451432D01*
X1937113Y2467332D01*
X1948356Y2486806D01*
X1954176Y2508526D01*
Y2531012D01*
X1948356Y2552732D01*
X1937113Y2572205D01*
X1921213Y2588106D01*
X1901739Y2599349D01*
X1894921Y2601176D01*
X1850338Y2645759D01*
X1834587Y2657845D01*
X1816245Y2665442D01*
X1796562Y2668034D01*
X1705519D01*
X1698713Y2693434D01*
X1711095Y2700583D01*
X1726995Y2716483D01*
X1738238Y2735956D01*
X1744058Y2757676D01*
Y2780163D01*
X1738238Y2801883D01*
X1726995Y2821356D01*
X1711095Y2837256D01*
X1691621Y2848500D01*
X1669901Y2854319D01*
X1647415D01*
X1625695Y2848500D01*
X1619582Y2844970D01*
X1246020D01*
X1235498Y2870370D01*
X1296761Y2931633D01*
X1310973Y2935441D01*
X1330446Y2946684D01*
X1346347Y2962584D01*
X1357590Y2982058D01*
X1363410Y3003778D01*
Y3026264D01*
X1357590Y3047984D01*
X1346347Y3067458D01*
X1330446Y3083358D01*
X1310973Y3094601D01*
X1289253Y3100421D01*
X1266767D01*
X1245047Y3094601D01*
X1225573Y3083358D01*
X1209673Y3067458D01*
X1199004Y3048979D01*
X1142317Y2992292D01*
X1103220D01*
X1097090Y3002594D01*
X1093989Y3017692D01*
X1106201Y3029904D01*
X1117444Y3049377D01*
X1123264Y3071097D01*
Y3093584D01*
X1117444Y3115304D01*
X1106201Y3134777D01*
X1090301Y3150677D01*
X1070827Y3161921D01*
X1064009Y3163747D01*
X422504Y3805252D01*
X406754Y3817339D01*
X388412Y3824936D01*
X381703Y3825819D01*
X363182Y3844341D01*
X339718Y3857888D01*
X313547Y3864900D01*
D02*
G37*
G36*
X5050870Y3012091D02*
X4978562D01*
Y2939783D01*
X4998823Y2945212D01*
X5018297Y2956455D01*
X5034197Y2972355D01*
X5045440Y2991829D01*
X5050870Y3012091D01*
D02*
G37*
G36*
X4953162D02*
X4880851D01*
X4886280Y2991829D01*
X4897523Y2972355D01*
X4913423Y2956455D01*
X4932897Y2945212D01*
X4953162Y2939782D01*
Y3012091D01*
D02*
G37*
G36*
X4978562Y2787954D02*
Y2715645D01*
X5050870D01*
X5045440Y2735908D01*
X5034197Y2755381D01*
X5018297Y2771281D01*
X4998823Y2782525D01*
X4978562Y2787954D01*
D02*
G37*
G36*
X4953162Y2787955D02*
X4932897Y2782525D01*
X4913423Y2771281D01*
X4897523Y2755381D01*
X4886280Y2735908D01*
X4880851Y2715645D01*
X4953162D01*
Y2787955D01*
D02*
G37*
G36*
X5050870Y2690245D02*
X4978562D01*
Y2617936D01*
X4998823Y2623365D01*
X5018297Y2634608D01*
X5034197Y2650508D01*
X5045440Y2669981D01*
X5050870Y2690245D01*
D02*
G37*
G36*
X4953162D02*
X4880851D01*
X4886280Y2669981D01*
X4897523Y2650508D01*
X4913423Y2634608D01*
X4932897Y2623365D01*
X4953162Y2617935D01*
Y2690245D01*
D02*
G37*
G36*
X313547Y4626900D02*
X286453D01*
X260282Y4619888D01*
X236818Y4606341D01*
X217659Y4587182D01*
X204112Y4563718D01*
X197100Y4537547D01*
Y4510453D01*
X204112Y4484282D01*
X217659Y4460818D01*
X236818Y4441660D01*
X260282Y4428113D01*
X286453Y4421100D01*
X313547D01*
X339718Y4428113D01*
X363182Y4441660D01*
X369472Y4447949D01*
X429035D01*
X802193Y4074791D01*
Y3516520D01*
X804784Y3496837D01*
X812382Y3478495D01*
X824468Y3462744D01*
X1100535Y3186677D01*
X1116286Y3174591D01*
X1123883Y3171444D01*
X1134627Y3166994D01*
X1154311Y3164402D01*
X2098628D01*
X2343471Y2919560D01*
X2359221Y2907473D01*
X2366819Y2904327D01*
X2377563Y2899876D01*
X2397247Y2897285D01*
X2636503D01*
X3032324Y2501464D01*
X3048075Y2489378D01*
X3055672Y2486231D01*
X3066417Y2481781D01*
X3086100Y2479189D01*
X3434180D01*
X3551113Y2362256D01*
Y2302785D01*
X3544023Y2295695D01*
X3530344Y2272003D01*
X3523264Y2245577D01*
Y2218220D01*
X3530344Y2191795D01*
X3544023Y2168103D01*
X3563368Y2148758D01*
X3587060Y2135079D01*
X3613485Y2127999D01*
X3640843D01*
X3667268Y2135079D01*
X3690960Y2148758D01*
X3696076Y2153874D01*
X3929517D01*
X3939051Y2148369D01*
X3960771Y2142549D01*
X3983257D01*
X4004977Y2148369D01*
X4024451Y2159612D01*
X4040351Y2175513D01*
X4051594Y2194986D01*
X4057414Y2216706D01*
Y2239192D01*
X4051594Y2260912D01*
X4040351Y2280386D01*
X4024451Y2296286D01*
X4004977Y2307529D01*
X3983257Y2313349D01*
X3960771D01*
X3939051Y2307529D01*
X3936358Y2305975D01*
X3703215D01*
Y2393757D01*
X3700623Y2413441D01*
X3693026Y2431783D01*
X3680940Y2447533D01*
X3526979Y2601494D01*
X3537500Y2626894D01*
X3632932D01*
X3723324Y2536502D01*
Y2532704D01*
X3725915Y2513021D01*
X3733513Y2494679D01*
X3745599Y2478928D01*
X3804178Y2420349D01*
X3819928Y2408263D01*
X3827525Y2405117D01*
X3838270Y2400666D01*
X3857953Y2398075D01*
X4232027D01*
X4294662Y2335440D01*
X4281514Y2312666D01*
X4265904Y2316849D01*
X4242496D01*
X4219886Y2310791D01*
X4199614Y2299087D01*
X4183062Y2282535D01*
X4171358Y2262263D01*
X4165300Y2239653D01*
Y2216246D01*
X4171358Y2193635D01*
X4183062Y2173363D01*
X4199614Y2156812D01*
X4219886Y2145108D01*
X4233005Y2141592D01*
X4447107Y1927490D01*
Y1475266D01*
X4383494Y1411653D01*
X4365864D01*
X4352111Y1419593D01*
X4326576Y1426435D01*
X4306980D01*
X4283907Y1449508D01*
X4268156Y1461594D01*
X4249814Y1469191D01*
X4230131Y1471783D01*
X4114406D01*
X4101665Y1479139D01*
X4079945Y1484959D01*
X4057458D01*
X4035738Y1479139D01*
X4016265Y1467896D01*
X4000365Y1451996D01*
X3989122Y1432522D01*
X3983302Y1410802D01*
Y1388316D01*
X3989122Y1366596D01*
X4000365Y1347122D01*
X4016265Y1331222D01*
X4035738Y1319979D01*
X4057458Y1314159D01*
X4079945D01*
X4100555Y1319681D01*
X4198630D01*
X4215690Y1302622D01*
X4219800Y1287282D01*
X4233018Y1264388D01*
X4237307Y1260099D01*
Y1137972D01*
X4233018Y1133682D01*
X4219800Y1110788D01*
X4212958Y1085253D01*
Y1058817D01*
X4219800Y1033282D01*
X4233018Y1010388D01*
X4251711Y991695D01*
X4274605Y978477D01*
X4300140Y971635D01*
X4326576D01*
X4352111Y978477D01*
X4375005Y991695D01*
X4393698Y1010388D01*
X4406915Y1033282D01*
X4413757Y1058817D01*
Y1085253D01*
X4406915Y1110788D01*
X4393698Y1133682D01*
X4389408Y1137972D01*
Y1259551D01*
X4414995D01*
X4434678Y1262143D01*
X4453020Y1269740D01*
X4468771Y1281826D01*
X4576934Y1389989D01*
X4589020Y1405740D01*
X4596617Y1424081D01*
X4599208Y1443765D01*
Y1958991D01*
X4596617Y1978675D01*
X4589020Y1997017D01*
X4576934Y2012767D01*
X4354671Y2235030D01*
X4355192Y2238988D01*
X4382010Y2248091D01*
X4718952Y1911150D01*
Y1191340D01*
X4721543Y1171656D01*
X4729140Y1153314D01*
X4741226Y1137564D01*
X4850964Y1027826D01*
X4866715Y1015740D01*
X4885057Y1008143D01*
X4904740Y1005551D01*
X4999307D01*
Y918435D01*
X4974958D01*
Y847978D01*
X4974307Y843035D01*
X4974958Y838092D01*
Y822612D01*
X4765537Y586226D01*
X4763095Y585572D01*
X4743621Y574329D01*
X4727721Y558429D01*
X4716478Y538955D01*
X4710658Y517235D01*
Y494749D01*
X4716478Y473029D01*
X4727721Y453555D01*
X4743621Y437655D01*
X4763095Y426412D01*
X4784815Y420592D01*
X4807301D01*
X4829021Y426412D01*
X4848494Y437655D01*
X4864395Y453555D01*
X4875638Y473029D01*
X4878751Y484647D01*
X5085162Y717635D01*
X5175757D01*
Y918435D01*
X5151408D01*
Y1006099D01*
X5155698Y1010388D01*
X5168915Y1033282D01*
X5175757Y1058817D01*
Y1085253D01*
X5168915Y1110788D01*
X5155698Y1133682D01*
X5137005Y1152375D01*
X5114111Y1165593D01*
X5088576Y1172435D01*
X5062140D01*
X5036605Y1165593D01*
X5022852Y1157653D01*
X4936241D01*
X4871053Y1222841D01*
Y1942651D01*
X4868462Y1962334D01*
X4864011Y1973079D01*
X4860864Y1980676D01*
X4848778Y1996427D01*
X4317304Y2527901D01*
X4301553Y2539987D01*
X4283211Y2547585D01*
X4263528Y2550176D01*
X3889455D01*
X3875425Y2564205D01*
Y2568003D01*
X3872834Y2587687D01*
X3868383Y2598431D01*
X3865237Y2606029D01*
X3853151Y2621779D01*
X3718209Y2756720D01*
X3702459Y2768807D01*
X3689489Y2774179D01*
X3698669Y2797869D01*
X4196974D01*
X4208736Y2791078D01*
X4231346Y2785020D01*
X4254754D01*
X4277364Y2791078D01*
X4297636Y2802782D01*
X4314188Y2819334D01*
X4325892Y2839605D01*
X4331950Y2862216D01*
Y2885623D01*
X4325892Y2908234D01*
X4314188Y2928505D01*
X4297636Y2945057D01*
X4277364Y2956761D01*
X4254754Y2962820D01*
X4231346D01*
X4208736Y2956761D01*
X4196974Y2949970D01*
X4050730D01*
X4040209Y2975370D01*
X4040351Y2975512D01*
X4051019Y2993991D01*
X4064336Y3007307D01*
X4370381D01*
X4386855Y2990833D01*
X4389810Y2985716D01*
Y2742021D01*
X4386280Y2735908D01*
X4380460Y2714188D01*
Y2691701D01*
X4386280Y2669981D01*
X4397523Y2650508D01*
X4413423Y2634608D01*
X4432897Y2623365D01*
X4454617Y2617545D01*
X4477103D01*
X4498823Y2623365D01*
X4518297Y2634608D01*
X4534197Y2650508D01*
X4545440Y2669981D01*
X4551260Y2691701D01*
Y2714188D01*
X4545440Y2735908D01*
X4541911Y2742021D01*
Y2985716D01*
X4545440Y2991829D01*
X4551260Y3013549D01*
Y3036035D01*
X4545440Y3057755D01*
X4534197Y3077229D01*
X4518297Y3093129D01*
X4498823Y3104372D01*
X4484612Y3108180D01*
X4455658Y3137134D01*
X4439907Y3149220D01*
X4421565Y3156817D01*
X4401882Y3159409D01*
X4032835D01*
X4013151Y3156817D01*
X3994809Y3149220D01*
X3979059Y3137134D01*
X3953262Y3111337D01*
X3939051Y3107529D01*
X3919577Y3096286D01*
X3903677Y3080386D01*
X3892434Y3060912D01*
X3886614Y3039192D01*
Y3016706D01*
X3892434Y2994986D01*
X3903677Y2975512D01*
X3903819Y2975370D01*
X3893298Y2949970D01*
X3397244D01*
X3024458Y3322756D01*
X3008708Y3334842D01*
X2990366Y3342439D01*
X2970682Y3345031D01*
X2748584D01*
X2687215Y3406400D01*
Y3431012D01*
X2694305Y3438103D01*
X2707983Y3461795D01*
X2715064Y3488220D01*
Y3515577D01*
X2707983Y3542003D01*
X2694305Y3565695D01*
X2674960Y3585040D01*
X2651268Y3598718D01*
X2624843Y3605799D01*
X2597485D01*
X2571060Y3598718D01*
X2547368Y3585040D01*
X2528023Y3565695D01*
X2514344Y3542003D01*
X2507264Y3515577D01*
Y3488220D01*
X2514344Y3461795D01*
X2528023Y3438103D01*
X2535113Y3431012D01*
Y3374899D01*
X2537705Y3355215D01*
X2545302Y3336874D01*
X2525576Y3320857D01*
X2437979Y3408454D01*
Y3435776D01*
X2440305Y3438103D01*
X2453983Y3461795D01*
X2461064Y3488220D01*
Y3515577D01*
X2453983Y3542003D01*
X2440305Y3565695D01*
X2420960Y3585040D01*
X2397268Y3598718D01*
X2370843Y3605799D01*
X2343485D01*
X2317060Y3598718D01*
X2293368Y3585040D01*
X2274023Y3565695D01*
X2260344Y3542003D01*
X2253264Y3515577D01*
Y3488220D01*
X2260344Y3461795D01*
X2274023Y3438103D01*
X2282596Y3429530D01*
Y3380234D01*
X2285187Y3360551D01*
X2292785Y3342209D01*
X2304871Y3326458D01*
X2556543Y3074786D01*
X2546022Y3049386D01*
X2428748D01*
X2183905Y3294229D01*
X2168154Y3306315D01*
X2149813Y3313912D01*
X2130129Y3316504D01*
X1185812D01*
X954294Y3548021D01*
Y4106293D01*
X951703Y4125976D01*
X944106Y4144318D01*
X932019Y4160068D01*
X514312Y4577776D01*
X498561Y4589862D01*
X480220Y4597459D01*
X460536Y4600051D01*
X369472D01*
X363182Y4606341D01*
X339718Y4619888D01*
X313547Y4626900D01*
D02*
G37*
G36*
Y2340900D02*
X312699D01*
Y2250699D01*
X402900D01*
Y2251547D01*
X395887Y2277718D01*
X382340Y2301182D01*
X363182Y2320341D01*
X339718Y2333888D01*
X313547Y2340900D01*
D02*
G37*
G36*
X287299D02*
X286453D01*
X260282Y2333888D01*
X236818Y2320341D01*
X217659Y2301182D01*
X204112Y2277718D01*
X197100Y2251547D01*
Y2250699D01*
X287299D01*
Y2340900D01*
D02*
G37*
G36*
X3386843Y2335799D02*
X3385864D01*
Y2244599D01*
X3477064D01*
Y2245577D01*
X3469983Y2272003D01*
X3456305Y2295695D01*
X3436960Y2315040D01*
X3413268Y2328718D01*
X3386843Y2335799D01*
D02*
G37*
G36*
X3360464D02*
X3359485D01*
X3333060Y2328718D01*
X3309368Y2315040D01*
X3290023Y2295695D01*
X3276344Y2272003D01*
X3269264Y2245577D01*
Y2244599D01*
X3360464D01*
Y2335799D01*
D02*
G37*
G36*
X402900Y2225299D02*
X312699D01*
Y2135100D01*
X313547D01*
X339718Y2142113D01*
X363182Y2155660D01*
X382340Y2174818D01*
X395887Y2198282D01*
X402900Y2224453D01*
Y2225299D01*
D02*
G37*
G36*
X287299D02*
X197100D01*
Y2224453D01*
X204112Y2198282D01*
X217659Y2174818D01*
X236818Y2155660D01*
X260282Y2142113D01*
X286453Y2135100D01*
X287299D01*
Y2225299D01*
D02*
G37*
G36*
X3477064Y2219199D02*
X3385864D01*
Y2127999D01*
X3386843D01*
X3413268Y2135079D01*
X3436960Y2148758D01*
X3456305Y2168103D01*
X3469983Y2191795D01*
X3477064Y2218220D01*
Y2219199D01*
D02*
G37*
G36*
X3360464D02*
X3269264D01*
Y2218220D01*
X3276344Y2191795D01*
X3290023Y2168103D01*
X3309368Y2148758D01*
X3333060Y2135079D01*
X3359485Y2127999D01*
X3360464D01*
Y2219199D01*
D02*
G37*
G36*
X2680019Y2605169D02*
X2657533D01*
X2635813Y2599349D01*
X2616339Y2588106D01*
X2600439Y2572205D01*
X2589196Y2552732D01*
X2588336Y2549521D01*
X2557388Y2518573D01*
X2545302Y2502823D01*
X2537705Y2484481D01*
X2535113Y2464797D01*
Y2302785D01*
X2528023Y2295695D01*
X2514344Y2272003D01*
X2507264Y2245577D01*
Y2218220D01*
X2514344Y2191795D01*
X2528023Y2168103D01*
X2547368Y2148758D01*
X2571060Y2135079D01*
X2597485Y2127999D01*
X2624843D01*
X2651268Y2135079D01*
X2674960Y2148758D01*
X2694305Y2168103D01*
X2707983Y2191795D01*
X2715064Y2218220D01*
Y2245577D01*
X2707983Y2272003D01*
X2694305Y2295695D01*
X2687215Y2302785D01*
Y2433296D01*
X2691314Y2437395D01*
X2701739Y2440189D01*
X2721213Y2451432D01*
X2737113Y2467332D01*
X2748356Y2486806D01*
X2754176Y2508526D01*
Y2531012D01*
X2748356Y2552732D01*
X2737113Y2572205D01*
X2721213Y2588106D01*
X2701739Y2599349D01*
X2680019Y2605169D01*
D02*
G37*
G36*
X2469901Y2854319D02*
X2447415D01*
X2425695Y2848500D01*
X2406221Y2837256D01*
X2390321Y2821356D01*
X2379078Y2801883D01*
X2375270Y2787672D01*
X2321610Y2734011D01*
X2309524Y2718261D01*
X2301926Y2699919D01*
X2299335Y2680235D01*
Y2655041D01*
X2291302Y2644572D01*
X2283705Y2626230D01*
X2281113Y2606547D01*
Y2302785D01*
X2274023Y2295695D01*
X2260344Y2272003D01*
X2253264Y2245577D01*
Y2218220D01*
X2260344Y2191795D01*
X2274023Y2168103D01*
X2293368Y2148758D01*
X2317060Y2135079D01*
X2343485Y2127999D01*
X2370843D01*
X2397268Y2135079D01*
X2420960Y2148758D01*
X2440305Y2168103D01*
X2453983Y2191795D01*
X2461064Y2218220D01*
Y2245577D01*
X2453983Y2272003D01*
X2440305Y2295695D01*
X2433215Y2302785D01*
Y2576275D01*
X2441248Y2586743D01*
X2444394Y2594341D01*
X2448845Y2605085D01*
X2451436Y2624769D01*
Y2648734D01*
X2492617Y2689914D01*
X2511095Y2700583D01*
X2526995Y2716483D01*
X2538238Y2735956D01*
X2544058Y2757676D01*
Y2780163D01*
X2538238Y2801883D01*
X2526995Y2821356D01*
X2511095Y2837256D01*
X2491621Y2848500D01*
X2469901Y2854319D01*
D02*
G37*
G36*
X2089253Y3100421D02*
X2066767D01*
X2045046Y3094601D01*
X2025573Y3083358D01*
X2009673Y3067458D01*
X1998430Y3047984D01*
X1992610Y3026264D01*
Y3003778D01*
X1998430Y2982058D01*
X2009673Y2962584D01*
X2025573Y2946684D01*
X2027113Y2945795D01*
Y2302785D01*
X2020023Y2295695D01*
X2006344Y2272003D01*
X1999264Y2245577D01*
Y2218220D01*
X2006344Y2191795D01*
X2020023Y2168103D01*
X2039368Y2148758D01*
X2063060Y2135079D01*
X2089485Y2127999D01*
X2116843D01*
X2143268Y2135079D01*
X2166960Y2148758D01*
X2186305Y2168103D01*
X2199983Y2191795D01*
X2207064Y2218220D01*
Y2245577D01*
X2199983Y2272003D01*
X2186305Y2295695D01*
X2179215Y2302785D01*
Y2984455D01*
X2176623Y3004138D01*
X2169026Y3022480D01*
X2161954Y3031696D01*
X2157590Y3047984D01*
X2146346Y3067458D01*
X2130446Y3083358D01*
X2110973Y3094601D01*
X2089253Y3100421D01*
D02*
G37*
G36*
X1445064Y2335799D02*
X1237264D01*
Y2127999D01*
X1445064D01*
Y2335799D01*
D02*
G37*
G36*
X313547Y2086900D02*
X312699D01*
Y1996699D01*
X402900D01*
Y1997547D01*
X395887Y2023718D01*
X382340Y2047182D01*
X363182Y2066341D01*
X339718Y2079888D01*
X313547Y2086900D01*
D02*
G37*
G36*
X287299D02*
X286453D01*
X260282Y2079888D01*
X236818Y2066341D01*
X217659Y2047182D01*
X204112Y2023718D01*
X197100Y1997547D01*
Y1996699D01*
X287299D01*
Y2086900D01*
D02*
G37*
G36*
X3615316Y1986069D02*
Y1913759D01*
X3687626D01*
X3682196Y1934023D01*
X3670953Y1953496D01*
X3655053Y1969396D01*
X3635579Y1980639D01*
X3615316Y1986069D01*
D02*
G37*
G36*
X3589916D02*
X3569653Y1980639D01*
X3550180Y1969396D01*
X3534279Y1953496D01*
X3523036Y1934023D01*
X3517607Y1913759D01*
X3589916D01*
Y1986069D01*
D02*
G37*
G36*
X402900Y1971299D02*
X312699D01*
Y1881100D01*
X313547D01*
X339718Y1888113D01*
X363182Y1901660D01*
X382340Y1920818D01*
X395887Y1944282D01*
X402900Y1970453D01*
Y1971299D01*
D02*
G37*
G36*
X287299D02*
X197100D01*
Y1970453D01*
X204112Y1944282D01*
X217659Y1920818D01*
X236818Y1901660D01*
X260282Y1888113D01*
X286453Y1881100D01*
X287299D01*
Y1971299D01*
D02*
G37*
G36*
X2878843Y2335799D02*
X2851485D01*
X2825060Y2328718D01*
X2801368Y2315040D01*
X2782023Y2295695D01*
X2768344Y2272003D01*
X2761264Y2245577D01*
Y2218220D01*
X2768344Y2191795D01*
X2782023Y2168103D01*
X2798132Y2151994D01*
Y1969477D01*
X2792610Y1948867D01*
Y1926380D01*
X2798430Y1904660D01*
X2809673Y1885187D01*
X2825573Y1869287D01*
X2845046Y1858044D01*
X2866766Y1852224D01*
X2889253D01*
X2910973Y1858044D01*
X2930446Y1869287D01*
X2946346Y1885187D01*
X2957589Y1904660D01*
X2963409Y1926380D01*
Y1948867D01*
X2957589Y1970587D01*
X2950233Y1983328D01*
Y2171443D01*
X2961983Y2191795D01*
X2969064Y2218220D01*
Y2245577D01*
X2961983Y2272003D01*
X2948305Y2295695D01*
X2928960Y2315040D01*
X2905268Y2328718D01*
X2878843Y2335799D01*
D02*
G37*
G36*
X3687626Y1888359D02*
X3615316D01*
Y1816050D01*
X3635579Y1821479D01*
X3655053Y1832723D01*
X3670953Y1848623D01*
X3682196Y1868096D01*
X3687626Y1888359D01*
D02*
G37*
G36*
X3589916D02*
X3517607D01*
X3523036Y1868096D01*
X3534279Y1848623D01*
X3550180Y1832723D01*
X3569653Y1821479D01*
X3589916Y1816050D01*
Y1888359D01*
D02*
G37*
G36*
X5594007Y2404836D02*
X5143304D01*
Y1804181D01*
X5594007D01*
Y2404836D01*
D02*
G37*
G36*
X5088576Y1680435D02*
X5088058D01*
Y1592735D01*
X5175757D01*
Y1593253D01*
X5168915Y1618788D01*
X5155698Y1641682D01*
X5137005Y1660375D01*
X5114111Y1673593D01*
X5088576Y1680435D01*
D02*
G37*
G36*
X5062658D02*
X5062140D01*
X5036605Y1673593D01*
X5013711Y1660375D01*
X4995018Y1641682D01*
X4981800Y1618788D01*
X4974958Y1593253D01*
Y1592735D01*
X5062658D01*
Y1680435D01*
D02*
G37*
G36*
X313547Y1578900D02*
X312699D01*
Y1488699D01*
X402900D01*
Y1489547D01*
X395887Y1515718D01*
X382340Y1539182D01*
X363182Y1558341D01*
X339718Y1571888D01*
X313547Y1578900D01*
D02*
G37*
G36*
X287299D02*
X286453D01*
X260282Y1571888D01*
X236818Y1558341D01*
X217659Y1539182D01*
X204112Y1515718D01*
X197100Y1489547D01*
Y1488699D01*
X287299D01*
Y1578900D01*
D02*
G37*
G36*
X5175757Y1567335D02*
X5088058D01*
Y1479635D01*
X5088576D01*
X5114111Y1486477D01*
X5137005Y1499695D01*
X5155698Y1518388D01*
X5168915Y1541282D01*
X5175757Y1566817D01*
Y1567335D01*
D02*
G37*
G36*
X5062658D02*
X4974958D01*
Y1566817D01*
X4981800Y1541282D01*
X4995018Y1518388D01*
X5013711Y1499695D01*
X5036605Y1486477D01*
X5062140Y1479635D01*
X5062658D01*
Y1567335D01*
D02*
G37*
G36*
X4113859Y1986459D02*
X4091373D01*
X4069653Y1980639D01*
X4050180Y1969396D01*
X4034279Y1953496D01*
X4023036Y1934023D01*
X4021209Y1927204D01*
X3810983Y1716978D01*
X3565733D01*
X3559620Y1720507D01*
X3537899Y1726327D01*
X3515413D01*
X3493693Y1720507D01*
X3474220Y1709264D01*
X3458319Y1693364D01*
X3447076Y1673890D01*
X3441257Y1652170D01*
Y1629684D01*
X3447076Y1607964D01*
X3458319Y1588490D01*
X3474220Y1572590D01*
X3493693Y1561347D01*
X3515413Y1555527D01*
X3537899D01*
X3559620Y1561347D01*
X3565733Y1564876D01*
X3842484D01*
X3862168Y1567468D01*
X3880509Y1575065D01*
X3896260Y1587151D01*
X4102616Y1793508D01*
X4233350Y1662774D01*
Y1642014D01*
X4233018Y1641682D01*
X4219800Y1618788D01*
X4212958Y1593253D01*
Y1566817D01*
X4219800Y1541282D01*
X4233018Y1518388D01*
X4251711Y1499695D01*
X4274605Y1486477D01*
X4300140Y1479635D01*
X4326576D01*
X4352111Y1486477D01*
X4375005Y1499695D01*
X4393698Y1518388D01*
X4406915Y1541282D01*
X4413757Y1566817D01*
Y1593253D01*
X4406915Y1618788D01*
X4393698Y1641682D01*
X4385451Y1649929D01*
Y1694276D01*
X4382860Y1713959D01*
X4375262Y1732301D01*
X4363176Y1748052D01*
X4184023Y1927204D01*
X4182196Y1934023D01*
X4170953Y1953496D01*
X4155053Y1969396D01*
X4135579Y1980639D01*
X4113859Y1986459D01*
D02*
G37*
G36*
X5337238Y1641327D02*
X5314752D01*
X5293032Y1635507D01*
X5273558Y1624264D01*
X5257658Y1608364D01*
X5246415Y1588890D01*
X5240595Y1567170D01*
Y1544684D01*
X5241585Y1540991D01*
X5214646Y1455263D01*
X5113232Y1419829D01*
X5088576Y1426435D01*
X5062140D01*
X5036605Y1419593D01*
X5013711Y1406375D01*
X4995018Y1387682D01*
X4981800Y1364788D01*
X4974958Y1339253D01*
Y1312817D01*
X4981800Y1287282D01*
X4995018Y1264388D01*
X5013711Y1245695D01*
X5036605Y1232477D01*
X5062140Y1225635D01*
X5088576D01*
X5114111Y1232477D01*
X5137005Y1245695D01*
X5155698Y1264388D01*
X5162322Y1275862D01*
X5300844Y1324262D01*
X5305765Y1326744D01*
X5310940Y1328633D01*
X5314589Y1331193D01*
X5318571Y1333201D01*
X5322681Y1336871D01*
X5327191Y1340036D01*
X5330054Y1343455D01*
X5333380Y1346424D01*
X5336400Y1351031D01*
X5339938Y1355257D01*
X5341819Y1359300D01*
X5344262Y1363029D01*
X5345987Y1368262D01*
X5348311Y1373258D01*
X5366755Y1431954D01*
X5381235Y1430048D01*
X5587185D01*
X5593298Y1426519D01*
X5615018Y1420699D01*
X5637505D01*
X5659225Y1426519D01*
X5678698Y1437762D01*
X5694598Y1453662D01*
X5705842Y1473136D01*
X5711661Y1494856D01*
Y1517342D01*
X5705842Y1539062D01*
X5694598Y1558536D01*
X5678698Y1574436D01*
X5659225Y1585679D01*
X5637505Y1591499D01*
X5615018D01*
X5593298Y1585679D01*
X5587185Y1582149D01*
X5412736D01*
X5405000Y1589885D01*
X5394332Y1608364D01*
X5378432Y1624264D01*
X5358958Y1635507D01*
X5337238Y1641327D01*
D02*
G37*
G36*
X402900Y1463299D02*
X312699D01*
Y1373100D01*
X313547D01*
X339718Y1380113D01*
X363182Y1393660D01*
X382340Y1412818D01*
X395887Y1436282D01*
X402900Y1462453D01*
Y1463299D01*
D02*
G37*
G36*
X287299D02*
X197100D01*
Y1462453D01*
X204112Y1436282D01*
X217659Y1412818D01*
X236818Y1393660D01*
X260282Y1380113D01*
X286453Y1373100D01*
X287299D01*
Y1463299D01*
D02*
G37*
G36*
X3132843Y2335799D02*
X3105485D01*
X3079060Y2328718D01*
X3055368Y2315040D01*
X3036023Y2295695D01*
X3022344Y2272003D01*
X3015264Y2245577D01*
Y2218220D01*
X3022344Y2191795D01*
X3036023Y2168103D01*
X3043113Y2161012D01*
Y1579166D01*
X3011612Y1547665D01*
X2911364D01*
Y1339865D01*
X3119164D01*
Y1440113D01*
X3172940Y1493889D01*
X3185026Y1509640D01*
X3188173Y1517237D01*
X3192623Y1527981D01*
X3195215Y1547665D01*
Y2161012D01*
X3202305Y2168103D01*
X3215983Y2191795D01*
X3223064Y2218220D01*
Y2245577D01*
X3215983Y2272003D01*
X3202305Y2295695D01*
X3182960Y2315040D01*
X3159268Y2328718D01*
X3132843Y2335799D01*
D02*
G37*
G36*
X313547Y2594900D02*
X286453D01*
X260282Y2587888D01*
X236818Y2574341D01*
X217659Y2555182D01*
X204112Y2531718D01*
X197100Y2505547D01*
Y2478453D01*
X204112Y2452282D01*
X217659Y2428818D01*
X236818Y2409660D01*
X260282Y2396113D01*
X286453Y2389100D01*
X313547D01*
X339718Y2396113D01*
X363182Y2409660D01*
X364277Y2410755D01*
X376538D01*
X444443Y2342850D01*
Y2251483D01*
X447034Y2231800D01*
X454632Y2213458D01*
X466718Y2197708D01*
X1274436Y1389989D01*
X1290187Y1377903D01*
X1308529Y1370306D01*
X1328212Y1367714D01*
X2690378D01*
X2697468Y1360624D01*
X2721160Y1346945D01*
X2747585Y1339865D01*
X2774943D01*
X2801368Y1346945D01*
X2825060Y1360624D01*
X2844405Y1379969D01*
X2858083Y1403661D01*
X2865164Y1430086D01*
Y1457444D01*
X2858083Y1483869D01*
X2844405Y1507561D01*
X2825060Y1526906D01*
X2801368Y1540584D01*
X2774943Y1547665D01*
X2747585D01*
X2721160Y1540584D01*
X2697468Y1526906D01*
X2690378Y1519816D01*
X1359714D01*
X596544Y2282985D01*
Y2374351D01*
X593953Y2394035D01*
X589503Y2404779D01*
X586356Y2412377D01*
X574270Y2428127D01*
X461815Y2540581D01*
X446065Y2552667D01*
X427723Y2560265D01*
X408040Y2562856D01*
X374666D01*
X363182Y2574341D01*
X339718Y2587888D01*
X313547Y2594900D01*
D02*
G37*
G36*
X5638961Y1091108D02*
Y1018799D01*
X5711271D01*
X5705842Y1039062D01*
X5694598Y1058536D01*
X5678698Y1074436D01*
X5659225Y1085679D01*
X5638961Y1091108D01*
D02*
G37*
G36*
X5613561D02*
X5593298Y1085679D01*
X5573825Y1074436D01*
X5557925Y1058536D01*
X5546682Y1039062D01*
X5541252Y1018799D01*
X5613561D01*
Y1091108D01*
D02*
G37*
G36*
Y993399D02*
X5541252D01*
X5546682Y973136D01*
X5557925Y953662D01*
X5573825Y937762D01*
X5593298Y926519D01*
X5613561Y921089D01*
Y993399D01*
D02*
G37*
G36*
X5711271D02*
X5638961D01*
Y921089D01*
X5659225Y926519D01*
X5678698Y937762D01*
X5694598Y953662D01*
X5705842Y973136D01*
X5711271Y993399D01*
D02*
G37*
G36*
X3803407Y1473082D02*
X3780921D01*
X3759201Y1467262D01*
X3739727Y1456019D01*
X3723827Y1440119D01*
X3712584Y1420645D01*
X3710757Y1413827D01*
X3472881Y1175951D01*
X3460794Y1160200D01*
X3453197Y1141858D01*
X3450606Y1122175D01*
Y880003D01*
X3447076Y873890D01*
X3441257Y852170D01*
Y829684D01*
X3447076Y807964D01*
X3458319Y788490D01*
X3474220Y772590D01*
X3493693Y761347D01*
X3515413Y755527D01*
X3537899D01*
X3559620Y761347D01*
X3579093Y772590D01*
X3594993Y788490D01*
X3606236Y807964D01*
X3612056Y829684D01*
Y852170D01*
X3606236Y873890D01*
X3602707Y880003D01*
Y1090674D01*
X3792164Y1280131D01*
X3988824Y1083470D01*
Y931412D01*
X3983302Y910802D01*
Y888316D01*
X3989122Y866596D01*
X4000365Y847122D01*
X4016265Y831222D01*
X4035738Y819979D01*
X4057458Y814159D01*
X4079945D01*
X4101665Y819979D01*
X4121138Y831222D01*
X4137038Y847122D01*
X4148282Y866596D01*
X4154101Y888316D01*
Y910802D01*
X4148282Y932522D01*
X4140925Y945263D01*
Y1114971D01*
X4138334Y1134655D01*
X4130737Y1152997D01*
X4118651Y1168747D01*
X3873571Y1413827D01*
X3871744Y1420645D01*
X3860501Y1440119D01*
X3844601Y1456019D01*
X3825127Y1467262D01*
X3803407Y1473082D01*
D02*
G37*
G36*
X313547Y1832900D02*
X286453D01*
X260282Y1825888D01*
X236818Y1812341D01*
X217659Y1793182D01*
X204112Y1769718D01*
X197100Y1743547D01*
Y1716453D01*
X204112Y1690282D01*
X217659Y1666818D01*
X236818Y1647660D01*
X260282Y1634113D01*
X286453Y1627100D01*
X313547D01*
X339718Y1634113D01*
X363182Y1647660D01*
X369472Y1653949D01*
X521959D01*
X1642002Y533906D01*
X1657752Y521820D01*
X1676094Y514223D01*
X1695778Y511632D01*
X3753088D01*
X3759201Y508102D01*
X3780921Y502282D01*
X3803407D01*
X3825127Y508102D01*
X3844601Y519345D01*
X3860501Y535246D01*
X3871744Y554719D01*
X3877564Y576439D01*
Y598925D01*
X3871744Y620645D01*
X3860501Y640119D01*
X3844601Y656019D01*
X3825127Y667262D01*
X3803407Y673082D01*
X3780921D01*
X3759201Y667262D01*
X3753088Y663733D01*
X1727279D01*
X607236Y1783776D01*
X591485Y1795862D01*
X573143Y1803459D01*
X553460Y1806051D01*
X369472D01*
X363182Y1812341D01*
X339718Y1825888D01*
X313547Y1832900D01*
D02*
G37*
G36*
X5337238Y841327D02*
X5314752D01*
X5293032Y835507D01*
X5273558Y824264D01*
X5257658Y808364D01*
X5246415Y788890D01*
X5240595Y767170D01*
Y744684D01*
X5245750Y725447D01*
X5225227Y554109D01*
X5216478Y538955D01*
X5214651Y532137D01*
X5023639Y341125D01*
X4775494D01*
X4722586Y394033D01*
X4711918Y412511D01*
X4696018Y428411D01*
X4676544Y439654D01*
X4654824Y445474D01*
X4632338D01*
X4610618Y439654D01*
X4591144Y428411D01*
X4575244Y412511D01*
X4564001Y393037D01*
X4558181Y371317D01*
Y348831D01*
X4564001Y327111D01*
X4575244Y307637D01*
X4591144Y291737D01*
X4610618Y280494D01*
X4624829Y276686D01*
X4690217Y211298D01*
X4705967Y199212D01*
X4724309Y191615D01*
X4743993Y189023D01*
X5055140D01*
X5074823Y191615D01*
X5093165Y199212D01*
X5108916Y211298D01*
X5322202Y424585D01*
X5329021Y426412D01*
X5348495Y437655D01*
X5364395Y453555D01*
X5375638Y473029D01*
X5381458Y494749D01*
Y517235D01*
X5376303Y536473D01*
X5396826Y707810D01*
X5405575Y722964D01*
X5411395Y744684D01*
Y767170D01*
X5405575Y788890D01*
X5394332Y808364D01*
X5378432Y824264D01*
X5358958Y835507D01*
X5337238Y841327D01*
D02*
G37*
G36*
X313547Y1324900D02*
X286453D01*
X260282Y1317888D01*
X236818Y1304341D01*
X217659Y1285182D01*
X204112Y1261718D01*
X197100Y1235547D01*
Y1208453D01*
X204112Y1182282D01*
X217659Y1158818D01*
X236818Y1139660D01*
X260282Y1126113D01*
X286453Y1119100D01*
X295348D01*
X1108150Y306298D01*
X1123900Y294212D01*
X1131498Y291065D01*
X1142242Y286615D01*
X1161926Y284024D01*
X3804505D01*
X3810618Y280494D01*
X3832338Y274674D01*
X3854824D01*
X3876544Y280494D01*
X3896018Y291737D01*
X3911918Y307637D01*
X3923161Y327111D01*
X3928981Y348831D01*
Y371317D01*
X3923161Y393037D01*
X3911918Y412511D01*
X3896018Y428411D01*
X3876544Y439654D01*
X3854824Y445474D01*
X3832338D01*
X3810618Y439654D01*
X3804505Y436125D01*
X1193427D01*
X402900Y1226652D01*
Y1235547D01*
X395887Y1261718D01*
X382340Y1285182D01*
X363182Y1304341D01*
X339718Y1317888D01*
X313547Y1324900D01*
D02*
G37*
G36*
X4326576Y918435D02*
X4300140D01*
X4274605Y911593D01*
X4251711Y898375D01*
X4233018Y879682D01*
X4219800Y856788D01*
X4212958Y831253D01*
Y804817D01*
X4214025Y800833D01*
X4084412Y671220D01*
X4072326Y655470D01*
X4064729Y637128D01*
X4062137Y617444D01*
X4064729Y597761D01*
X4064875Y597409D01*
Y247335D01*
X4050846Y233306D01*
X885900D01*
X867479Y251727D01*
X865162Y260374D01*
X853458Y280646D01*
X836906Y297198D01*
X816634Y308902D01*
X794024Y314960D01*
X770616D01*
X748006Y308902D01*
X727734Y297198D01*
X711182Y280646D01*
X699478Y260374D01*
X693420Y237764D01*
Y214356D01*
X699478Y191746D01*
X711182Y171474D01*
X727734Y154922D01*
X748006Y143218D01*
X765597Y138505D01*
X800623Y103479D01*
X816373Y91393D01*
X834715Y83796D01*
X854399Y81204D01*
X4082347D01*
X4102030Y83796D01*
X4120372Y91393D01*
X4136123Y103479D01*
X4194701Y162058D01*
X4206787Y177808D01*
X4209934Y185406D01*
X4214385Y196150D01*
X4216976Y215834D01*
Y588681D01*
X4342134Y713838D01*
X4349828Y723866D01*
X4352111Y724477D01*
X4375005Y737695D01*
X4393698Y756388D01*
X4406915Y779282D01*
X4413757Y804817D01*
Y831253D01*
X4406915Y856788D01*
X4393698Y879682D01*
X4375005Y898375D01*
X4352111Y911593D01*
X4326576Y918435D01*
D02*
G37*
%LPD*%
G36*
X3311967Y2820143D02*
X3327717Y2808058D01*
X3340687Y2802686D01*
X3331507Y2778995D01*
X3283597D01*
X2895063Y3167529D01*
X2903272Y3191053D01*
X2904846Y3192929D01*
X2939181D01*
X3311967Y2820143D01*
D02*
G37*
G36*
X3190798Y2656691D02*
X3180277Y2631291D01*
X3117601D01*
X2730321Y3018571D01*
X2740842Y3043971D01*
X2803518D01*
X3190798Y2656691D01*
D02*
G37*
D10*
X2114519Y5219654D02*
G03*
X1972847Y5278337I-141672J-141672D01*
G01*
X3977426Y3027949D02*
X4032835Y3083358D01*
X4401882D01*
X4460448Y3024792D01*
X4465860D01*
X3972014Y3027949D02*
X3977426D01*
X2835019Y3120021D02*
X3252096Y2702945D01*
X3664433D02*
X3799375Y2568003D01*
X3252096Y2702945D02*
X3664433D01*
X3365743Y2873920D02*
X4243050D01*
X2970682Y3268980D02*
X3365743Y2873920D01*
X3857953Y2474125D02*
X4263528D01*
X3799375Y2532704D02*
X3857953Y2474125D01*
X3799375Y2532704D02*
Y2568003D01*
X4263528Y2474125D02*
X4795002Y1942651D01*
X3598664Y3530399D02*
X3627164Y3501899D01*
X3598664Y3530399D02*
Y3670431D01*
X3568585Y3700510D02*
X3598664Y3670431D01*
X3562489Y3700510D02*
X3568585D01*
X3500999Y3762000D02*
X3562489Y3700510D01*
X3493693Y3762000D02*
X3500999D01*
X3784411Y3952429D02*
X3886200Y3850640D01*
X3057057Y3952429D02*
X3784411D01*
X2865164Y3760536D02*
X3057057Y3952429D01*
X1887264Y3762000D02*
X2618860D01*
X1637867Y4011397D02*
X1887264Y3762000D01*
X4507212Y4072089D02*
X4511039Y4075916D01*
X4361649Y4072089D02*
X4507212D01*
X4140200Y3850640D02*
X4361649Y4072089D01*
X2865164Y3501899D02*
Y3760536D01*
X3627164Y2231899D02*
X3629139Y2229924D01*
X3970039D01*
X3972014Y2227949D01*
X3119164Y1547665D02*
Y2231899D01*
X3015264Y1443765D02*
X3119164Y1547665D01*
X1328212Y1443765D02*
X2761264D01*
X520494Y2251483D02*
X1328212Y1443765D01*
X520494Y2251483D02*
Y2374351D01*
X408040Y2486806D02*
X520494Y2374351D01*
X305194Y2486806D02*
X408040D01*
X300000Y2492000D02*
X305194Y2486806D01*
X4465860Y2702945D02*
Y3024792D01*
X2717083Y3268980D02*
X2970682D01*
X2611164Y3374899D02*
X2717083Y3268980D01*
X5055140Y265074D02*
X5296058Y505992D01*
X4743993Y265074D02*
X5055140D01*
X4648993Y360074D02*
X4743993Y265074D01*
X4643581Y360074D02*
X4648993D01*
X300000Y1730000D02*
X553460D01*
X1695778Y587682D01*
X3792164D01*
X1161926Y360074D02*
X3843581D01*
X300000Y1222000D02*
X1161926Y360074D01*
X3792164Y1387682D02*
X4064875Y1114971D01*
X3526656Y1122175D02*
X3792164Y1387682D01*
X3526656Y840927D02*
Y1122175D01*
X4064875Y903386D02*
Y1114971D01*
X854399Y157255D02*
X4082347D01*
X4140925Y215834D02*
Y614707D01*
X4082347Y157255D02*
X4140925Y215834D01*
X1679049Y5278337D02*
X1972847D01*
X782320Y226060D02*
X785594D01*
X854399Y157255D01*
X4138188Y617444D02*
X4140925Y614707D01*
X790590Y4524050D02*
X790640Y4524000D01*
X790590Y4524050D02*
Y4778000D01*
X521660Y4780333D02*
X522826Y4779166D01*
X789423D02*
X790590Y4778000D01*
X522826Y4779166D02*
X789423D01*
X520494D02*
X521660Y4780333D01*
X878244Y3516520D02*
Y4106293D01*
X460536Y4524000D02*
X878244Y4106293D01*
X300000Y4524000D02*
X460536D01*
X2358647Y3380234D02*
Y3500416D01*
X2618860Y3120021D02*
X2835019D01*
X2357164Y3501899D02*
X2358647Y3500416D01*
Y3380234D02*
X2618860Y3120021D01*
X2611164Y3374899D02*
Y3501899D01*
X4254200Y2227949D02*
X4523158Y1958991D01*
X3526656Y1640927D02*
X3842484D01*
X4138188Y617444D02*
X4288358Y767614D01*
X4796058Y505992D02*
X5050357Y793035D01*
X4288358Y767614D02*
Y779505D01*
X5296058Y505992D02*
X5325995Y755927D01*
X5050357Y793035D02*
X5075358Y818035D01*
X4288358Y779505D02*
X4313358Y804505D01*
Y818035D01*
X4795002Y1191340D02*
Y1942651D01*
X5325995Y1555927D02*
X5331407D01*
X5275758Y1396057D02*
X5325995Y1555927D01*
X5381235Y1506099D02*
X5626262D01*
X5075358Y1326035D02*
X5275758Y1396057D01*
X4523158Y1443765D02*
Y1958991D01*
X4414995Y1335602D02*
X4523158Y1443765D01*
X4230131Y1395732D02*
X4299828Y1326035D01*
X4313358D01*
X4322925Y1335602D02*
X4414995D01*
X4313358Y1326035D02*
X4322925Y1335602D01*
X4313358Y1072035D02*
Y1326035D01*
X4309400Y1583993D02*
X4313358Y1580035D01*
X4068702Y1399559D02*
X4072528Y1395732D01*
X4230131D01*
X4068702Y1399559D02*
X4072528Y1403386D01*
X4102616Y1901059D02*
X4309400Y1694276D01*
X3842484Y1640927D02*
X4102616Y1901059D01*
X4064875Y903386D02*
X4068702Y899559D01*
X4309400Y1583993D02*
Y1694276D01*
X5065791Y1081602D02*
X5075358Y1072035D01*
X4904740Y1081602D02*
X5065791D01*
X5075358Y818035D02*
Y1072035D01*
X5054197Y839195D02*
X5075358Y818035D01*
X5050358Y843035D02*
X5075358Y818035D01*
X4795002Y1191340D02*
X4904740Y1081602D01*
X5331407Y1555927D02*
X5381235Y1506099D01*
X3465681Y2555240D02*
X3627164Y2393757D01*
X3086100Y2555240D02*
X3465681D01*
X2668005Y2973335D02*
X3086100Y2555240D01*
X2397247Y2973335D02*
X2668005D01*
X2130129Y3240453D02*
X2397247Y2973335D01*
X3627164Y2231899D02*
Y2393757D01*
X1154311Y3240453D02*
X2130129D01*
X878244Y3516520D02*
X1154311Y3240453D01*
X300000Y3762000D02*
X310523Y3751477D01*
X368728D02*
X1035903Y3084302D01*
X310523Y3751477D02*
X368728D01*
X1035903Y3084302D02*
Y3084302D01*
X314883Y3508000D02*
X342383Y3480500D01*
X926773Y2916242D02*
X1173818D01*
X342383Y3480500D02*
X362515D01*
X926773Y2916242D01*
X300000Y3508000D02*
X314883D01*
X854271Y2768920D02*
X1658658D01*
X310523Y3243477D02*
X379714D01*
X854271Y2768920D01*
X1099070Y2452282D02*
X1649249D01*
X1034318Y2282341D02*
Y2387530D01*
X1099070Y2452282D01*
X1115048Y1937624D02*
X2078010D01*
X742940Y2309731D02*
X1115048Y1937624D01*
X742940Y2309731D02*
Y2452282D01*
X476722Y2718500D02*
X742940Y2452282D01*
X342383Y2718500D02*
X476722D01*
X314883Y2746000D02*
X342383Y2718500D01*
X805533Y2591983D02*
X1796562D01*
X310523Y2989477D02*
X408040D01*
X300000Y3000000D02*
X310523Y2989477D01*
X408040D02*
X805533Y2591983D01*
X300000Y2746000D02*
X314883D01*
X1173818Y2916242D02*
X1272598Y3015021D01*
X1649249Y2452282D02*
X1747473Y2354058D01*
Y2349013D02*
Y2354058D01*
X2865164Y2231899D02*
X2874183Y2222880D01*
Y1941450D02*
Y2222880D01*
Y1941450D02*
X2878009Y1937624D01*
X1849164Y2231899D02*
Y2247323D01*
X1747473Y2349013D02*
X1849164Y2247323D01*
X1272598Y3015021D02*
X1278010D01*
X1796562Y2591983D02*
X1868776Y2519769D01*
X2103164Y2231899D02*
Y2984455D01*
X2078010Y3009609D02*
Y3015021D01*
Y3009609D02*
X2103164Y2984455D01*
X2611164Y2231899D02*
Y2464797D01*
X2666135Y2519769D01*
X2668776D01*
X2357164Y2231899D02*
Y2606547D01*
X2375386Y2624769D01*
Y2680235D01*
X2458658Y2763508D01*
Y2768920D01*
X300000Y3254000D02*
X310523Y3243477D01*
X2040873Y4420853D02*
X2044700Y4424680D01*
X2040873Y4316842D02*
Y4420853D01*
X1876517Y4152486D02*
X2040873Y4316842D01*
X1637867Y4011397D02*
Y4366101D01*
X1244700Y4424680D02*
X1579288D01*
X1637867Y4366101D01*
X3180419Y4585603D02*
Y4904782D01*
X3477277Y5201640D01*
X1244700Y4424680D02*
X1246079Y4426059D01*
Y4672321D01*
X1247457Y4673700D01*
X1876517Y4148945D02*
Y4152486D01*
X2044700Y4424680D02*
X2048527Y4428507D01*
X2160053D01*
X2277628Y4546082D01*
Y4634213D01*
X2281455Y4638039D01*
X5273129Y3596400D02*
X5363100D01*
X4791407Y4078123D02*
X5273129Y3596400D01*
X5363100D02*
X5378100Y3581400D01*
X4511039Y4075916D02*
X4513895Y4078773D01*
X4785043D01*
X4787900Y4081629D01*
X5283100Y4429760D02*
X5478680Y4625340D01*
X4018484Y4429760D02*
X5283100D01*
X3754200Y4694045D02*
X4018484Y4429760D01*
X4511039Y4875916D02*
X4676341D01*
X4284634Y5092534D02*
X4294421D01*
X4284419Y5092748D02*
X4284634Y5092534D01*
X4294421D02*
X4511039Y4875916D01*
X4284419Y5092748D02*
Y5201640D01*
X301166Y4779166D02*
X520494D01*
X300000Y4778000D02*
X301166Y4779166D01*
X5477747Y4626272D02*
X5478680Y4625340D01*
X5477747Y4626272D02*
Y4875458D01*
X5476815Y4876390D02*
X5477747Y4875458D01*
X5476815Y4876390D02*
Y4881802D01*
X5468620Y4889997D02*
X5476815Y4881802D01*
X5468620Y4889997D02*
Y5142143D01*
X4284419Y4955326D02*
Y5092748D01*
X4668620Y5142143D02*
Y5318960D01*
X4331100Y5656480D02*
X4668620Y5318960D01*
X3625419Y4972640D02*
X3625634Y4972425D01*
Y4828023D02*
Y4972425D01*
Y4828023D02*
X3754200Y4699457D01*
Y4694045D02*
Y4699457D01*
X3374657Y5430640D02*
X3625419D01*
X3221424Y5277407D02*
X3374657Y5430640D01*
X2835019Y5277407D02*
X3221424D01*
X2463882Y5219654D02*
X2471188D01*
X2528941Y5277407D01*
X2835019D01*
X3625419Y5201640D02*
X4284419D01*
X3477277D02*
X3625419D01*
X2095156Y5469299D02*
X2281455Y5283001D01*
X2047457Y4673700D02*
X2281455Y4907697D01*
Y5283001D01*
X1679049Y5086220D02*
Y5278337D01*
X1630919Y5469299D02*
X2095156D01*
X1449640D02*
X1630919D01*
X1462140Y4833507D02*
Y4840813D01*
X1449855Y4853098D02*
X1462140Y4840813D01*
X1449855Y4853098D02*
Y5011084D01*
X1449640Y5011299D02*
X1449855Y5011084D01*
X1449640Y5011299D02*
X1604128D01*
X1679049Y5086220D01*
X1247457Y5149411D02*
X1338346Y5240299D01*
X1247457Y4673700D02*
Y5149411D01*
X790640Y5240299D02*
X1338346D01*
X1449640D01*
X790590Y5240349D02*
X790640Y5240299D01*
X607111Y5240349D02*
X790590D01*
X607060Y5240400D02*
X607111Y5240349D01*
X1449399Y5469540D02*
Y5776749D01*
X2416569Y5483650D02*
Y5583541D01*
X2223119Y5776990D02*
X2416569Y5583541D01*
D11*
X4140200Y3850640D02*
D03*
X2761264Y1443765D02*
D03*
X1595164Y2231899D02*
D03*
X1849164D02*
D03*
X2103164D02*
D03*
X2357164D02*
D03*
X2611164D02*
D03*
X2865164D02*
D03*
X3119164D02*
D03*
X3373164D02*
D03*
X3627164D02*
D03*
X3373164Y3501899D02*
D03*
X3119164D02*
D03*
X2865164D02*
D03*
X2611164D02*
D03*
X2357164D02*
D03*
X2103164D02*
D03*
X1849164D02*
D03*
X1595164D02*
D03*
X1341164D02*
D03*
D12*
X3886200Y3850640D02*
D03*
X3015264Y1443765D02*
D03*
X1341164Y2231899D02*
D03*
X3627164Y3501899D02*
D03*
D13*
X4643581Y360074D02*
D03*
X3843581D02*
D03*
X3792164Y587682D02*
D03*
Y1387682D02*
D03*
X5325995Y1555927D02*
D03*
Y755927D02*
D03*
X4068702Y899559D02*
D03*
Y1399559D02*
D03*
X5626262Y1006099D02*
D03*
Y1506099D02*
D03*
X5296058Y505992D02*
D03*
X4796058D02*
D03*
X4102616Y1901059D02*
D03*
X3602616D02*
D03*
X3526656Y840927D02*
D03*
Y1640927D02*
D03*
X1037864Y3082341D02*
D03*
Y2282341D02*
D03*
X1868776Y2519769D02*
D03*
X2668776D02*
D03*
X1658658Y2768920D02*
D03*
X2458658D02*
D03*
X1278010Y3015021D02*
D03*
X2078010D02*
D03*
X4965860Y3024792D02*
D03*
X4465860D02*
D03*
X2281455Y4138039D02*
D03*
Y4638039D02*
D03*
X4965860Y2702945D02*
D03*
X4465860D02*
D03*
X1376517Y4152486D02*
D03*
X1876517D02*
D03*
X1244700Y4424680D02*
D03*
X2044700D02*
D03*
X3972014Y2227949D02*
D03*
Y3027949D02*
D03*
X2878009Y1937624D02*
D03*
X2078010D02*
D03*
X1630919Y5469299D02*
D03*
X2430919D02*
D03*
X3180419Y4585603D02*
D03*
X3023119Y5776990D02*
D03*
X2223119D02*
D03*
X5476815Y4876390D02*
D03*
X4676815D02*
D03*
X5478680Y4625340D02*
D03*
X4678680D02*
D03*
X2047457Y4673700D02*
D03*
X1247457D02*
D03*
X607060Y5240400D02*
D03*
X1449157Y5776990D02*
D03*
X1949157D02*
D03*
X5093100Y5402480D02*
D03*
X5601100Y5656480D02*
D03*
X3754200Y4694045D02*
D03*
X4254200D02*
D03*
X5468620Y5142143D02*
D03*
X4668620D02*
D03*
X4787900Y4081629D02*
D03*
X5287900D02*
D03*
X4511039Y4075916D02*
D03*
Y4875916D02*
D03*
D14*
X5075358Y818035D02*
D03*
D15*
Y1072035D02*
D03*
Y1326035D02*
D03*
Y1580035D02*
D03*
X4313358Y818035D02*
D03*
Y1072035D02*
D03*
Y1326035D02*
D03*
Y1580035D02*
D03*
D16*
X300000Y1222000D02*
D03*
Y1476000D02*
D03*
Y1730000D02*
D03*
Y1984000D02*
D03*
Y2238000D02*
D03*
Y2492000D02*
D03*
Y2746000D02*
D03*
Y3000000D02*
D03*
Y3254000D02*
D03*
Y3508000D02*
D03*
Y3762000D02*
D03*
Y4016000D02*
D03*
Y4270000D02*
D03*
Y4524000D02*
D03*
D17*
Y4778000D02*
D03*
D18*
X2835019Y5277407D02*
D03*
D19*
Y5477407D02*
D03*
X5578100Y3581400D02*
D03*
X1879049Y5086220D02*
D03*
D20*
X5378100Y3581400D02*
D03*
X1679049Y5086220D02*
D03*
D21*
X2680419Y4585603D02*
D03*
X4331100Y5656480D02*
D03*
D22*
X607060Y5740400D02*
D03*
D23*
X4243050Y2873920D02*
D03*
X3493693Y3762000D02*
D03*
X2618860D02*
D03*
X782320Y226060D02*
D03*
X790640Y4524000D02*
D03*
X790590Y4778000D02*
D03*
X4254200Y2227949D02*
D03*
X521660Y4780333D02*
D03*
X2463882Y5219654D02*
D03*
X2114519D02*
D03*
X1462140Y4833507D02*
D03*
D24*
X86360Y5008459D02*
D03*
D25*
X790640Y5240299D02*
D03*
X4284419Y5201640D02*
D03*
D26*
X1449640Y5011299D02*
D03*
Y5240299D02*
D03*
X3625419Y5430640D02*
D03*
Y5201640D02*
D03*
D27*
X1449640Y5469299D02*
D03*
X3625419Y4972640D02*
D03*
D28*
X2416569Y5483650D02*
X2430919Y5469299D01*
X1449399Y5469540D02*
X1449640Y5469299D01*
X1449157Y5776990D02*
X1449399Y5776749D01*
D29*
X5518607Y1879581D02*
X5468623D01*
Y1929565D01*
X5518607D01*
Y1879581D01*
Y2279452D02*
X5218704D01*
X5368656Y2129500D01*
Y2329436D01*
D30*
X275766Y4982923D02*
Y5016246D01*
Y4999585D01*
X175798D01*
X192460Y4982923D01*
%TF.MD5,3522e0d4f15004610fbd2aaada9aa8c1*%
M02*
