%TF.GenerationSoftware,Altium Limited,Altium Designer,25.2.1 (25)*%
G04 Layer_Color=128*
%FSLAX45Y45*%
%MOMM*%
%TF.SameCoordinates,2170BF73-9D4C-4C4A-8FE2-E0CFDA2738D4*%
%TF.FilePolarity,Positive*%
%TF.FileFunction,Drillmap*%
%TF.Part,Single*%
G01*
G75*
%TA.AperFunction,NonConductor*%
%ADD60C,0.12700*%
D60*
X4089200Y3850640D02*
X4191200D01*
X4140200Y3799640D02*
Y3901640D01*
X3835200Y3850640D02*
X3937200D01*
X3886200Y3799640D02*
Y3901640D01*
X2710264Y1443765D02*
X2812264D01*
X2761264Y1392765D02*
Y1494765D01*
X2964264Y1443765D02*
X3066264D01*
X3015264Y1392765D02*
Y1494765D01*
X4613581Y360074D02*
X4673581D01*
X4643581Y330074D02*
Y390074D01*
X3813581Y360074D02*
X3873581D01*
X3843581Y330074D02*
Y390074D01*
X3762164Y587682D02*
X3822164D01*
X3792164Y557682D02*
Y617682D01*
X3762164Y1387682D02*
X3822164D01*
X3792164Y1357682D02*
Y1417682D01*
X5295995Y1555927D02*
X5355995D01*
X5325995Y1525927D02*
Y1585927D01*
X5295995Y755927D02*
X5355995D01*
X5325995Y725927D02*
Y785927D01*
X5030358Y818035D02*
X5120358D01*
X5075358Y773035D02*
Y863035D01*
X5030358Y1072035D02*
X5120358D01*
X5075358Y1027035D02*
Y1117035D01*
X5030358Y1326035D02*
X5120358D01*
X5075358Y1281035D02*
Y1371035D01*
X5030358Y1580035D02*
X5120358D01*
X5075358Y1535035D02*
Y1625035D01*
X4268358Y818035D02*
X4358358D01*
X4313358Y773035D02*
Y863035D01*
X4268358Y1072035D02*
X4358358D01*
X4313358Y1027035D02*
Y1117035D01*
X4268358Y1326035D02*
X4358358D01*
X4313358Y1281035D02*
Y1371035D01*
X4268358Y1580035D02*
X4358358D01*
X4313358Y1535035D02*
Y1625035D01*
X4033702Y899559D02*
X4103701D01*
X4068702Y864559D02*
Y934559D01*
X4033702Y1399559D02*
X4103701D01*
X4068702Y1364559D02*
Y1434559D01*
X5591262Y1006099D02*
X5661261D01*
X5626262Y971099D02*
Y1041099D01*
X5591262Y1506099D02*
X5661261D01*
X5626262Y1471099D02*
Y1541099D01*
X5261058Y505992D02*
X5331058D01*
X5296058Y470992D02*
Y540992D01*
X4761058Y505992D02*
X4831058D01*
X4796058Y470992D02*
Y540992D01*
X4067616Y1901059D02*
X4137616D01*
X4102616Y1866060D02*
Y1936059D01*
X3567616Y1901059D02*
X3637616D01*
X3602616Y1866060D02*
Y1936059D01*
X3496656Y840927D02*
X3556656D01*
X3526656Y810927D02*
Y870927D01*
X3496656Y1640927D02*
X3556656D01*
X3526656Y1610927D02*
Y1670927D01*
X1007864Y3082341D02*
X1067864D01*
X1037864Y3052341D02*
Y3112340D01*
X1007864Y2282341D02*
X1067864D01*
X1037864Y2252341D02*
Y2312341D01*
X1838776Y2519769D02*
X1898776D01*
X1868776Y2489769D02*
Y2549769D01*
X2638776Y2519769D02*
X2698776D01*
X2668776Y2489769D02*
Y2549769D01*
X1628658Y2768920D02*
X1688658D01*
X1658658Y2738920D02*
Y2798919D01*
X2428658Y2768920D02*
X2488658D01*
X2458658Y2738920D02*
Y2798919D01*
X1290164Y2231899D02*
X1392164D01*
X1341164Y2180899D02*
Y2282899D01*
X1544164Y2231899D02*
X1646164D01*
X1595164Y2180899D02*
Y2282899D01*
X1798164Y2231899D02*
X1900164D01*
X1849164Y2180899D02*
Y2282899D01*
X2052164Y2231899D02*
X2154164D01*
X2103164Y2180899D02*
Y2282899D01*
X2306164Y2231899D02*
X2408164D01*
X2357164Y2180899D02*
Y2282899D01*
X2560164Y2231899D02*
X2662164D01*
X2611164Y2180899D02*
Y2282899D01*
X2814164Y2231899D02*
X2916164D01*
X2865164Y2180899D02*
Y2282899D01*
X3068164Y2231899D02*
X3170164D01*
X3119164Y2180899D02*
Y2282899D01*
X3322164Y2231899D02*
X3424164D01*
X3373164Y2180899D02*
Y2282899D01*
X3576164Y2231899D02*
X3678164D01*
X3627164Y2180899D02*
Y2282899D01*
X3576164Y3501899D02*
X3678164D01*
X3627164Y3450899D02*
Y3552899D01*
X3322164Y3501899D02*
X3424164D01*
X3373164Y3450899D02*
Y3552899D01*
X3068164Y3501899D02*
X3170164D01*
X3119164Y3450899D02*
Y3552899D01*
X2814164Y3501899D02*
X2916164D01*
X2865164Y3450899D02*
Y3552899D01*
X2560164Y3501899D02*
X2662164D01*
X2611164Y3450899D02*
Y3552899D01*
X2306164Y3501899D02*
X2408164D01*
X2357164Y3450899D02*
Y3552899D01*
X2052164Y3501899D02*
X2154164D01*
X2103164Y3450899D02*
Y3552899D01*
X1798164Y3501899D02*
X1900164D01*
X1849164Y3450899D02*
Y3552899D01*
X1544164Y3501899D02*
X1646164D01*
X1595164Y3450899D02*
Y3552899D01*
X1290164Y3501899D02*
X1392164D01*
X1341164Y3450899D02*
Y3552899D01*
X1248010Y3015021D02*
X1308010D01*
X1278010Y2985021D02*
Y3045021D01*
X2048010Y3015021D02*
X2108010D01*
X2078010Y2985021D02*
Y3045021D01*
X250000Y1222000D02*
X350000D01*
X300000Y1172000D02*
Y1272000D01*
X250000Y1476000D02*
X350000D01*
X300000Y1426000D02*
Y1526000D01*
X250000Y1730000D02*
X350000D01*
X300000Y1680000D02*
Y1780000D01*
X250000Y1984000D02*
X350000D01*
X300000Y1934000D02*
Y2034000D01*
X250000Y2238000D02*
X350000D01*
X300000Y2188000D02*
Y2288000D01*
X250000Y2492000D02*
X350000D01*
X300000Y2442000D02*
Y2542000D01*
X250000Y2746000D02*
X350000D01*
X300000Y2696000D02*
Y2796000D01*
X250000Y3000000D02*
X350000D01*
X300000Y2950000D02*
Y3050000D01*
X250000Y3254000D02*
X350000D01*
X300000Y3204000D02*
Y3304000D01*
X250000Y3508000D02*
X350000D01*
X300000Y3458000D02*
Y3558000D01*
X250000Y3762000D02*
X350000D01*
X300000Y3712000D02*
Y3812000D01*
X250000Y4016000D02*
X350000D01*
X300000Y3966000D02*
Y4066000D01*
X250000Y4270000D02*
X350000D01*
X300000Y4220000D02*
Y4320000D01*
X250000Y4524000D02*
X350000D01*
X300000Y4474000D02*
Y4574000D01*
X250000Y4778000D02*
X350000D01*
X300000Y4728000D02*
Y4828000D01*
X4930860Y3024792D02*
X5000860D01*
X4965860Y2989792D02*
Y3059792D01*
X4430860Y3024792D02*
X4500860D01*
X4465860Y2989792D02*
Y3059792D01*
X2246455Y4138039D02*
X2316455D01*
X2281455Y4103040D02*
Y4173039D01*
X2246455Y4638039D02*
X2316455D01*
X2281455Y4603040D02*
Y4673039D01*
X4930860Y2702945D02*
X5000860D01*
X4965860Y2667945D02*
Y2737944D01*
X4430860Y2702945D02*
X4500860D01*
X4465860Y2667945D02*
Y2737944D01*
X1341517Y4152486D02*
X1411517D01*
X1376517Y4117486D02*
Y4187486D01*
X1841517Y4152486D02*
X1911517D01*
X1876517Y4117486D02*
Y4187486D01*
X1214700Y4424680D02*
X1274700D01*
X1244700Y4394680D02*
Y4454680D01*
X2014700Y4424680D02*
X2074700D01*
X2044700Y4394680D02*
Y4454680D01*
X3942014Y2227949D02*
X4002014D01*
X3972014Y2197949D02*
Y2257949D01*
X3942014Y3027949D02*
X4002014D01*
X3972014Y2997949D02*
Y3057949D01*
X2848010Y1937624D02*
X2908009D01*
X2878009Y1907624D02*
Y1967623D01*
X2048010Y1937624D02*
X2108010D01*
X2078010Y1907624D02*
Y1967623D01*
X2795019Y5277407D02*
X2875019D01*
X2835019Y5237407D02*
Y5317407D01*
X2795019Y5477407D02*
X2875019D01*
X2835019Y5437407D02*
Y5517407D01*
X1600919Y5469299D02*
X1660919D01*
X1630919Y5439299D02*
Y5499299D01*
X2400919Y5469299D02*
X2460919D01*
X2430919Y5439299D02*
Y5499299D01*
X5538100Y3581400D02*
X5618100D01*
X5578100Y3541400D02*
Y3621400D01*
X5338100Y3581400D02*
X5418100D01*
X5378100Y3541400D02*
Y3621400D01*
X3145419Y4585603D02*
X3215419D01*
X3180419Y4550603D02*
Y4620603D01*
X2645419Y4585603D02*
X2715419D01*
X2680419Y4550603D02*
Y4620603D01*
X2993119Y5776990D02*
X3053119D01*
X3023119Y5746990D02*
Y5806990D01*
X2193119Y5776990D02*
X2253119D01*
X2223119Y5746990D02*
Y5806990D01*
X5446815Y4876390D02*
X5506815D01*
X5476815Y4846390D02*
Y4906390D01*
X4646815Y4876390D02*
X4706815D01*
X4676815Y4846390D02*
Y4906390D01*
X5448680Y4625340D02*
X5508680D01*
X5478680Y4595340D02*
Y4655340D01*
X4648680Y4625340D02*
X4708680D01*
X4678680Y4595340D02*
Y4655340D01*
X2017457Y4673700D02*
X2077457D01*
X2047457Y4643700D02*
Y4703700D01*
X1217457Y4673700D02*
X1277457D01*
X1247457Y4643700D02*
Y4703700D01*
X1639050Y5086220D02*
X1719049D01*
X1679049Y5046220D02*
Y5126220D01*
X1839049Y5086220D02*
X1919049D01*
X1879049Y5046220D02*
Y5126220D01*
X572060Y5240400D02*
X642060D01*
X607060Y5205400D02*
Y5275400D01*
X572060Y5740400D02*
X642060D01*
X607060Y5705400D02*
Y5775400D01*
X1414157Y5776990D02*
X1484157D01*
X1449157Y5741990D02*
Y5811990D01*
X1914157Y5776990D02*
X1984157D01*
X1949157Y5741990D02*
Y5811990D01*
X5058100Y5402480D02*
X5128100D01*
X5093100Y5367480D02*
Y5437480D01*
X4296100Y5656480D02*
X4366100D01*
X4331100Y5621480D02*
Y5691480D01*
X5566100Y5656480D02*
X5636100D01*
X5601100Y5621480D02*
Y5691480D01*
X3719200Y4694045D02*
X3789200D01*
X3754200Y4659045D02*
Y4729045D01*
X4219200Y4694045D02*
X4289200D01*
X4254200Y4659045D02*
Y4729045D01*
X5438620Y5142143D02*
X5498620D01*
X5468620Y5112143D02*
Y5172143D01*
X4638620Y5142143D02*
X4698620D01*
X4668620Y5112143D02*
Y5172143D01*
X4752900Y4081629D02*
X4822900D01*
X4787900Y4046629D02*
Y4116629D01*
X5252900Y4081629D02*
X5322900D01*
X5287900Y4046629D02*
Y4116629D01*
X4481039Y4075916D02*
X4541039D01*
X4511039Y4045916D02*
Y4105916D01*
X4481039Y4875916D02*
X4541039D01*
X4511039Y4845916D02*
Y4905916D01*
X4207490Y2873920D02*
X4278610D01*
X4243050Y2838360D02*
Y2909480D01*
X3458133Y3762000D02*
X3529253D01*
X3493693Y3726440D02*
Y3797560D01*
X2583300Y3762000D02*
X2654420D01*
X2618860Y3726440D02*
Y3797560D01*
X746760Y226060D02*
X817880D01*
X782320Y190500D02*
Y261620D01*
X755080Y4524000D02*
X826200D01*
X790640Y4488440D02*
Y4559560D01*
X755030Y4778000D02*
X826150D01*
X790590Y4742440D02*
Y4813560D01*
X4218640Y2227949D02*
X4289760D01*
X4254200Y2192389D02*
Y2263509D01*
X61360Y5008459D02*
X111360D01*
X86360Y4983459D02*
Y5033459D01*
X486100Y4780333D02*
X557220D01*
X521660Y4744773D02*
Y4815893D01*
X2428322Y5219654D02*
X2499442D01*
X2463882Y5184094D02*
Y5255214D01*
X2078959Y5219654D02*
X2150079D01*
X2114519Y5184094D02*
Y5255214D01*
X1426580Y4833507D02*
X1497700D01*
X1462140Y4797947D02*
Y4869067D01*
%TF.MD5,2346207f1a2a4a47040646dfb2aa9aae*%
M02*
