%TF.GenerationSoftware,Altium Limited,Altium Designer,25.2.1 (25)*%
G04 Layer_Color=32768*
%FSLAX45Y45*%
%MOMM*%
%TF.SameCoordinates,2170BF73-9D4C-4C4A-8FE2-E0CFDA2738D4*%
%TF.FilePolarity,Positive*%
%TF.FileFunction,Other,Top_Courtyard*%
%TF.Part,Single*%
G01*
G75*
%TA.AperFunction,NonConductor*%
%ADD32C,0.20000*%
%ADD44C,0.10000*%
%ADD45C,0.05000*%
D32*
X3724200Y3708640D02*
Y3992640D01*
Y3708640D02*
X4302200D01*
Y3992640D01*
X3724200D02*
X4302200D01*
X3177264Y1301765D02*
Y1585765D01*
X2599264D02*
X3177264D01*
X2599264Y1301765D02*
Y1585765D01*
Y1301765D02*
X3177264D01*
X1166164Y2368899D02*
X3802164D01*
Y2094899D02*
Y2368899D01*
X1166164Y2094899D02*
X3802164D01*
X1166164D02*
Y2368899D01*
Y3364899D02*
X3802164D01*
X1166164D02*
Y3638899D01*
X3802164D01*
Y3364899D02*
Y3638899D01*
X-840000Y4925000D02*
X387500D01*
X-840000Y1075000D02*
Y4925000D01*
Y1075000D02*
X387500D01*
Y4925000D01*
X3991100Y5290980D02*
Y5818980D01*
Y5290980D02*
X6118100D01*
Y5818980D01*
X3991100D02*
X6118100D01*
D44*
X4644358Y1199035D02*
X4744358D01*
X4694358Y1149035D02*
Y1249035D01*
X2785019Y5377407D02*
X2885019D01*
X2835019Y5327407D02*
Y5427407D01*
X5428100Y3581400D02*
X5528100D01*
X5478100Y3531400D02*
Y3631400D01*
X1779049Y5036220D02*
Y5136220D01*
X1729049Y5086220D02*
X1829049D01*
D45*
X3095019Y5377407D02*
G03*
X3095019Y5377407I-260000J0D01*
G01*
X5738100Y3581400D02*
G03*
X5738100Y3581400I-260000J0D01*
G01*
X2039049Y5086220D02*
G03*
X2039049Y5086220I-260000J0D01*
G01*
%TF.MD5,dad94cdfbc9fd6fecbf03c7300c6eb8f*%
M02*
