%TF.GenerationSoftware,Altium Limited,Altium Designer,25.2.1 (25)*%
G04 Layer_Color=255*
%FSLAX45Y45*%
%MOMM*%
%TF.SameCoordinates,9FC4C6C8-B8F5-48D4-87CB-F7D7B59BF807*%
%TF.FilePolarity,Positive*%
%TF.FileFunction,Pads,Bot*%
%TF.Part,Single*%
G01*
G75*
%TA.AperFunction,ComponentPad*%
%ADD10C,1.60000*%
G04:AMPARAMS|DCode=11|XSize=1.6mm|YSize=1.6mm|CornerRadius=0.4mm|HoleSize=0mm|Usage=FLASHONLY|Rotation=90.000|XOffset=0mm|YOffset=0mm|HoleType=Round|Shape=RoundedRectangle|*
%AMROUNDEDRECTD11*
21,1,1.60000,0.80000,0,0,90.0*
21,1,0.80000,1.60000,0,0,90.0*
1,1,0.80000,0.40000,0.40000*
1,1,0.80000,0.40000,-0.40000*
1,1,0.80000,-0.40000,-0.40000*
1,1,0.80000,-0.40000,0.40000*
%
%ADD11ROUNDEDRECTD11*%
%TA.AperFunction,SMDPad,CuDef*%
%ADD12R,1.45000X0.45000*%
D10*
X-635001Y1143004D02*
D03*
Y889004D02*
D03*
Y127004D02*
D03*
Y-380996D02*
D03*
Y-888996D02*
D03*
Y-634996D02*
D03*
Y-126996D02*
D03*
Y381004D02*
D03*
Y635004D02*
D03*
X634999Y-1143001D02*
D03*
Y-889001D02*
D03*
Y-127001D02*
D03*
Y380999D02*
D03*
Y888999D02*
D03*
Y634999D02*
D03*
Y126999D02*
D03*
Y-381001D02*
D03*
Y-635001D02*
D03*
D11*
X-635001Y-1142996D02*
D03*
X634999Y1142999D02*
D03*
D12*
X294999Y292500D02*
D03*
Y227501D02*
D03*
Y162498D02*
D03*
Y97499D02*
D03*
Y32501D02*
D03*
Y-32498D02*
D03*
Y-97502D02*
D03*
Y-162500D02*
D03*
Y-227499D02*
D03*
Y-292498D02*
D03*
X-295002D02*
D03*
Y-227499D02*
D03*
Y-162500D02*
D03*
Y-97502D02*
D03*
Y-32498D02*
D03*
Y32501D02*
D03*
Y97499D02*
D03*
Y162498D02*
D03*
Y227501D02*
D03*
Y292500D02*
D03*
%TF.MD5,9685069ef24e2fe796ca7ee2560bede1*%
M02*
