%TF.GenerationSoftware,Altium Limited,Altium Designer,25.2.1 (25)*%
G04 Layer_Physical_Order=2*
G04 Layer_Color=16711680*
%FSLAX45Y45*%
%MOMM*%
%TF.SameCoordinates,9FC4C6C8-B8F5-48D4-87CB-F7D7B59BF807*%
%TF.FilePolarity,Positive*%
%TF.FileFunction,Copper,L2,Bot,Signal*%
%TF.Part,Single*%
G01*
G75*
%TA.AperFunction,ComponentPad*%
%ADD10C,1.60000*%
G04:AMPARAMS|DCode=11|XSize=1.6mm|YSize=1.6mm|CornerRadius=0.4mm|HoleSize=0mm|Usage=FLASHONLY|Rotation=90.000|XOffset=0mm|YOffset=0mm|HoleType=Round|Shape=RoundedRectangle|*
%AMROUNDEDRECTD11*
21,1,1.60000,0.80000,0,0,90.0*
21,1,0.80000,1.60000,0,0,90.0*
1,1,0.80000,0.40000,0.40000*
1,1,0.80000,0.40000,-0.40000*
1,1,0.80000,-0.40000,-0.40000*
1,1,0.80000,-0.40000,0.40000*
%
%ADD11ROUNDEDRECTD11*%
%TA.AperFunction,SMDPad,CuDef*%
%ADD12R,1.45000X0.45000*%
%TA.AperFunction,Conductor*%
%ADD13C,0.45000*%
D10*
X-635001Y1143004D02*
D03*
Y889004D02*
D03*
Y127004D02*
D03*
Y-380996D02*
D03*
Y-888996D02*
D03*
Y-634996D02*
D03*
Y-126996D02*
D03*
Y381004D02*
D03*
Y635004D02*
D03*
X634999Y-1143001D02*
D03*
Y-889001D02*
D03*
Y-127001D02*
D03*
Y380999D02*
D03*
Y888999D02*
D03*
Y634999D02*
D03*
Y126999D02*
D03*
Y-381001D02*
D03*
Y-635001D02*
D03*
D11*
X-635001Y-1142996D02*
D03*
X634999Y1142999D02*
D03*
D12*
X294999Y292500D02*
D03*
Y227501D02*
D03*
Y162498D02*
D03*
Y97499D02*
D03*
Y32501D02*
D03*
Y-32498D02*
D03*
Y-97502D02*
D03*
Y-162500D02*
D03*
Y-227499D02*
D03*
Y-292498D02*
D03*
X-295002D02*
D03*
Y-227499D02*
D03*
Y-162500D02*
D03*
Y-97502D02*
D03*
Y-32498D02*
D03*
Y32501D02*
D03*
Y97499D02*
D03*
Y162498D02*
D03*
Y227501D02*
D03*
Y292500D02*
D03*
D13*
X401319Y655319D02*
X634999Y888999D01*
X401319Y257860D02*
Y655319D01*
X456320Y456320D02*
X634999Y634999D01*
X456320Y235079D02*
Y456320D01*
X598211Y299190D02*
Y313093D01*
X511319Y212297D02*
Y212297D01*
X598211Y299190D01*
Y313093D02*
X634999Y349880D01*
Y380999D01*
X396521Y97499D02*
X511319Y212297D01*
X294999Y162498D02*
X383738D01*
X456320Y235079D01*
X294999Y97499D02*
X396521D01*
X-635001Y-634996D02*
X-457200Y-457195D01*
Y-235952D01*
X-400002Y-653997D02*
Y-256536D01*
X-635001Y-888996D02*
X-400002Y-653997D01*
X-295002Y-802997D02*
Y-292498D01*
X-635001Y-1142996D02*
X-295002Y-802997D01*
X-635001Y1143004D02*
X-295002Y803004D01*
Y292500D02*
Y803004D01*
X294999Y292500D02*
Y802999D01*
X634999Y1142999D01*
X-635001Y-380996D02*
X-603882D01*
X-515384Y-292498D01*
X-512200D01*
Y-213171D01*
X-396531Y-97502D01*
X-295002D01*
X-480498Y255717D02*
X-387279Y162498D01*
X-295002D01*
X-480498Y255717D02*
Y480501D01*
X-635001Y889004D02*
X-400002Y654005D01*
Y256538D02*
Y654005D01*
Y256538D02*
X-370965Y227501D01*
X-295002D01*
X-635001Y635004D02*
X-480498Y480501D01*
X-599006Y281006D02*
X-415499Y97499D01*
X-295002D01*
X-599006Y281006D02*
Y315242D01*
X-635001Y351238D02*
X-599006Y315242D01*
X-635001Y351238D02*
Y381004D01*
Y127004D02*
X-615412D01*
X-520908Y32501D01*
X-295002D01*
X-635001Y-126996D02*
X-615401D01*
X-520903Y-32498D01*
X-295002D01*
X-457200Y-235952D02*
X-383748Y-162500D01*
X-400002Y-256536D02*
X-370965Y-227499D01*
X-383748Y-162500D02*
X-295002D01*
X-370965Y-227499D02*
X-295002D01*
X294999Y-803002D02*
X634999Y-1143001D01*
X294999Y-803002D02*
Y-292498D01*
X399998Y-654000D02*
X634999Y-889001D01*
X399998Y-654000D02*
Y-256536D01*
X454999Y-455002D02*
Y-233752D01*
Y-455002D02*
X634999Y-635001D01*
X415502Y-97502D02*
X510000Y-192000D01*
X560023Y-297141D02*
X634999Y-372116D01*
Y-381001D02*
Y-372116D01*
X450000Y-228754D02*
X454999Y-233752D01*
X510000Y-242475D02*
X560023Y-292498D01*
Y-297141D02*
Y-292498D01*
X385002Y-162500D02*
X450000Y-227499D01*
Y-228754D02*
Y-227499D01*
X510000Y-242475D02*
Y-192000D01*
X370961Y-227499D02*
X399998Y-256536D01*
X294999Y-227499D02*
X370961D01*
X294999Y-162500D02*
X385002D01*
X294999Y-97502D02*
X415502D01*
X540501Y32501D02*
X634999Y126999D01*
X294999Y32501D02*
X540501D01*
X294999Y-32498D02*
X520907D01*
X615410Y-127001D01*
X634999D01*
X370961Y227501D02*
X401319Y257860D01*
X294999Y227501D02*
X370961D01*
%TF.MD5,9f99f47138ebe9ecc1c9361f60307b96*%
M02*
