%TF.GenerationSoftware,Altium Limited,Altium Designer,25.2.1 (25)*%
G04 Layer_Color=65535*
%FSLAX45Y45*%
%MOMM*%
%TF.SameCoordinates,9FC4C6C8-B8F5-48D4-87CB-F7D7B59BF807*%
%TF.FilePolarity,Positive*%
%TF.FileFunction,Legend,Top*%
%TF.Part,Single*%
G01*
G75*
%TA.AperFunction,NonConductor*%
%ADD14C,0.25000*%
%ADD15C,0.20000*%
%ADD16C,0.25400*%
D14*
X-622500Y-1330000D02*
G03*
X-622500Y-1330000I-12500J0D01*
G01*
X647500Y1330000D02*
G03*
X647500Y1330000I-12500J0D01*
G01*
D15*
X-500498Y-1284997D02*
Y1285000D01*
X-769499Y-1284997D02*
X-500498D01*
X-769499D02*
Y1285000D01*
X-500498D01*
X500501Y-1284997D02*
Y1285000D01*
X769502D01*
Y-1284997D02*
Y1285000D01*
X500501Y-1284997D02*
X769502D01*
D16*
X-446999Y1079525D02*
Y1231875D01*
X-370823D01*
X-345432Y1206483D01*
Y1155700D01*
X-370823Y1130308D01*
X-446999D01*
X-193081Y1079525D02*
X-294648D01*
X-193081Y1181092D01*
Y1206483D01*
X-218473Y1231875D01*
X-269256D01*
X-294648Y1206483D01*
X271813Y1097305D02*
Y1249655D01*
X347988D01*
X373380Y1224263D01*
Y1173480D01*
X347988Y1148088D01*
X271813D01*
X424164Y1097305D02*
X474947D01*
X449556D01*
Y1249655D01*
X424164Y1224263D01*
%TF.MD5,d6c138123b1d18512ba7bfed20390658*%
M02*
