%TF.GenerationSoftware,Altium Limited,Altium Designer,25.2.1 (25)*%
G04 Layer_Color=255*
%FSLAX45Y45*%
%MOMM*%
%TF.SameCoordinates,950212E9-F601-4B00-AAF9-301F732ACFBD*%
%TF.FilePolarity,Positive*%
%TF.FileFunction,Pads,Bot*%
%TF.Part,Single*%
G01*
G75*
%TA.AperFunction,ComponentPad*%
G04:AMPARAMS|DCode=11|XSize=1.3mm|YSize=1.3mm|CornerRadius=0.325mm|HoleSize=0mm|Usage=FLASHONLY|Rotation=270.000|XOffset=0mm|YOffset=0mm|HoleType=Round|Shape=RoundedRectangle|*
%AMROUNDEDRECTD11*
21,1,1.30000,0.65000,0,0,270.0*
21,1,0.65000,1.30000,0,0,270.0*
1,1,0.65000,-0.32500,-0.32500*
1,1,0.65000,-0.32500,0.32500*
1,1,0.65000,0.32500,0.32500*
1,1,0.65000,0.32500,-0.32500*
%
%ADD11ROUNDEDRECTD11*%
%ADD12C,1.30000*%
%ADD13C,1.20000*%
%ADD14C,1.55000*%
%ADD15C,1.50000*%
%ADD16R,1.50000X1.50000*%
%ADD17R,1.55000X1.55000*%
%ADD18R,1.20000X1.20000*%
%ADD19R,1.30000X1.30000*%
%TA.AperFunction,SMDPad,CuDef*%
%ADD21R,0.87213X1.00429*%
G04:AMPARAMS|DCode=22|XSize=1.00429mm|YSize=0.87213mm|CornerRadius=0.43606mm|HoleSize=0mm|Usage=FLASHONLY|Rotation=90.000|XOffset=0mm|YOffset=0mm|HoleType=Round|Shape=RoundedRectangle|*
%AMROUNDEDRECTD22*
21,1,1.00429,0.00000,0,0,90.0*
21,1,0.13216,0.87213,0,0,90.0*
1,1,0.87213,0.00000,0.06608*
1,1,0.87213,0.00000,-0.06608*
1,1,0.87213,0.00000,-0.06608*
1,1,0.87213,0.00000,0.06608*
%
%ADD22ROUNDEDRECTD22*%
G04:AMPARAMS|DCode=23|XSize=1.00429mm|YSize=3.18213mm|CornerRadius=0.43687mm|HoleSize=0mm|Usage=FLASHONLY|Rotation=90.000|XOffset=0mm|YOffset=0mm|HoleType=Round|Shape=RoundedRectangle|*
%AMROUNDEDRECTD23*
21,1,1.00429,2.30840,0,0,90.0*
21,1,0.13056,3.18213,0,0,90.0*
1,1,0.87373,1.15420,0.06528*
1,1,0.87373,1.15420,-0.06528*
1,1,0.87373,-1.15420,-0.06528*
1,1,0.87373,-1.15420,0.06528*
%
%ADD23ROUNDEDRECTD23*%
D11*
X770696Y3622040D02*
D03*
D12*
Y3872040D02*
D03*
X1438977Y2816760D02*
D03*
D13*
X881641Y258908D02*
D03*
Y1058907D02*
D03*
X1995558Y1191703D02*
D03*
Y391704D02*
D03*
X1510406Y384821D02*
D03*
Y1184821D02*
D03*
X837833Y2551560D02*
D03*
Y1751560D02*
D03*
X566420Y2374900D02*
D03*
Y1574900D02*
D03*
X582834Y258908D02*
D03*
Y1058907D02*
D03*
X2233680Y1574900D02*
D03*
Y2374900D02*
D03*
X2519973Y2239589D02*
D03*
Y1739589D02*
D03*
X1400717Y3723640D02*
D03*
X2200716D02*
D03*
X2540000Y2809240D02*
D03*
X3340000D02*
D03*
X2538083Y3804104D02*
D03*
Y3004104D02*
D03*
X3859852Y1133051D02*
D03*
X3351851Y879051D02*
D03*
X2893060Y1445260D02*
D03*
Y2245260D02*
D03*
X1410776Y3962400D02*
D03*
X2210776D02*
D03*
X1759039Y391704D02*
D03*
Y1191703D02*
D03*
D14*
X1425497Y3230654D02*
D03*
X471496D02*
D03*
X250000Y1057000D02*
D03*
Y1311000D02*
D03*
Y1565000D02*
D03*
Y1819000D02*
D03*
Y2073000D02*
D03*
Y2327000D02*
D03*
Y2581000D02*
D03*
Y2835000D02*
D03*
Y3089000D02*
D03*
D15*
X1910756Y2397760D02*
D03*
X1656756D02*
D03*
X1402756D02*
D03*
X1148756D02*
D03*
X1910756Y1635760D02*
D03*
X1656756D02*
D03*
X1402756D02*
D03*
D16*
X1148756D02*
D03*
D17*
X250000Y3343000D02*
D03*
D18*
X2589852Y1133051D02*
D03*
D19*
X1638976Y2816760D02*
D03*
D21*
X2096977Y3063940D02*
D03*
D22*
X1867976D02*
D03*
X1638976D02*
D03*
D23*
X1867976Y3722940D02*
D03*
%TF.MD5,bf675ebba705ae98af9c0bc439914812*%
M02*
