%TF.GenerationSoftware,Altium Limited,Altium Designer,25.2.1 (25)*%
G04 Layer_Color=0*
%FSLAX45Y45*%
%MOMM*%
%TF.SameCoordinates,950212E9-F601-4B00-AAF9-301F732ACFBD*%
%TF.FilePolarity,Positive*%
%TF.FileFunction,Plated,1,2,PTH,Drill*%
%TF.Part,Single*%
G01*
G75*
%TA.AperFunction,ComponentDrill*%
%ADD43C,0.80000*%
%ADD44C,0.60000*%
%ADD45C,0.70000*%
%ADD46C,1.05000*%
%ADD47C,0.90000*%
%ADD48C,1.00000*%
%ADD49C,0.60000*%
%ADD50C,0.70000*%
%ADD51C,0.80000*%
%TA.AperFunction,ViaDrill,NotFilled*%
%ADD52C,0.71120*%
D43*
X770696Y3622040D02*
D03*
Y3872040D02*
D03*
D44*
X881641Y258908D02*
D03*
Y1058907D02*
D03*
X1995558Y1191703D02*
D03*
Y391704D02*
D03*
X1510406Y384821D02*
D03*
Y1184821D02*
D03*
X837833Y2551560D02*
D03*
Y1751560D02*
D03*
X566420Y2374900D02*
D03*
Y1574900D02*
D03*
X582834Y258908D02*
D03*
Y1058907D02*
D03*
X2233680Y1574900D02*
D03*
Y2374900D02*
D03*
X2538083Y3804104D02*
D03*
Y3004104D02*
D03*
X2893060Y1445260D02*
D03*
Y2245260D02*
D03*
X1759039Y391704D02*
D03*
Y1191703D02*
D03*
D45*
X2519973Y2239589D02*
D03*
Y1739589D02*
D03*
D46*
X1425497Y3230654D02*
D03*
X471496D02*
D03*
D47*
X1910756Y2397760D02*
D03*
X1656756D02*
D03*
X1402756D02*
D03*
X1148756D02*
D03*
X1910756Y1635760D02*
D03*
X1656756D02*
D03*
X1402756D02*
D03*
X1148756D02*
D03*
D48*
X250000Y1057000D02*
D03*
Y1311000D02*
D03*
Y1565000D02*
D03*
Y1819000D02*
D03*
Y2073000D02*
D03*
Y2327000D02*
D03*
Y2581000D02*
D03*
Y2835000D02*
D03*
Y3089000D02*
D03*
Y3343000D02*
D03*
D49*
X1400717Y3723640D02*
D03*
X2200716D02*
D03*
X2540000Y2809240D02*
D03*
X3340000D02*
D03*
X1410776Y3962400D02*
D03*
X2210776D02*
D03*
D50*
X3859852Y1133051D02*
D03*
X2589852D02*
D03*
X3351851Y879051D02*
D03*
D51*
X1638976Y2816760D02*
D03*
X1438977D02*
D03*
D52*
X2399173Y2592243D02*
D03*
X3118172Y2490040D02*
D03*
X2701464Y2495499D02*
D03*
X1851660Y2606040D02*
D03*
%TF.MD5,da9e2aa5b98763ce6040fed60c2ee465*%
M02*
