%TF.GenerationSoftware,Altium Limited,Altium Designer,25.2.1 (25)*%
G04 Layer_Physical_Order=2*
G04 Layer_Color=16711680*
%FSLAX45Y45*%
%MOMM*%
%TF.SameCoordinates,950212E9-F601-4B00-AAF9-301F732ACFBD*%
%TF.FilePolarity,Positive*%
%TF.FileFunction,Copper,L2,Bot,Signal*%
%TF.Part,Single*%
G01*
G75*
%TA.AperFunction,Conductor*%
%ADD10C,0.80000*%
%TA.AperFunction,ComponentPad*%
G04:AMPARAMS|DCode=11|XSize=1.3mm|YSize=1.3mm|CornerRadius=0.325mm|HoleSize=0mm|Usage=FLASHONLY|Rotation=270.000|XOffset=0mm|YOffset=0mm|HoleType=Round|Shape=RoundedRectangle|*
%AMROUNDEDRECTD11*
21,1,1.30000,0.65000,0,0,270.0*
21,1,0.65000,1.30000,0,0,270.0*
1,1,0.65000,-0.32500,-0.32500*
1,1,0.65000,-0.32500,0.32500*
1,1,0.65000,0.32500,0.32500*
1,1,0.65000,0.32500,-0.32500*
%
%ADD11ROUNDEDRECTD11*%
%ADD12C,1.30000*%
%ADD13C,1.20000*%
%ADD14C,1.55000*%
%ADD15C,1.50000*%
%ADD16R,1.50000X1.50000*%
%ADD17R,1.55000X1.55000*%
%ADD18R,1.20000X1.20000*%
%ADD19R,1.30000X1.30000*%
%TA.AperFunction,ViaPad*%
%ADD20C,1.27000*%
%TA.AperFunction,SMDPad,CuDef*%
%ADD21R,0.87213X1.00429*%
G04:AMPARAMS|DCode=22|XSize=1.00429mm|YSize=0.87213mm|CornerRadius=0.43606mm|HoleSize=0mm|Usage=FLASHONLY|Rotation=90.000|XOffset=0mm|YOffset=0mm|HoleType=Round|Shape=RoundedRectangle|*
%AMROUNDEDRECTD22*
21,1,1.00429,0.00000,0,0,90.0*
21,1,0.13216,0.87213,0,0,90.0*
1,1,0.87213,0.00000,0.06608*
1,1,0.87213,0.00000,-0.06608*
1,1,0.87213,0.00000,-0.06608*
1,1,0.87213,0.00000,0.06608*
%
%ADD22ROUNDEDRECTD22*%
G04:AMPARAMS|DCode=23|XSize=1.00429mm|YSize=3.18213mm|CornerRadius=0.43687mm|HoleSize=0mm|Usage=FLASHONLY|Rotation=90.000|XOffset=0mm|YOffset=0mm|HoleType=Round|Shape=RoundedRectangle|*
%AMROUNDEDRECTD23*
21,1,1.00429,2.30840,0,0,90.0*
21,1,0.13056,3.18213,0,0,90.0*
1,1,0.87373,1.15420,0.06528*
1,1,0.87373,1.15420,-0.06528*
1,1,0.87373,-1.15420,-0.06528*
1,1,0.87373,-1.15420,0.06528*
%
%ADD23ROUNDEDRECTD23*%
%TA.AperFunction,Conductor*%
%ADD24C,1.00000*%
%TA.AperFunction,NonConductor*%
%ADD25C,0.60000*%
%ADD26C,0.25400*%
G36*
X4000001Y-1D02*
X-1D01*
Y4500001D01*
X4000001D01*
Y-1D01*
D02*
G37*
%LPC*%
G36*
X783396Y3962226D02*
Y3884739D01*
X860883D01*
X854936Y3906933D01*
X843034Y3927547D01*
X826203Y3944378D01*
X805589Y3956279D01*
X783396Y3962226D01*
D02*
G37*
G36*
X757996Y3962226D02*
X735803Y3956279D01*
X715190Y3944378D01*
X698359Y3927547D01*
X686457Y3906933D01*
X680510Y3884739D01*
X757996D01*
Y3962226D01*
D02*
G37*
G36*
Y3859339D02*
X680511D01*
X686457Y3837147D01*
X698359Y3816533D01*
X715190Y3799702D01*
X735803Y3787801D01*
X757996Y3781854D01*
Y3859339D01*
D02*
G37*
G36*
X860882D02*
X783396D01*
Y3781854D01*
X805589Y3787801D01*
X826203Y3799702D01*
X843034Y3816533D01*
X854936Y3837147D01*
X860882Y3859339D01*
D02*
G37*
G36*
X2222019Y4047800D02*
X2199533D01*
X2177813Y4041980D01*
X2158340Y4030737D01*
X2142439Y4014837D01*
X2131196Y3995363D01*
X2125376Y3973643D01*
Y3951157D01*
X2131196Y3929437D01*
X2139782Y3914566D01*
Y3783479D01*
X2132380Y3776077D01*
X2121136Y3756603D01*
X2117474Y3742933D01*
X2102405Y3735075D01*
X2072683Y3742220D01*
X2048802Y3752098D01*
X2043743Y3764309D01*
X2032670Y3778741D01*
X2018238Y3789815D01*
X2001432Y3796776D01*
X1983396Y3799151D01*
X1752557D01*
X1734521Y3796776D01*
X1717715Y3789815D01*
X1716985Y3789254D01*
X1471711D01*
Y3902561D01*
X1479113Y3909963D01*
X1490356Y3929437D01*
X1496176Y3951157D01*
Y3973643D01*
X1490356Y3995363D01*
X1479113Y4014837D01*
X1463213Y4030737D01*
X1443740Y4041980D01*
X1422020Y4047800D01*
X1399533D01*
X1377813Y4041980D01*
X1358340Y4030737D01*
X1342440Y4014837D01*
X1331196Y3995363D01*
X1325377Y3973643D01*
Y3951157D01*
X1331196Y3929437D01*
X1339782Y3914566D01*
Y3783479D01*
X1332380Y3776077D01*
X1321137Y3756603D01*
X1315317Y3734883D01*
Y3731528D01*
X1271793Y3688004D01*
X850472D01*
X844940Y3696283D01*
X825788Y3709080D01*
X803197Y3713574D01*
X738196D01*
X715605Y3709080D01*
X696453Y3696283D01*
X683656Y3677132D01*
X679162Y3654540D01*
Y3589540D01*
X683656Y3566948D01*
X696453Y3547797D01*
X715605Y3535000D01*
X738196Y3530506D01*
X803197D01*
X825788Y3535000D01*
X844940Y3547797D01*
X850472Y3556076D01*
X1299117D01*
X1316189Y3558323D01*
X1332099Y3564913D01*
X1345760Y3575396D01*
X1408604Y3638240D01*
X1411960D01*
X1433680Y3644060D01*
X1453153Y3655303D01*
X1455176Y3657326D01*
X1716072D01*
X1717715Y3656065D01*
X1734521Y3649104D01*
X1752557Y3646729D01*
X1802012D01*
Y3091618D01*
X1800746Y3088562D01*
X1798375Y3070548D01*
Y3057332D01*
X1800746Y3039318D01*
X1803392Y3032929D01*
Y2934084D01*
X1805640Y2917011D01*
X1812230Y2901102D01*
X1822713Y2887440D01*
X2167715Y2542438D01*
Y2429709D01*
X2165343Y2427337D01*
X2154100Y2407863D01*
X2148280Y2386143D01*
Y2363657D01*
X2154100Y2341937D01*
X2165343Y2322463D01*
X2181243Y2306563D01*
X2200716Y2295320D01*
X2222436Y2289500D01*
X2244923D01*
X2266643Y2295320D01*
X2286116Y2306563D01*
X2302016Y2322463D01*
X2313260Y2341937D01*
X2319079Y2363657D01*
Y2386143D01*
X2313260Y2407863D01*
X2302016Y2427337D01*
X2299644Y2429709D01*
Y2569761D01*
X2297396Y2586834D01*
X2290806Y2602743D01*
X2280323Y2616405D01*
X1935321Y2961407D01*
Y3040186D01*
X1937578Y3057332D01*
Y3070548D01*
X1935207Y3088562D01*
X1933941Y3091618D01*
Y3646729D01*
X1983396D01*
X1987911Y3647324D01*
X1998970Y3642160D01*
X2021172Y3622391D01*
X2031012Y3609076D01*
Y3139555D01*
X2027970D01*
Y2988325D01*
X2165983D01*
Y3039659D01*
X2291014Y3164690D01*
X2752402D01*
X2827096Y3089996D01*
Y2308389D01*
X2571608D01*
X2552936Y2319169D01*
X2531216Y2324989D01*
X2508730D01*
X2487010Y2319169D01*
X2467536Y2307926D01*
X2451636Y2292026D01*
X2440393Y2272552D01*
X2434573Y2250832D01*
Y2228346D01*
X2440393Y2206626D01*
X2451636Y2187152D01*
X2467536Y2171252D01*
X2487010Y2160009D01*
X2508730Y2154189D01*
X2531216D01*
X2552936Y2160009D01*
X2572410Y2171252D01*
X2577618Y2176460D01*
X2841425D01*
X2860097Y2165680D01*
X2881817Y2159860D01*
X2904303D01*
X2926023Y2165680D01*
X2945497Y2176923D01*
X2961397Y2192823D01*
X2972640Y2212297D01*
X2978460Y2234017D01*
Y2256503D01*
X2972640Y2278223D01*
X2961397Y2297697D01*
X2959024Y2300069D01*
Y3117319D01*
X2956777Y3134392D01*
X2950187Y3150301D01*
X2939704Y3163963D01*
X2851676Y3251991D01*
X2846852Y3263636D01*
X2836369Y3277298D01*
X2822707Y3287781D01*
X2806798Y3294371D01*
X2789725Y3296618D01*
X2263690D01*
X2246618Y3294371D01*
X2230708Y3287781D01*
X2217047Y3277298D01*
X2209135Y3269386D01*
X2162941Y3288520D01*
Y3581753D01*
X2222162Y3640974D01*
X2233680Y3644060D01*
X2253153Y3655303D01*
X2269053Y3671203D01*
X2280296Y3690677D01*
X2286116Y3712397D01*
Y3734883D01*
X2280296Y3756603D01*
X2271711Y3771474D01*
Y3888782D01*
X2360117D01*
X2452683Y3796216D01*
Y3792861D01*
X2458503Y3771141D01*
X2469746Y3751667D01*
X2485646Y3735767D01*
X2505120Y3724524D01*
X2526840Y3718704D01*
X2549326D01*
X2571046Y3724524D01*
X2590520Y3735767D01*
X2606420Y3751667D01*
X2617663Y3771141D01*
X2623483Y3792861D01*
Y3815347D01*
X2617663Y3837067D01*
X2606420Y3856541D01*
X2590520Y3872441D01*
X2571046Y3883684D01*
X2549326Y3889504D01*
X2545971D01*
X2434084Y4001390D01*
X2420422Y4011873D01*
X2404513Y4018463D01*
X2387440Y4020711D01*
X2273239D01*
X2263213Y4030737D01*
X2243739Y4041980D01*
X2222019Y4047800D01*
D02*
G37*
G36*
X317783Y3738162D02*
X116215D01*
Y3603240D01*
X317783D01*
Y3738162D01*
D02*
G37*
G36*
X1439044Y3333554D02*
X1411949D01*
X1385779Y3326541D01*
X1362315Y3312994D01*
X1343156Y3293836D01*
X1329609Y3270372D01*
X1322597Y3244201D01*
Y3217107D01*
X1329609Y3190936D01*
X1343156Y3167472D01*
X1362315Y3148313D01*
X1385779Y3134766D01*
X1411949Y3127754D01*
X1439044D01*
X1461574Y3133791D01*
X1573012Y3022352D01*
Y2907160D01*
X1548577D01*
Y2903019D01*
X1498577Y2885005D01*
X1494484Y2889098D01*
X1473870Y2900999D01*
X1451677Y2906946D01*
Y2816760D01*
Y2726574D01*
X1473870Y2732521D01*
X1494484Y2744422D01*
X1498577Y2748515D01*
X1548577Y2730501D01*
Y2726360D01*
X1729376D01*
Y2907160D01*
X1704941D01*
Y3026162D01*
X1712435Y3044257D01*
X1715027Y3063940D01*
X1712435Y3083623D01*
X1704838Y3101965D01*
X1692752Y3117716D01*
X1536562Y3273906D01*
X1520811Y3285992D01*
X1509711Y3290590D01*
X1507837Y3293836D01*
X1488679Y3312994D01*
X1465214Y3326541D01*
X1439044Y3333554D01*
D02*
G37*
G36*
X1426277Y2906946D02*
X1404084Y2900999D01*
X1383470Y2889098D01*
X1366639Y2872267D01*
X1354737Y2851653D01*
X1348791Y2829460D01*
X1426277D01*
Y2906946D01*
D02*
G37*
G36*
X3352700Y2894249D02*
Y2821940D01*
X3425009D01*
X3419580Y2842203D01*
X3408337Y2861677D01*
X3392437Y2877577D01*
X3372963Y2888820D01*
X3352700Y2894249D01*
D02*
G37*
G36*
X3327300D02*
X3307037Y2888820D01*
X3287563Y2877577D01*
X3271663Y2861677D01*
X3260420Y2842203D01*
X3254990Y2821940D01*
X3327300D01*
Y2894249D01*
D02*
G37*
G36*
X1426277Y2804060D02*
X1348791D01*
X1354737Y2781867D01*
X1366639Y2761253D01*
X1383470Y2744422D01*
X1404084Y2732521D01*
X1426277Y2726574D01*
Y2804060D01*
D02*
G37*
G36*
X3425009Y2796540D02*
X3352700D01*
Y2724231D01*
X3372963Y2729660D01*
X3392437Y2740903D01*
X3408337Y2756803D01*
X3419580Y2776277D01*
X3425009Y2796540D01*
D02*
G37*
G36*
X3327300D02*
X3254990D01*
X3260420Y2776277D01*
X3271663Y2756803D01*
X3287563Y2740903D01*
X3307037Y2729660D01*
X3327300Y2724231D01*
Y2796540D01*
D02*
G37*
G36*
X2549326Y3089504D02*
X2526840D01*
X2505120Y3083684D01*
X2485646Y3072441D01*
X2469746Y3056541D01*
X2458503Y3037067D01*
X2452683Y3015347D01*
Y2992861D01*
X2458503Y2971141D01*
X2462991Y2963367D01*
Y2846656D01*
X2460420Y2842203D01*
X2454600Y2820483D01*
Y2797997D01*
X2460420Y2776277D01*
X2471663Y2756803D01*
X2487563Y2740903D01*
X2507037Y2729660D01*
X2528757Y2723840D01*
X2551243D01*
X2572963Y2729660D01*
X2592437Y2740903D01*
X2608337Y2756803D01*
X2619580Y2776277D01*
X2625400Y2797997D01*
Y2820483D01*
X2619580Y2842203D01*
X2615092Y2849977D01*
Y2966688D01*
X2617663Y2971141D01*
X2623483Y2992861D01*
Y3015347D01*
X2617663Y3037067D01*
X2606420Y3056541D01*
X2590520Y3072441D01*
X2571046Y3083684D01*
X2549326Y3089504D01*
D02*
G37*
G36*
X352900Y3445900D02*
X147100D01*
Y3240100D01*
X179917D01*
X224784Y3227709D01*
X224784Y3227708D01*
X224784D01*
X229735Y3190100D01*
X222930Y3188276D01*
X210282Y3184887D01*
X186818Y3171340D01*
X167660Y3152182D01*
X154112Y3128718D01*
X147100Y3102547D01*
Y3075453D01*
X154112Y3049282D01*
X167660Y3025818D01*
X186818Y3006659D01*
X210282Y2993112D01*
X220746Y2938545D01*
X218673Y2933136D01*
X210282Y2930887D01*
X186818Y2917340D01*
X167660Y2898182D01*
X154112Y2874718D01*
X147100Y2848547D01*
Y2847700D01*
X249999D01*
X352900D01*
Y2848547D01*
X345888Y2874718D01*
X344180Y2877675D01*
X369562Y2927236D01*
X370124Y2927675D01*
X1004049D01*
X1072706Y2859018D01*
Y2463696D01*
X1068416Y2459407D01*
X1055199Y2436513D01*
X1048357Y2410978D01*
Y2384542D01*
X1055199Y2359007D01*
X1068416Y2336113D01*
X1087109Y2317420D01*
X1080992Y2263636D01*
X1076824Y2257061D01*
X953756D01*
X939727Y2271090D01*
Y2520306D01*
X937135Y2539989D01*
X929538Y2558331D01*
X921692Y2568556D01*
X917413Y2584523D01*
X906170Y2603997D01*
X890270Y2619897D01*
X870797Y2631140D01*
X856505Y2634969D01*
X841007Y2646862D01*
X822665Y2654459D01*
X802982Y2657051D01*
X319472D01*
X313182Y2663340D01*
X289718Y2676887D01*
X263548Y2683900D01*
Y2732100D01*
X289718Y2739112D01*
X313182Y2752659D01*
X332340Y2771818D01*
X345888Y2795282D01*
X352900Y2821453D01*
Y2822300D01*
X249999D01*
X147100D01*
Y2821453D01*
X154112Y2795282D01*
X167660Y2771818D01*
X186818Y2752659D01*
X210282Y2739112D01*
X236452Y2732100D01*
Y2683900D01*
X210282Y2676887D01*
X186818Y2663340D01*
X167660Y2644182D01*
X154112Y2620718D01*
X147100Y2594547D01*
Y2567453D01*
X154112Y2541282D01*
X167660Y2517818D01*
X186818Y2498659D01*
X210282Y2485112D01*
X236452Y2478100D01*
Y2429900D01*
X210282Y2422887D01*
X186818Y2409340D01*
X167660Y2390182D01*
X154112Y2366718D01*
X147100Y2340547D01*
Y2339700D01*
X249999D01*
X352900D01*
Y2340547D01*
X345888Y2366718D01*
X332340Y2390182D01*
X313182Y2409340D01*
X289718Y2422887D01*
X263548Y2429900D01*
Y2478100D01*
X289718Y2485112D01*
X313182Y2498659D01*
X319472Y2504949D01*
X528626D01*
X535208Y2454949D01*
X533457Y2454480D01*
X513983Y2443237D01*
X498083Y2427337D01*
X486840Y2407863D01*
X481020Y2386143D01*
Y2363657D01*
X486840Y2341937D01*
X494196Y2329196D01*
Y2220350D01*
X496787Y2200666D01*
X504385Y2182325D01*
X516471Y2166574D01*
X761783Y1921262D01*
Y1790636D01*
X758253Y1784523D01*
X752434Y1762803D01*
Y1740317D01*
X758253Y1718597D01*
X769497Y1699123D01*
X785397Y1683223D01*
X804870Y1671980D01*
X826590Y1666160D01*
X849077D01*
X870797Y1671980D01*
X881628Y1678233D01*
X899476Y1654972D01*
X899476Y1654972D01*
X912328Y1638224D01*
X703335Y1429230D01*
X541012D01*
X530611Y1444319D01*
X547969Y1476243D01*
X560195Y1489500D01*
X577663D01*
X599383Y1495320D01*
X618857Y1506563D01*
X634757Y1522463D01*
X646000Y1541937D01*
X651820Y1563657D01*
Y1586143D01*
X646000Y1607863D01*
X638644Y1620604D01*
Y1903318D01*
X636053Y1923001D01*
X628455Y1941343D01*
X616369Y1957094D01*
X446687Y2126776D01*
X430937Y2138862D01*
X412595Y2146459D01*
X392911Y2149051D01*
X319472D01*
X313182Y2155340D01*
X289718Y2168887D01*
X263548Y2175900D01*
Y2224100D01*
X289718Y2231112D01*
X313182Y2244659D01*
X332340Y2263818D01*
X345888Y2287282D01*
X352900Y2313453D01*
Y2314300D01*
X249999D01*
X147100D01*
Y2313453D01*
X154112Y2287282D01*
X167660Y2263818D01*
X186818Y2244659D01*
X210282Y2231112D01*
X236452Y2224100D01*
Y2175900D01*
X210282Y2168887D01*
X186818Y2155340D01*
X167660Y2136182D01*
X154112Y2112718D01*
X147100Y2086547D01*
Y2059453D01*
X154112Y2033282D01*
X167660Y2009818D01*
X186818Y1990659D01*
X210282Y1977112D01*
X236452Y1970100D01*
Y1921900D01*
X210282Y1914887D01*
X186818Y1901340D01*
X167660Y1882182D01*
X154112Y1858718D01*
X147100Y1832547D01*
Y1831700D01*
X249999D01*
X352900D01*
Y1832547D01*
X345888Y1858718D01*
X332340Y1882182D01*
X313182Y1901340D01*
X289718Y1914887D01*
X263548Y1921900D01*
Y1970100D01*
X289718Y1977112D01*
X313182Y1990659D01*
X319472Y1996949D01*
X361410D01*
X486543Y1871817D01*
Y1606753D01*
X481020Y1586143D01*
Y1563657D01*
X486840Y1541937D01*
X488743Y1538641D01*
X448733Y1507940D01*
X365397Y1591276D01*
X349647Y1603362D01*
X345735Y1604982D01*
X332340Y1628182D01*
X313182Y1647340D01*
X289718Y1660887D01*
X263548Y1667900D01*
Y1716100D01*
X289718Y1723112D01*
X313182Y1736659D01*
X332340Y1755818D01*
X345888Y1779282D01*
X352900Y1805453D01*
Y1806300D01*
X249999D01*
X147100D01*
Y1805453D01*
X154112Y1779282D01*
X167660Y1755818D01*
X186818Y1736659D01*
X210282Y1723112D01*
X236452Y1716100D01*
Y1667900D01*
X210282Y1660887D01*
X186818Y1647340D01*
X167660Y1628182D01*
X154112Y1604718D01*
X147100Y1578547D01*
Y1551453D01*
X154112Y1525282D01*
X167660Y1501818D01*
X186818Y1482659D01*
X210282Y1469112D01*
X236453Y1462100D01*
Y1413900D01*
X210282Y1406887D01*
X186818Y1393340D01*
X167660Y1374182D01*
X154112Y1350718D01*
X147100Y1324547D01*
Y1323700D01*
X249999D01*
X360384D01*
X368977Y1330292D01*
X400140Y1341429D01*
X442167Y1299403D01*
X457917Y1287317D01*
X476259Y1279720D01*
X495942Y1277129D01*
X734836D01*
X754519Y1279720D01*
X772861Y1287317D01*
X788612Y1299403D01*
X1006034Y1516826D01*
X1025704Y1525440D01*
X1050527Y1513007D01*
X1058457Y1458678D01*
X827866Y1228087D01*
X815779Y1212336D01*
X808182Y1193994D01*
X805591Y1174311D01*
Y1097984D01*
X802061Y1091871D01*
X796241Y1070151D01*
Y1047664D01*
X802061Y1025944D01*
X813304Y1006471D01*
X829205Y990571D01*
X848678Y979327D01*
X870398Y973508D01*
X892884D01*
X914604Y979327D01*
X929183Y987744D01*
X949045Y982074D01*
X979183Y964964D01*
Y464001D01*
X855497Y340315D01*
X848678Y338488D01*
X842565Y334958D01*
X621910D01*
X615797Y338488D01*
X594077Y344307D01*
X571591D01*
X549871Y338488D01*
X530397Y327244D01*
X514497Y311344D01*
X503254Y291871D01*
X497434Y270151D01*
Y247664D01*
X503254Y225944D01*
X514497Y206471D01*
X530397Y190571D01*
X549871Y179328D01*
X571591Y173508D01*
X594077D01*
X615797Y179328D01*
X621910Y182857D01*
X842565D01*
X848678Y179328D01*
X870398Y173508D01*
X892884D01*
X914604Y179328D01*
X934078Y190571D01*
X949978Y206471D01*
X961221Y225944D01*
X963048Y232763D01*
X1109009Y378724D01*
X1121095Y394474D01*
X1124242Y402072D01*
X1128693Y412816D01*
X1131284Y432500D01*
Y1016943D01*
X1361678Y1247337D01*
X1420391Y1236300D01*
X1430826Y1217783D01*
X1425006Y1196064D01*
Y1173578D01*
X1430826Y1151857D01*
X1438182Y1139116D01*
Y1040129D01*
X1440774Y1020446D01*
X1448371Y1002104D01*
X1460457Y986354D01*
X1519036Y927775D01*
X1534530Y915886D01*
X1924507Y525908D01*
Y484442D01*
X1923334Y475530D01*
Y437408D01*
X1915978Y424667D01*
X1910158Y402947D01*
Y380461D01*
X1915978Y358740D01*
X1927221Y339267D01*
X1943121Y323367D01*
X1962595Y312124D01*
X1984315Y306304D01*
X2006801D01*
X2028521Y312124D01*
X2047995Y323367D01*
X2063895Y339267D01*
X2075138Y358740D01*
X2080958Y380461D01*
Y402947D01*
X2075435Y423557D01*
Y467792D01*
X2076608Y476703D01*
Y557409D01*
X2074017Y577093D01*
X2066420Y595435D01*
X2054334Y611185D01*
X1630192Y1035327D01*
X1614698Y1047216D01*
X1590284Y1071631D01*
Y1152967D01*
X1595806Y1173578D01*
Y1196064D01*
X1589986Y1217784D01*
X1586457Y1223897D01*
Y1260338D01*
X1710532Y1384413D01*
X1722618Y1400164D01*
X1730216Y1418506D01*
X1732807Y1438189D01*
Y1569824D01*
X1737096Y1574113D01*
X1750314Y1597007D01*
X1757156Y1622542D01*
Y1648978D01*
X1750314Y1674513D01*
X1737096Y1697407D01*
X1732807Y1701696D01*
Y1858935D01*
X1964533Y2090661D01*
X1976618Y2106411D01*
X1984216Y2124753D01*
X1986807Y2144436D01*
Y2331824D01*
X1991096Y2336113D01*
X2004314Y2359007D01*
X2011156Y2384542D01*
Y2410978D01*
X2004314Y2436513D01*
X1991096Y2459407D01*
X1972403Y2478100D01*
X1949509Y2491318D01*
X1923974Y2498160D01*
X1897538D01*
X1872003Y2491318D01*
X1849109Y2478100D01*
X1830416Y2459407D01*
X1817199Y2436513D01*
X1810357Y2410978D01*
Y2384542D01*
X1817199Y2359007D01*
X1830416Y2336113D01*
X1834706Y2331824D01*
Y2175938D01*
X1602981Y1944212D01*
X1590894Y1928462D01*
X1583297Y1910120D01*
X1580706Y1890436D01*
Y1701696D01*
X1576416Y1697407D01*
X1563199Y1674513D01*
X1556357Y1648978D01*
Y1622542D01*
X1563199Y1597007D01*
X1576416Y1574113D01*
X1580706Y1569824D01*
Y1469691D01*
X1528807Y1417792D01*
X1478807Y1438503D01*
Y1569824D01*
X1483096Y1574113D01*
X1496314Y1597007D01*
X1503156Y1622542D01*
Y1648978D01*
X1496314Y1674513D01*
X1483096Y1697407D01*
X1464403Y1716100D01*
X1441509Y1729318D01*
X1415974Y1736160D01*
X1389538D01*
X1364003Y1729318D01*
X1341109Y1716100D01*
X1322416Y1697407D01*
X1309199Y1674513D01*
X1302357Y1648978D01*
Y1622542D01*
X1309199Y1597007D01*
X1322416Y1574113D01*
X1326706Y1569824D01*
Y1427468D01*
X1037935Y1138697D01*
X1024638Y1137998D01*
X984110Y1155583D01*
X984477Y1169595D01*
X1202532Y1387650D01*
X1214618Y1403401D01*
X1217765Y1410998D01*
X1222216Y1421742D01*
X1224807Y1441426D01*
Y1535360D01*
X1249156D01*
Y1736160D01*
X1048357D01*
Y1696415D01*
X1002021D01*
X988582Y1694646D01*
X975994Y1698775D01*
X940015Y1726864D01*
X939628Y1727520D01*
X940243Y1746418D01*
X1071035Y1877209D01*
X1342237D01*
X1361920Y1879801D01*
X1380262Y1887398D01*
X1396012Y1899484D01*
X1710532Y2214004D01*
X1722618Y2229754D01*
X1730216Y2248096D01*
X1732807Y2267780D01*
Y2331824D01*
X1737096Y2336113D01*
X1750314Y2359007D01*
X1757156Y2384542D01*
Y2410978D01*
X1750314Y2436513D01*
X1737096Y2459407D01*
X1718403Y2478100D01*
X1695509Y2491318D01*
X1669974Y2498160D01*
X1643538D01*
X1618003Y2491318D01*
X1595109Y2478100D01*
X1576416Y2459407D01*
X1563199Y2436513D01*
X1556357Y2410978D01*
Y2384542D01*
X1563199Y2359007D01*
X1576416Y2336113D01*
X1568362Y2286937D01*
X1524455Y2243030D01*
X1478503Y2260528D01*
X1475132Y2264418D01*
X1477321Y2281048D01*
Y2330338D01*
X1483096Y2336113D01*
X1496314Y2359007D01*
X1503156Y2384542D01*
Y2410978D01*
X1496314Y2436513D01*
X1483096Y2459407D01*
X1464403Y2478100D01*
X1441509Y2491318D01*
X1415974Y2498160D01*
X1389538D01*
X1364003Y2491318D01*
X1341109Y2478100D01*
X1322416Y2459407D01*
X1309199Y2436513D01*
X1302357Y2410978D01*
Y2384542D01*
X1309199Y2359007D01*
X1322416Y2336113D01*
X1325220Y2333309D01*
Y2312549D01*
X1269732Y2257061D01*
X1220689D01*
X1216521Y2263636D01*
X1210403Y2317420D01*
X1229096Y2336113D01*
X1242314Y2359007D01*
X1249156Y2384542D01*
Y2410978D01*
X1242314Y2436513D01*
X1229096Y2459407D01*
X1224807Y2463696D01*
Y2890519D01*
X1222216Y2910202D01*
X1214618Y2928544D01*
X1202532Y2944295D01*
X1089326Y3057501D01*
X1073575Y3069587D01*
X1055233Y3077185D01*
X1035550Y3079776D01*
X538973D01*
X496712Y3098460D01*
X496712Y3098461D01*
X496712D01*
X492590Y3129776D01*
X497849Y3131185D01*
X511214Y3134766D01*
X534678Y3148313D01*
X553837Y3167472D01*
X567384Y3190936D01*
X574396Y3217107D01*
Y3244201D01*
X567384Y3270372D01*
X553837Y3293836D01*
X534678Y3312994D01*
X511214Y3326541D01*
X485043Y3333554D01*
X476148D01*
X416411Y3393291D01*
X400661Y3405377D01*
X382319Y3412974D01*
X362636Y3415566D01*
X352900Y3424103D01*
Y3445900D01*
D02*
G37*
G36*
X3894623Y2129178D02*
X3423921D01*
Y1758442D01*
X3894623D01*
Y2129178D01*
D02*
G37*
G36*
X2532673Y1824598D02*
Y1752289D01*
X2604982D01*
X2599553Y1772552D01*
X2588310Y1792026D01*
X2572410Y1807926D01*
X2552936Y1819169D01*
X2532673Y1824598D01*
D02*
G37*
G36*
X2507273Y1824599D02*
X2487010Y1819169D01*
X2467536Y1807926D01*
X2451636Y1792026D01*
X2440393Y1772552D01*
X2434964Y1752289D01*
X2507273D01*
Y1824599D01*
D02*
G37*
G36*
X2604983Y1726889D02*
X2532673D01*
Y1654580D01*
X2552936Y1660009D01*
X2572410Y1671252D01*
X2588310Y1687152D01*
X2599553Y1706626D01*
X2604983Y1726889D01*
D02*
G37*
G36*
X2507273D02*
X2434963D01*
X2440393Y1706626D01*
X2451636Y1687152D01*
X2467536Y1671252D01*
X2487010Y1660009D01*
X2507273Y1654579D01*
Y1726889D01*
D02*
G37*
G36*
X1923974Y1736160D02*
X1923457D01*
Y1648459D01*
X2011156D01*
Y1648978D01*
X2004314Y1674513D01*
X1991096Y1697407D01*
X1972403Y1716100D01*
X1949509Y1729318D01*
X1923974Y1736160D01*
D02*
G37*
G36*
X1898057D02*
X1897538D01*
X1872003Y1729318D01*
X1849109Y1716100D01*
X1830416Y1697407D01*
X1817199Y1674513D01*
X1810357Y1648978D01*
Y1648459D01*
X1898057D01*
Y1736160D01*
D02*
G37*
G36*
X2011156Y1623059D02*
X1923457D01*
Y1535360D01*
X1923974D01*
X1949509Y1542202D01*
X1972403Y1555420D01*
X1991096Y1574113D01*
X2004314Y1597007D01*
X2011156Y1622542D01*
Y1623059D01*
D02*
G37*
G36*
X1898057D02*
X1810357D01*
Y1622542D01*
X1817199Y1597007D01*
X1830416Y1574113D01*
X1849109Y1555420D01*
X1872003Y1542202D01*
X1897538Y1535360D01*
X1898057D01*
Y1623059D01*
D02*
G37*
G36*
X1771740Y1276713D02*
Y1204403D01*
X1844049D01*
X1838619Y1224667D01*
X1827376Y1244140D01*
X1811476Y1260040D01*
X1792003Y1271283D01*
X1771740Y1276713D01*
D02*
G37*
G36*
X1746340Y1276713D02*
X1726076Y1271283D01*
X1706603Y1260040D01*
X1690702Y1244140D01*
X1679459Y1224667D01*
X1674030Y1204403D01*
X1746340D01*
Y1276713D01*
D02*
G37*
G36*
X1844049Y1179003D02*
X1771740D01*
Y1106694D01*
X1792003Y1112124D01*
X1811476Y1123367D01*
X1827376Y1139267D01*
X1838619Y1158740D01*
X1844049Y1179003D01*
D02*
G37*
G36*
X1746340D02*
X1674030D01*
X1679459Y1158740D01*
X1690702Y1139267D01*
X1706603Y1123367D01*
X1726076Y1112124D01*
X1746340Y1106694D01*
Y1179003D01*
D02*
G37*
G36*
X2244923Y1660300D02*
X2222436D01*
X2200716Y1654480D01*
X2181243Y1643237D01*
X2165343Y1627337D01*
X2154100Y1607863D01*
X2148280Y1586143D01*
Y1563657D01*
X2154100Y1541937D01*
X2157770Y1535579D01*
Y1461467D01*
X1969413Y1273110D01*
X1962595Y1271283D01*
X1943121Y1260040D01*
X1927221Y1244140D01*
X1915978Y1224667D01*
X1910158Y1202947D01*
Y1180460D01*
X1915978Y1158740D01*
X1927221Y1139267D01*
X1943121Y1123367D01*
X1962595Y1112124D01*
X1984315Y1106304D01*
X2006801D01*
X2028521Y1112124D01*
X2047995Y1123367D01*
X2063895Y1139267D01*
X2075138Y1158740D01*
X2076965Y1165559D01*
X2287597Y1376191D01*
X2299683Y1391941D01*
X2302830Y1399538D01*
X2307280Y1410283D01*
X2309871Y1429966D01*
Y1536069D01*
X2313260Y1541937D01*
X2319079Y1563657D01*
Y1586143D01*
X2313260Y1607863D01*
X2302016Y1627337D01*
X2286116Y1643237D01*
X2266643Y1654480D01*
X2244923Y1660300D01*
D02*
G37*
G36*
X3871095Y1218450D02*
X3848609D01*
X3826888Y1212631D01*
X3807415Y1201387D01*
X3791515Y1185487D01*
X3780272Y1166014D01*
X3774452Y1144294D01*
Y1121808D01*
X3780272Y1100087D01*
X3791515Y1080614D01*
X3807415Y1064714D01*
X3826888Y1053471D01*
X3848609Y1047651D01*
X3871095D01*
X3892815Y1053471D01*
X3912288Y1064714D01*
X3928188Y1080614D01*
X3939432Y1100087D01*
X3945251Y1121808D01*
Y1144294D01*
X3939432Y1166014D01*
X3928188Y1185487D01*
X3912288Y1201387D01*
X3892815Y1212631D01*
X3871095Y1218450D01*
D02*
G37*
G36*
X2904303Y1530660D02*
X2881817D01*
X2860097Y1524840D01*
X2840623Y1513597D01*
X2824723Y1497697D01*
X2813480Y1478223D01*
X2807660Y1456503D01*
Y1444147D01*
X2581964Y1218450D01*
X2504452D01*
Y1047651D01*
X2675251D01*
Y1125163D01*
X2912015Y1361927D01*
X2926023Y1365680D01*
X2945497Y1376923D01*
X2961397Y1392823D01*
X2972640Y1412297D01*
X2978460Y1434017D01*
Y1456503D01*
X2972640Y1478223D01*
X2961397Y1497697D01*
X2945497Y1513597D01*
X2926023Y1524840D01*
X2904303Y1530660D01*
D02*
G37*
G36*
X352900Y1298300D02*
X249999D01*
X147100D01*
Y1297453D01*
X154112Y1271282D01*
X167660Y1247818D01*
X186818Y1228659D01*
X210282Y1215112D01*
X236452Y1208100D01*
Y1159900D01*
X210282Y1152887D01*
X186818Y1139340D01*
X167660Y1120182D01*
X154112Y1096718D01*
X147100Y1070547D01*
Y1043453D01*
X154112Y1017282D01*
X167660Y993818D01*
X186818Y974659D01*
X210282Y961112D01*
X236453Y954100D01*
X263547D01*
X289718Y961112D01*
X313182Y974659D01*
X320426Y981903D01*
X545410D01*
X549871Y979327D01*
X571591Y973508D01*
X594077D01*
X615797Y979327D01*
X635271Y990571D01*
X651171Y1006471D01*
X662414Y1025944D01*
X668234Y1047664D01*
Y1070151D01*
X662414Y1091871D01*
X651171Y1111344D01*
X635271Y1127244D01*
X615797Y1138487D01*
X594077Y1144307D01*
X571591D01*
X549871Y1138487D01*
X542106Y1134004D01*
X318518D01*
X313182Y1139340D01*
X289718Y1152887D01*
X263548Y1159900D01*
Y1208100D01*
X289718Y1215112D01*
X313182Y1228659D01*
X332340Y1247818D01*
X345888Y1271282D01*
X352900Y1297453D01*
Y1298300D01*
D02*
G37*
G36*
X3364551Y964060D02*
Y891751D01*
X3436861D01*
X3431431Y912014D01*
X3420188Y931487D01*
X3404288Y947387D01*
X3384814Y958631D01*
X3364551Y964060D01*
D02*
G37*
G36*
X3339151D02*
X3318888Y958631D01*
X3299415Y947387D01*
X3283514Y931487D01*
X3272271Y912014D01*
X3266842Y891751D01*
X3339151D01*
Y964060D01*
D02*
G37*
G36*
X3436861Y866351D02*
X3364551D01*
Y794041D01*
X3384814Y799471D01*
X3404288Y810714D01*
X3420188Y826614D01*
X3431431Y846087D01*
X3436861Y866351D01*
D02*
G37*
G36*
X3339151D02*
X3266842D01*
X3272271Y846087D01*
X3283514Y826614D01*
X3299415Y810714D01*
X3318888Y799471D01*
X3339151Y794041D01*
Y866351D01*
D02*
G37*
G36*
X1770282Y477103D02*
X1747796D01*
X1726076Y471284D01*
X1719963Y467754D01*
X1530854D01*
X1521649Y470221D01*
X1499163D01*
X1477443Y464401D01*
X1457969Y453158D01*
X1442069Y437257D01*
X1430826Y417784D01*
X1425006Y396064D01*
Y373578D01*
X1430826Y351858D01*
X1442069Y332384D01*
X1457969Y316484D01*
X1477443Y305241D01*
X1499163Y299421D01*
X1521649D01*
X1543369Y305241D01*
X1561404Y315653D01*
X1719963D01*
X1726076Y312124D01*
X1747796Y306304D01*
X1770282D01*
X1792003Y312124D01*
X1811476Y323367D01*
X1827376Y339267D01*
X1838619Y358740D01*
X1844439Y380461D01*
Y402947D01*
X1838619Y424667D01*
X1827376Y444140D01*
X1811476Y460040D01*
X1792003Y471284D01*
X1770282Y477103D01*
D02*
G37*
%LPD*%
G36*
X769497Y2499123D02*
X785397Y2483223D01*
X787625Y2481936D01*
Y2239589D01*
X790217Y2219905D01*
X797814Y2201564D01*
X809900Y2185813D01*
X868479Y2127234D01*
X884229Y2115148D01*
X891827Y2112001D01*
X902571Y2107551D01*
X922255Y2104959D01*
X1301233D01*
X1317863Y2107149D01*
X1321753Y2103778D01*
X1334878Y2069311D01*
X1302645Y2029311D01*
X1039533D01*
X1019850Y2026719D01*
X1001508Y2019122D01*
X985757Y2007036D01*
X959704Y1980983D01*
X950560Y1979371D01*
X933402Y1980870D01*
X905639Y1990140D01*
X901570Y1993559D01*
X891609Y2006539D01*
X646297Y2251851D01*
Y2343047D01*
X651820Y2363657D01*
Y2386143D01*
X646000Y2407863D01*
X634757Y2427337D01*
X618857Y2443237D01*
X599383Y2454480D01*
X597632Y2454949D01*
X604214Y2504949D01*
X766133D01*
X769497Y2499123D01*
D02*
G37*
D10*
X2200716Y3712816D02*
Y3723640D01*
X2096977Y3609076D02*
X2200716Y3712816D01*
X2096977Y3063940D02*
Y3609076D01*
X2100583Y3074155D02*
X2107191D01*
X2519973Y2239589D02*
X2519973D01*
X2107191Y3074155D02*
X2263690Y3230654D01*
X2789725D01*
X2096977Y3070548D02*
X2100583Y3074155D01*
X1638976Y2816760D02*
Y3063940D01*
X2893060Y2245260D02*
Y3117319D01*
X2789725Y3220654D02*
X2893060Y3117319D01*
X2519973Y2239589D02*
X2522809Y2242425D01*
X2890225D01*
X2893060Y2245260D01*
Y1436259D02*
Y1445260D01*
X2589852Y1133051D02*
X2893060Y1436259D01*
X2233680Y2374900D02*
Y2569761D01*
X1869357Y2934084D02*
X2233680Y2569761D01*
X2589852Y1133051D02*
X2609852Y1153051D01*
X2210776Y3962400D02*
X2218430Y3954746D01*
X2387440D01*
X2538083Y3804104D01*
X2200716Y3723640D02*
X2205746Y3728670D01*
Y3957370D01*
X2210776Y3962400D01*
X1869357Y2934084D02*
Y3062560D01*
X1400717Y3723640D02*
X1405746Y3728670D01*
X1299117Y3622040D02*
X1400717Y3723640D01*
X1867976Y3063940D02*
Y3722940D01*
X745697Y3647040D02*
X770696Y3622040D01*
X1299117D01*
X1400717Y3723640D02*
X1401067Y3723290D01*
X1867626D01*
X1867976Y3722940D01*
Y3063940D02*
X1869357Y3062560D01*
X1405746Y3957370D02*
X1410776Y3962400D01*
X1405746Y3728670D02*
Y3957370D01*
D11*
X770696Y3622040D02*
D03*
D12*
Y3872040D02*
D03*
X1438977Y2816760D02*
D03*
D13*
X881641Y258908D02*
D03*
Y1058907D02*
D03*
X1995558Y1191703D02*
D03*
Y391704D02*
D03*
X1510406Y384821D02*
D03*
Y1184821D02*
D03*
X837833Y2551560D02*
D03*
Y1751560D02*
D03*
X566420Y2374900D02*
D03*
Y1574900D02*
D03*
X582834Y258908D02*
D03*
Y1058907D02*
D03*
X2233680Y1574900D02*
D03*
Y2374900D02*
D03*
X2519973Y2239589D02*
D03*
Y1739589D02*
D03*
X1400717Y3723640D02*
D03*
X2200716D02*
D03*
X2540000Y2809240D02*
D03*
X3340000D02*
D03*
X2538083Y3804104D02*
D03*
Y3004104D02*
D03*
X3859852Y1133051D02*
D03*
X3351851Y879051D02*
D03*
X2893060Y1445260D02*
D03*
Y2245260D02*
D03*
X1410776Y3962400D02*
D03*
X2210776D02*
D03*
X1759039Y391704D02*
D03*
Y1191703D02*
D03*
D14*
X1425497Y3230654D02*
D03*
X471496D02*
D03*
X250000Y1057000D02*
D03*
Y1311000D02*
D03*
Y1565000D02*
D03*
Y1819000D02*
D03*
Y2073000D02*
D03*
Y2327000D02*
D03*
Y2581000D02*
D03*
Y2835000D02*
D03*
Y3089000D02*
D03*
D15*
X1910756Y2397760D02*
D03*
X1656756D02*
D03*
X1402756D02*
D03*
X1148756D02*
D03*
X1910756Y1635760D02*
D03*
X1656756D02*
D03*
X1402756D02*
D03*
D16*
X1148756D02*
D03*
D17*
X250000Y3343000D02*
D03*
D18*
X2589852Y1133051D02*
D03*
D19*
X1638976Y2816760D02*
D03*
D20*
X2399173Y2592243D02*
D03*
X3118172Y2490040D02*
D03*
X2701464Y2495499D02*
D03*
X1851660Y2606040D02*
D03*
D21*
X2096977Y3063940D02*
D03*
D22*
X1867976D02*
D03*
X1638976D02*
D03*
D23*
X1867976Y3722940D02*
D03*
D24*
X1425497Y3230654D02*
X1436020Y3220130D01*
X1482786D01*
X1638976Y3063940D01*
X2233821Y1429966D02*
Y1574900D01*
X2539041Y2810199D02*
X2540000Y2809240D01*
X2539041Y2810199D02*
Y3003145D01*
X2538083Y3004104D02*
X2539041Y3003145D01*
X1510406Y384821D02*
X1515818D01*
X1522701Y391704D01*
X1759039D01*
X1995558D02*
X1999385Y395530D01*
Y475530D01*
X2000558Y476703D01*
Y557409D01*
X1576416Y981551D02*
X2000558Y557409D01*
X1572812Y981551D02*
X1576416D01*
X1514233Y1040129D02*
X1572812Y981551D01*
X1514233Y1040129D02*
Y1180994D01*
X1510406Y1184821D02*
X1514233Y1180994D01*
X1656756Y1635760D02*
Y1890436D01*
X1995558Y1191703D02*
X2233821Y1429966D01*
X1656756Y1438189D02*
Y1635760D01*
X1510406Y1291839D02*
X1656756Y1438189D01*
X1510406Y1184821D02*
Y1291839D01*
X1402756Y1395967D02*
Y1635760D01*
X1055233Y1048444D02*
X1402756Y1395967D01*
X881641Y1058907D02*
Y1174311D01*
X1148756Y1441426D01*
Y1635760D01*
X881641Y258908D02*
X1055233Y432500D01*
Y1048444D01*
X581880Y1057954D02*
X582834Y1058907D01*
X250954Y1057954D02*
X581880D01*
X250000Y1057000D02*
X250954Y1057954D01*
X326347Y3003725D02*
X1035550D01*
X251595Y3078476D02*
X326347Y3003725D01*
X1035550D02*
X1148756Y2890519D01*
Y2397760D02*
Y2890519D01*
X471496Y3230654D02*
X488272Y3213878D01*
X362635Y3339515D02*
X471496Y3230654D01*
X582834Y258908D02*
X881641D01*
X1133360Y1620364D02*
X1148756Y1635760D01*
X734836Y1353179D02*
X1002021Y1620364D01*
X1133360D01*
X495942Y1353179D02*
X734836D01*
X264883Y1565000D02*
X292383Y1537500D01*
X311621D01*
X250000Y1565000D02*
X264883D01*
X311621Y1537500D02*
X495942Y1353179D01*
X250000Y2073000D02*
X392911D01*
X562593Y1578727D02*
Y1903318D01*
X392911Y2073000D02*
X562593Y1903318D01*
X837833Y1751560D02*
X1039533Y1953260D01*
X1342237D01*
X837833Y1751560D02*
Y1952763D01*
X570247Y2220350D02*
Y2371073D01*
Y2220350D02*
X837833Y1952763D01*
X802982Y2581000D02*
X832421Y2551560D01*
X250000Y2581000D02*
X802982D01*
X832421Y2551560D02*
X837833D01*
X562593Y1578727D02*
X566420Y1574900D01*
Y2374900D02*
X570247Y2371073D01*
X1910756Y2397760D02*
X1913348D01*
X1910756Y2144436D02*
Y2397760D01*
X1656756Y1890436D02*
X1910756Y2144436D01*
X863676Y2239589D02*
Y2520306D01*
X837833Y2546148D02*
Y2551560D01*
Y2546148D02*
X863676Y2520306D01*
Y2239589D02*
X922255Y2181010D01*
X1301233D01*
X1401271Y2281048D01*
Y2396274D01*
X1402756Y2397760D01*
X1342237Y1953260D02*
X1656756Y2267780D01*
Y2397760D01*
D25*
X3509320Y2043778D02*
Y2010455D01*
X3542643D01*
Y2043778D01*
X3509320D01*
X3675933Y1877165D02*
X3709256Y1843842D01*
X3775901D01*
X3809224Y1877165D01*
Y1910487D01*
X3775901Y1943810D01*
X3742578D01*
X3775901D01*
X3809224Y1977133D01*
Y2010455D01*
X3775901Y2043778D01*
X3709256D01*
X3675933Y2010455D01*
D26*
X266983Y3654040D02*
Y3687362D01*
Y3670701D01*
X167015D01*
X183676Y3654040D01*
%TF.MD5,3e0de8de9ad5d4b56ddefe887eeaaccf*%
M02*
