%TF.GenerationSoftware,Altium Limited,Altium Designer,25.2.1 (25)*%
G04 Layer_Color=8388736*
%FSLAX45Y45*%
%MOMM*%
%TF.SameCoordinates,950212E9-F601-4B00-AAF9-301F732ACFBD*%
%TF.FilePolarity,Positive*%
%TF.FileFunction,Other,Bottom_Assembly*%
%TF.Part,Single*%
G01*
G75*
%TA.AperFunction,NonConductor*%
%ADD27C,0.20000*%
G36*
X1876666Y3464445D02*
X1878238Y3465554D01*
X1878885Y3466109D01*
X1879532Y3466571D01*
X1880087Y3467034D01*
X1880457Y3467404D01*
X1880734Y3467681D01*
X1880827Y3467773D01*
X1881289Y3468236D01*
X1881751Y3468790D01*
X1882953Y3470085D01*
X1884340Y3471564D01*
X1885727Y3473136D01*
X1886929Y3474615D01*
X1887483Y3475262D01*
X1888038Y3475817D01*
X1888408Y3476279D01*
X1888685Y3476649D01*
X1888870Y3476834D01*
X1888963Y3476926D01*
X1890257Y3478406D01*
X1891459Y3479885D01*
X1892661Y3481179D01*
X1893678Y3482381D01*
X1894695Y3483491D01*
X1895620Y3484415D01*
X1896452Y3485340D01*
X1897191Y3486080D01*
X1897931Y3486819D01*
X1898486Y3487374D01*
X1898948Y3487836D01*
X1899410Y3488299D01*
X1899965Y3488761D01*
X1900150Y3488946D01*
X1901722Y3490240D01*
X1903108Y3491350D01*
X1904495Y3492274D01*
X1905605Y3493014D01*
X1906622Y3493569D01*
X1907361Y3493938D01*
X1907824Y3494123D01*
X1908009Y3494216D01*
X1909395Y3494771D01*
X1910782Y3495140D01*
X1912077Y3495510D01*
X1913186Y3495695D01*
X1914203Y3495788D01*
X1914943Y3495880D01*
X1915405D01*
X1915590D01*
X1916977Y3495788D01*
X1918271Y3495603D01*
X1919566Y3495418D01*
X1920675Y3495048D01*
X1922894Y3494123D01*
X1924651Y3493199D01*
X1925483Y3492644D01*
X1926130Y3492182D01*
X1926777Y3491719D01*
X1927239Y3491257D01*
X1927609Y3490887D01*
X1927979Y3490702D01*
X1928072Y3490518D01*
X1928164Y3490425D01*
X1929089Y3489408D01*
X1929921Y3488299D01*
X1930568Y3487097D01*
X1931123Y3485895D01*
X1932047Y3483491D01*
X1932694Y3481087D01*
X1932879Y3480070D01*
X1933064Y3479053D01*
X1933157Y3478128D01*
X1933249Y3477389D01*
X1933342Y3476742D01*
Y3475817D01*
X1933249Y3474153D01*
X1933157Y3472581D01*
X1932879Y3471102D01*
X1932602Y3469715D01*
X1932232Y3468421D01*
X1931862Y3467219D01*
X1931400Y3466109D01*
X1930938Y3465092D01*
X1930475Y3464168D01*
X1930013Y3463428D01*
X1929643Y3462781D01*
X1929274Y3462226D01*
X1928996Y3461764D01*
X1928719Y3461486D01*
X1928626Y3461301D01*
X1928534Y3461209D01*
X1927609Y3460284D01*
X1926592Y3459452D01*
X1925483Y3458620D01*
X1924373Y3457973D01*
X1922154Y3456864D01*
X1919935Y3456124D01*
X1918918Y3455847D01*
X1917901Y3455569D01*
X1917069Y3455384D01*
X1916330Y3455199D01*
X1915682Y3455107D01*
X1915220D01*
X1914943Y3455014D01*
X1914850D01*
X1914018Y3463058D01*
X1916145Y3463243D01*
X1917994Y3463613D01*
X1919658Y3464168D01*
X1920952Y3464815D01*
X1922062Y3465369D01*
X1922802Y3465924D01*
X1923264Y3466294D01*
X1923449Y3466479D01*
X1924558Y3467866D01*
X1925390Y3469345D01*
X1926038Y3470917D01*
X1926407Y3472304D01*
X1926685Y3473598D01*
X1926777Y3474708D01*
X1926870Y3475077D01*
Y3475632D01*
X1926777Y3477574D01*
X1926407Y3479330D01*
X1925853Y3480810D01*
X1925298Y3482104D01*
X1924651Y3483121D01*
X1924188Y3483768D01*
X1923819Y3484231D01*
X1923634Y3484415D01*
X1922339Y3485525D01*
X1921045Y3486357D01*
X1919751Y3487004D01*
X1918456Y3487374D01*
X1917439Y3487651D01*
X1916515Y3487744D01*
X1915960Y3487836D01*
X1915867D01*
X1915775D01*
X1914111Y3487651D01*
X1912354Y3487282D01*
X1910782Y3486634D01*
X1909303Y3485987D01*
X1908101Y3485248D01*
X1907084Y3484600D01*
X1906714Y3484415D01*
X1906437Y3484231D01*
X1906344Y3484046D01*
X1906252D01*
X1905235Y3483306D01*
X1904218Y3482381D01*
X1903108Y3481364D01*
X1901999Y3480255D01*
X1899780Y3477944D01*
X1897561Y3475632D01*
X1896544Y3474430D01*
X1895620Y3473413D01*
X1894787Y3472396D01*
X1894048Y3471564D01*
X1893493Y3470917D01*
X1893031Y3470362D01*
X1892753Y3469992D01*
X1892661Y3469900D01*
X1890719Y3467588D01*
X1888870Y3465462D01*
X1887206Y3463705D01*
X1885819Y3462318D01*
X1884617Y3461117D01*
X1883785Y3460284D01*
X1883230Y3459822D01*
X1883138Y3459637D01*
X1883046D01*
X1881474Y3458343D01*
X1879994Y3457326D01*
X1878515Y3456401D01*
X1877221Y3455662D01*
X1876111Y3455107D01*
X1875279Y3454737D01*
X1874724Y3454552D01*
X1874632Y3454460D01*
X1874540D01*
X1873523Y3454090D01*
X1872598Y3453905D01*
X1871673Y3453720D01*
X1870841Y3453628D01*
X1870102Y3453535D01*
X1869547D01*
X1869177D01*
X1869085D01*
Y3495972D01*
X1876666D01*
Y3464445D01*
D02*
G37*
G36*
X1933064Y3435229D02*
X1896082D01*
X1893955D01*
X1891921Y3435044D01*
X1890165Y3434859D01*
X1888500Y3434582D01*
X1887021Y3434304D01*
X1885634Y3433934D01*
X1884432Y3433657D01*
X1883415Y3433287D01*
X1882583Y3432917D01*
X1881751Y3432548D01*
X1881196Y3432178D01*
X1880642Y3431900D01*
X1880272Y3431623D01*
X1879994Y3431438D01*
X1879902Y3431346D01*
X1879810Y3431253D01*
X1879070Y3430421D01*
X1878423Y3429497D01*
X1877406Y3427463D01*
X1876666Y3425336D01*
X1876204Y3423117D01*
X1875834Y3421083D01*
X1875741Y3420251D01*
Y3419419D01*
X1875649Y3418864D01*
Y3417940D01*
X1875741Y3415998D01*
X1876019Y3414241D01*
X1876296Y3412577D01*
X1876759Y3411283D01*
X1877128Y3410173D01*
X1877406Y3409341D01*
X1877683Y3408879D01*
X1877776Y3408694D01*
X1878608Y3407400D01*
X1879625Y3406290D01*
X1880642Y3405366D01*
X1881566Y3404718D01*
X1882491Y3404164D01*
X1883138Y3403701D01*
X1883600Y3403516D01*
X1883785Y3403424D01*
X1884617Y3403147D01*
X1885449Y3402962D01*
X1887391Y3402592D01*
X1889425Y3402315D01*
X1891459Y3402130D01*
X1893216Y3402037D01*
X1894048D01*
X1894695Y3401945D01*
X1895250D01*
X1895712D01*
X1895989D01*
X1896082D01*
X1933064D01*
Y3393439D01*
X1896082D01*
X1894233D01*
X1892476Y3393531D01*
X1890812Y3393624D01*
X1889240Y3393809D01*
X1887853Y3393993D01*
X1886559Y3394178D01*
X1885357Y3394456D01*
X1884247Y3394641D01*
X1883230Y3394826D01*
X1882398Y3395103D01*
X1881659Y3395288D01*
X1881104Y3395473D01*
X1880642Y3395658D01*
X1880272Y3395750D01*
X1880087Y3395843D01*
X1879994D01*
X1877960Y3396860D01*
X1876111Y3398154D01*
X1874632Y3399448D01*
X1873338Y3400835D01*
X1872321Y3402037D01*
X1871581Y3403054D01*
X1871396Y3403424D01*
X1871211Y3403701D01*
X1871026Y3403886D01*
Y3403979D01*
X1870009Y3406290D01*
X1869270Y3408694D01*
X1868715Y3411190D01*
X1868345Y3413502D01*
X1868253Y3414519D01*
X1868160Y3415536D01*
X1868068Y3416460D01*
Y3417200D01*
X1867975Y3417847D01*
Y3418679D01*
X1868160Y3422008D01*
X1868345Y3423487D01*
X1868530Y3424874D01*
X1868807Y3426261D01*
X1869085Y3427463D01*
X1869362Y3428572D01*
X1869732Y3429589D01*
X1870102Y3430514D01*
X1870379Y3431253D01*
X1870656Y3431993D01*
X1870934Y3432548D01*
X1871211Y3433010D01*
X1871304Y3433287D01*
X1871489Y3433472D01*
Y3433565D01*
X1872875Y3435599D01*
X1874447Y3437263D01*
X1875926Y3438557D01*
X1877406Y3439667D01*
X1878700Y3440499D01*
X1879717Y3441054D01*
X1880087Y3441238D01*
X1880364Y3441423D01*
X1880549Y3441516D01*
X1880642D01*
X1881751Y3441886D01*
X1882953Y3442255D01*
X1885449Y3442810D01*
X1888038Y3443180D01*
X1890534Y3443457D01*
X1891644Y3443550D01*
X1892753Y3443642D01*
X1893678D01*
X1894510Y3443735D01*
X1895157D01*
X1895620D01*
X1895989D01*
X1896082D01*
X1933064D01*
Y3435229D01*
D02*
G37*
D27*
X2203226Y3003725D02*
Y3783155D01*
X1532726D02*
X2203226D01*
X1532726Y3003725D02*
Y3783155D01*
Y3003725D02*
X2203226D01*
%TF.MD5,cf5ef2fda2f0eeaf84e903019c1aeb53*%
M02*
