%TF.GenerationSoftware,Altium Limited,Altium Designer,25.2.1 (25)*%
G04 Layer_Color=2752767*
%FSLAX45Y45*%
%MOMM*%
%TF.SameCoordinates,950212E9-F601-4B00-AAF9-301F732ACFBD*%
%TF.FilePolarity,Positive*%
%TF.FileFunction,Drawing*%
%TF.Part,Single*%
G01*
G75*
%TA.AperFunction,NonConductor*%
%ADD29C,0.12700*%
%ADD54C,0.16933*%
D29*
X770696Y3571240D02*
X796096Y3596640D01*
X821496D01*
X796096Y3622040D01*
X821496Y3647440D01*
X796096D01*
X770696Y3672840D01*
X745296Y3647440D01*
X719896D01*
X745296Y3622040D01*
X719896Y3596640D01*
X745296D01*
X770696Y3571240D01*
Y3821240D02*
X796096Y3846640D01*
X821496D01*
X796096Y3872040D01*
X821496Y3897440D01*
X796096D01*
X770696Y3922840D01*
X745296Y3897440D01*
X719896D01*
X745296Y3872040D01*
X719896Y3846640D01*
X745296D01*
X770696Y3821240D01*
X830841Y208108D02*
Y309708D01*
X932441D01*
Y208108D01*
X830841D01*
Y1008107D02*
Y1109707D01*
X932441D01*
Y1008107D01*
X830841D01*
X1944758Y1140903D02*
Y1242503D01*
X2046358D01*
Y1140903D01*
X1944758D01*
Y340904D02*
Y442504D01*
X2046358D01*
Y340904D01*
X1944758D01*
X1459606Y334021D02*
Y435621D01*
X1561206D01*
Y334021D01*
X1459606D01*
Y1134021D02*
Y1235621D01*
X1561206D01*
Y1134021D01*
X1459606D01*
X787033Y2500760D02*
Y2602360D01*
X888633D01*
Y2500760D01*
X787033D01*
Y1700760D02*
Y1802360D01*
X888633D01*
Y1700760D01*
X787033D01*
X515620Y2324100D02*
Y2425700D01*
X617220D01*
Y2324100D01*
X515620D01*
Y1524100D02*
Y1625700D01*
X617220D01*
Y1524100D01*
X515620D01*
X532034Y208108D02*
Y309708D01*
X633634D01*
Y208108D01*
X532034D01*
Y1008107D02*
Y1109707D01*
X633634D01*
Y1008107D01*
X532034D01*
X2182880Y1524100D02*
Y1625700D01*
X2284480D01*
Y1524100D01*
X2182880D01*
Y2324100D02*
Y2425700D01*
X2284480D01*
Y2324100D01*
X2182880D01*
X2469173Y2239589D02*
X2519973Y2290389D01*
X2570773Y2239589D01*
X2519973Y2188789D01*
X2469173Y2239589D01*
Y1739589D02*
X2519973Y1790389D01*
X2570773Y1739589D01*
X2519973Y1688789D01*
X2469173Y1739589D01*
X1859956Y2346960D02*
X1885356Y2397760D01*
X1859956Y2448560D01*
X1910756Y2423160D01*
X1961556Y2448560D01*
X1936156Y2397760D01*
X1961556Y2346960D01*
X1910756Y2372360D01*
X1859956Y2346960D01*
X1605956D02*
X1631356Y2397760D01*
X1605956Y2448560D01*
X1656756Y2423160D01*
X1707556Y2448560D01*
X1682156Y2397760D01*
X1707556Y2346960D01*
X1656756Y2372360D01*
X1605956Y2346960D01*
X1351956D02*
X1377356Y2397760D01*
X1351956Y2448560D01*
X1402756Y2423160D01*
X1453556Y2448560D01*
X1428156Y2397760D01*
X1453556Y2346960D01*
X1402756Y2372360D01*
X1351956Y2346960D01*
X1097956D02*
X1123356Y2397760D01*
X1097956Y2448560D01*
X1148756Y2423160D01*
X1199556Y2448560D01*
X1174156Y2397760D01*
X1199556Y2346960D01*
X1148756Y2372360D01*
X1097956Y2346960D01*
X1859956Y1584960D02*
X1885356Y1635760D01*
X1859956Y1686560D01*
X1910756Y1661160D01*
X1961556Y1686560D01*
X1936156Y1635760D01*
X1961556Y1584960D01*
X1910756Y1610360D01*
X1859956Y1584960D01*
X1605956D02*
X1631356Y1635760D01*
X1605956Y1686560D01*
X1656756Y1661160D01*
X1707556Y1686560D01*
X1682156Y1635760D01*
X1707556Y1584960D01*
X1656756Y1610360D01*
X1605956Y1584960D01*
X1351956D02*
X1377356Y1635760D01*
X1351956Y1686560D01*
X1402756Y1661160D01*
X1453556Y1686560D01*
X1428156Y1635760D01*
X1453556Y1584960D01*
X1402756Y1610360D01*
X1351956Y1584960D01*
X1097956D02*
X1123356Y1635760D01*
X1097956Y1686560D01*
X1148756Y1661160D01*
X1199556Y1686560D01*
X1174156Y1635760D01*
X1199556Y1584960D01*
X1148756Y1610360D01*
X1097956Y1584960D01*
X250000Y1006200D02*
X199200Y1107800D01*
X300800D01*
X250000Y1006200D01*
Y1260200D02*
X199200Y1361800D01*
X300800D01*
X250000Y1260200D01*
Y1514200D02*
X199200Y1615800D01*
X300800D01*
X250000Y1514200D01*
Y1768200D02*
X199200Y1869800D01*
X300800D01*
X250000Y1768200D01*
Y2022200D02*
X199200Y2123800D01*
X300800D01*
X250000Y2022200D01*
Y2276200D02*
X199200Y2377800D01*
X300800D01*
X250000Y2276200D01*
Y2530200D02*
X199200Y2631800D01*
X300800D01*
X250000Y2530200D01*
Y2784200D02*
X199200Y2885800D01*
X300800D01*
X250000Y2784200D01*
Y3038200D02*
X199200Y3139800D01*
X300800D01*
X250000Y3038200D01*
Y3292200D02*
X199200Y3393800D01*
X300800D01*
X250000Y3292200D01*
X1349917Y3672840D02*
Y3774440D01*
X1451517D01*
Y3672840D01*
X1349917D01*
X2149916D02*
Y3774440D01*
X2251516D01*
Y3672840D01*
X2149916D01*
X2489200Y2758440D02*
Y2860040D01*
X2590800D01*
Y2758440D01*
X2489200D01*
X3289200D02*
Y2860040D01*
X3390800D01*
Y2758440D01*
X3289200D01*
X2487283Y3753304D02*
Y3854904D01*
X2588883D01*
Y3753304D01*
X2487283D01*
Y2953304D02*
Y3054904D01*
X2588883D01*
Y2953304D01*
X2487283D01*
X3809052Y1133051D02*
X3859852Y1183851D01*
X3910652Y1133051D01*
X3859852Y1082251D01*
X3809052Y1133051D01*
X2539052D02*
X2589852Y1183851D01*
X2640652Y1133051D01*
X2589852Y1082251D01*
X2539052Y1133051D01*
X3301051Y879051D02*
X3351851Y929851D01*
X3402651Y879051D01*
X3351851Y828251D01*
X3301051Y879051D01*
X2842260Y1394460D02*
Y1496060D01*
X2943860D01*
Y1394460D01*
X2842260D01*
Y2194460D02*
Y2296060D01*
X2943860D01*
Y2194460D01*
X2842260D01*
X1359976Y3911600D02*
Y4013200D01*
X1461576D01*
Y3911600D01*
X1359976D01*
X2159976D02*
Y4013200D01*
X2261576D01*
Y3911600D01*
X2159976D01*
X1638976Y2765960D02*
X1664376Y2791360D01*
X1689776D01*
X1664376Y2816760D01*
X1689776Y2842160D01*
X1664376D01*
X1638976Y2867560D01*
X1613576Y2842160D01*
X1588176D01*
X1613576Y2816760D01*
X1588176Y2791360D01*
X1613576D01*
X1638976Y2765960D01*
X1438977D02*
X1464377Y2791360D01*
X1489777D01*
X1464377Y2816760D01*
X1489777Y2842160D01*
X1464377D01*
X1438977Y2867560D01*
X1413577Y2842160D01*
X1388177D01*
X1413577Y2816760D01*
X1388177Y2791360D01*
X1413577D01*
X1438977Y2765960D01*
X1708239Y340904D02*
Y442504D01*
X1809839D01*
Y340904D01*
X1708239D01*
Y1140903D02*
Y1242503D01*
X1809839D01*
Y1140903D01*
X1708239D01*
X2373773Y2566843D02*
Y2541443D01*
X2424573D01*
Y2566843D01*
X2449973D01*
Y2617643D01*
X2424573D01*
Y2643043D01*
X2373773D01*
Y2617643D01*
X2348373D01*
Y2566843D01*
X2373773D01*
X3092772Y2464640D02*
Y2439240D01*
X3143572D01*
Y2464640D01*
X3168972D01*
Y2515440D01*
X3143572D01*
Y2540840D01*
X3092772D01*
Y2515440D01*
X3067372D01*
Y2464640D01*
X3092772D01*
X2676064Y2470099D02*
Y2444699D01*
X2726864D01*
Y2470099D01*
X2752264D01*
Y2520899D01*
X2726864D01*
Y2546299D01*
X2676064D01*
Y2520899D01*
X2650664D01*
Y2470099D01*
X2676064D01*
X1826260Y2580640D02*
Y2555240D01*
X1877060D01*
Y2580640D01*
X1902460D01*
Y2631440D01*
X1877060D01*
Y2656840D01*
X1826260D01*
Y2631440D01*
X1800860D01*
Y2580640D01*
X1826260D01*
D54*
X1476297Y3230654D02*
G03*
X1476297Y3230654I-50800J0D01*
G01*
X522296D02*
G03*
X522296Y3230654I-50800J0D01*
G01*
%TF.MD5,33163403fa65b4c8bcdceabee0c7b69e*%
M02*
